<svg width="296" height="288" viewBox="0 0 296 288" fill="none" xmlns="http://www.w3.org/2000/svg">
<path d="M151.366 1.00022C151.366 0.986732 151.361 1.59726 151.243 1.82797C151.025 2.25613 150.759 2.58758 150.495 3.00061C150.138 3.56096 149.241 4.17792 149.149 4.86304C149.014 5.85972 148.054 6.76701 147.891 7.76016C147.754 8.59489 147.496 9.75297 147.125 10.5193C146.871 11.0446 147.076 11.7594 146.809 12.3128C146.684 12.5711 146.712 13.211 146.782 13.4854C146.949 14.141 147.531 15.1184 148.075 15.5931C149.103 16.4884 150.223 17.6476 151.525 18.2143C152.265 18.537 153.32 18.7968 154.138 18.7968C154.567 18.7968 154.545 20.5802 154.34 21.0041C154.031 21.6446 153.425 22.3232 153.425 23.0045C153.425 24.0189 154.2 24.186 155.167 24.5604C155.892 24.8411 156.276 25.4884 156.276 26.1775C156.276 27.1199 155.698 27.2122 154.727 27.2122C153.839 27.2122 152.799 27.2249 152.079 26.737C151.479 26.3305 150.767 25.9549 150.099 25.664C149.314 25.3219 148.744 25.0049 147.803 25.0049C146.82 25.0049 146.124 25.4657 145.348 25.8633C144.47 26.3134 143.843 27.3343 143.447 28.109C143 28.9856 142.31 29.7254 142.057 30.6612C141.833 31.49 141.705 32.2062 141.705 33.0754C141.705 34.0011 141.389 34.8326 141.389 35.735C141.389 36.4208 141.455 37.9994 142.427 38.2412C143.449 38.4957 144.548 38.1552 145.471 37.8657C146.044 37.6861 146.255 36.5012 146.457 36.0722C146.758 35.43 147.095 34.7747 147.407 34.1638C148.023 32.9554 148.815 33.9243 149.466 34.524C150.435 35.4184 151.174 36.6122 151.375 37.835C151.513 38.6741 152.078 40.2912 153.02 40.7015C154.192 41.2116 155.766 41.7714 156.531 40.5865C156.995 39.8685 157.509 39.3944 157.789 38.5938C158.024 37.9217 158.606 37.4709 158.933 36.8693C159.533 35.7655 159.479 34.4133 160.156 33.3514C160.472 32.8554 160.571 32.3103 160.71 31.7648C160.882 31.0909 161.459 30.3663 161.502 29.6955C161.548 28.9776 162.073 30.0778 162.206 30.3086C162.463 30.7571 162.927 31.2472 163.077 31.7035C163.388 32.6513 163.594 33.4757 163.561 34.524C163.542 35.1142 162.769 35.6378 162.769 36.1795C162.769 36.4962 164.525 36.845 164.819 36.877C166.076 37.0139 166.41 37.7197 166.887 38.6014C167.177 39.1393 166.887 39.7295 166.887 40.3182C166.887 40.8931 166.887 41.4679 166.887 42.0427C166.887 42.4549 166.938 42.7607 167.036 43.1464C167.161 43.6339 166.471 43.5094 166.095 43.4913C165.724 43.4733 165.165 43.247 164.828 43.1081C164.451 42.9527 163.995 42.4859 163.631 42.3953C163.034 42.2465 161.983 41.197 161.221 41.7285C160.498 42.2321 160.71 43.4171 160.71 44.1197C160.71 45.1745 161.911 45.9057 161.977 46.9402C162.093 48.7486 160.338 49.2489 158.739 49.8987C157.297 50.4849 155.762 51.1774 154.217 51.5235C153.215 51.7479 151.601 52.0193 150.574 51.6998C150.058 51.5392 149.888 51.6803 149.536 51.2859C149.26 50.9769 149.179 50.5825 148.955 50.2512C148.507 49.5876 147.636 49.2524 147.416 48.3888C147.199 47.5385 146.749 46.5028 146.263 45.6986C145.396 44.2643 143.345 43.3111 141.67 42.7708C140.863 42.5103 138.815 41.5767 138.547 42.8628C138.316 43.9686 137.728 44.7568 136.637 45.3154C136.249 45.5146 136.011 45.9178 135.81 46.2504C135.445 46.8547 135.099 47.3748 134.666 47.9672C134.087 48.7601 133.94 49.8342 133.435 50.6651C133.224 51.0112 132.973 51.4816 132.678 51.7688C132.157 52.2763 132.04 53.4577 131.807 54.1064C131.32 55.4639 131.569 57.1126 131.569 58.5287C131.569 59.6988 131.479 60.5903 132.599 61.3492C132.781 61.4726 133.074 61.3374 133.224 61.4488C133.456 61.6227 133.312 62.3479 133.312 62.6061C133.312 63.4925 133.443 64.3568 133.47 65.2273C133.491 65.8928 133.45 66.5965 133.751 67.22C133.945 67.62 133.795 68.1713 134.024 68.5306C134.64 69.4955 133.702 70.1434 132.836 70.5004C131.921 70.878 130.809 70.4998 129.915 70.9449C129.018 71.3917 128.56 72.4416 128.56 73.2902C128.56 74.2483 130.285 74.9305 131.006 75.5588C131.527 76.0125 131.93 76.5552 132.352 77.084C132.671 77.4833 132.833 77.9779 133.232 78.3257C133.461 78.5248 133.685 78.6812 133.787 78.9465" stroke="white" stroke-width="2.15853" stroke-linecap="round" stroke-linejoin="round"/>
<path d="M206.768 40.8721C206.768 43.7474 207.496 46.879 204.847 48.9564C204.393 49.3124 203.793 49.3169 203.242 49.5271C202.598 49.7724 202.081 50.1396 201.364 50.2784C200.789 50.3897 200.419 50.7298 199.89 50.9347C199.398 51.1249 198.79 51.1704 198.317 51.3532C197.124 51.815 196.656 52.0626 195.872 52.9415C195.128 53.7739 196.871 54.5341 197.531 54.5679C200.762 54.7335 200.479 57.772 200.479 59.875C200.479 60.5197 200.654 61.2887 200.13 61.7962C199.744 62.1701 199.291 62.3323 199.06 62.7854C198.519 63.8446 199.353 64.6452 199.988 65.5055C200.38 66.0369 201.312 66.4463 201.855 66.8941C202.391 67.3365 203.171 67.5561 203.777 67.9213C204.149 68.1461 204.382 68.8708 204.705 69.2148C205.192 69.734 205.557 70.7062 205.873 71.3358C206.114 71.8151 206.435 72.3089 206.768 72.7529C207.076 73.1634 207.721 73.4254 207.751 73.9132C207.833 75.2726 208.242 76.1484 206.67 76.9092C205.413 77.5177 204.41 78.2103 204.41 79.5628C204.41 80.3521 204.318 82.411 203.034 82.4731C201.768 82.5344 200.413 82.5268 199.202 82.2924C198.491 82.1548 197.024 81.4846 196.396 82.1688C195.747 82.8753 195.726 83.7973 195.555 84.6892C195.374 85.6348 194.451 86.6081 194.387 87.6091C194.327 88.5507 193.833 89.4794 193.59 90.4338C193.199 91.9663 192.299 91.4567 191.592 90.3482C191.011 89.4385 190.125 88.3125 189.375 87.5139C188.174 86.2347 187.558 84.64 186.809 83.1484C186.609 82.75 186.115 80.4689 185.499 80.628C184.792 80.8104 183.857 81.4362 183.228 81.7883C181.897 82.5339 180.439 83.2614 178.959 83.7571C177.466 84.2573 176.128 84.3563 174.537 84.3563C173.731 84.3563 172.158 84.1994 171.491 83.7476C171.092 83.4777 170.313 83.1902 170.06 82.8155C169.753 82.3605 170.429 82.126 170.803 81.6552C171.654 80.5837 173.099 80.0294 173.849 78.8685C174.795 77.4028 174.537 75.9589 174.537 74.2937C174.537 73.6486 172.539 72.3983 171.938 72.0301C171.25 71.6079 170.849 70.9059 170.115 70.4798C169.546 70.1492 169.099 69.5916 168.543 69.2148C167.814 68.7211 167.247 68.1302 166.479 67.7121C165.775 67.3288 165.738 66.231 165.682 65.6197C165.649 65.2558 165.405 64.1773 165.016 63.9838C164.205 63.5799 164.109 62.3086 163.728 61.6631C163.498 61.2749 162.833 61.021 162.461 60.731C161.966 60.3453 159.386 59.3376 158.814 59.9606C158.673 60.114 158.38 60.0224 158.181 60.0843C157.397 60.328 156.694 60.8716 155.954 61.2066C155.37 61.4703 154.937 61.9308 154.643 62.443C154.226 63.1695 152.807 65.8579 153.803 66.5517C154.399 66.9675 154.534 67.4871 155.364 67.7501C155.961 67.9392 156.593 68.2541 157.144 68.5205C157.892 68.8825 158.738 68.9628 159.491 69.2909C160.571 69.7612 161.538 70.3873 162.505 71.0029C163.182 71.4341 163.698 72.1498 164.208 72.7148C164.786 73.3558 165.423 73.963 165.889 74.6741C166.012 74.8604 167.389 77.4151 166.479 77.5084C165.726 77.5855 164.904 77.9782 164.132 78.1076C163.039 78.2907 161.864 78.578 160.769 78.6973C159.742 78.809 157.548 78.835 157.002 79.734C156.172 81.0997 157.709 81.7147 158.716 82.397C159.701 83.0644 161.228 83.0348 162.155 83.8427C162.766 84.3749 163.128 85.0328 163.728 85.5547C164.092 85.8724 164.844 86.3565 165.06 86.7531C165.259 87.1195 165.114 87.6224 165.3 88.0275C165.493 88.4478 165.764 88.8753 165.889 89.3115C166.067 89.9302 166.38 90.5384 166.676 91.1186C166.893 91.5445 167.598 91.7178 168.095 91.7178C169.236 91.7178 169.442 91.3625 170.213 90.6906C171.152 89.8724 172.498 89.3146 173.871 89.6824C175.83 90.2075 176.547 92.2268 178.315 92.8781C179.11 93.1713 179.772 93.6273 180.618 93.8578C181.153 94.0032 181.745 93.9557 182.3 94.029C182.939 94.1133 183.545 94.3872 184.167 94.4475C185.658 94.5918 188.041 94.8786 189.277 95.6934C191.986 97.4792 192.482 102.029 190.358 104.291C189.541 105.161 188.789 105.968 187.705 106.65C186.233 107.576 184.252 109.597 182.486 108.058C181.109 106.859 180.27 105.146 179.254 103.74C178.375 102.524 177.75 101.619 176.491 100.706C175.234 99.7931 173.578 99.2157 172.375 98.2233C171.943 97.867 169.989 97.0123 169.427 97.6241C169.09 97.9912 168.426 97.8593 168.095 98.0902C167.658 98.3948 167.789 99.3454 167.898 99.7641C168.245 101.084 169.754 101.817 170.213 103.017" stroke="white" stroke-width="2.15853" stroke-linecap="round" stroke-linejoin="round"/>
<path d="M174.341 141.707C174.341 140.961 174.464 140.129 174.232 139.406C174.017 138.738 173.596 138.143 173.555 137.428C173.519 136.813 172.745 136.266 172.583 135.63C172.142 133.901 173.248 133.319 175.029 133.319C175.787 133.319 175.645 133.432 175.76 132.71C175.878 131.969 176.373 131.475 176.699 130.836C177.138 129.977 177.507 129.755 178.512 129.724C179.54 129.692 181.544 128.921 181.798 127.926C181.905 127.507 180.523 126.377 180.237 125.995C179.9 125.547 179.089 124.594 179.058 124.074C178.924 121.862 179.424 119.507 179.745 117.321C179.883 116.385 180.49 115.202 180.433 114.316C180.378 113.443 178.605 112.38 177.955 111.814C176.012 110.122 174.339 108.151 172.375 106.441C171.364 105.56 170.017 104.504 170.017 103.188" stroke="white" stroke-width="2.15853" stroke-linecap="round" stroke-linejoin="round"/>
<path d="M148.988 74.7695C148.107 74.7695 147.481 76.5664 147.219 77.0807C146.703 78.0921 146.241 80.259 146.727 81.3606C146.956 81.8775 146.73 82.4541 146.869 82.987C147.128 83.9713 147.392 84.9535 147.655 85.9354C147.948 87.0251 148.923 89.1951 150.167 89.7969C150.739 90.074 150.993 90.6113 151.641 90.8621C152.375 91.1463 153.02 91.7631 153.704 92.1461C154.398 92.5347 154.748 92.8018 155.189 93.4301C155.457 93.8121 156.456 94.4404 156.456 94.8853C156.456 95.4919 156.441 95.9585 156.106 96.5116C156.026 96.6442 155.864 96.7152 155.79 96.8445C155.782 96.858 156.882 96.7056 157.002 96.6448C158.167 96.0544 158.501 94.4179 159.36 95.9981C159.919 97.0264 159.797 98.2159 159.797 99.3269C159.797 101.133 159.993 102.928 159.993 104.72C159.993 106.736 162.163 105.637 163.575 106.441C164.819 107.15 165.913 107.728 167.265 108.286C170.513 109.627 168.051 113.946 168.051 116.361C168.051 117.911 168.622 119.611 169.23 121.069C169.347 121.348 169.798 121.989 169.798 122.267C169.798 122.48 168.8 121.586 168.717 121.497C166.516 119.137 164.668 116.502 162.112 114.354C160.914 113.348 158.073 113.131 156.467 112.956C156.19 112.926 153.382 112.862 153.322 112.68C152.809 111.117 152.832 109.85 153.464 108.362C153.893 107.354 153.989 106.293 154.25 105.243C154.437 104.491 153.878 104.196 153.311 103.702C152.549 103.038 151.735 102.435 150.855 101.904C149.717 101.218 148.328 101.073 147.317 100.192C146.597 99.5652 145.696 98.7872 144.664 98.7372C143.928 98.7016 142.942 97.3391 142.742 96.816C142.142 95.2482 142.502 94.0603 142.502 92.5741C142.502 91.6896 142.502 90.8051 142.502 89.9205C142.502 89.583 141.889 89.2319 141.716 88.8933C140.991 87.4722 139.368 86.7949 138.135 85.9354C137.223 85.3003 135.97 85.0785 135.23 84.1474C134.551 83.293 133.651 82.3592 134.204 81.275C134.692 80.3176 134.067 79.5154 133.265 79.0495" stroke="white" stroke-width="2.15853" stroke-linecap="round" stroke-linejoin="round"/>
<path d="M160.448 126.695C159.557 125.336 158.28 124.197 157.285 122.897C156.762 122.214 156.331 121.487 155.659 120.902C154.193 119.625 152.404 118.257 151.137 116.846C148.704 114.138 145.241 112.26 143.288 109.199C141.666 106.654 139.295 107.229 136.637 107.229C134.543 107.229 132.026 108.988 130.253 107.1C129.55 106.353 128.221 104.416 126.794 104.693C126.272 104.794 125.813 105.425 125.331 105.658C124.43 106.094 123.605 106.719 122.67 107.126C121.896 107.463 120.373 107.99 119.581 108.143C118.174 108.415 116.679 109.083 115.221 109.083C114.124 109.083 113.13 109.194 112.162 109.662C110.663 110.388 111.089 108.208 111.438 107.692C111.732 107.256 112.144 107.167 112.679 106.997C113.428 106.76 114.108 105.624 114.674 105.13C115.76 104.185 116.767 103.077 118.148 102.542C118.486 102.411 118.779 101.99 119.094 101.912C119.888 101.714 121.063 101.899 121.872 101.899C124.759 101.899 127.646 101.899 130.533 101.899C132.358 101.899 132.182 101.057 132.721 99.9418C133.19 98.9703 133.312 97.2996 133.312 96.221C133.312 94.9207 132.172 94.0009 131.184 93.0925C130.746 92.6899 130.39 92.3669 129.839 92.0367C128.779 91.4022 128.479 90.4879 127.74 89.6292C126.597 88.302 126.557 89.259 125.656 90.1313C125.08 90.6886 124.631 91.3359 124.267 92.0496C123.318 93.9093 119.454 94.9464 117.35 94.9464C116 94.9464 114.1 94.7241 112.975 95.5258C112.269 96.0285 111.241 96.5666 110.433 96.9806C109.967 97.2191 110.254 97.6737 110.152 98.075C109.896 99.0771 109.457 100.017 108.984 100.959C108.665 101.595 108.412 102.211 108.038 102.826C107.794 103.228 107.033 103.777 106.974 104.216C106.905 104.728 105.143 106.426 104.461 106.765C103.491 107.248 102.528 108.156 101.387 108.156C97.881 108.156 95.6038 105.136 93.7903 102.839C92.8752 101.679 91.6551 100.931 90.5387 99.9933C89.2027 98.8711 87.7647 97.1889 85.8239 96.8132C83.7421 96.4103 81.1671 96.8353 79.0398 96.8004C78.1804 96.7862 77.6031 96.3369 76.7785 96.3369C76.5879 96.3369 75.5254 95.9801 76.01 95.8863C76.9437 95.7055 77.9043 95.7484 78.8329 95.5901C80.3927 95.3243 81.6342 94.5237 83.0896 94.0709C85.2902 93.3863 87.5393 92.1553 89.8145 91.7149C91.4338 91.4014 93.4924 91.0068 95.1353 91.0068C96.3274 91.0068 96.9003 93.7156 97.4557 94.5344C98.3126 95.7977 99.491 96.8155 100.175 98.178C100.605 99.0341 101.856 101.467 101.919 100.534C102.045 98.6784 103.252 96.4665 104.461 94.9335C105.737 93.3178 107.047 91.5408 108.629 90.1313C109.667 89.207 110.501 88.2339 111.63 87.4018C112.81 86.5317 114.198 86.42 115.606 86.0114C117.623 85.4256 119.787 85.2131 121.931 85.2131C122.706 85.2131 123.281 85.3778 124.015 85.4578C125.038 85.5692 125.185 85.8075 124.001 85.2646C122.478 84.5667 120.3 83.2624 119.345 81.9687C117.973 80.1101 116.372 77.7905 116.285 75.5314C116.17 72.5254 117.193 69.5055 117.734 66.5448C117.966 65.2741 117.933 65.8916 117.084 66.2616C116.443 66.5406 115.95 66.9092 115.221 67.0856C113.618 67.4735 112.693 67.2672 111.245 66.5577C109.198 65.5543 107.268 63.6532 105.851 62.0387C104.866 60.9172 103.978 60.4604 102.584 59.7212C101.091 58.9293 100.382 58.863 98.9633 59.6182C97.0406 60.6418 95.2195 61.6853 93.3469 62.7339C92.0832 63.4416 90.7257 64.1244 89.2824 64.1244C87.6364 64.1244 86.2432 63.3727 84.6858 62.9657C83.9627 62.7767 82.8873 62.7043 82.2323 62.4507C80.5266 61.7903 79.3164 60.7044 81.1682 59.2706C82.2136 58.4612 82.926 57.6085 83.5034 56.4768C84.5955 54.3364 83.8286 50.2138 83.8286 47.9409C83.8286 46.6985 83.8617 45.7151 82.4984 45.1213" stroke="white" stroke-width="2.15853" stroke-linecap="round" stroke-linejoin="round"/>
<path d="M294 73.1627C292.408 73.1627 290.654 73.3609 289.078 73.1498C287.611 72.9533 286.149 71.7722 284.688 71.7722C283.731 71.7722 283.804 73.5596 283.639 74.2055C283.395 75.161 282.582 75.9254 281.614 76.4071C280.325 77.0486 279.64 77.3213 279.043 78.4928C278.599 79.3628 278.736 80.5479 278.555 81.4926C278.203 83.3291 277.199 85.2807 275.111 86.0889C274.234 86.4286 272.471 86.1404 271.534 86.1404C270.446 86.1404 268.907 86.3867 267.928 85.9601C265.576 84.9356 263.671 84.7167 263.671 82.072C263.671 80.4033 262.443 78.0481 260.08 78.5057C259.018 78.7111 257.348 80.5405 256.547 81.2222C254.933 82.5969 254.194 83.5459 253.237 85.2134C252.782 86.0054 252.498 86.4885 252.498 87.415C252.498 88.599 253.742 88.2556 254.892 88.2261C255.772 88.2035 258.351 86.9441 258.351 88.4707C258.351 89.6337 258.351 90.7967 258.351 91.9597C258.351 92.719 258.299 93.4931 258.351 94.2514C258.38 94.6904 259.975 95.0121 260.42 95.1269C262.043 95.5458 263.044 94.4239 264.322 93.7879C268.001 91.9567 265.874 97.3904 267.396 97.2641C268.892 97.14 270.583 96.1507 272.037 95.7578C272.106 95.7391 274.328 94.9761 274.165 95.3072C273.421 96.8191 273.592 98.6522 272.924 100.225C271.979 102.447 268.288 103.753 265.681 103.753C264.065 103.753 262.85 103.678 261.336 103.238C259.424 102.683 258.889 101.4 257.951 99.9292C257.37 99.018 255.982 98.4228 254.685 98.4228C253.779 98.4228 252.872 98.4228 251.966 98.4228C251.317 98.4228 251.015 98.8551 250.369 98.8863C249.321 98.937 248.163 99.3219 247.044 99.1052C246.365 98.9738 245.578 97.2882 245.315 96.8006C244.799 95.8457 245.057 94.7067 245.994 94.0068C246.928 93.3099 246.911 92.3328 246.911 91.3546C246.911 88.8678 242.456 89.1662 241.191 87.1832C240.63 86.3041 240.614 85.0158 239.462 84.5697C238.521 84.2056 237.437 83.3594 236.269 83.3594C234.715 83.3594 233.802 83.5288 232.545 84.3894C231.214 85.3001 229.889 85.5636 228.288 85.8571C225.851 86.3041 223.132 85.4378 222.036 87.8785C221.461 89.1585 221.371 90.6749 221.371 92.0499C221.371 92.5827 218.458 93.5483 217.853 93.7364C216.491 94.1603 214.964 94.0197 213.538 94.0197C212.031 94.0197 210.642 93.6292 209.133 93.5562C207.231 93.4641 205.409 92.656 205.409 94.8952C205.409 96.4403 205.361 97.9134 206.088 99.3627C206.637 100.455 207.803 101.586 207.803 102.826C207.803 103.753 207.897 105.181 206.591 105.388C205.348 105.585 203.555 107.719 203.295 108.735C203.055 109.677 202.748 110.398 202.748 111.401C202.748 111.868 203.014 112.222 203.014 112.701C203.014 113.575 201.879 113.719 201.019 113.95C198.516 114.621 195.448 114.073 195.033 116.962C194.846 118.264 195.863 119.283 196.895 120.439C198.213 121.914 197.523 122.245 196.097 123.168C195.256 123.712 194.521 124.124 193.585 124.494C193.313 124.602 192.197 124.508 192.121 124.739C191.82 125.659 192.107 127.011 192.107 127.97C192.107 128.763 190.034 128.373 189.446 128.601C188.102 129.121 186.937 129.881 185.589 130.404C184.258 130.919 184.658 132.472 184.658 133.519C184.658 134.203 184.343 137.914 185.19 138.283" stroke="white" stroke-width="2.15853" stroke-linecap="round" stroke-linejoin="round"/>
<path d="M185.19 138.283C185.19 139.214 185.456 140.012 185.456 140.948C185.456 141.651 185.308 142.31 185.19 143.008C185.077 143.673 184.434 144.384 184.392 145.003C184.295 146.443 183.717 147.02 185.737 146.844C187.518 146.689 188.263 146.069 189.727 145.351C191.25 144.605 192.56 143.445 193.969 142.506C195.077 141.768 197.08 141.514 196.881 140.124C196.546 137.79 194.918 135.78 194.767 133.416C194.728 132.807 194.802 132.91 195.299 132.669C196.283 132.193 196.405 130.534 196.748 129.773C197.277 128.599 198.497 127.976 199.29 126.979C201.003 124.823 204.597 125.646 205.128 122.64C205.399 121.108 205.675 119.455 205.675 117.889C205.675 116.368 208.652 115.204 209.917 114.194C211.151 113.209 212.899 112.279 213.804 111.04C214.509 110.074 214.665 108.932 215.518 107.976C216.033 107.4 217.913 106.6 217.913 107.924" stroke="white" stroke-width="2.15853" stroke-linecap="round" stroke-linejoin="round"/>
<path d="M166.833 157.054C168.088 157.054 169.118 156.505 170.321 156.243C171.666 155.95 173.285 155.924 174.548 155.484C176.071 154.953 178.001 155.119 179.602 154.621C180.622 154.304 183.113 153.783 183.859 154.685C184.996 156.061 184.614 155.023 184.923 153.81C185.073 153.225 185.485 152.394 185.987 151.956C186.515 151.496 187.62 151.775 188.293 151.621C190.674 151.077 192.982 151.029 195.417 151.029C196.001 151.029 196.156 151.094 196.629 151.312C197.817 151.86 197.874 150.416 198.343 149.716C199.347 148.217 200.674 147.02 201.565 145.467C202.957 143.044 203.014 140.53 203.014 137.845C203.014 136.594 203.36 134.793 202.807 133.648C202.397 132.799 202.353 130.922 203.694 131.666C204.689 132.217 206.121 132.458 207.005 133.185C208.002 134.005 208.8 134.749 209.798 135.618C210.809 136.499 210.57 137.334 211.054 138.283C211.949 140.037 210.516 141.172 209.532 142.558C206.58 146.712 209.349 151.956 215.252 151.956C216.326 151.956 217.114 146.813 217.114 145.699C217.114 144.286 217.366 142.138 218.311 140.948C219.069 139.994 220.04 138.544 220.04 137.356C220.04 136.159 220.04 134.961 220.04 133.764C220.04 132.66 218.089 132.159 217.262 131.46C216.319 130.662 214.986 130.047 214.986 128.782C214.986 126.833 216.197 125.14 217.38 123.503C218.017 122.622 217.646 121.008 217.646 119.975C217.646 119.28 217.646 118.585 217.646 117.89C217.646 117.854 218.447 119.164 218.71 119.46C220.043 120.963 220.29 122.293 222.701 122.293C224.181 122.293 225.475 121.857 227.017 122.241C228.502 122.611 230.836 122.611 231.421 121.186C231.772 120.331 231.355 119.265 231.613 118.366C231.791 117.747 231.746 117.12 231.746 116.486C231.746 114.646 231.214 112.908 231.214 111.118C231.214 108.989 231.371 108.852 233.845 108.852C235.559 108.852 237.274 108.852 238.988 108.852C241.47 108.852 241.324 110.919 241.324 112.559C241.324 113.738 239.35 115.249 238.397 116.036C237.124 117.087 236.535 117.464 236.535 119.151C236.535 122.318 236.334 125.116 233.993 127.739C232.684 129.204 228.032 128.735 226.307 128.305C224.378 127.825 221.371 125.805 221.371 129.026C221.371 130.86 223.268 131.369 224.09 132.721C225.184 134.522 225.361 136.392 225.361 138.399C225.361 140.394 226.159 142.294 226.159 144.308C226.159 145.243 226.958 146.259 226.958 147.27C226.958 147.849 227.061 148.275 227.238 148.815C227.514 149.655 227.333 149.706 228.14 148.956C229.499 147.694 230.795 147.553 232.603 147.553C236.484 147.553 239.771 147.853 241.797 151.029C242.457 152.064 245.193 152.139 246.393 151.93C247.615 151.717 248.754 150.915 249.985 150.617C250.913 150.393 251.699 150.297 251.699 149.407C251.699 147.296 250.901 145.342 250.901 143.266C250.901 141.926 250.448 140.369 252.497 140.369C254.13 140.369 257.65 141.01 258.483 139.635C259.745 137.552 261.032 135.479 262.341 133.416C262.701 132.849 263.522 132.546 264.203 132.309C266.088 131.653 267.785 133.644 269.007 134.575C270.672 135.845 273.475 137.027 275.584 137.639C275.82 137.708 277.106 138.282 277.224 137.923C277.689 136.507 278.651 135.663 279.87 134.601C281.064 133.56 281.998 133.648 283.624 133.648" stroke="white" stroke-width="2.15853" stroke-linecap="round" stroke-linejoin="round"/>
<path d="M293.19 215.432C293.004 212.038 290.623 208.812 288.926 205.857C288.606 205.298 288.118 204.825 287.901 204.221C287.695 203.648 287.894 202.853 287.279 202.424C286.236 201.698 285.005 203.488 284.226 203.91C282.265 204.972 279.606 204.773 277.382 204.773C275.669 204.773 273.531 204.582 272.151 203.599C271.263 202.966 270.008 202.136 269.443 201.25C268.543 199.838 270.334 198.94 270.952 197.727C271.101 197.436 270.998 196.958 270.998 196.643C270.998 195.495 271.169 194.244 270.952 193.111C270.705 191.819 268.586 191.574 267.461 191.133C265.542 190.381 263.216 190.422 261.263 189.678C260.344 189.328 258.721 189.055 257.979 188.474C257.489 188.09 257.199 187.951 257.357 188.715C257.561 189.7 258.402 191.011 259.177 191.766C259.618 192.195 260.1 193.033 260.375 193.572C260.574 193.961 259.234 194.09 259.062 194.114C257.573 194.322 256.029 194.398 254.522 194.465C252.631 194.55 251.413 194.147 249.741 193.392C248.915 193.019 248.185 192.712 248.185 193.663C248.185 195.007 248.762 196.711 249.43 197.908C250.209 199.305 251.011 200.979 252.955 200.979C254.293 200.979 254.128 201.409 254.718 202.334C255.196 203.083 254.699 204.002 255.133 204.683C255.623 205.451 257.044 205.192 257.472 205.937C257.994 206.847 257.749 207.262 257.057 207.804C256.204 208.473 255.479 208.928 254.303 208.928C253.096 208.928 252.599 208.039 252.333 207.112C251.951 205.779 250.75 204.987 249.43 204.412C248.008 203.793 246.703 202.985 245.236 202.465C243.416 201.819 242.396 200.475 241.445 199.002C240.587 197.674 240.21 196.24 240.823 194.757C241.182 193.888 241.704 193.951 242.586 193.653C243.58 193.316 244.61 192.701 245.443 192.127C246.374 191.485 247.2 190.924 248.024 190.18C248.579 189.679 248.953 189.059 249.476 188.554C249.953 188.092 250.421 187.596 250.881 187.109C251.515 186.437 252.598 185.967 253.163 185.352C254.073 184.361 253.726 181.872 253.151 180.745C252.096 178.678 250.885 176.556 250.213 174.362C249.585 172.309 248.476 170.511 247.978 168.461C247.939 168.299 247.198 166.008 246.895 166.694C246.436 167.734 245.744 167.738 244.567 167.738C243.565 167.738 242.563 167.738 241.56 167.738C241.002 167.738 240.56 168.099 239.993 168.099C238.335 168.099 236.636 165.421 235.742 164.306C234.654 162.949 233.829 161.299 231.755 161.234C229.249 161.156 227.072 159.97 224.565 159.97C222.595 159.97 221.754 161.444 220.003 162.037C219.011 162.373 219.355 163.64 218.517 163.914C217.315 164.307 215.254 163.944 213.965 163.944C208.66 163.944 204.779 160.856 200.37 158.705C199.185 158.127 196.65 157.189 195.265 157.742C193.853 158.306 192.696 159.17 191.383 159.869C191.152 159.992 190.13 160.459 190.115 160.692C190.081 161.222 190.459 162.339 189.608 162.318C188.388 162.289 187.277 161.902 186.129 161.596C184.251 161.095 182.743 160.192 181.001 159.528C180.016 159.153 177.741 159.317 176.842 159.709C175.748 160.185 174.633 160.691 173.731 161.405C173.227 161.804 172.385 162.609 171.657 162.68C170.532 162.789 169.335 163.222 168.178 163.222C167.678 163.222 167.179 163.222 166.68 163.222C166.075 163.222 165.653 162.86 165.124 162.86C164.788 162.86 164.466 162.538 164.617 163.131C164.693 163.427 165.213 164.068 165.447 164.306C166.359 165.232 167.346 165.997 168.5 166.654C171.463 168.342 174.306 169.029 177.775 168.099C179.668 167.592 181.249 166.474 183.283 166.474C185.815 166.474 187.828 165.895 190.069 167.196C191.374 167.954 191.58 169.065 192.443 170.087C194.382 172.384 197.643 171.562 200.358 170.639C200.946 170.439 201.703 170.408 202.248 170.157C202.743 169.929 203.119 169.537 203.596 169.284C204.352 168.881 205.188 168.86 205.969 168.551C207.532 167.932 208.589 168.305 209.818 169.143C211.818 170.509 212.637 172.665 215.118 173.479C216.03 173.779 216.907 173.932 217.376 173.158C217.864 172.352 218.776 172.075 219.358 171.442C219.59 171.189 220.692 171.351 221.017 171.351C221.845 171.351 222.274 171.732 222.883 172.174C224.459 173.318 225.17 175.159 225.787 176.771" stroke="white" stroke-width="2.15853" stroke-linecap="round" stroke-linejoin="round"/>
<path d="M234.232 232.994C232.696 233.797 230.804 234.418 229.524 235.533C228.76 236.198 229.094 236.378 227.995 236.829C226.194 237.567 225.48 237.753 225.04 236.03C224.583 234.239 223.718 232.378 223.144 230.579C222.62 228.935 222.492 227.726 222.492 225.963C222.492 223.582 217.883 221.394 215.888 223.566C214.859 224.687 212.147 222.808 211.568 222.128C210.928 221.378 209.806 220.2 209.672 219.27C209.625 218.939 209.984 218.058 209.815 217.973C209.033 217.584 207.424 216.177 206.554 216.393C206.4 216.431 205.471 217.781 205.249 217.973C204.269 218.827 203.268 219.164 202.233 219.82C200.872 220.682 197.469 217.588 196.627 216.855C195.287 215.687 194.86 214.122 193.591 212.931C192.723 212.117 192.042 210.614 192.042 209.505C192.042 208.063 192.506 208.06 191.593 206.788C190.936 205.873 189.158 205.982 188.21 205.51C187.374 205.094 186.826 204.163 186.171 203.592C185.075 202.637 185.071 201.823 185.071 200.396C185.071 198.532 185.367 198.37 187.109 197.662C190.059 196.463 193.319 195.697 196.363 194.715C197.569 194.326 198.717 193.914 199.379 192.904C200.21 191.637 200.811 190.24 201.499 188.891C201.533 188.825 201.769 186 202.314 186.832C203.652 188.872 205.19 190.695 206.717 192.655C207.31 193.417 208.495 194.906 209.468 195.283C211.573 196.098 215.163 196.87 217.193 195.745C219.505 194.463 223.594 193.644 224.306 197.059C225.066 200.697 227.296 197.651 228.729 196.224C230.696 194.266 231.225 191.109 232.011 188.714C232.505 187.208 233.062 186.274 231.848 185.216C230.81 184.312 229.939 183.382 228.362 183.459C226.504 183.548 224.782 187.428 223.226 188.181C219.988 189.748 214.365 189.099 213.035 185.625C212.113 183.215 211.676 177.84 207.532 177.706C205.038 177.626 204.122 178.476 202.396 180.014C201.814 180.532 199.928 184.222 199.196 184.08C197.927 183.834 196.277 183.18 195.058 183.139C192.589 183.056 192.107 184.35 190.594 185.997C189.605 187.075 189.824 188.578 188.373 189.14C187.188 189.599 185.853 190.17 184.541 190.17C182.709 190.17 182.211 189.01 180.75 188.501C179.615 188.105 178.677 187.73 177.55 187.294C175.583 186.532 179.676 185.733 180.485 185.518C182.442 184.999 183.227 184.505 183.685 182.997C184.748 179.498 189.66 178.255 192.775 176.818C194.279 176.125 189.489 175.559 188.74 175.487C186.304 175.251 183.986 175.606 181.565 175.078C180.077 174.754 179.154 174.51 177.57 174.51C176.638 174.51 175.38 178.449 174.88 179.304C174.599 179.784 174.237 181.221 173.514 181.221C172.475 181.221 171.435 181.221 170.396 181.221C168.182 181.221 167.815 180.243 166.809 178.665C165.808 177.096 162.874 175.248 160.898 174.865C159.569 174.608 156.821 174.402 156.821 172.912C156.821 172.012 156.678 167.695 155.884 167.497C154.706 167.204 153.322 166.625 152.419 165.882C151.82 165.389 150.601 163.158 150.584 163.183C149.666 164.583 148.169 164.284 146.549 164.284" stroke="white" stroke-width="2.15853" stroke-linecap="round" stroke-linejoin="round"/>
<path d="M137.744 168.118C135.444 168.118 136.616 172.236 137.214 173.054C138.915 175.383 142.415 175.242 144.429 176.996C146.133 178.48 145.448 182.556 145.448 184.577C145.448 185.749 145.448 186.921 145.448 188.092C145.448 189.436 147.899 188.947 149.117 188.891C149.666 188.866 150.217 188.262 150.217 189.069C150.217 190.021 150.027 190.845 149.769 191.768C149.414 193.04 148.746 194.322 150.401 194.963C153.251 196.067 156.013 199.271 157.473 201.675C158.656 203.621 157.555 205.32 157.555 207.569C157.555 209.488 159.646 212.556 160.857 214.138" stroke="white" stroke-width="2.15853" stroke-linecap="round" stroke-linejoin="round"/>
<path d="M138.845 167.479C140.495 167.479 143.482 166.879 144.429 168.438C145.174 169.663 144.191 172.912 146.549 172.912C147.544 172.912 150.894 172.483 151.4 173.232C152.02 174.149 152.354 174.795 152.867 175.788C153.159 176.353 152.831 177.993 153.336 178.345C153.729 178.618 154.603 179.684 154.987 180.103C155.636 180.809 156.455 180.671 156.455 181.701C156.455 183.565 156.455 185.429 156.455 187.293C156.455 188.252 156.455 189.211 156.455 190.169C156.455 192.536 158.988 192.409 161.224 193.046C163.749 193.765 166.727 194.668 166.727 197.378C166.727 199.124 166.727 200.87 166.727 202.615C166.727 203.415 165.637 205.19 167.094 205.19C169.783 205.19 172.23 205.72 172.23 208.528C172.23 212.26 171.332 215.363 170.478 219.003C170.04 220.867 169.767 222.765 170.396 224.684C170.905 226.235 173.004 228.922 172.577 230.597C172.302 231.673 169.887 233.437 168.908 234.29C167.507 235.51 166.187 236.838 164.811 238.036C164.068 238.683 163.321 238.842 162.692 239.634C161.988 240.519 161.705 241.026 160.409 240.983C158.78 240.928 156.179 238.186 155.069 237.219C154.239 236.496 153.439 235.8 152.582 235.053C152.423 234.914 149.367 231.971 149.138 232.869C148.93 233.685 148.75 234.752 148.75 235.586C148.75 238.565 150.235 242.901 145.632 242.901C142.667 242.901 139.623 243.503 137.01 244.641C136.024 245.07 134.792 245.181 133.892 245.617C132.15 246.46 135.124 249.241 135.706 250.073C136.287 250.905 140.473 256.781 142.228 256.252C143.537 255.857 145.792 255.48 146.834 254.654C147.942 253.777 148.757 251.829 149.504 250.73C149.785 250.318 151.514 247.166 151.889 247.073C152.398 246.946 153.401 248.882 153.703 249.292C154.188 249.95 155.651 254.684 156.455 254.725C158.129 254.811 163.623 247.05 163.711 247.126C164.269 247.613 163.792 250.226 163.792 250.89C163.792 251.998 163.825 252.779 162.855 253.624C161.865 254.486 160.955 255.582 159.777 256.181C158.505 256.827 156.553 257.836 155.538 258.72C154.055 260.012 149.386 261.363 149.117 263.354C149.025 264.035 148.325 264.54 149.117 265.271C150.095 266.173 151.466 266.678 152.501 267.579C156.356 270.937 156.987 274.99 159.573 278.996C161.39 281.809 155.98 279 155.701 280.949C155.542 282.053 154.62 282.877 154.62 283.967C154.62 284.959 154.734 285.846 154.253 286.683" stroke="white" stroke-width="2.15853" stroke-linecap="round" stroke-linejoin="round"/>
<path d="M135.102 141.598C135.102 143.516 134.847 144.647 134.175 146.404C133.722 147.588 134.098 148.836 133.526 149.958C132.321 152.318 128.988 152.393 127.592 154.521C126.485 156.208 125.505 157.988 125.505 159.973C125.505 160.967 125.463 161.968 125.505 162.962C125.542 163.817 126.625 164.183 127.082 164.86C128.916 167.575 127.237 167.869 125.297 169.221C124.632 169.684 125.011 173.197 125.297 173.744C125.924 174.946 127.218 176.669 128.635 177.217C131.952 178.501 134.346 180.069 136.771 182.306C139.204 184.55 138.614 187.031 134.894 187.031C131.996 187.031 129.954 185.213 127.174 185.213C125.616 185.213 124.361 186.304 123.002 186.304C121.468 186.304 122.463 183.793 122.075 183.033C121.46 181.828 116.743 177.875 116.743 180.67C116.743 182.924 113.586 185.477 114.75 187.758C115.733 189.684 119.619 190.152 121.565 191.231C122.928 191.986 123.893 193.217 125.529 193.573C127.675 194.04 129.539 194.3 131.764 194.3C134.898 194.3 140.426 192.739 142.705 194.946C144.427 196.612 142.82 199.423 144.073 201.387C144.773 202.486 144.699 203.431 144.699 204.658C144.699 206.644 143.314 206.886 141.871 208.192C140.156 209.743 140.375 214.88 142.613 216.027C145.405 217.457 147.202 219.677 147.202 222.468C147.202 224.536 144.434 227.973 141.778 228.102C137.645 228.302 137.997 224.754 136.586 221.943C135.852 220.482 135.308 219.558 134.059 218.47C132.615 217.212 130.665 217.88 129.91 215.906C129.125 213.855 129.706 212.085 131.37 210.635C132.629 209.539 136.245 207.636 136.354 205.931C136.58 202.388 135.214 202.326 132.367 200.297C131.55 199.715 128.691 198.873 128.009 199.913C127.647 200.465 124.956 200.079 124.254 200.115C122.7 200.195 122.419 200.695 120.823 199.752C119.009 198.679 117.697 196.938 115.909 196.036C114.366 195.258 113.053 193.355 111.319 194.865C109.905 196.097 111.736 199.13 111.736 200.64C111.736 202.571 109.31 203.5 108.816 205.224C108.336 206.895 106.983 207.717 105.292 208.475C103.086 209.463 100.65 210.984 99.2189 212.756C97.9337 214.346 97.6792 214.115 98.9871 215.906C100.784 218.366 103.606 219.731 105.269 222.306C107.307 225.462 106.223 227.964 104.226 230.727C103.417 231.846 102.283 233.771 103.809 234.361C105.001 234.823 106.55 235.64 106.706 236.865C107.195 240.697 104.489 245.35 100.053 246.638" stroke="white" stroke-width="2.15853" stroke-linecap="round" stroke-linejoin="round"/>
<path d="M90.4566 180.488C91.9244 180.488 93.6087 177.818 94.9536 177.298C96.1917 176.818 97.9137 175.608 98.8943 174.753C100.797 173.096 100.053 169.98 100.053 167.767C100.053 165.544 102.712 164.953 104.805 163.971C105.524 163.634 109.034 163.013 109.21 162.477C109.612 161.251 108.879 160.057 109.65 158.882C110.569 157.481 110.067 155.166 110.067 153.511C110.067 152.094 110.158 150.647 110.067 149.23C109.957 147.503 107.927 147.777 111.319 147.777C112.223 147.777 113.127 147.777 114.031 147.777C115.056 147.777 114.74 147.498 115.306 146.484C116.617 144.137 118.195 141.858 119.664 139.619C121.324 137.088 126.757 138.778 126.757 141.416C126.757 145.185 123.334 145.689 121.008 148.221C119.809 149.527 120.081 152.299 120.081 153.875C120.081 156.204 120.081 158.532 120.081 160.861C120.081 162.005 120.129 162.838 119.154 163.688C118.519 164.241 117.116 164.635 116.743 165.041C115.933 165.923 113.821 165.809 112.779 166.515C111.463 167.407 111.148 168.296 110.693 169.564C110.223 170.875 110.484 172.439 110.484 173.804C110.484 176.319 109.086 178.478 108.074 180.771C107.605 181.832 106.613 182.305 105.385 182.305C104.691 182.305 101.898 181.951 101.398 182.386C100.342 183.305 100.92 185.924 100.888 187.111C100.834 189.094 99.0011 191.42 98.3611 193.371C97.1519 197.057 92.3718 195.39 89.2976 195.39C87.278 195.39 87.7624 195.795 87.2114 197.288C86.2863 199.795 86.2069 202.067 84.8238 204.476C82.4102 208.681 74.6012 206.487 70.8692 204.658C69.8511 204.159 68.1638 203.406 67.2994 202.821C66.1384 202.034 63.6311 200.19 62.0838 200.115C60.0118 200.015 58.7536 199.349 58.004 197.651C57.2071 195.847 58.5637 195.294 59.5803 193.573C60.5038 192.008 63.3213 188.848 58.9544 188.848C56.1931 188.848 54.1561 188.583 54.1561 185.758C54.1561 184.316 44.5479 184.85 43.2149 184.85C40.8138 184.85 38.3623 184.486 35.8899 184.486C33.4507 184.486 34.6087 187.334 35.0554 188.848C36.0645 192.266 38.6214 195.026 42.9368 195.026C45.2988 195.026 47.0687 194.638 49.3346 194.279C49.885 194.192 53.4049 192.827 53.7157 193.775C54.7043 196.789 49.6949 197.01 49.5664 199.025C49.3771 201.992 54.7384 201.888 54.5733 204.476C54.5009 205.613 52.0426 205.203 51.1426 205.203C48.9567 205.203 46.9361 205.611 44.7912 205.95C43.2498 206.195 41.7199 207.43 41.1982 205.385C41.1116 205.045 39.9878 202.09 39.761 201.932C39.0111 201.41 38.2301 200.383 37.2344 200.135C35.702 199.754 36.1495 202.549 35.8899 203.386C35.2731 205.374 34.0894 208.107 32.8765 209.848C32.3777 210.563 31.0966 212.836 30.1412 212.836C27.4065 212.836 24.7305 213.013 22.028 213.381C20.8053 213.548 15.0371 213.385 14.5176 214.29" stroke="white" stroke-width="2.15853" stroke-linecap="round" stroke-linejoin="round"/>
<path d="M2 157.227C9.50394 157.227 17.0936 157.59 24.5314 157.59C26.3479 157.59 27.7336 158.376 27.0348 156.702C26.581 155.614 25.8514 154.425 24.9486 153.592C23.4249 152.187 26.396 152.502 27.2435 152.502C29.074 152.502 30.0962 153.135 31.6246 153.875C33.3842 154.726 36.2176 157.488 38.3005 156.58C39.3734 156.113 41.3166 153.937 41.6153 153.027C41.9382 152.042 40.4686 151.389 40.8967 150.684C42.3751 148.252 49.4742 151.048 51.5597 151.048C55.4884 151.048 54.3184 145.692 56.1494 143.698C57.8103 141.889 58.7759 138.275 61.4577 137.236C63.4612 136.461 67.3765 134.524 68.945 136.671C70.1157 138.273 70.9906 139.929 72.0048 141.598C72.7947 142.897 76.73 140.531 77.7304 140.144C78.2043 139.961 80.7862 138.692 80.8598 139.781C81.0229 142.197 79.2383 143.814 78.1708 145.939C76.9186 148.432 80.0733 150.469 81.4856 152.683C82.5338 154.327 83.9892 161.225 80.6279 161.225C76.1973 161.225 72.6173 161.862 69.3623 164.698C68.3183 165.607 67.1989 166.421 66.1634 167.323C65.1033 168.246 65.6736 168.405 66.2561 169.039C67.2693 170.142 67.5078 170.239 67.5078 171.765C67.5078 173.219 67.5078 174.673 67.5078 176.127C67.5078 178.944 73.5972 177.19 75.0183 176.571C77.8705 175.328 77.939 172.33 77.939 169.948C77.939 167.417 82.6 166.313 85.0322 166.313C86.5121 166.313 91.9827 169.027 92.45 167.444C92.9952 165.597 93.3772 164.216 93.3772 162.295C93.3772 161.305 93.3453 159.104 92.5427 158.317C91.335 157.133 90.8737 156.279 90.8737 154.703C90.8737 153.756 93.0792 151.313 92.8672 151.129C91.542 149.974 89.1428 149.54 87.7211 148.302C86.1144 146.902 85.7845 145.995 85.8667 144.061C85.9812 141.368 88.7875 139.544 88.7875 136.691C88.7875 135.588 93.3013 136.16 94.2117 136.146C96.2477 136.114 98.2382 135.782 100.285 135.782C101.686 135.782 101.542 135.78 101.073 136.772C99.389 140.334 96.5506 145.115 98.5928 149.029C98.9365 149.687 99.256 151.646 99.7286 152.057C99.764 152.088 102.392 146.677 102.742 145.98C103.973 143.529 101.963 140.871 106.335 140.871C108.096 140.871 108.745 140.938 108.815 139.336C108.871 138.08 109.577 136.39 110.067 135.217C111.53 131.713 117.893 133.318 120.939 134.147C123.382 134.812 128.769 134.755 131.138 134.127C132.646 133.727 134.188 133.045 135.519 132.431C136.837 131.823 137.819 130.331 139.692 130.331" stroke="white" stroke-width="2.15853" stroke-linecap="round" stroke-linejoin="round"/>
<path d="M87.536 112.521C91.7187 112.521 94.7759 115.016 98.8017 115.429C101.176 115.672 103.718 116.156 106.312 116.156C107.81 116.156 108.816 116.547 108.816 115.065C108.816 114.505 108.952 112.862 109.441 112.521C110.205 111.989 114.731 116.382 115.816 117.327C118.043 119.267 120.029 118.904 123.002 117.609C125.302 116.608 130.377 115.525 132.807 116.701C134.135 117.343 135.869 118.163 137.281 118.619C138.305 118.949 139.044 119.79 140.248 119.79C141.003 119.79 138.739 119.946 138.023 120.154C136.739 120.527 135.562 121.214 134.268 121.527C132.5 121.954 131.004 122.719 129.585 123.707C128.777 124.271 127.762 123.909 127.174 125.06C126.734 125.924 126.539 127.059 125.413 127.059C121.232 127.059 115.775 128.321 113.591 124.515C110.385 118.93 103.56 126.131 99.6362 126.332C96.6107 126.488 94.1033 125.713 91.8939 123.788C91.0265 123.033 90.7886 122.368 89.8077 123.223C88.4415 124.413 86.2702 126.332 84.198 126.332C83.0955 126.332 81.0439 126.695 80.0255 126.252C77.8068 125.285 76.2612 122.77 74.6013 121.244C73.6791 120.396 73.6517 119.69 72.7005 118.861C70.8407 117.241 69.975 117.609 67.1372 117.609C65.1746 117.609 63.212 117.609 61.2494 117.609C60.383 117.609 58.3002 118.271 57.726 117.771C56.9081 117.059 56.457 115.858 55.8252 115.025C54.5936 113.401 53.2155 111.847 52.4872 109.977C51.4958 107.431 50.1546 103.932 49.9837 101.254C49.8938 99.8438 50.1459 99.7999 51.6991 99.7999C54.6634 99.7999 57.4651 98.3461 60.4149 98.3461C61.5514 98.3461 63.0684 97.1512 63.9615 96.5288C64.9075 95.8695 62.9823 92.6574 62.7098 91.9451C61.3565 88.4086 59.4741 85.0249 57.9114 81.5461C57.277 80.1338 56.7255 78.6075 55.6166 77.4269C54.7401 76.4938 54.6478 75.3637 52.9045 75.4481C50.7887 75.5505 47.7484 80.0191 46.3212 81.1019C44.708 82.3258 44.0641 83.0223 42.2878 83.4644C42.1589 83.4965 44.705 86.4687 44.9767 86.9173C46.3021 89.1048 49.1492 89.5327 49.1492 91.9855C49.1492 93.8381 46.6745 94.7254 44.7681 93.8028C43.4956 93.187 43.4166 93.2454 44.0495 94.348C44.7883 95.6351 44.3616 95.9918 42.9832 96.7307C40.3967 98.1172 38.3324 94.4779 35.7973 94.348C32.5822 94.1833 34.5456 91.2911 34.5456 89.4413C34.5456 88.4247 35.337 87.6088 35.3801 86.6346C35.4595 84.8343 34.9666 84.4993 33.9197 83.0807C32.9933 81.8255 32.0109 80.5094 30.7903 79.4461C30.2812 79.0027 28.3645 77.139 28.2869 78.3558C28.2031 79.6691 27.3025 80.1448 26.1774 80.8798C24.4877 81.9837 22.9062 80.6394 21.5645 79.7894C18.4655 77.8261 15.7078 75.0269 12.4315 73.3481C11.5526 72.8978 11.7424 71.8135 10.3452 71.8135" stroke="white" stroke-width="2.15853" stroke-linecap="round" stroke-linejoin="round"/>
</svg>
