<svg width="250" height="237" viewBox="0 0 250 237" fill="none" xmlns="http://www.w3.org/2000/svg">
<rect x="0.5" y="0.5" width="249" height="236" fill="white" stroke="black"/>
<path d="M125.282 217.264C125.282 215.81 125.825 213.136 127.442 212.291C128.668 211.651 128.893 208.889 128.004 208.029C126.536 206.609 124.505 205.41 124.505 203.233C124.505 201.72 124.46 199.734 124.915 198.28C125.251 197.206 129.315 197.782 130.336 197.727C131.062 197.688 130.66 195.984 130.811 195.517C131.254 194.152 130.88 194.107 129.753 193.306C128.945 192.732 128.976 192.881 128.176 193.089C127.132 193.362 126.739 192.506 126.146 191.964C124.965 190.886 124.287 188.533 122.561 190.899C121.311 192.611 121.352 195.427 118.868 195.931C116.442 196.424 115.497 195.988 114.31 193.82C113.794 192.876 113.654 189.912 115.369 189.912C116.776 189.912 119.839 190.57 119.839 188.669C119.839 187.214 119.575 185.808 120.703 184.663C121.459 183.895 124.957 183.846 125.757 184.505C129.464 187.552 134.555 187.715 136.924 183.025C137.994 180.906 138.501 178.619 138.501 176.058C138.501 174.434 136.945 172.961 136.945 171.263C136.945 169.435 137.066 167.732 137.723 165.974C138.077 165.027 138.444 164.048 138.889 163.132C139.073 162.755 139.08 163.242 138.501 163.27C135.92 163.394 135.567 162.788 134.915 160.704C134.226 158.5 134.025 155.368 131.891 153.837C130.104 152.554 128.941 150.929 127.529 149.495C126.182 148.128 125.94 145.087 125.088 143.358C124.815 142.803 124.385 139.185 123.727 139.115C122.817 139.017 122.079 138.602 121.2 138.424C119.635 138.106 117.755 136.456 117.032 135.207C115.689 132.89 114.397 134.365 114.397 136.45C114.397 138.479 115.307 140.485 116.254 142.312C116.858 143.476 117.575 144.657 118.479 145.667C119.093 146.352 120.275 146.9 120.703 147.64C121.45 148.928 121.493 150.822 121.978 152.238C122.588 154.024 124.806 154.83 125.261 156.698C125.696 158.489 126.294 159.82 127.313 161.494C127.629 162.014 129.54 164.353 129.948 163.98" stroke="#FF0000" stroke-width="2.10113" stroke-linecap="round" stroke-linejoin="round"/>
<path d="M173.1 182.452C169.175 180.659 171.763 176.155 167.657 174.815C165.914 174.246 164.504 173.909 162.798 173.216C161.078 172.518 160.444 170.019 158.327 170.019C156.946 170.019 154.568 170.887 153.273 170.296C152.507 169.946 151.739 169.328 151.135 168.776C150.559 168.251 150.08 167.188 149.579 166.822C148.459 166.003 149.938 162.901 149.191 161.671C148.324 160.247 146.949 159.295 147.052 157.586C147.281 153.822 154.116 156.06 155.821 154.725C157.165 153.673 156.213 151.98 157.722 151.192C159.365 150.334 160.904 152.117 162.301 152.968C164.794 154.487 168.178 154.389 171.07 154.389C173.833 154.389 174.607 154.178 175.433 151.725C175.911 150.306 176.547 150.532 174.958 150.048C173.72 149.671 173.496 148.435 172.625 147.719C171.743 146.993 168.354 147.794 167.441 148.173C162.718 150.135 165.689 144.088 162.215 144.088C160.012 144.088 157.808 144.088 155.605 144.088C153.958 144.088 153.273 144.798 152.128 145.844C151.192 146.7 150.308 146.895 149.191 147.462C147.493 148.324 145.792 149.64 144.18 150.659C143.179 151.292 141.028 153.512 139.666 152.889C138.566 152.387 137.722 150.814 137.722 149.771C137.722 147.807 138.601 147.548 140.249 146.377C141.765 145.299 142.906 144.857 144.72 144.265C145.706 143.943 148.441 142.441 145.886 142.312C143.928 142.212 141.93 142.312 139.968 142.312C138.142 142.312 136.538 141.578 134.806 141.226C133.288 140.918 132.668 139.121 132.668 137.871C132.668 136.151 131.033 136.273 129.558 136.273C127.142 136.273 128.112 134.861 126.642 133.786C125.804 133.174 123.726 131.89 123.726 130.944" stroke="#FF0000" stroke-width="2.10113" stroke-linecap="round" stroke-linejoin="round"/>
<path d="M170.379 137.694C167.138 137.694 163.892 137.512 160.659 137.339C160.427 137.326 159.375 136.683 159.191 136.549C158.566 136.093 157.581 136.273 156.772 136.273C155.875 136.273 152.291 136.751 151.718 136.095C151.058 135.342 148.795 134.455 147.83 134.063C145.882 133.272 144.511 134.779 142.776 135.483C141.408 136.039 140.23 133.705 139.104 133.411C138.485 133.25 135.547 131.95 135.8 131.142C136.216 129.81 139.752 129.879 140.832 129.879C142.747 129.879 144.662 129.879 146.577 129.879C148.965 129.879 150.228 130.103 152.301 130.944C154.202 131.717 154.994 132.365 157.16 132.365C159.18 132.365 160.898 131.655 162.992 131.655C165.129 131.655 165.665 133.431 167.744 133.431C170.874 133.431 173.273 130.944 176.383 130.944C180.018 130.944 180.442 136.56 184.18 137.319C186.008 137.69 187.845 137.096 189.645 137.694C191.639 138.356 194.042 140.399 194.785 142.233C195.818 144.78 195.809 146.21 194.483 148.706C193.457 150.636 190.278 150.411 188.284 149.614C187.202 149.181 186.118 148.606 184.958 148.37C184.024 148.181 184.375 149.799 184.375 150.285C184.375 151.002 184.375 151.719 184.375 152.436C184.375 153.483 185.782 153.83 186.232 154.745C187.041 156.387 185.502 158.42 187.01 159.797C188.229 160.911 189.987 161.294 191.178 162.382C192.79 163.854 193.547 165.901 195.455 164.158C196.752 162.973 196.481 159.123 195.26 157.942C193.681 156.414 195.56 153.777 197.593 153.679C198.562 153.632 198.956 154.442 199.926 154.389C200.692 154.348 200.321 152.759 200.941 152.633C203.576 152.098 204.202 153.204 204.202 155.258C204.202 157.609 201.443 158.566 204.98 159.284C207.46 159.787 213.458 158.217 214.699 161.336C215.478 163.293 217.131 164.963 217.809 166.822" stroke="#FF0000" stroke-width="2.10113" stroke-linecap="round" stroke-linejoin="round"/>
<path d="M87.5708 187.07C87.5708 183.132 93.7912 185.701 93.7912 182.63C93.7912 181.755 93.8025 181.005 93.4024 180.183C93.1258 179.614 92.2572 179.402 91.9337 178.9C90.572 176.785 93.0989 175.181 91.4586 173.137C90.102 171.447 86.7933 168.099 86.7933 165.914C86.7933 163.361 89.5945 161.494 92.4305 161.494C95.1164 161.494 94.5803 158.693 95.5191 157.073C97.2447 154.095 98.371 154.581 100.876 156.165C102.256 157.039 104.185 158.413 105.649 159.007C106.642 159.411 110.508 159.194 110.508 160.27C110.508 162.417 108.683 164.062 108.565 166.112C108.402 168.941 109.7 169.833 111.761 171.716C113.134 172.971 112.961 174.282 115.368 174.282C117.961 174.282 120.276 173.571 122.928 173.571C124.391 173.571 124.773 173.832 123.9 172.308C123.085 170.887 121.82 170.054 120.617 168.954C119.747 168.159 116.729 166.831 116.729 165.757C116.729 164.891 116.498 163.505 117.506 162.994C118.68 162.398 118.42 163.032 118.694 161.652C118.938 160.427 119.843 157.163 118.478 156.165C117.991 155.809 118.008 155.276 117.312 154.922C116.553 154.537 115.587 154.439 114.785 154.113C112.883 153.34 108.571 154.592 107.096 153.245C106.648 152.835 106.641 151.775 106.146 151.271C105.477 150.592 104.441 149.977 103.532 149.613C102.036 149.015 97.6789 147.095 97.6789 145.331C97.6789 143.518 101.398 143.309 102.733 143.377C104.114 143.447 105.329 145.327 106.318 146.14C107.891 147.433 109.267 147.713 111.092 146.416C112.327 145.538 114.709 148.935 112.841 145.351C111.794 143.341 109.559 141.821 108.651 139.746C108.321 138.992 107.939 138.505 108.802 137.891C110.059 136.998 110.747 137.484 109.731 136.194C108.773 134.978 107.01 133.343 107.01 131.832C107.01 129.584 108.962 128.667 110.724 127.747C113.445 126.327 112.004 124.856 113.143 122.774C113.516 122.093 117.192 122.199 117.506 122.774" stroke="#FF0000" stroke-width="2.10113" stroke-linecap="round" stroke-linejoin="round"/>
<path d="M138.5 124.195C140.432 124.195 142.321 124.55 144.331 124.55C145.478 124.55 148.332 124.543 149.385 124.116C152.946 122.67 155.055 119.922 157.766 117.445C159.053 116.269 160.24 114.894 161.437 113.735C161.598 113.58 163.433 111.306 163.748 112.314C164.057 113.302 164.203 114.188 164.159 115.235C164.094 116.783 157.494 123.58 162.604 123.839C165.628 123.993 165.505 122.799 167.269 120.998C168.066 120.183 169.923 117.494 169.99 116.38C170.034 115.66 170.379 115.223 170.379 114.426C170.379 113.576 169.314 113.209 169.213 112.472C169.083 111.52 167.316 110.176 166.794 109.275C166.208 108.264 166.014 104.782 166.88 103.947C168.547 102.339 170.163 103.236 172.323 103.236C174.285 103.236 175.889 103.372 177.291 102.092C178.846 100.67 178.161 98.0592 178.63 96.1317C178.936 94.8707 181.116 91.0844 182.518 93.6451C183.396 95.2508 183.597 96.4815 183.597 98.263C183.597 99.9999 184.599 106.073 183.209 106.867C182.541 107.249 182.425 108.209 181.459 108.209C180.512 108.209 179.81 107.943 178.932 107.854C177.434 107.702 174.98 106.047 174.656 108.565C174.512 109.681 173.591 111.733 174.656 112.827C175.591 113.788 176.636 116.036 175.52 117.169C174.52 118.183 173.043 120.416 173.792 121.708C174.149 122.324 175.61 122.14 176.211 121.866C177.58 121.24 177.668 120.642 179.321 120.642C180.606 120.642 182.051 120.227 182.453 121.511C182.648 122.135 183.191 123.17 183.597 123.76C184.534 125.119 184.53 126.053 186.686 125.438C187.439 125.223 188.8 124.967 189.343 124.471C189.937 123.928 190.014 122.631 190.79 122.063C192.197 121.034 192.856 118.71 194.094 117.445C194.712 116.815 194.734 115.669 195.844 115.669C196.996 115.669 197.805 116.569 198.284 117.445C198.422 117.697 199.148 119.19 199.148 117.978C199.148 117 200.126 116.122 200.617 115.314C201.559 113.766 203.858 114.85 204.98 115.393C207.019 116.379 208.033 114.583 210.034 115.314" stroke="#FF0000" stroke-width="2.10113" stroke-linecap="round" stroke-linejoin="round"/>
<path d="M168.047 92.9345C167.267 93.2911 166.478 93.6915 165.714 94.0791C164.441 94.7256 164.675 95.7814 164.159 96.842C163.149 98.9182 163.496 100.992 162.215 103.039C161.478 104.218 158.759 104.168 157.637 105.091C157.149 105.492 156.553 105.726 156.082 106.157C155.417 106.764 155.447 107.631 155.002 108.387C153.317 111.246 153.105 115.02 150.639 117.524C150.057 118.114 147.323 119.367 146.665 118.314C145.908 117.103 146.276 115.262 146.276 113.893C146.276 112.225 145.498 111.115 145.498 109.551C145.498 106.759 146.907 107.278 148.803 105.545C149.621 104.797 149.841 104.263 150.358 103.414C150.823 102.649 150.353 101.386 151.33 100.828C152.429 100.201 153.042 99.2327 154.44 98.8944C155.202 98.7101 156.384 98.6488 156.384 97.7301C156.384 96.3884 156.038 93.3886 157.399 92.5596C158.739 91.7431 159.819 91.5136 161.438 91.5136C162.4 91.5136 163.382 92.1987 163.382 91.1584C163.382 89.2632 164.159 87.5295 164.159 85.6326C164.159 81.8079 169.446 81.3566 172.626 80.4226C176.168 79.3824 179.312 75.6429 183.404 77.3045C185.91 78.3223 190.266 81.9686 188.458 84.9419C187.754 86.0985 185.631 89.9499 187.918 89.7178C190.539 89.4516 193.01 87.6061 195.564 87.6061C196.772 87.6061 197.257 87.4953 198.069 88.2376C198.724 88.8365 200.167 89.7375 201.093 89.7375C202.084 89.7375 203.425 90.1449 203.425 88.9876C203.425 88.259 204.409 85.4654 203.728 84.8432C201.774 83.0579 194.078 85.154 196.428 80.324C196.933 79.2859 190.068 78.7573 191.071 77.7387C192.132 76.6619 193.993 76.5941 195.456 76.5941C198.037 76.5941 198.667 77.5064 199.732 79.2583C200.905 81.187 203.916 79.1273 205.067 78.3702C206.424 77.4775 207.765 76.6942 208.955 75.6074C209.655 74.9675 210.649 72.9897 211.395 72.6866C214.194 71.5501 215.217 74.1465 217.421 74.818" stroke="#FF0000" stroke-width="2.10113" stroke-linecap="round" stroke-linejoin="round"/>
<path d="M140.833 116.024C140.833 111.656 141.153 108.263 143.079 104.302C144.713 100.942 142.665 96.79 141.222 93.8227C140.551 92.4441 139.682 90.7312 138.112 90.0139C136.348 89.2081 135.364 87.2646 137.14 86.3629C141.633 84.0823 143.491 89.6029 145.801 91.9479C148.766 94.9586 154.554 89.8794 150.466 87.251C149.276 86.4859 147.946 85.0838 146.47 84.7841C145.406 84.5679 144.647 84.617 144.311 83.5408C143.715 81.6356 140.972 81.7118 139.688 80.3438C138.585 79.168 135.111 81.1151 134.138 80.2254C132.921 79.1139 133.539 76.6886 132.863 75.3311C132.558 74.7173 132.28 73.3687 132.28 72.6867C132.28 71.5619 134.302 72.1784 134.138 71.7789C133.431 70.0571 134.664 68.273 132.971 66.7268C132.247 66.0654 131.242 65.8597 130.552 65.0493C130.111 64.5305 130.002 62.7403 130.919 62.7403C132.669 62.7403 134.418 62.7403 136.168 62.7403C137.265 62.7403 140.444 64.2628 140.444 65.4045C140.444 67.1709 140.056 69.1619 140.056 70.7329C140.056 71.6017 140.034 72.2697 140.531 73.0419C141.007 73.7813 142.406 73.1473 143.079 73.8313C144.879 75.6583 140.626 77.6599 145.326 77.6599C147.225 77.6599 149.24 76.5946 150.077 78.8045C150.456 79.8035 151.074 80.6083 152.108 81.1332C153.87 82.0278 152.671 81.4473 153.749 80.4227C154.754 79.468 155.218 79.6013 155.218 78.1927C155.218 77.1165 155.466 75.8718 156.211 74.9957C157.924 72.9833 161.188 74.5996 162.993 73.0419C164.946 71.3571 163.01 69.6479 162.583 67.8911C162.28 66.6472 159.299 65.2518 158.155 64.8717C157.056 64.5064 157.162 63.0721 157.162 62.2272C157.162 60.8845 157.633 58.6506 157.075 57.4119C156.859 56.932 157.745 56.1687 158.134 55.8134C158.425 55.5474 159.67 54.9827 159.71 54.6491C159.76 54.242 158.819 54.3606 158.544 54.0373C156.238 51.3287 159.924 51.8249 161.827 51.7283C164.581 51.5885 163.058 48.5908 161.827 47.4656" stroke="#FF0000" stroke-width="2.10113" stroke-linecap="round" stroke-linejoin="round"/>
<path d="M30.8091 167.533C33.0664 167.533 34.9939 166.822 37.2238 166.822C40.6779 166.822 40.5654 164.049 42.4723 162.204C44.3628 160.375 44.247 159.718 47.332 159.718C51.3665 159.718 47.9107 164.208 49.6862 164.671C51.6178 165.175 55.1964 162.556 56.1658 161.139C56.4546 160.716 60.5032 157.942 57.4401 157.942C56.4573 157.942 55.286 158.116 54.3299 157.922C53.5862 157.771 52.3022 156.222 53.0556 155.534C53.6506 154.99 57.565 153.256 55.3018 152.337C52.8435 151.339 49.6117 151.548 46.9432 151.548C46.1963 151.548 43.6386 151.95 43.6386 151.015C43.6386 149.907 44.018 149.227 44.8913 148.429C46.4437 147.011 49.8015 146.93 51.8245 146.93C53.236 146.93 54.3812 147.144 55.6906 147.285C56.1883 147.338 56.156 147.873 56.6625 147.976C57.1438 148.073 57.7257 147.995 58.2176 147.995C59.1951 147.995 59.9105 147.285 60.939 147.285C61.9047 147.285 62.3632 149.141 62.6021 149.85C63.3202 151.983 60.9278 153.288 61.5438 155.258C61.9402 156.525 65.1296 157.097 66.1875 157.665C67.0413 158.124 67.7363 159.438 68.1313 160.251C68.9497 161.933 72.2016 160.251 73.6606 159.718C74.3306 159.473 81.8978 156.495 79.9889 155.1C78.3502 153.902 83.8775 153.324 84.4598 153.324C86.8811 153.324 86.4263 150.75 87.7644 149.771C88.5753 149.179 88.3005 148.102 88.3476 147.285C88.4252 145.936 89.7703 144.715 90.8746 143.93C91.3223 143.612 93.6743 143.482 93.7688 143.18C94.0279 142.351 94.4628 141.448 94.568 140.535C94.6701 139.649 95.6802 138.938 95.7343 138.049C95.7916 137.106 95.3455 136.34 95.3455 135.385C95.3455 133.951 97.3607 134.114 97.6565 132.898C98.0033 131.472 99.1428 131.983 99.9244 130.944C100.273 130.482 101.336 130.346 101.544 129.681C101.865 128.657 100.78 127.821 101.35 126.682C101.931 125.521 102.353 125.332 103.207 124.629C104.312 123.721 104.287 123.778 104.287 122.241C104.287 121.412 104.287 120.584 104.287 119.755C104.287 119.342 104.262 118.923 104.287 118.511C104.308 118.163 105.222 117.419 104.978 117.169C104.565 116.744 102.035 117.091 101.479 117.091C99.8255 117.091 100.116 117.484 99.406 118.689C98.6634 119.949 96.9935 121.246 96.9006 122.774C96.8662 123.34 97.2152 124.889 96.7062 125.261C96.375 125.503 95.9644 127.097 95.7343 127.57C95.284 128.495 94.8863 129.299 93.7904 129.8C92.9987 130.161 92.0639 129.585 91.3714 130.155C90.44 130.921 89.7425 131.668 89.5355 132.898C89.4307 133.52 89.9209 135.478 89.3195 135.918C88.5773 136.46 87.9414 137.651 87.4836 138.404C86.8892 139.382 85.7892 140.522 85.0214 141.424C84.2863 142.287 82.9213 142.622 82.516 143.733" stroke="#FF0000" stroke-width="2.10113" stroke-linecap="round" stroke-linejoin="round"/>
<path d="M115.952 106.789C112.667 109.79 108.076 107.936 104.678 110.697C103.744 111.455 100.877 111.635 99.6235 111.762C97.5244 111.975 96.3947 113.733 95.5414 115.137C95.1922 115.711 95.36 116.655 94.7638 117.091C94.3056 117.426 92.8056 117.711 92.6256 117.998C91.6903 119.494 92.5254 121.518 91.6536 122.952C90.9221 124.155 91.5903 125.971 89.321 125.971C87.2101 125.971 86.8184 124.438 85.7141 123.051C84.8177 121.924 86.0184 117.522 86.7076 116.656C87.2806 115.937 87.3464 115.523 88.3491 115.038C88.9954 114.726 90.2929 113.919 90.2929 113.183C90.2929 111.995 87.0431 110.641 86.0164 110.697C84.8055 110.762 82.9304 113.578 82.5175 114.426C81.7843 115.934 80.5736 116.845 80.5736 118.689C80.5736 119.353 80.1848 120.02 80.1848 120.821C80.1848 121.644 80.7248 121.926 80.9408 122.616C81.8587 125.552 83.4041 128.776 81.6535 131.655C80.4067 133.706 78.4929 131.925 76.6859 132.8C74.8227 133.701 74.9583 136.627 74.2668 138.049C73.3244 139.987 72.1966 139.825 70.0767 139.825C67.2748 139.825 66.5778 136.378 66.5778 134.319C66.5778 133.068 69.7795 131.46 71.0486 130.944C72.8112 130.229 71.3248 127.392 73.7701 127.392C76.2526 127.392 74.5407 124.93 73.7701 123.662C73.1719 122.679 73.1869 121.929 73.1869 120.821C73.1869 119.24 74.0347 119.228 74.6556 118.156C75.3861 116.896 73.8651 115.577 73.2733 114.604C72.8943 113.981 71.5637 114.249 70.8543 114.249C69.6498 114.249 70.0724 115.628 69.2992 115.67C68.0138 115.739 66.9497 115.563 65.8002 115.038C63.6154 114.04 60.6768 109.543 59.4934 112.907C58.7476 115.027 58.9125 116.929 57.8519 118.867C56.4712 121.39 55.5264 122.774 52.3875 122.774C51.3344 122.774 49.9163 122.531 48.9102 122.794C48.5317 122.893 47.9878 124.391 47.7006 124.728C46.6522 125.96 45.231 124.749 44.8064 123.682C44.4715 122.841 43.0693 123.129 42.2794 123.129C40.9021 123.129 39.0192 124.784 38.5861 125.971" stroke="#FF0000" stroke-width="2.10113" stroke-linecap="round" stroke-linejoin="round"/>
<path d="M79.7947 96.1318C81.4227 96.1318 83.4743 95.8619 84.7624 96.9211C86.4564 98.3143 88.6337 98.6183 90.8747 98.6183C93.334 98.6183 95.4938 98.1156 97.8727 98.5986C98.8279 98.7926 99.0135 99.9886 100.011 100.039C101.145 100.097 102.062 99.684 103.121 99.684C105.354 99.684 107.278 98.0126 109.341 97.9079C110.33 97.8577 111.741 97.5913 112.257 98.4407C112.609 99.0195 113.238 99.9252 113.812 100.217C114.975 100.807 118.566 102.526 115.173 102.526C112.997 102.526 109.686 101.413 107.786 102.901C105.896 104.381 104.144 103.272 102.171 104.302C100.533 105.157 97.7763 104.117 96.2096 103.236C93.7661 101.862 93.1686 103.891 91.4579 105.368C89.6096 106.963 87.4119 105.56 85.9935 104.48C84.1406 103.069 81.2835 105.368 79.6003 105.368C76.5861 105.368 75.907 104.615 75.907 101.815C75.907 100.083 71.0863 102.171 69.9026 102.171C67.7925 102.171 66.534 101.54 65.0213 100.197C63.9269 99.2257 63.7595 98.391 62.991 97.1974C62.5215 96.4681 61.3333 96.2672 60.5504 96.6646C59.0694 97.4164 58.6173 96.0389 58.0234 95.145C56.7808 93.275 57.5468 91.3571 56.6627 89.5798C56.2917 88.8341 56.2448 87.1665 56.4899 86.3828C56.8024 85.3832 61.3311 86.8959 62.1055 86.8959C63.4945 86.8959 65.7988 83.1036 65.7988 81.9227C65.7988 80.8934 64.2246 80.7251 63.2934 80.482C62.812 80.3564 63.1022 78.4226 63.0774 78.0152C62.9994 76.7322 60.0198 73.8005 58.9953 72.8644C58.0151 71.9687 53.6158 70.2952 53.7469 72.3316C53.8328 73.6658 55.9553 76.0972 56.8571 77.1271C57.7751 78.1756 58.7196 79.4458 58.8009 80.857C58.8777 82.1892 57.3761 80.7915 56.6627 80.5018C54.3817 79.5755 52.9693 79.3478 52.9693 81.9227C52.9693 82.8107 52.9693 83.6988 52.9693 84.5869C52.9693 85.9926 52.2828 85.2131 51.4142 85.1197C50.0358 84.9715 48.304 82.5312 48.304 81.3898C48.304 79.3588 49.5765 77.4834 48.6928 75.6667C47.6936 73.6125 45.1247 73.042 42.8612 73.042C40.7231 73.042 38.5339 74.4759 36.468 73.3972C34.8506 72.5528 34.085 70.6311 32.3643 69.845" stroke="#FF0000" stroke-width="2.10113" stroke-linecap="round" stroke-linejoin="round"/>
<path d="M131.113 106.433C126.819 105.997 123.242 101.063 122.193 97.7106C121.191 94.5043 116.339 94.4735 114.007 92.5796C112.87 91.656 110.615 91.6486 109.169 91.8889C108.282 92.0362 105.826 94.0693 104.677 92.7572C103.909 91.8801 101.178 93.3927 101.178 91.3363C101.178 90.6715 100.917 89.6119 101.61 89.2049C102.822 88.493 104.781 87.9616 106.232 87.9616C107.941 87.9616 109.554 88.8337 110.897 87.6064C111.926 86.6663 112.282 83.4754 111.588 82.278C111.557 82.2247 103.288 82.414 102.733 82.7122C99.1311 84.648 94.365 87.202 92.236 90.6061C91.5574 91.6912 87.734 91.4396 86.9876 90.6061C85.9279 89.4226 85.2252 88.4063 83.8774 87.4485C82.5762 86.5238 80.146 87.3396 79.3201 85.8303C78.8946 85.0526 77.8561 81.3165 79.7953 81.2123C82.1261 81.087 87.7458 80.3934 89.709 81.3899C91.7542 82.4281 92.0461 83.1441 93.1 80.8571C93.7285 79.4931 94.2531 78.4393 96.2102 78.3705C97.6946 78.3183 101.752 79.0695 102.819 78.0942C103.69 77.2986 103.998 75.3686 102.949 74.463C101.548 73.2544 99.234 74.186 99.234 71.9369C99.234 71.0281 99.036 69.8597 99.2556 68.957C99.4141 68.3049 100.532 68.047 100.379 67.5558C99.3298 64.2016 93.2811 65.5019 90.7025 65.2074C88.9179 65.0035 87.5983 63.2705 86.8796 62.0301C86.1831 60.828 83.2286 62.7405 82.1279 62.7405C77.0045 62.7405 82.8494 55.636 77.4626 55.636" stroke="#FF0000" stroke-width="2.10113" stroke-linecap="round" stroke-linejoin="round"/>
<path d="M122.172 71.6217C123.427 72.7692 125.282 72.8175 125.282 74.8187C125.282 76.0187 124.741 79.0151 125.584 79.8708C127.053 81.3626 128.262 82.3875 128.392 84.4098C128.475 85.7027 128.895 87.4061 130.141 88.3173C130.615 88.6635 131.569 89.5483 131.891 89.9158C132.507 90.619 133.446 90.5298 133.446 91.692C133.446 92.6283 133.418 93.3217 133.835 94.1786C134.317 95.1699 135.39 95.2188 135.39 96.4875C135.39 97.1983 135.158 98.3194 135.476 98.9741C135.877 99.7973 136.556 100.536 136.556 101.461C136.556 103.107 136.226 102.012 135.303 101.461C134.397 100.919 133.328 100.142 132.452 99.6846C131.17 99.0152 127.133 99.1612 126.448 98.0663C125.431 96.4397 126.202 94.1306 126.75 92.5011C127.688 89.7177 124.868 88.5824 122.56 87.5279C121.933 87.2416 120.261 87.1455 120.703 86.186C121.069 85.391 121.483 83.0644 120.595 82.4561C118.027 80.6967 116.34 79.7794 116.34 76.6146C116.34 75.6921 116.632 74.7877 115.735 74.2661C114.357 73.4648 112.832 72.679 111.675 71.6217C110.793 70.8163 110.042 70.3392 110.12 69.1351C110.164 68.4441 111.789 67.9823 112.15 67.3589C113.12 65.6843 112.461 62.6772 111.869 60.9451C111.377 59.5054 111.278 57.9041 111.869 56.5245C112.392 55.3041 113.372 55.0341 114.007 54.0182C114.824 52.7117 118.613 50.5717 120.4 51.0382C120.845 51.1544 122.407 51.273 122.733 51.5711C123.332 52.1186 122.757 53.3359 122.971 54.0182C123.368 55.2881 128.248 52.0184 128.953 51.3737C129.661 50.7269 131.113 49.7904 131.113 48.8871C131.113 47.6536 132.075 47.8215 133.144 47.8215C135.759 47.8215 135.39 45.2886 135.39 43.4009C135.39 41.8593 135.001 40.3526 135.001 38.7829C135.001 37.917 132.631 37.9489 132.107 38.4277C131.314 39.1524 129.44 41.2904 129.191 42.3154C128.988 43.1517 128.993 44.4484 128.003 44.9007C124.877 46.3289 126.22 43.4021 124.504 42.572C122.388 41.5481 121.971 43.6992 121.005 44.802C119.581 46.429 114.923 41.6956 116.167 40.559C117.765 39.0991 120.261 38.6254 122.172 37.5988C122.782 37.2704 123.138 36.5974 123.813 36.3753C124.476 36.157 126.409 36.3325 126.75 35.7438C127.012 35.2925 127.12 33.0474 126.75 32.6256C126.075 31.854 124.429 31.7678 123.532 30.9482C121.686 29.2616 122.447 26.9303 123.921 25.2843C124.743 24.366 125.16 24.286 124.699 22.9359C124.378 21.9996 124.367 20.2289 123.338 19.7585" stroke="#FF0000" stroke-width="2.10113" stroke-linecap="round" stroke-linejoin="round"/>
<path d="M129.475 181.928C129.475 180.974 129.8 179.219 130.77 178.665C131.505 178.245 131.64 176.433 131.107 175.868C130.227 174.936 129.009 174.15 129.009 172.721C129.009 171.728 128.983 170.425 129.255 169.471C129.456 168.766 131.893 169.144 132.506 169.108C132.94 169.082 132.7 167.964 132.79 167.658C133.056 166.762 132.831 166.733 132.156 166.207C131.672 165.831 131.69 165.928 131.211 166.065C130.584 166.244 130.349 165.682 129.993 165.327C129.285 164.619 128.878 163.075 127.844 164.627C127.094 165.751 127.119 167.599 125.629 167.93C124.175 168.253 123.608 167.967 122.897 166.544C122.587 165.925 122.504 163.98 123.531 163.98C124.375 163.98 126.212 164.412 126.212 163.164C126.212 162.21 126.054 161.287 126.73 160.535C127.183 160.032 129.28 159.999 129.76 160.432C131.982 162.431 135.035 162.538 136.455 159.46C137.097 158.07 137.401 156.569 137.401 154.889C137.401 153.823 136.468 152.856 136.468 151.742C136.468 150.543 136.54 149.426 136.934 148.272C137.147 147.65 137.367 147.008 137.634 146.407C137.744 146.159 137.748 146.479 137.401 146.497C135.853 146.579 135.642 146.181 135.251 144.814C134.838 143.368 134.717 141.312 133.438 140.307C132.366 139.466 131.669 138.399 130.822 137.458C130.015 136.562 129.869 134.566 129.359 133.431C129.195 133.067 128.937 130.693 128.543 130.647C127.997 130.583 127.555 130.311 127.028 130.194C126.089 129.985 124.962 128.902 124.528 128.083C123.724 126.563 122.949 127.53 122.949 128.899C122.949 130.23 123.494 131.546 124.062 132.745C124.424 133.509 124.854 134.284 125.396 134.946C125.764 135.396 126.473 135.755 126.73 136.241C127.177 137.087 127.204 138.329 127.494 139.258C127.86 140.43 129.19 140.959 129.462 142.185C129.723 143.36 130.082 144.233 130.693 145.332C130.882 145.674 132.028 147.208 132.272 146.964" stroke="#FF9999" stroke-width="2.10113" stroke-linecap="round" stroke-linejoin="round"/>
<path d="M158.146 159.085C155.792 157.908 157.344 154.952 154.882 154.073C153.837 153.7 152.992 153.479 151.969 153.024C150.937 152.566 150.558 150.926 149.288 150.926C148.46 150.926 147.034 151.496 146.258 151.108C145.798 150.878 145.338 150.473 144.976 150.111C144.631 149.766 144.343 149.069 144.043 148.829C143.372 148.291 144.258 146.255 143.81 145.449C143.291 144.514 142.466 143.89 142.528 142.768C142.665 140.298 146.763 141.767 147.786 140.89C148.591 140.2 148.021 139.089 148.925 138.572C149.911 138.009 150.833 139.179 151.671 139.738C153.165 140.734 155.195 140.67 156.928 140.67C158.585 140.67 159.049 140.531 159.544 138.922C159.831 137.991 160.213 138.139 159.259 137.821C158.518 137.574 158.383 136.763 157.861 136.293C157.332 135.817 155.3 136.342 154.753 136.591C151.921 137.878 153.702 133.91 151.619 133.91C150.298 133.91 148.977 133.91 147.656 133.91C146.669 133.91 146.258 134.377 145.571 135.063C145.01 135.624 144.48 135.752 143.81 136.125C142.792 136.69 141.772 137.553 140.806 138.223C140.206 138.638 138.916 140.094 138.099 139.686C137.44 139.356 136.934 138.324 136.934 137.64C136.934 136.351 137.461 136.181 138.449 135.412C139.358 134.705 140.042 134.415 141.129 134.027C141.721 133.816 143.361 132.83 141.829 132.745C140.655 132.68 139.457 132.745 138.281 132.745C137.186 132.745 136.224 132.263 135.185 132.033C134.275 131.83 133.903 130.651 133.903 129.831C133.903 128.702 132.923 128.782 132.039 128.782C130.59 128.782 131.172 127.856 130.29 127.15C129.788 126.749 128.542 125.906 128.542 125.286" stroke="#FF9999" stroke-width="2.10113" stroke-linecap="round" stroke-linejoin="round"/>
<path d="M156.514 129.715C154.571 129.715 152.625 129.596 150.687 129.482C150.547 129.473 149.916 129.052 149.806 128.964C149.432 128.664 148.841 128.782 148.356 128.782C147.818 128.782 145.669 129.096 145.325 128.666C144.93 128.172 143.573 127.589 142.994 127.332C141.827 126.813 141.004 127.802 139.964 128.264C139.144 128.629 138.438 127.098 137.763 126.905C137.391 126.799 135.63 125.945 135.781 125.415C136.031 124.541 138.151 124.587 138.799 124.587C139.947 124.587 141.095 124.587 142.243 124.587C143.675 124.587 144.432 124.733 145.675 125.286C146.815 125.793 147.29 126.218 148.589 126.218C149.8 126.218 150.83 125.752 152.085 125.752C153.366 125.752 153.688 126.918 154.934 126.918C156.811 126.918 158.249 125.286 160.114 125.286C162.293 125.286 162.548 128.971 164.789 129.469C165.885 129.712 166.986 129.322 168.065 129.715C169.261 130.15 170.702 131.49 171.147 132.693C171.766 134.365 171.762 135.303 170.966 136.941C170.351 138.207 168.445 138.06 167.249 137.537C166.601 137.253 165.951 136.875 165.255 136.721C164.695 136.596 164.906 137.658 164.906 137.977C164.906 138.447 164.906 138.918 164.906 139.388C164.906 140.075 165.749 140.303 166.019 140.903C166.504 141.981 165.582 143.315 166.485 144.219C167.216 144.95 168.271 145.201 168.985 145.915C169.951 146.881 170.405 148.224 171.549 147.081C172.327 146.303 172.164 143.777 171.432 143.001C170.485 141.999 171.612 140.268 172.831 140.204C173.412 140.174 173.648 140.705 174.229 140.67C174.689 140.643 174.467 139.6 174.838 139.518C176.418 139.167 176.794 139.892 176.794 141.24C176.794 142.783 175.14 143.411 177.26 143.882C178.747 144.213 182.343 143.182 183.087 145.229C183.554 146.513 184.545 147.609 184.952 148.829" stroke="#FF9999" stroke-width="2.10113" stroke-linecap="round" stroke-linejoin="round"/>
<path d="M106.864 162.115C106.864 159.531 110.594 161.216 110.594 159.201C110.594 158.627 110.601 158.135 110.361 157.596C110.195 157.222 109.674 157.084 109.48 156.754C108.664 155.366 110.179 154.314 109.195 152.973C108.382 151.863 106.398 149.667 106.398 148.233C106.398 146.558 108.078 145.332 109.778 145.332C111.389 145.332 111.067 143.495 111.63 142.431C112.665 140.477 113.34 140.796 114.842 141.836C115.669 142.409 116.826 143.31 117.703 143.7C118.299 143.965 120.617 143.823 120.617 144.529C120.617 145.938 119.523 147.017 119.452 148.362C119.354 150.219 120.133 150.804 121.368 152.04C122.192 152.864 122.088 153.724 123.531 153.724C125.086 153.724 126.473 153.257 128.063 153.257C128.941 153.257 129.17 153.428 128.646 152.429C128.158 151.496 127.4 150.949 126.678 150.227C126.156 149.706 124.347 148.834 124.347 148.129C124.347 147.562 124.208 146.652 124.813 146.316C125.517 145.925 125.361 146.342 125.525 145.436C125.671 144.632 126.214 142.49 125.396 141.836C125.103 141.602 125.114 141.252 124.696 141.02C124.241 140.767 123.662 140.702 123.181 140.489C122.041 139.982 119.455 140.803 118.571 139.919C118.303 139.65 118.299 138.954 118.001 138.624C117.6 138.178 116.979 137.775 116.434 137.536C115.537 137.144 112.925 135.884 112.925 134.726C112.925 133.536 115.155 133.4 115.955 133.444C116.783 133.49 117.512 134.723 118.105 135.257C119.048 136.106 119.873 136.289 120.967 135.438C121.708 134.862 123.136 137.091 122.016 134.739C121.388 133.42 120.048 132.423 119.504 131.061C119.305 130.566 119.076 130.247 119.594 129.844C120.348 129.258 120.761 129.577 120.151 128.73C119.576 127.932 118.519 126.86 118.519 125.868C118.519 124.393 119.69 123.792 120.747 123.188C122.378 122.256 121.514 121.29 122.197 119.924C122.421 119.477 124.624 119.547 124.813 119.924" stroke="#FF9999" stroke-width="2.10113" stroke-linecap="round" stroke-linejoin="round"/>
<path d="M137.4 120.856C138.559 120.856 139.692 121.09 140.897 121.09C141.584 121.09 143.296 121.085 143.927 120.805C146.062 119.856 147.326 118.053 148.951 116.428C149.724 115.655 150.435 114.753 151.153 113.993C151.249 113.891 152.35 112.399 152.539 113.061C152.724 113.709 152.811 114.29 152.785 114.977C152.746 115.993 148.789 120.453 151.852 120.623C153.665 120.724 153.592 119.94 154.649 118.759C155.127 118.224 156.241 116.459 156.281 115.728C156.307 115.256 156.514 114.969 156.514 114.446C156.514 113.889 155.875 113.647 155.815 113.164C155.737 112.54 154.678 111.658 154.365 111.066C154.013 110.403 153.897 108.118 154.416 107.57C155.416 106.515 156.385 107.104 157.68 107.104C158.856 107.104 159.818 107.193 160.658 106.353C161.591 105.42 161.18 103.706 161.461 102.442C161.645 101.614 162.952 99.1297 163.792 100.81C164.319 101.864 164.44 102.671 164.44 103.84C164.44 104.98 165.04 108.965 164.206 109.486C163.806 109.737 163.737 110.367 163.158 110.367C162.589 110.367 162.169 110.192 161.642 110.134C160.744 110.034 159.273 108.948 159.078 110.6C158.992 111.333 158.44 112.679 159.078 113.397C159.639 114.028 160.266 115.503 159.596 116.246C158.997 116.912 158.111 118.377 158.56 119.225C158.774 119.629 159.65 119.508 160.011 119.328C160.832 118.918 160.884 118.525 161.875 118.525C162.646 118.525 163.513 118.253 163.753 119.095C163.87 119.505 164.196 120.184 164.44 120.572C165.001 121.463 164.999 122.076 166.291 121.672C166.743 121.531 167.559 121.363 167.884 121.038C168.241 120.681 168.287 119.83 168.752 119.458C169.596 118.783 169.991 117.257 170.733 116.428C171.104 116.014 171.117 115.262 171.782 115.262C172.473 115.262 172.958 115.852 173.246 116.428C173.328 116.593 173.764 117.573 173.764 116.777C173.764 116.136 174.349 115.56 174.644 115.029C175.209 114.013 176.587 114.724 177.26 115.081C178.483 115.728 179.09 114.549 180.29 115.029" stroke="#FF9999" stroke-width="2.10113" stroke-linecap="round" stroke-linejoin="round"/>
<path d="M155.116 100.344C154.648 100.578 154.175 100.841 153.717 101.095C152.954 101.519 153.094 102.212 152.785 102.908C152.179 104.27 152.387 105.631 151.619 106.974C151.177 107.748 149.547 107.715 148.874 108.321C148.582 108.584 148.224 108.738 147.942 109.02C147.544 109.418 147.561 109.988 147.294 110.484C146.284 112.36 146.157 114.836 144.678 116.479C144.33 116.867 142.691 117.689 142.295 116.997C141.842 116.203 142.062 114.995 142.062 114.097C142.062 113.002 141.596 112.274 141.596 111.248C141.596 109.415 142.441 109.756 143.578 108.619C144.068 108.128 144.2 107.778 144.51 107.22C144.789 106.718 144.507 105.89 145.093 105.524C145.752 105.112 146.119 104.477 146.957 104.255C147.414 104.134 148.123 104.094 148.123 103.491C148.123 102.61 147.916 100.642 148.732 100.098C149.535 99.562 150.182 99.4114 151.153 99.4114C151.73 99.4114 152.319 99.861 152.319 99.1783C152.319 97.9347 152.785 96.7971 152.785 95.5524C152.785 93.0426 155.955 92.7464 157.861 92.1336C159.985 91.451 161.87 88.9971 164.323 90.0875C165.826 90.7554 168.438 93.1481 167.354 95.0991C166.932 95.8581 165.659 98.3854 167.03 98.233C168.602 98.0584 170.083 96.8474 171.614 96.8474C172.339 96.8474 172.629 96.7746 173.116 97.2618C173.509 97.6547 174.374 98.2459 174.929 98.2459C175.524 98.2459 176.328 98.5133 176.328 97.7539C176.328 97.2758 176.917 95.4426 176.509 95.0344C175.338 93.8628 170.723 95.2383 172.132 92.0688C172.435 91.3876 168.319 91.0408 168.921 90.3724C169.556 89.6658 170.673 89.6213 171.549 89.6213C173.097 89.6213 173.475 90.22 174.113 91.3695C174.817 92.6352 176.622 91.2836 177.312 90.7868C178.126 90.201 178.93 89.687 179.643 88.9738C180.063 88.5539 180.659 87.2561 181.106 87.0572C182.784 86.3115 183.398 88.0152 184.719 88.4558" stroke="#FF9999" stroke-width="2.10113" stroke-linecap="round" stroke-linejoin="round"/>
<path d="M138.799 115.495C138.799 112.628 138.991 110.402 140.146 107.803C141.126 105.598 139.898 102.874 139.032 100.926C138.63 100.022 138.109 98.8979 137.167 98.4271C136.11 97.8984 135.52 96.623 136.585 96.0314C139.279 94.5348 140.393 98.1574 141.778 99.6962C143.556 101.672 147.026 98.3389 144.575 96.6141C143.861 96.1121 143.064 95.192 142.179 94.9954C141.541 94.8535 141.086 94.8857 140.884 94.1795C140.527 92.9293 138.882 92.9794 138.113 92.0816C137.452 91.3101 135.369 92.5878 134.785 92.0039C134.055 91.2746 134.426 89.6831 134.021 88.7924C133.838 88.3896 133.671 87.5046 133.671 87.0571C133.671 86.319 134.883 86.7235 134.785 86.4614C134.361 85.3315 135.1 84.1608 134.085 83.1462C133.651 82.7122 133.049 82.5773 132.635 82.0455C132.37 81.7051 132.305 80.5303 132.855 80.5303C133.904 80.5303 134.953 80.5303 136.002 80.5303C136.66 80.5303 138.566 81.5294 138.566 82.2786C138.566 83.4376 138.333 84.7441 138.333 85.775C138.333 86.3451 138.32 86.7834 138.618 87.2902C138.903 87.7753 139.742 87.3593 140.146 87.8082C141.225 89.007 138.675 90.3205 141.493 90.3205C142.632 90.3205 143.84 89.6214 144.342 91.0716C144.569 91.7271 144.939 92.2552 145.559 92.5996C146.616 93.1867 145.897 92.8057 146.543 92.1334C147.146 91.507 147.424 91.5944 147.424 90.6701C147.424 89.9639 147.572 89.1471 148.02 88.5722C149.047 87.2517 151.004 88.3123 152.086 87.2902C153.256 86.1846 152.096 85.0631 151.84 83.9102C151.658 83.094 149.871 82.1783 149.185 81.9289C148.526 81.6892 148.589 80.748 148.589 80.1936C148.589 79.3125 148.872 77.8467 148.538 77.0338C148.408 76.7189 148.939 76.218 149.172 75.9849C149.347 75.8104 150.093 75.4398 150.117 75.2209C150.147 74.9537 149.583 75.0316 149.418 74.8194C148.036 73.042 150.246 73.3676 151.387 73.3043C153.038 73.2125 152.125 71.2454 151.387 70.5071" stroke="#FF9999" stroke-width="2.10113" stroke-linecap="round" stroke-linejoin="round"/>
<path d="M72.8315 149.295C74.185 149.295 75.3406 148.829 76.6777 148.829C78.7486 148.829 78.6812 147.009 79.8245 145.798C80.958 144.598 80.8885 144.167 82.7382 144.167C85.1572 144.167 83.0853 147.113 84.1498 147.417C85.3079 147.748 87.4535 146.029 88.0348 145.099C88.208 144.822 90.6354 143.001 88.7988 143.001C88.2095 143.001 87.5073 143.116 86.934 142.988C86.4881 142.889 85.7182 141.873 86.17 141.421C86.5267 141.065 88.8737 139.927 87.5168 139.324C86.0428 138.668 84.1051 138.806 82.5051 138.806C82.0573 138.806 80.5238 139.07 80.5238 138.456C80.5238 137.729 80.7512 137.283 81.2749 136.759C82.2057 135.829 84.2189 135.775 85.4318 135.775C86.2781 135.775 86.9648 135.916 87.7499 136.008C88.0483 136.043 88.0289 136.394 88.3326 136.462C88.6211 136.526 88.9701 136.475 89.265 136.475C89.8511 136.475 90.28 136.008 90.8967 136.008C91.4757 136.008 91.7506 137.226 91.8938 137.692C92.3243 139.091 90.8899 139.947 91.2593 141.24C91.497 142.072 93.4092 142.447 94.0435 142.82C94.5554 143.121 94.9721 143.983 95.209 144.516C95.6996 145.62 97.6494 144.517 98.5242 144.167C98.9259 144.006 103.463 142.052 102.319 141.136C101.336 140.35 104.65 139.971 104.999 139.971C106.451 139.971 106.178 138.282 106.98 137.64C107.467 137.251 107.302 136.545 107.33 136.008C107.377 135.123 108.183 134.322 108.845 133.807C109.114 133.598 110.524 133.513 110.581 133.315C110.736 132.771 110.997 132.178 111.06 131.579C111.121 130.998 111.727 130.531 111.759 129.948C111.793 129.329 111.526 128.827 111.526 128.2C111.526 127.258 112.734 127.366 112.912 126.568C113.119 125.632 113.803 125.967 114.271 125.286C114.48 124.982 115.118 124.893 115.243 124.457C115.435 123.785 114.784 123.236 115.126 122.489C115.474 121.727 115.728 121.603 116.24 121.142C116.902 120.546 116.887 120.583 116.887 119.575C116.887 119.031 116.887 118.487 116.887 117.943C116.887 117.673 116.872 117.397 116.887 117.127C116.9 116.899 117.447 116.411 117.302 116.247C117.053 115.968 115.537 116.195 115.204 116.195C114.212 116.195 114.386 116.453 113.96 117.244C113.515 118.071 112.514 118.922 112.458 119.925C112.438 120.296 112.647 121.312 112.342 121.556C112.143 121.715 111.897 122.761 111.759 123.071C111.489 123.679 111.251 124.206 110.594 124.535C110.119 124.772 109.558 124.394 109.143 124.768C108.585 125.27 108.167 125.761 108.042 126.568C107.98 126.976 108.273 128.261 107.913 128.549C107.468 128.905 107.087 129.687 106.812 130.181C106.456 130.822 105.796 131.57 105.336 132.162C104.895 132.729 104.077 132.948 103.834 133.677" stroke="#FF9999" stroke-width="2.10113" stroke-linecap="round" stroke-linejoin="round"/>
<path d="M123.881 109.435C121.912 111.404 119.159 110.188 117.121 111.999C116.561 112.497 114.843 112.615 114.091 112.698C112.832 112.838 112.155 113.992 111.643 114.913C111.434 115.289 111.535 115.909 111.177 116.195C110.902 116.414 110.003 116.601 109.895 116.79C109.334 117.772 109.835 119.1 109.312 120.041C108.874 120.83 109.274 122.022 107.914 122.022C106.648 122.022 106.413 121.016 105.751 120.106C105.214 119.367 105.934 116.478 106.347 115.91C106.69 115.437 106.73 115.166 107.331 114.848C107.719 114.643 108.497 114.113 108.497 113.631C108.497 112.851 106.548 111.963 105.932 111.999C105.206 112.042 104.082 113.889 103.835 114.446C103.395 115.435 102.669 116.033 102.669 117.244C102.669 117.68 102.436 118.117 102.436 118.642C102.436 119.182 102.76 119.367 102.889 119.821C103.44 121.747 104.366 123.862 103.317 125.752C102.569 127.097 101.422 125.929 100.338 126.503C99.221 127.094 99.3023 129.015 98.8877 129.947C98.3226 131.219 97.6465 131.113 96.3754 131.113C94.6954 131.113 94.2775 128.851 94.2775 127.5C94.2775 126.679 96.1972 125.624 96.9582 125.286C98.015 124.816 97.1237 122.955 98.5899 122.955C100.078 122.955 99.0519 121.339 98.5899 120.507C98.2312 119.861 98.2402 119.37 98.2402 118.642C98.2402 117.605 98.7486 117.597 99.1208 116.894C99.5588 116.067 98.6469 115.202 98.292 114.563C98.0648 114.154 97.267 114.33 96.8416 114.33C96.1195 114.33 96.3728 115.235 95.9092 115.262C95.1385 115.308 94.5006 115.192 93.8113 114.848C92.5014 114.193 90.7395 111.242 90.03 113.449C89.5828 114.84 89.6817 116.088 89.0458 117.36C88.2179 119.016 87.6515 119.924 85.7694 119.924C85.138 119.924 84.2878 119.765 83.6845 119.937C83.4576 120.002 83.1315 120.985 82.9593 121.206C82.3307 122.014 81.4786 121.22 81.224 120.52C81.0232 119.968 80.1825 120.157 79.7089 120.157C78.8831 120.157 77.7542 121.243 77.4944 122.022" stroke="#FF9999" stroke-width="2.10113" stroke-linecap="round" stroke-linejoin="round"/>
<path d="M102.202 102.441C103.178 102.441 104.408 102.264 105.181 102.959C106.196 103.874 107.502 104.073 108.845 104.073C110.32 104.073 111.615 103.743 113.041 104.06C113.614 104.187 113.725 104.972 114.323 105.006C115.003 105.043 115.553 104.772 116.188 104.772C117.527 104.772 118.681 103.676 119.918 103.607C120.51 103.574 121.356 103.399 121.666 103.957C121.877 104.336 122.254 104.931 122.598 105.122C123.295 105.509 125.448 106.637 123.414 106.637C122.11 106.637 120.124 105.907 118.985 106.883C117.852 107.855 116.801 107.127 115.618 107.803C114.636 108.364 112.983 107.681 112.044 107.103C110.579 106.202 110.221 107.533 109.195 108.502C108.087 109.549 106.769 108.628 105.919 107.919C104.808 106.993 103.095 108.502 102.086 108.502C100.278 108.502 99.8711 108.008 99.8711 106.171C99.8711 105.034 96.9807 106.404 96.271 106.404C95.0058 106.404 94.2513 105.99 93.3443 105.109C92.6881 104.472 92.5878 103.924 92.127 103.141C91.8455 102.662 91.1331 102.53 90.6637 102.791C89.7757 103.284 89.5047 102.38 89.1485 101.794C88.4035 100.567 88.8628 99.3083 88.3327 98.1421C88.1103 97.6527 88.0822 96.5585 88.2291 96.0442C88.4165 95.3883 91.1318 96.3809 91.5961 96.3809C92.4289 96.3809 93.8105 93.8924 93.8105 93.1175C93.8105 92.4421 92.8666 92.3317 92.3083 92.1721C92.0197 92.0897 92.1937 90.8208 92.1788 90.5534C92.1321 89.7115 90.3455 87.7877 89.7313 87.1735C89.1436 86.5858 86.5059 85.4876 86.5845 86.8238C86.636 87.6993 87.9086 89.2948 88.4492 89.9707C88.9997 90.6587 89.566 91.4921 89.6147 92.4182C89.6608 93.2924 88.7605 92.3752 88.3327 92.1851C86.9651 91.5773 86.1183 91.4279 86.1183 93.1175C86.1183 93.7002 86.1183 94.283 86.1183 94.8657C86.1183 95.7881 85.7066 95.2766 85.1859 95.2154C84.3594 95.1181 83.3211 93.5168 83.3211 92.7678C83.3211 91.4351 84.084 90.2045 83.5542 89.0124C82.9551 87.6644 81.4148 87.29 80.0577 87.29C78.7757 87.29 77.4632 88.2309 76.2245 87.5231C75.2548 86.969 74.7957 85.708 73.764 85.1921" stroke="#FF9999" stroke-width="2.10113" stroke-linecap="round" stroke-linejoin="round"/>
<path d="M132.971 109.202C130.397 108.915 128.252 105.678 127.623 103.478C127.022 101.374 124.113 101.353 122.715 100.111C122.033 99.5046 120.681 99.4998 119.814 99.6574C119.282 99.7541 117.809 101.088 117.121 100.227C116.66 99.6517 115.023 100.644 115.023 99.2948C115.023 98.8586 114.866 98.1633 115.282 97.8962C116.008 97.4291 117.183 97.0804 118.053 97.0804C119.078 97.0804 120.045 97.6526 120.85 96.8473C121.467 96.2304 121.681 94.1366 121.265 93.3508C121.246 93.3158 116.288 93.44 115.955 93.6357C113.796 94.906 110.938 96.5819 109.662 98.8157C109.255 99.5277 106.962 99.3626 106.515 98.8157C105.879 98.0391 105.458 97.3722 104.65 96.7437C103.87 96.1369 102.413 96.6722 101.917 95.6818C101.662 95.1715 101.04 92.7199 102.202 92.6515C103.6 92.5693 106.969 92.1141 108.146 92.7681C109.373 93.4493 109.548 93.9191 110.18 92.4184C110.556 91.5234 110.871 90.8318 112.044 90.7867C112.934 90.7525 115.367 91.2454 116.007 90.6054C116.529 90.0833 116.714 88.8169 116.085 88.2226C115.245 87.4295 113.857 88.0408 113.857 86.565C113.857 85.9687 113.739 85.202 113.87 84.6096C113.965 84.1817 114.636 84.0124 114.544 83.6902C113.915 81.4891 110.288 82.3424 108.742 82.1491C107.672 82.0154 106.881 80.8782 106.45 80.0642C106.032 79.2754 104.261 80.5304 103.601 80.5304C100.529 80.5304 104.034 75.8684 100.804 75.8684" stroke="#FF9999" stroke-width="2.10113" stroke-linecap="round" stroke-linejoin="round"/>
<path d="M127.61 86.3581C128.363 87.1111 129.475 87.1428 129.475 88.456C129.475 89.2434 129.151 91.2097 129.656 91.7711C130.537 92.75 131.262 93.4226 131.34 94.7496C131.39 95.598 131.641 96.7158 132.389 97.3137C132.673 97.5409 133.245 98.1215 133.438 98.3626C133.807 98.8241 134.37 98.7656 134.37 99.5281C134.37 100.143 134.353 100.598 134.603 101.16C134.892 101.81 135.536 101.842 135.536 102.675C135.536 103.141 135.396 103.877 135.587 104.307C135.827 104.847 136.235 105.331 136.235 105.938C136.235 107.019 136.037 106.3 135.484 105.938C134.941 105.583 134.3 105.073 133.774 104.773C133.006 104.334 130.585 104.429 130.174 103.711C129.564 102.644 130.027 101.128 130.356 100.059C130.918 98.2327 129.227 97.4876 127.843 96.7957C127.467 96.6078 126.464 96.5448 126.73 95.9151C126.949 95.3935 127.197 93.8668 126.665 93.4676C125.125 92.3131 124.114 91.7111 124.114 89.6344C124.114 89.0291 124.289 88.4356 123.751 88.0934C122.925 87.5675 122.01 87.0519 121.316 86.3581C120.788 85.8296 120.338 85.5165 120.384 84.7264C120.411 84.273 121.385 83.9699 121.601 83.5609C122.183 82.462 121.788 80.4887 121.433 79.3522C121.138 78.4075 121.079 77.3566 121.433 76.4514C121.746 75.6506 122.334 75.4734 122.715 74.8067C123.205 73.9494 125.477 72.5451 126.548 72.8513C126.815 72.9275 127.751 73.0053 127.947 73.201C128.306 73.5602 127.961 74.359 128.089 74.8067C128.327 75.6401 131.253 73.4945 131.676 73.0715C132.101 72.647 132.971 72.0325 132.971 71.4398C132.971 70.6303 133.548 70.7405 134.189 70.7405C135.757 70.7405 135.536 69.0784 135.536 67.8397C135.536 66.8281 135.302 65.8394 135.302 64.8094C135.302 64.2412 133.881 64.2621 133.567 64.5763C133.092 65.0518 131.968 66.4548 131.819 67.1274C131.697 67.6762 131.7 68.5271 131.107 68.8239C129.232 69.761 130.038 67.8405 129.009 67.2958C127.74 66.6239 127.49 68.0354 126.911 68.7591C126.057 69.8267 123.264 66.7207 124.01 65.9749C124.968 65.0169 126.465 64.7061 127.61 64.0324C127.976 63.8169 128.19 63.3753 128.594 63.2295C128.992 63.0863 130.151 63.2015 130.356 62.8151C130.512 62.519 130.577 61.0458 130.356 60.769C129.95 60.2627 128.964 60.2061 128.426 59.6683C127.319 58.5616 127.775 57.0318 128.659 55.9517C129.152 55.3491 129.402 55.2966 129.125 54.4106C128.933 53.7963 128.927 52.6343 128.309 52.3257" stroke="#FF9999" stroke-width="2.10113" stroke-linecap="round" stroke-linejoin="round"/>
<path d="M127.816 207.284C127.816 205.984 128.306 203.595 129.769 202.84C130.878 202.268 131.082 199.8 130.277 199.031C128.95 197.762 127.113 196.691 127.113 194.745C127.113 193.394 127.072 191.618 127.484 190.319C127.787 189.359 131.464 189.874 132.387 189.825C133.043 189.79 132.68 188.268 132.817 187.85C133.217 186.631 132.879 186.59 131.86 185.875C131.129 185.362 131.157 185.494 130.434 185.681C129.489 185.924 129.134 185.16 128.597 184.676C127.529 183.711 126.915 181.609 125.354 183.723C124.224 185.253 124.261 187.769 122.014 188.22C119.82 188.66 118.965 188.271 117.892 186.333C117.425 185.49 117.298 182.841 118.849 182.841C120.121 182.841 122.893 183.429 122.893 181.73C122.893 180.431 122.654 179.174 123.674 178.15C124.358 177.465 127.521 177.421 128.246 178.009C131.598 180.733 136.203 180.878 138.346 176.687C139.313 174.794 139.772 172.749 139.772 170.461C139.772 169.01 138.365 167.693 138.365 166.176C138.365 164.543 138.474 163.021 139.068 161.45C139.389 160.603 139.72 159.729 140.123 158.91C140.289 158.573 140.296 159.009 139.772 159.034C137.438 159.145 137.118 158.603 136.529 156.741C135.905 154.771 135.723 151.972 133.794 150.604C132.177 149.458 131.125 148.005 129.848 146.724C128.63 145.503 128.41 142.785 127.64 141.24C127.393 140.744 127.005 137.511 126.409 137.448C125.586 137.361 124.919 136.99 124.124 136.831C122.708 136.547 121.008 135.072 120.353 133.956C119.139 131.886 117.97 133.204 117.97 135.067C117.97 136.88 118.793 138.672 119.65 140.305C120.196 141.345 120.844 142.401 121.662 143.303C122.217 143.916 123.286 144.405 123.674 145.067C124.349 146.218 124.389 147.91 124.827 149.176C125.379 150.771 127.385 151.492 127.796 153.161C128.19 154.761 128.731 155.95 129.652 157.447C129.938 157.912 131.667 160.001 132.036 159.669" stroke="#FE7A7A" stroke-opacity="0.35" stroke-width="2.10113" stroke-linecap="round" stroke-linejoin="round"/>
<path d="M171.067 176.175C167.517 174.573 169.857 170.548 166.144 169.35C164.567 168.842 163.292 168.541 161.748 167.922C160.193 167.298 159.62 165.065 157.704 165.065C156.455 165.065 154.305 165.841 153.133 165.312C152.44 164.999 151.745 164.447 151.199 163.954C150.679 163.484 150.245 162.535 149.792 162.208C148.779 161.476 150.117 158.704 149.441 157.605C148.657 156.332 147.413 155.482 147.507 153.955C147.714 150.591 153.896 152.591 155.438 151.398C156.653 150.458 155.792 148.945 157.157 148.241C158.644 147.474 160.035 149.067 161.299 149.828C163.554 151.185 166.615 151.098 169.23 151.098C171.729 151.098 172.43 150.909 173.177 148.717C173.609 147.449 174.185 147.651 172.747 147.218C171.628 146.881 171.425 145.777 170.637 145.137C169.839 144.489 166.774 145.204 165.948 145.543C161.676 147.296 164.364 141.892 161.221 141.892C159.228 141.892 157.235 141.892 155.243 141.892C153.753 141.892 153.133 142.527 152.098 143.462C151.251 144.226 150.452 144.401 149.441 144.908C147.906 145.678 146.367 146.853 144.908 147.765C144.003 148.33 142.057 150.314 140.825 149.758C139.83 149.308 139.067 147.903 139.067 146.971C139.067 145.215 139.863 144.984 141.353 143.938C142.725 142.975 143.756 142.58 145.397 142.051C146.289 141.763 148.763 140.421 146.452 140.305C144.68 140.216 142.874 140.305 141.099 140.305C139.448 140.305 137.996 139.649 136.43 139.335C135.057 139.06 134.496 137.454 134.496 136.337C134.496 134.8 133.017 134.909 131.683 134.909C129.498 134.909 130.375 133.647 129.045 132.686C128.288 132.139 126.408 130.992 126.408 130.147" stroke="#FE7A7A" stroke-opacity="0.35" stroke-width="2.10113" stroke-linecap="round" stroke-linejoin="round"/>
<path d="M168.605 136.178C165.674 136.178 162.738 136.016 159.814 135.861C159.604 135.85 158.652 135.276 158.486 135.156C157.921 134.748 157.03 134.909 156.298 134.909C155.487 134.909 152.245 135.336 151.726 134.75C151.13 134.077 149.083 133.284 148.21 132.934C146.448 132.227 145.208 133.574 143.639 134.203C142.401 134.7 141.336 132.614 140.318 132.352C139.757 132.207 137.1 131.045 137.329 130.324C137.705 129.133 140.903 129.195 141.88 129.195C143.613 129.195 145.345 129.195 147.077 129.195C149.237 129.195 150.379 129.395 152.254 130.147C153.974 130.837 154.69 131.417 156.649 131.417C158.476 131.417 160.03 130.782 161.924 130.782C163.857 130.782 164.342 132.369 166.222 132.369C169.054 132.369 171.223 130.147 174.036 130.147C177.324 130.147 177.708 135.165 181.089 135.843C182.742 136.175 184.403 135.644 186.031 136.178C187.835 136.771 190.008 138.596 190.681 140.235C191.615 142.511 191.607 143.789 190.407 146.019C189.479 147.744 186.604 147.543 184.8 146.83C183.822 146.444 182.841 145.93 181.792 145.719C180.947 145.55 181.264 146.996 181.264 147.43C181.264 148.071 181.264 148.711 181.264 149.352C181.264 150.288 182.537 150.598 182.945 151.415C183.676 152.883 182.285 154.699 183.648 155.93C184.751 156.926 186.341 157.268 187.418 158.24C188.876 159.556 189.561 161.385 191.286 159.828C192.46 158.768 192.215 155.328 191.111 154.272C189.682 152.907 191.381 150.551 193.22 150.463C194.097 150.421 194.454 151.145 195.33 151.098C196.023 151.061 195.688 149.641 196.248 149.528C198.632 149.05 199.198 150.038 199.198 151.874C199.198 153.975 196.703 154.83 199.902 155.472C202.146 155.922 207.57 154.518 208.693 157.306C209.397 159.054 210.892 160.547 211.506 162.208" stroke="#FE7A7A" stroke-opacity="0.35" stroke-width="2.10113" stroke-linecap="round" stroke-linejoin="round"/>
<path d="M93.7059 180.302C93.7059 176.782 99.3322 179.078 99.3322 176.334C99.3322 175.552 99.3425 174.882 98.9806 174.147C98.7304 173.639 97.9447 173.45 97.6521 173.001C96.4205 171.111 98.706 169.678 97.2223 167.851C95.9953 166.341 93.0026 163.349 93.0026 161.397C93.0026 159.115 95.5363 157.446 98.1015 157.446C100.531 157.446 100.046 154.944 100.895 153.496C102.456 150.835 103.475 151.269 105.74 152.685C106.989 153.465 108.733 154.693 110.057 155.224C110.956 155.585 114.453 155.391 114.453 156.353C114.453 158.271 112.801 159.741 112.695 161.573C112.547 164.102 113.722 164.899 115.586 166.581C116.828 167.703 116.671 168.874 118.848 168.874C121.194 168.874 123.287 168.239 125.686 168.239C127.009 168.239 127.355 168.472 126.565 167.11C125.828 165.84 124.685 165.095 123.596 164.112C122.809 163.402 120.079 162.216 120.079 161.256C120.079 160.482 119.87 159.244 120.782 158.787C121.844 158.254 121.608 158.821 121.857 157.587C122.077 156.493 122.896 153.576 121.662 152.685C121.22 152.366 121.237 151.89 120.607 151.574C119.92 151.229 119.046 151.142 118.321 150.851C116.6 150.16 112.7 151.279 111.366 150.075C110.961 149.709 110.955 148.761 110.507 148.311C109.902 147.704 108.965 147.155 108.143 146.83C106.789 146.295 102.849 144.579 102.849 143.003C102.849 141.383 106.212 141.196 107.42 141.257C108.669 141.32 109.768 142.999 110.663 143.726C112.086 144.882 113.33 145.132 114.98 143.973C116.098 143.188 118.252 146.224 116.563 143.021C115.616 141.225 113.594 139.866 112.773 138.012C112.474 137.338 112.129 136.903 112.91 136.354C114.047 135.556 114.669 135.991 113.75 134.838C112.883 133.751 111.288 132.29 111.288 130.94C111.288 128.931 113.054 128.112 114.648 127.29C117.109 126.021 115.806 124.706 116.836 122.846C117.173 122.237 120.498 122.332 120.782 122.846" stroke="#FE7A7A" stroke-opacity="0.35" stroke-width="2.10113" stroke-linecap="round" stroke-linejoin="round"/>
<path d="M139.771 124.115C141.519 124.115 143.228 124.432 145.046 124.432C146.083 124.432 148.664 124.427 149.617 124.044C152.838 122.752 154.745 120.297 157.197 118.084C158.361 117.032 159.435 115.804 160.518 114.768C160.663 114.629 162.323 112.597 162.608 113.499C162.888 114.381 163.019 115.173 162.979 116.109C162.92 117.492 156.951 123.566 161.573 123.798C164.308 123.935 164.197 122.868 165.792 121.258C166.514 120.531 168.193 118.127 168.254 117.131C168.294 116.488 168.606 116.098 168.606 115.386C168.606 114.626 167.642 114.298 167.551 113.64C167.433 112.789 165.835 111.588 165.363 110.783C164.833 109.879 164.657 106.768 165.441 106.021C166.949 104.584 168.41 105.386 170.364 105.386C172.138 105.386 173.589 105.508 174.857 104.363C176.264 103.093 175.644 100.76 176.068 99.0375C176.346 97.9108 178.317 94.5273 179.585 96.8155C180.38 98.2504 180.562 99.3502 180.562 100.942C180.562 102.494 181.467 107.922 180.21 108.631C179.606 108.972 179.501 109.83 178.627 109.83C177.771 109.83 177.136 109.593 176.342 109.513C174.987 109.377 172.767 107.898 172.474 110.148C172.344 111.146 171.51 112.979 172.474 113.957C173.319 114.816 174.265 116.824 173.255 117.837C172.351 118.743 171.015 120.738 171.692 121.893C172.015 122.444 173.337 122.279 173.88 122.034C175.119 121.475 175.198 120.941 176.693 120.941C177.856 120.941 179.163 120.57 179.526 121.717C179.703 122.275 180.194 123.2 180.562 123.727C181.408 124.941 181.405 125.776 183.355 125.226C184.036 125.034 185.267 124.805 185.758 124.362C186.296 123.877 186.365 122.717 187.067 122.21C188.34 121.291 188.936 119.214 190.056 118.084C190.614 117.52 190.634 116.497 191.638 116.497C192.68 116.497 193.412 117.3 193.846 118.084C193.971 118.309 194.627 119.643 194.627 118.56C194.627 117.686 195.511 116.902 195.956 116.179C196.807 114.796 198.887 115.764 199.902 116.25C201.746 117.131 202.663 115.526 204.473 116.179" stroke="#FE7A7A" stroke-opacity="0.35" stroke-width="2.10113" stroke-linecap="round" stroke-linejoin="round"/>
<path d="M166.496 96.1807C165.79 96.4994 165.077 96.8571 164.386 97.2035C163.235 97.7812 163.447 98.7247 162.98 99.6725C162.066 101.528 162.38 103.381 161.222 105.21C160.555 106.264 158.096 106.219 157.08 107.044C156.639 107.402 156.1 107.611 155.674 107.996C155.073 108.539 155.1 109.314 154.697 109.989C153.173 112.544 152.982 115.917 150.751 118.154C150.225 118.682 147.752 119.801 147.156 118.86C146.471 117.778 146.804 116.133 146.804 114.909C146.804 113.419 146.101 112.427 146.101 111.03C146.101 108.534 147.375 108.998 149.09 107.45C149.83 106.781 150.029 106.304 150.497 105.545C150.917 104.861 150.492 103.733 151.376 103.235C152.37 102.674 152.924 101.809 154.189 101.507C154.878 101.342 155.947 101.287 155.947 100.466C155.947 99.2671 155.634 96.5865 156.865 95.8456C158.078 95.116 159.054 94.911 160.518 94.911C161.388 94.911 162.277 95.5231 162.277 94.5935C162.277 92.8999 162.98 91.3507 162.98 89.6556C162.98 86.2377 167.762 85.8344 170.638 84.9999C173.842 84.0703 176.685 80.7286 180.386 82.2135C182.653 83.123 186.593 86.3814 184.958 89.0384C184.322 90.0719 182.401 93.5136 184.469 93.3061C186.84 93.0683 189.075 91.4191 191.385 91.4191C192.478 91.4191 192.916 91.3201 193.651 91.9835C194.244 92.5186 195.549 93.3238 196.386 93.3238C197.283 93.3238 198.496 93.6878 198.496 92.6536C198.496 92.0026 199.385 89.5061 198.769 88.9502C197.002 87.3547 190.041 89.2279 192.166 84.9117C192.623 83.984 186.414 83.5117 187.321 82.6015C188.281 81.6392 189.965 81.5786 191.287 81.5786C193.622 81.5786 194.192 82.3939 195.155 83.9594C196.216 85.6829 198.94 83.8423 199.981 83.1658C201.208 82.368 202.421 81.6681 203.497 80.6968C204.13 80.1251 205.03 78.3576 205.705 78.0868C208.236 77.0712 209.161 79.3914 211.155 79.9914" stroke="#FE7A7A" stroke-opacity="0.35" stroke-width="2.10113" stroke-linecap="round" stroke-linejoin="round"/>
<path d="M141.882 116.814C141.882 112.91 142.171 109.878 143.913 106.338C145.391 103.336 143.539 99.6257 142.233 96.9741C141.627 95.7422 140.84 94.2115 139.42 93.5704C137.825 92.8504 136.934 91.1136 138.541 90.3079C142.605 88.2699 144.286 93.2032 146.375 95.2987C149.057 97.9891 154.292 93.4503 150.594 91.1015C149.518 90.4178 148.315 89.1649 146.98 88.8971C146.017 88.7039 145.331 88.7477 145.027 87.786C144.488 86.0835 142.007 86.1516 140.846 84.9291C139.849 83.8784 136.706 85.6183 135.825 84.8233C134.725 83.83 135.284 81.6627 134.673 80.4497C134.397 79.9012 134.145 78.696 134.145 78.0866C134.145 77.0815 135.974 77.6324 135.825 77.2754C135.186 75.7367 136.301 74.1425 134.771 72.7607C134.116 72.1697 133.207 71.9859 132.583 71.2617C132.183 70.7981 132.084 69.1984 132.915 69.1984C134.497 69.1984 136.079 69.1984 137.662 69.1984C138.654 69.1984 141.53 70.5589 141.53 71.5791C141.53 73.1576 141.178 74.9368 141.178 76.3407C141.178 77.1171 141.158 77.7139 141.608 78.404C142.039 79.0647 143.304 78.4982 143.913 79.1094C145.541 80.7421 141.694 82.5307 145.945 82.5307C147.663 82.5307 149.486 81.5787 150.243 83.5536C150.585 84.4463 151.144 85.1655 152.079 85.6345C153.673 86.434 152.589 85.9152 153.564 84.9997C154.473 84.1465 154.892 84.2656 154.892 83.0069C154.892 82.0451 155.116 80.9329 155.791 80.1499C157.34 78.3517 160.293 79.796 161.925 78.404C163.691 76.8985 161.941 75.3711 161.554 73.8012C161.28 72.6896 158.584 71.4426 157.549 71.103C156.555 70.7765 156.651 69.4949 156.651 68.7398C156.651 67.5399 157.077 65.5438 156.572 64.4368C156.377 64.008 157.178 63.3259 157.53 63.0083C157.793 62.7707 158.919 62.266 158.956 61.9679C159.001 61.6041 158.15 61.7101 157.901 61.4212C155.815 59.0007 159.149 59.4441 160.87 59.3578C163.362 59.2329 161.984 56.5541 160.87 55.5486" stroke="#FE7A7A" stroke-opacity="0.35" stroke-width="2.10113" stroke-linecap="round" stroke-linejoin="round"/>
<path d="M42.3653 162.843C44.407 162.843 46.1504 162.208 48.1674 162.208C51.2916 162.208 51.1899 159.73 52.9146 158.082C54.6245 156.447 54.5198 155.859 57.3101 155.859C60.9594 155.859 57.8337 159.872 59.4395 160.286C61.1867 160.737 64.4235 158.396 65.3003 157.129C65.5616 156.752 69.2235 154.272 66.4529 154.272C65.5639 154.272 64.5045 154.428 63.6397 154.255C62.9671 154.12 61.8057 152.736 62.4871 152.121C63.0254 151.635 66.5659 150.085 64.5188 149.264C62.2953 148.372 59.3721 148.558 56.9585 148.558C56.2829 148.558 53.9695 148.918 53.9695 148.082C53.9695 147.093 54.3127 146.485 55.1026 145.772C56.5067 144.505 59.5438 144.432 61.3736 144.432C62.6503 144.432 63.6862 144.623 64.8705 144.749C65.3207 144.797 65.2914 145.274 65.7496 145.366C66.1849 145.454 66.7113 145.384 67.1562 145.384C68.0403 145.384 68.6873 144.749 69.6177 144.749C70.4911 144.749 70.9059 146.408 71.1219 147.042C71.7714 148.947 69.6075 150.113 70.1647 151.874C70.5232 153.007 73.408 153.517 74.3649 154.025C75.1371 154.435 75.7657 155.61 76.1231 156.336C76.8632 157.839 79.8046 156.336 81.1242 155.859C81.7303 155.641 88.5747 152.98 86.8482 151.733C85.366 150.662 90.3654 150.146 90.8921 150.146C93.0821 150.146 92.6707 147.845 93.8811 146.971C94.6145 146.442 94.366 145.479 94.4085 144.749C94.4788 143.544 95.6953 142.452 96.6942 141.751C97.0992 141.467 99.2265 141.351 99.312 141.081C99.5464 140.341 99.9398 139.533 100.035 138.718C100.127 137.925 101.041 137.291 101.09 136.496C101.142 135.654 100.738 134.969 100.738 134.115C100.738 132.834 102.561 132.98 102.828 131.893C103.142 130.619 104.173 131.075 104.88 130.147C105.195 129.734 106.157 129.613 106.345 129.018C106.635 128.103 105.653 127.356 106.169 126.338C106.694 125.3 107.077 125.131 107.849 124.504C108.848 123.692 108.826 123.743 108.826 122.37C108.826 121.629 108.826 120.889 108.826 120.148C108.826 119.779 108.803 119.405 108.826 119.037C108.845 118.726 109.671 118.061 109.451 117.838C109.077 117.457 106.789 117.767 106.286 117.767C104.79 117.767 105.053 118.118 104.411 119.196C103.739 120.322 102.229 121.481 102.145 122.846C102.114 123.352 102.429 124.736 101.969 125.068C101.669 125.284 101.298 126.709 101.09 127.131C100.682 127.959 100.323 128.677 99.3315 129.124C98.6154 129.447 97.77 128.933 97.1435 129.442C96.3011 130.126 95.6703 130.794 95.483 131.893C95.3882 132.449 95.8316 134.198 95.2876 134.591C94.6163 135.076 94.0411 136.141 93.6271 136.813C93.0894 137.687 92.0945 138.705 91.4 139.511C90.7352 140.283 89.5005 140.582 89.1339 141.575" stroke="#FE7A7A" stroke-opacity="0.35" stroke-width="2.10113" stroke-linecap="round" stroke-linejoin="round"/>
<path d="M119.376 108.561C116.406 111.243 112.253 109.586 109.179 112.053C108.334 112.731 105.741 112.891 104.607 113.005C102.709 113.196 101.687 114.767 100.915 116.021C100.599 116.534 100.751 117.377 100.212 117.767C99.7974 118.066 98.4407 118.321 98.2779 118.578C97.4319 119.914 98.1872 121.723 97.3988 123.004C96.7371 124.08 97.3415 125.703 95.2889 125.703C93.3796 125.703 93.0253 124.332 92.0264 123.093C91.2157 122.086 92.3017 118.152 92.9251 117.379C93.4433 116.735 93.5029 116.366 94.4098 115.933C94.9944 115.653 96.168 114.932 96.168 114.275C96.168 113.214 93.2285 112.004 92.2999 112.053C91.2046 112.111 89.5086 114.627 89.1351 115.386C88.472 116.733 87.3769 117.547 87.3769 119.195C87.3769 119.789 87.0253 120.384 87.0253 121.1C87.0253 121.835 87.5137 122.087 87.709 122.705C88.5393 125.328 89.9371 128.209 88.3537 130.782C87.2259 132.614 85.4949 131.023 83.8605 131.804C82.1753 132.61 82.2979 135.225 81.6725 136.495C80.82 138.227 79.8 138.083 77.8825 138.083C75.3482 138.083 74.7177 135.002 74.7177 133.162C74.7177 132.045 77.6137 130.607 78.7616 130.147C80.3559 129.507 79.0114 126.972 81.2232 126.972C83.4686 126.972 81.9202 124.772 81.2232 123.639C80.6821 122.76 80.6957 122.091 80.6957 121.1C80.6957 119.687 81.4625 119.677 82.0241 118.719C82.6849 117.592 81.3091 116.414 80.7738 115.545C80.431 114.988 79.2275 115.227 78.5858 115.227C77.4964 115.227 77.8786 116.46 77.1793 116.497C76.0166 116.559 75.0542 116.402 74.0145 115.933C72.0384 115.041 69.3804 111.022 68.31 114.028C67.6355 115.923 67.7846 117.622 66.8253 119.354C65.5764 121.609 64.7219 122.846 61.8828 122.846C60.9302 122.846 59.6476 122.629 58.7375 122.863C58.3952 122.952 57.9032 124.29 57.6435 124.592C56.6952 125.692 55.4098 124.61 55.0257 123.657C54.7228 122.905 53.4545 123.163 52.74 123.163C51.4942 123.163 49.7912 124.642 49.3994 125.703" stroke="#FE7A7A" stroke-opacity="0.35" stroke-width="2.10113" stroke-linecap="round" stroke-linejoin="round"/>
<path d="M86.6726 99.0379C88.1451 99.0379 90.0008 98.7968 91.1658 99.7433C92.6981 100.988 94.6674 101.26 96.6944 101.26C98.9189 101.26 100.872 100.811 103.024 101.242C103.888 101.416 104.056 102.484 104.958 102.53C105.984 102.581 106.813 102.212 107.771 102.212C109.791 102.212 111.531 100.719 113.398 100.625C114.292 100.58 115.568 100.342 116.035 101.101C116.353 101.618 116.922 102.428 117.441 102.688C118.493 103.216 121.741 104.752 118.672 104.752C116.704 104.752 113.709 103.757 111.991 105.087C110.281 106.41 108.697 105.418 106.912 106.339C105.431 107.103 102.937 106.174 101.52 105.387C99.3097 104.159 98.7693 105.972 97.2219 107.291C95.5501 108.717 93.5623 107.463 92.2794 106.498C90.6034 105.237 88.0192 107.291 86.4968 107.291C83.7704 107.291 83.1562 106.618 83.1562 104.117C83.1562 102.568 78.7959 104.434 77.7252 104.434C75.8167 104.434 74.6784 103.871 73.3102 102.671C72.3202 101.803 72.1688 101.057 71.4738 99.9902C71.0491 99.3385 69.9744 99.1589 69.2663 99.5141C67.9267 100.186 67.5178 98.9549 66.9806 98.1562C65.8566 96.4851 66.5495 94.7712 65.7498 93.183C65.4143 92.5166 65.3719 91.0264 65.5935 90.326C65.8762 89.4329 69.9724 90.7846 70.6728 90.7846C71.9292 90.7846 74.0134 87.3958 74.0134 86.3405C74.0134 85.4207 72.5895 85.2703 71.7473 85.0531C71.3118 84.9408 71.5743 83.2128 71.5519 82.8487C71.4814 81.7022 68.7863 79.0823 67.8597 78.2458C66.9731 77.4455 62.9939 75.9499 63.1125 77.7697C63.1902 78.9619 65.11 81.1347 65.9256 82.0551C66.756 82.992 67.6103 84.127 67.6839 85.3881C67.7533 86.5787 66.3951 85.3296 65.7498 85.0707C63.6867 84.2429 62.4092 84.0395 62.4092 86.3405C62.4092 87.134 62.4092 87.9276 62.4092 88.7212C62.4092 89.9774 61.7882 89.2808 61.0026 89.1974C59.7558 89.065 58.1895 86.8842 58.1895 85.8643C58.1895 84.0493 59.3404 82.3735 58.5411 80.75C57.6373 78.9143 55.3138 78.4045 53.2665 78.4045C51.3325 78.4045 49.3525 79.6859 47.4839 78.722C46.0209 77.9673 45.3284 76.2501 43.7721 75.5476" stroke="#FE7A7A" stroke-opacity="0.35" stroke-width="2.10113" stroke-linecap="round" stroke-linejoin="round"/>
<path d="M133.09 108.244C129.206 107.854 125.97 103.445 125.022 100.449C124.115 97.5837 119.727 97.5562 117.618 95.8638C116.589 95.0385 114.549 95.0319 113.242 95.2465C112.439 95.3782 110.217 97.195 109.178 96.0225C108.484 95.2387 106.013 96.5904 106.013 94.7527C106.013 94.1587 105.777 93.2118 106.404 92.8481C107.5 92.2119 109.272 91.7371 110.585 91.7371C112.131 91.7371 113.589 92.5164 114.804 91.4196C115.735 90.5795 116.057 87.7281 115.43 86.6581C115.402 86.6105 107.922 86.7796 107.42 87.0461C104.162 88.776 99.8511 91.0582 97.9255 94.1002C97.3117 95.0699 93.8534 94.8451 93.1783 94.1002C92.2198 93.0426 91.5842 92.1345 90.3652 91.2786C89.1883 90.4522 86.9902 91.1812 86.2431 89.8325C85.8582 89.1375 84.9189 85.7989 86.6729 85.7058C88.7812 85.5938 93.8641 84.974 95.6398 85.8645C97.4897 86.7922 97.7537 87.432 98.7069 85.3883C99.2754 84.1695 99.7499 83.2278 101.52 83.1663C102.863 83.1197 106.533 83.7909 107.498 82.9194C108.286 82.2084 108.564 80.4838 107.615 79.6745C106.348 78.5944 104.255 79.4269 104.255 77.4172C104.255 76.605 104.076 75.5609 104.275 74.7542C104.418 74.1715 105.429 73.941 105.29 73.5021C104.342 70.5047 98.8708 71.6667 96.5385 71.4035C94.9243 71.2213 93.7307 69.6727 93.0806 68.5642C92.4507 67.4901 89.7783 69.1991 88.7828 69.1991C84.1486 69.1991 89.4353 62.8503 84.563 62.8503" stroke="#FE7A7A" stroke-opacity="0.35" stroke-width="2.10113" stroke-linecap="round" stroke-linejoin="round"/>
<path d="M125.002 77.1348C126.138 78.1603 127.815 78.2035 127.815 79.9918C127.815 81.0641 127.326 83.7418 128.089 84.5064C129.418 85.8395 130.511 86.7554 130.628 88.5626C130.704 89.7179 131.083 91.2401 132.211 92.0544C132.639 92.3637 133.502 93.1544 133.793 93.4828C134.35 94.1112 135.2 94.0315 135.2 95.07C135.2 95.9067 135.174 96.5264 135.551 97.2921C135.988 98.178 136.958 98.2217 136.958 99.3554C136.958 99.9905 136.748 100.992 137.036 101.577C137.398 102.313 138.013 102.973 138.013 103.8C138.013 105.271 137.714 104.292 136.88 103.8C136.06 103.316 135.093 102.621 134.301 102.212C133.141 101.614 129.49 101.745 128.87 100.766C127.95 99.3127 128.647 97.2492 129.144 95.7931C129.991 93.3058 127.441 92.2912 125.354 91.3489C124.787 91.093 123.274 91.0072 123.674 90.1497C124.005 89.4394 124.379 87.3603 123.576 86.8166C121.254 85.2444 119.727 84.4247 119.727 81.5966C119.727 80.7722 119.992 79.964 119.18 79.498C117.934 78.7819 116.554 78.0797 115.508 77.1348C114.711 76.4152 114.031 75.9888 114.101 74.9128C114.141 74.2953 115.611 73.8826 115.938 73.3256C116.815 71.8291 116.219 69.1419 115.684 67.5941C115.238 66.3076 115.149 64.8766 115.684 63.6438C116.156 62.5532 117.043 62.3119 117.618 61.4041C118.357 60.2365 121.784 58.3242 123.4 58.7411C123.803 58.8449 125.215 58.9509 125.51 59.2173C126.052 59.7066 125.532 60.7943 125.725 61.4041C126.084 62.5389 130.498 59.6171 131.136 59.0409C131.777 58.4629 133.09 57.6261 133.09 56.8189C133.09 55.7165 133.959 55.8666 134.926 55.8666C137.292 55.8666 136.958 53.6032 136.958 51.9162C136.958 50.5387 136.606 49.1923 136.606 47.7896C136.606 47.0158 134.463 47.0442 133.989 47.4721C133.271 48.1197 131.577 50.0303 131.351 50.9463C131.167 51.6936 131.172 52.8523 130.277 53.2565C127.449 54.5328 128.664 51.9173 127.112 51.1756C125.198 50.2606 124.821 52.1828 123.947 53.1684C122.659 54.6222 118.446 50.3924 119.571 49.3767C121.016 48.0721 123.275 47.6488 125.002 46.7314C125.555 46.438 125.876 45.8365 126.487 45.638C127.087 45.443 128.835 45.5999 129.144 45.0737C129.38 44.6704 129.478 42.6642 129.144 42.2873C128.533 41.5978 127.044 41.5208 126.233 40.7883C124.563 39.2812 125.251 37.1979 126.585 35.727C127.328 34.9064 127.705 34.8348 127.288 33.6284C126.998 32.7917 126.988 31.2093 126.057 30.7891" stroke="#FE7A7A" stroke-opacity="0.35" stroke-width="2.10113" stroke-linecap="round" stroke-linejoin="round"/>
<path d="M128.111 233.548C128.111 231.857 128.766 228.75 130.72 227.768C132.201 227.024 132.472 223.814 131.398 222.814C129.625 221.164 127.172 219.77 127.172 217.24C127.172 215.482 127.118 213.173 127.668 211.483C128.073 210.235 132.982 210.905 134.216 210.841C135.092 210.796 134.606 208.816 134.79 208.272C135.324 206.686 134.872 206.634 133.511 205.703C132.536 205.036 132.572 205.208 131.607 205.451C130.346 205.768 129.871 204.773 129.155 204.144C127.728 202.89 126.908 200.156 124.824 202.905C123.315 204.895 123.364 208.167 120.363 208.754C117.434 209.326 116.292 208.82 114.858 206.3C114.235 205.203 114.066 201.758 116.137 201.758C117.836 201.758 121.537 202.523 121.537 200.313C121.537 198.623 121.218 196.988 122.58 195.657C123.493 194.765 127.718 194.708 128.685 195.474C133.161 199.016 139.311 199.204 142.173 193.753C143.465 191.291 144.077 188.632 144.077 185.657C144.077 183.769 142.199 182.057 142.199 180.083C142.199 177.959 142.344 175.98 143.138 173.936C143.565 172.835 144.008 171.698 144.547 170.633C144.768 170.195 144.776 170.762 144.077 170.794C140.96 170.938 140.533 170.234 139.746 167.812C138.914 165.25 138.67 161.61 136.094 159.83C133.935 158.339 132.53 156.45 130.824 154.784C129.198 153.196 128.905 149.661 127.876 147.651C127.546 147.006 127.028 142.802 126.233 142.72C125.133 142.606 124.242 142.124 123.18 141.917C121.29 141.547 119.02 139.63 118.145 138.178C116.524 135.486 114.963 137.2 114.963 139.623C114.963 141.981 116.062 144.312 117.206 146.435C117.935 147.789 118.801 149.161 119.893 150.335C120.635 151.131 122.062 151.768 122.58 152.628C123.482 154.126 123.535 156.327 124.12 157.972C124.857 160.048 127.536 160.985 128.085 163.156C128.611 165.237 129.334 166.784 130.563 168.73C130.946 169.335 133.254 172.053 133.746 171.62" stroke="#FF0000" stroke-opacity="0.35" stroke-width="2.10113" stroke-linecap="round" stroke-linejoin="round"/>
<path d="M185.869 193.088C181.128 191.004 184.253 185.769 179.294 184.212C177.188 183.551 175.486 183.159 173.425 182.354C171.347 181.542 170.582 178.638 168.024 178.638C166.357 178.638 163.484 179.647 161.92 178.959C160.994 178.553 160.067 177.835 159.337 177.193C158.642 176.583 158.063 175.348 157.459 174.923C156.106 173.971 157.892 170.365 156.989 168.936C155.943 167.28 154.281 166.175 154.406 164.188C154.683 159.813 162.938 162.415 164.998 160.863C166.62 159.64 165.471 157.673 167.294 156.757C169.279 155.76 171.137 157.832 172.825 158.821C175.836 160.586 179.923 160.473 183.416 160.473C186.753 160.473 187.689 160.227 188.686 157.376C189.263 155.727 190.032 155.989 188.112 155.427C186.618 154.989 186.347 153.552 185.295 152.72C184.229 151.877 180.135 152.807 179.034 153.248C173.328 155.528 176.917 148.5 172.72 148.5C170.059 148.5 167.398 148.5 164.737 148.5C162.748 148.5 161.919 149.326 160.537 150.541C159.406 151.536 158.339 151.763 156.989 152.422C154.939 153.423 152.884 154.952 150.937 156.138C149.728 156.873 147.129 159.453 145.484 158.729C144.155 158.145 143.136 156.318 143.136 155.106C143.136 152.822 144.199 152.521 146.189 151.16C148.02 149.908 149.398 149.394 151.589 148.706C152.781 148.332 156.084 146.586 152.998 146.436C150.632 146.32 148.219 146.436 145.849 146.436C143.644 146.436 141.706 145.583 139.614 145.174C137.781 144.816 137.032 142.727 137.032 141.275C137.032 139.276 135.057 139.417 133.275 139.417C130.357 139.417 131.529 137.776 129.753 136.527C128.741 135.815 126.231 134.324 126.231 133.224" stroke="#FF0000" stroke-opacity="0.35" stroke-width="2.10113" stroke-linecap="round" stroke-linejoin="round"/>
<path d="M182.582 141.069C178.667 141.069 174.746 140.858 170.842 140.656C170.562 140.641 169.29 139.894 169.068 139.738C168.314 139.208 167.124 139.417 166.146 139.417C165.064 139.417 160.734 139.972 160.041 139.211C159.245 138.335 156.512 137.304 155.346 136.848C152.993 135.929 151.337 137.681 149.241 138.5C147.589 139.145 146.166 136.433 144.806 136.091C144.058 135.904 140.509 134.393 140.815 133.454C141.318 131.905 145.588 131.986 146.893 131.986C149.206 131.986 151.519 131.986 153.832 131.986C156.717 131.986 158.242 132.246 160.746 133.224C163.042 134.122 163.999 134.876 166.616 134.876C169.055 134.876 171.131 134.05 173.659 134.05C176.24 134.05 176.888 136.114 179.399 136.114C183.18 136.114 186.077 133.224 189.834 133.224C194.224 133.224 194.737 139.751 199.252 140.633C201.46 141.064 203.678 140.374 205.852 141.069C208.261 141.839 211.163 144.212 212.061 146.344C213.308 149.305 213.298 150.967 211.696 153.867C210.457 156.11 206.617 155.849 204.209 154.922C202.902 154.42 201.593 153.751 200.191 153.477C199.063 153.257 199.487 155.138 199.487 155.702C199.487 156.536 199.487 157.369 199.487 158.202C199.487 159.419 201.186 159.823 201.73 160.886C202.707 162.795 200.849 165.157 202.669 166.758C204.142 168.052 206.266 168.498 207.704 169.762C209.651 171.474 210.566 173.852 212.87 171.826C214.437 170.449 214.11 165.975 212.635 164.601C210.727 162.826 212.997 159.761 215.453 159.647C216.624 159.593 217.099 160.533 218.27 160.473C219.196 160.425 218.748 158.578 219.496 158.432C222.68 157.81 223.436 159.095 223.436 161.482C223.436 164.214 220.103 165.327 224.375 166.161C227.371 166.747 234.615 164.922 236.114 168.547C237.055 170.821 239.052 172.762 239.871 174.923" stroke="#FF0000" stroke-opacity="0.35" stroke-width="2.10113" stroke-linecap="round" stroke-linejoin="round"/>
<path d="M82.5606 198.455C82.5606 193.878 90.074 196.864 90.074 193.295C90.074 192.278 90.0877 191.407 89.6044 190.451C89.2703 189.79 88.2212 189.544 87.8304 188.96C86.1856 186.501 89.2378 184.638 87.2565 182.262C85.6179 180.298 81.6215 176.407 81.6215 173.867C81.6215 170.9 85.005 168.73 88.4305 168.73C91.6747 168.73 91.0271 165.475 92.1611 163.592C94.2454 160.13 95.6058 160.696 98.6309 162.537C100.298 163.552 102.629 165.149 104.396 165.84C105.597 166.309 110.266 166.057 110.266 167.308C110.266 169.802 108.061 171.714 107.918 174.097C107.721 177.385 109.29 178.422 111.779 180.611C113.438 182.069 113.229 183.593 116.136 183.593C119.268 183.593 122.064 182.767 125.267 182.767C127.034 182.767 127.496 183.069 126.441 181.299C125.457 179.647 123.93 178.678 122.475 177.4C121.425 176.476 117.78 174.933 117.78 173.684C117.78 172.678 117.501 171.068 118.719 170.473C120.137 169.78 119.822 170.518 120.154 168.913C120.448 167.49 121.541 163.696 119.893 162.537C119.304 162.123 119.325 161.503 118.484 161.092C117.567 160.644 116.4 160.53 115.432 160.151C113.134 159.254 107.926 160.708 106.144 159.142C105.603 158.666 105.595 157.434 104.996 156.849C104.189 156.059 102.938 155.344 101.84 154.922C100.032 154.227 94.7699 151.995 94.7699 149.945C94.7699 147.838 99.262 147.595 100.874 147.674C102.542 147.755 104.01 149.94 105.205 150.885C107.105 152.388 108.767 152.713 110.971 151.206C112.463 150.185 115.34 154.133 113.084 149.968C111.819 147.632 109.12 145.865 108.023 143.454C107.624 142.577 107.162 142.011 108.205 141.298C109.724 140.259 110.555 140.824 109.327 139.325C108.17 137.912 106.04 136.012 106.04 134.256C106.04 131.643 108.398 130.578 110.527 129.508C113.813 127.857 112.073 126.148 113.449 123.728C113.899 122.937 118.339 123.06 118.719 123.728" stroke="#FF0000" stroke-opacity="0.35" stroke-width="2.10113" stroke-linecap="round" stroke-linejoin="round"/>
<path d="M144.076 125.379C146.41 125.379 148.692 125.792 151.12 125.792C152.505 125.792 155.952 125.785 157.224 125.288C161.525 123.607 164.072 120.414 167.346 117.535C168.902 116.168 170.335 114.57 171.781 113.223C171.975 113.043 174.192 110.4 174.573 111.572C174.946 112.72 175.122 113.75 175.069 114.966C174.99 116.765 167.019 124.665 173.19 124.967C176.843 125.145 176.695 123.757 178.825 121.664C179.788 120.718 182.031 117.591 182.112 116.297C182.165 115.46 182.582 114.953 182.582 114.026C182.582 113.038 181.295 112.611 181.173 111.755C181.016 110.649 178.882 109.087 178.251 108.039C177.544 106.864 177.309 102.818 178.356 101.847C180.369 99.978 182.321 101.021 184.93 101.021C187.299 101.021 189.237 101.179 190.93 99.6906C192.809 98.0389 191.981 95.004 192.548 92.7638C192.918 91.2983 195.551 86.8977 197.243 89.8738C198.305 91.7401 198.548 93.1704 198.548 95.2409C198.548 97.2596 199.757 104.319 198.078 105.241C197.272 105.684 197.132 106.801 195.965 106.801C194.821 106.801 193.973 106.492 192.913 106.388C191.104 106.211 188.139 104.288 187.747 107.214C187.574 108.511 186.461 110.896 187.747 112.168C188.876 113.285 190.139 115.897 188.791 117.214C187.584 118.393 185.799 120.987 186.704 122.489C187.135 123.206 188.9 122.992 189.626 122.673C191.279 121.946 191.386 121.251 193.382 121.251C194.934 121.251 196.68 120.768 197.165 122.26C197.401 122.986 198.057 124.189 198.548 124.875C199.678 126.454 199.675 127.54 202.278 126.824C203.188 126.575 204.831 126.277 205.487 125.701C206.205 125.069 206.298 123.562 207.235 122.902C208.935 121.707 209.731 119.005 211.227 117.535C211.973 116.802 211.999 115.471 213.34 115.471C214.731 115.471 215.708 116.516 216.288 117.535C216.454 117.828 217.331 119.563 217.331 118.154C217.331 117.018 218.511 115.998 219.105 115.058C220.242 113.259 223.019 114.519 224.375 115.15C226.838 116.296 228.063 114.208 230.48 115.058" stroke="#FF0000" stroke-opacity="0.35" stroke-width="2.10113" stroke-linecap="round" stroke-linejoin="round"/>
<path d="M179.765 89.048C178.822 89.4624 177.87 89.9277 176.948 90.3783C175.409 91.1296 175.692 92.3567 175.069 93.5894C173.849 96.0024 174.268 98.4121 172.721 100.791C171.831 102.162 168.547 102.104 167.191 103.177C166.602 103.643 165.882 103.915 165.312 104.415C164.51 105.121 164.546 106.129 164.008 107.007C161.972 110.331 161.717 114.716 158.738 117.627C158.036 118.313 154.734 119.769 153.938 118.544C153.024 117.138 153.468 114.998 153.468 113.407C153.468 111.468 152.529 110.178 152.529 108.36C152.529 105.115 154.23 105.718 156.521 103.704C157.509 102.835 157.775 102.215 158.399 101.227C158.961 100.338 158.393 98.871 159.573 98.2226C160.9 97.4932 161.641 96.3679 163.33 95.9748C164.25 95.7605 165.677 95.6893 165.677 94.6215C165.677 93.0622 165.26 89.5757 166.904 88.6122C168.523 87.6633 169.826 87.3965 171.782 87.3965C172.944 87.3965 174.13 88.1928 174.13 86.9837C174.13 84.781 175.069 82.7661 175.069 80.5615C175.069 76.1162 181.455 75.5917 185.296 74.5062C189.574 73.2972 193.371 68.951 198.314 70.8823C201.341 72.0652 206.602 76.303 204.418 79.7587C203.569 81.1029 201.004 85.5792 203.766 85.3093C206.932 85 209.917 82.8551 213.001 82.8551C214.461 82.8551 215.046 82.7263 216.028 83.5891C216.819 84.2851 218.562 85.3323 219.68 85.3323C220.877 85.3323 222.497 85.8058 222.497 84.4607C222.497 83.614 223.685 80.3671 222.863 79.644C220.502 77.569 211.207 80.0052 214.045 74.3916C214.655 73.185 206.363 72.5707 207.575 71.3869C208.856 70.1354 211.105 70.0566 212.871 70.0566C215.989 70.0566 216.75 71.1169 218.036 73.153C219.453 75.3947 223.09 73.0007 224.48 72.1209C226.119 71.0833 227.739 70.1729 229.176 68.9097C230.022 68.1661 231.222 65.8674 232.124 65.5151C235.504 64.1943 236.74 67.2119 239.402 67.9923" stroke="#FF0000" stroke-opacity="0.35" stroke-width="2.10113" stroke-linecap="round" stroke-linejoin="round"/>
<path d="M146.894 115.883C146.894 110.806 147.28 106.862 149.607 102.259C151.581 98.3545 149.107 93.5284 147.364 90.0797C146.554 88.4775 145.504 86.4867 143.607 85.653C141.477 84.7165 140.288 82.4577 142.433 81.4097C147.86 78.7591 150.105 85.1753 152.895 87.9007C156.477 91.3999 163.467 85.4967 158.53 82.4419C157.092 81.5527 155.486 79.9231 153.703 79.5748C152.417 79.3235 151.501 79.3805 151.094 78.1298C150.375 75.9155 147.062 76.0041 145.512 74.4141C144.179 73.0476 139.983 75.3105 138.807 74.2765C137.338 72.9846 138.083 70.1659 137.268 68.5882C136.899 67.8748 136.563 66.3073 136.563 65.5147C136.563 64.2075 139.005 64.924 138.807 64.4597C137.953 62.4585 139.442 60.385 137.398 58.5879C136.524 57.8193 135.31 57.5802 134.476 56.6383C133.943 56.0354 133.811 53.9547 134.92 53.9547C137.033 53.9547 139.146 53.9547 141.259 53.9547C142.584 53.9547 146.425 55.7242 146.425 57.0512C146.425 59.1041 145.955 61.4181 145.955 63.244C145.955 64.2538 145.929 65.0301 146.529 65.9276C147.104 66.7869 148.794 66.0501 149.607 66.845C151.781 68.9684 146.644 71.2947 152.321 71.2947C154.615 71.2947 157.049 70.0566 158.06 72.625C158.517 73.7862 159.263 74.7215 160.512 75.3315C162.641 76.3713 161.193 75.6966 162.495 74.5058C163.709 73.3962 164.269 73.5511 164.269 71.914C164.269 70.6632 164.568 69.2166 165.469 68.1983C167.538 65.8595 171.48 67.738 173.661 65.9276C176.019 63.9695 173.681 61.983 173.165 59.9412C172.8 58.4954 169.199 56.8737 167.817 56.4319C166.489 56.0073 166.617 54.3404 166.617 53.3584C166.617 51.7978 167.187 49.2016 166.513 47.7619C166.251 47.2042 167.321 46.317 167.791 45.904C168.142 45.5949 169.646 44.9386 169.695 44.5508C169.755 44.0776 168.619 44.2155 168.287 43.8398C165.502 40.6917 169.954 41.2684 172.252 41.1562C175.579 40.9937 173.739 37.5096 172.252 36.2019" stroke="#FF0000" stroke-opacity="0.35" stroke-width="2.10113" stroke-linecap="round" stroke-linejoin="round"/>
<path d="M14 175.748C16.7265 175.748 19.0547 174.923 21.7482 174.923C25.9202 174.923 25.7844 171.699 28.0876 169.555C30.371 167.43 30.2311 166.665 33.9574 166.665C38.8306 166.665 34.6565 171.884 36.801 172.422C39.1342 173.009 43.4566 169.964 44.6274 168.317C44.9764 167.826 49.8665 164.601 46.1666 164.601C44.9796 164.601 43.5648 164.804 42.41 164.578C41.5117 164.403 39.9607 162.603 40.8708 161.803C41.5895 161.171 46.3176 159.155 43.5839 158.087C40.6147 156.927 36.711 157.17 33.4878 157.17C32.5857 157.17 29.4963 157.638 29.4963 156.55C29.4963 155.263 29.9545 154.473 31.0095 153.546C32.8845 151.897 36.9403 151.803 39.3837 151.803C41.0886 151.803 42.472 152.052 44.0535 152.215C44.6547 152.278 44.6156 152.899 45.2275 153.018C45.8088 153.132 46.5117 153.041 47.1058 153.041C48.2865 153.041 49.1505 152.215 50.3929 152.215C51.5593 152.215 52.1132 154.373 52.4017 155.197C53.269 157.675 50.3793 159.192 51.1234 161.482C51.6022 162.955 55.4545 163.619 56.7323 164.28C57.7636 164.813 58.6031 166.341 59.0803 167.285C60.0687 169.24 63.9966 167.285 65.7588 166.665C66.5682 166.381 75.7082 162.92 73.4026 161.298C71.4233 159.906 78.0995 159.234 78.8029 159.234C81.7274 159.234 81.178 156.242 82.7944 155.105C83.7738 154.417 83.4419 153.165 83.4987 152.215C83.5926 150.648 85.2171 149.228 86.5511 148.316C87.0918 147.946 89.9327 147.796 90.0469 147.445C90.3598 146.482 90.8851 145.432 91.0121 144.371C91.1355 143.34 92.3555 142.515 92.4209 141.481C92.4901 140.386 91.9513 139.495 91.9513 138.385C91.9513 136.718 94.3854 136.908 94.7427 135.495C95.1616 133.837 96.5379 134.431 97.482 133.224C97.9025 132.686 99.1874 132.529 99.4386 131.756C99.8256 130.565 98.5153 129.594 99.2038 128.27C99.9055 126.92 100.416 126.701 101.447 125.884C102.782 124.829 102.752 124.895 102.752 123.109C102.752 122.146 102.752 121.182 102.752 120.219C102.752 119.74 102.722 119.252 102.752 118.774C102.777 118.369 103.88 117.505 103.587 117.214C103.087 116.72 100.031 117.123 99.3603 117.123C97.3625 117.123 97.7138 117.58 96.8559 118.98C95.9588 120.445 93.9418 121.953 93.8296 123.728C93.7881 124.386 94.2096 126.186 93.5948 126.618C93.1948 126.9 92.6988 128.752 92.4209 129.302C91.877 130.378 91.3967 131.312 90.0729 131.894C89.1166 132.314 87.9876 131.645 87.1511 132.307C86.0261 133.197 85.1837 134.066 84.9336 135.495C84.807 136.218 85.3991 138.493 84.6727 139.004C83.7762 139.635 83.0081 141.019 82.4552 141.894C81.7372 143.03 80.4085 144.355 79.4812 145.403C78.5933 146.407 76.9445 146.796 76.455 148.087" stroke="#FF0000" stroke-opacity="0.35" stroke-width="2.10113" stroke-linecap="round" stroke-linejoin="round"/>
<path d="M116.841 105.149C112.874 108.638 107.328 106.483 103.223 109.691C102.095 110.572 98.6328 110.781 97.1186 110.929C94.5832 111.177 93.2187 113.22 92.188 114.852C91.7662 115.519 91.9689 116.616 91.2488 117.122C90.6953 117.512 88.8836 117.843 88.6661 118.177C87.5364 119.916 88.545 122.268 87.4921 123.934C86.6085 125.333 87.4156 127.444 84.6746 127.444C82.1249 127.444 81.6518 125.662 80.3179 124.049C79.2352 122.74 80.6855 117.624 81.5179 116.618C82.21 115.781 82.2895 115.301 83.5006 114.737C84.2813 114.374 85.8486 113.436 85.8486 112.581C85.8486 111.2 81.9231 109.627 80.6831 109.691C79.2204 109.766 76.9556 113.039 76.4568 114.026C75.5713 115.778 74.1089 116.837 74.1089 118.98C74.1089 119.752 73.6393 120.527 73.6393 121.457C73.6393 122.414 74.2915 122.742 74.5524 123.544C75.6611 126.956 77.5278 130.703 75.4133 134.049C73.9073 136.433 71.5957 134.364 69.4131 135.38C67.1626 136.427 67.3264 139.829 66.4912 141.481C65.3528 143.733 63.9907 143.545 61.4301 143.545C58.0457 143.545 57.2038 139.538 57.2038 137.146C57.2038 135.692 61.0711 133.823 62.6041 133.224C64.733 132.392 62.9376 129.095 65.8912 129.095C68.8898 129.095 66.822 126.233 65.8912 124.76C65.1686 123.617 65.1868 122.746 65.1868 121.457C65.1868 119.62 66.2108 119.606 66.9608 118.361C67.8431 116.895 66.006 115.364 65.2911 114.232C64.8333 113.508 63.2262 113.819 62.3693 113.819C60.9145 113.819 61.4249 115.423 60.4909 115.471C58.9383 115.551 57.6531 115.347 56.2646 114.737C53.6257 113.577 50.0763 108.35 48.6469 112.26C47.7461 114.724 47.9453 116.934 46.6642 119.187C44.9964 122.119 43.8553 123.728 40.0639 123.728C38.7919 123.728 37.079 123.446 35.8637 123.751C35.4066 123.866 34.7496 125.607 34.4028 125.999C33.1365 127.43 31.4199 126.023 30.907 124.783C30.5025 123.805 28.8088 124.141 27.8547 124.141C26.191 124.141 23.9168 126.064 23.3936 127.444" stroke="#FF0000" stroke-opacity="0.35" stroke-width="2.10113" stroke-linecap="round" stroke-linejoin="round"/>
<path d="M73.1682 92.7636C75.1345 92.7636 77.6126 92.4499 79.1684 93.681C81.2146 95.3001 83.8445 95.6535 86.5514 95.6535C89.5218 95.6535 92.1305 95.0692 95.0039 95.6306C96.1577 95.856 96.3818 97.2461 97.5866 97.305C98.9562 97.3719 100.064 96.8921 101.343 96.8921C104.041 96.8921 106.365 94.9496 108.857 94.8278C110.051 94.7695 111.755 94.4599 112.379 95.4471C112.804 96.1198 113.563 97.1725 114.257 97.5114C115.661 98.1971 119.999 100.195 115.9 100.195C113.273 100.195 109.273 98.9013 106.978 100.631C104.696 102.351 102.579 101.062 100.195 102.259C98.2177 103.253 94.8875 102.045 92.9951 101.021C90.0438 99.4239 89.3221 101.782 87.2557 103.498C85.0232 105.352 82.3687 103.721 80.6554 102.466C78.4174 100.826 74.9664 103.498 72.9334 103.498C69.2925 103.498 68.4723 102.623 68.4723 99.3693C68.4723 97.3553 62.6496 99.7821 61.2198 99.7821C58.6711 99.7821 57.151 99.049 55.3239 97.4885C54.0019 96.3594 53.7998 95.3894 52.8716 94.0021C52.3045 93.1545 50.8693 92.9209 49.9236 93.3828C48.1348 94.2566 47.5887 92.6556 46.8713 91.6167C45.3704 89.4433 46.2957 87.2142 45.2278 85.1486C44.7797 84.282 44.7231 82.3438 45.0191 81.4329C45.3966 80.2713 50.8666 82.0293 51.802 82.0293C53.4797 82.0293 56.2631 77.6218 56.2631 76.2493C56.2631 75.0531 54.3615 74.8574 53.2368 74.5749C52.6553 74.4288 53.0059 72.1814 52.976 71.7079C52.8817 70.2168 49.2827 66.8094 48.0453 65.7214C46.8613 64.6805 41.5475 62.7354 41.7059 65.1022C41.8096 66.6528 44.3734 69.4787 45.4626 70.6757C46.5714 71.8944 47.7123 73.3705 47.8105 75.0107C47.9032 76.5591 46.0895 74.9346 45.2278 74.5979C42.4726 73.5213 40.7667 73.2567 40.7667 76.2493C40.7667 77.2814 40.7667 78.3136 40.7667 79.3457C40.7667 80.9794 39.9375 80.0735 38.8884 79.965C37.2234 79.7928 35.1317 76.9565 35.1317 75.63C35.1317 73.2694 36.6686 71.0898 35.6013 68.9784C34.3943 66.5909 31.2915 65.9279 28.5575 65.9279C25.9749 65.9279 23.3307 67.5944 20.8354 66.3407C18.8818 65.3592 17.957 63.1258 15.8787 62.2122" stroke="#FF0000" stroke-opacity="0.35" stroke-width="2.10113" stroke-linecap="round" stroke-linejoin="round"/>
<path d="M135.154 104.737C129.967 104.23 125.646 98.4951 124.38 94.5986C123.169 90.872 117.309 90.8363 114.492 88.6351C113.119 87.5617 110.395 87.5531 108.649 87.8323C107.577 88.0036 104.61 90.3665 103.222 88.8415C102.295 87.8222 98.9959 89.5801 98.9959 87.1901C98.9959 86.4175 98.6808 85.186 99.5177 84.713C100.982 83.8855 103.348 83.268 105.101 83.268C107.165 83.268 109.113 84.2815 110.736 82.8551C111.978 81.7625 112.408 78.054 111.57 76.6622C111.533 76.6003 101.544 76.8203 100.874 77.1669C96.5238 79.4168 90.7669 82.385 88.1955 86.3414C87.3758 87.6026 82.7576 87.3102 81.8561 86.3414C80.576 84.966 79.7273 83.7848 78.0994 82.6716C76.5277 81.5969 73.5924 82.545 72.5948 80.7908C72.0808 79.887 70.8264 75.5448 73.1687 75.4237C75.9841 75.2781 82.7719 74.4719 85.1432 75.6301C87.6135 76.8367 87.966 77.6688 89.239 75.0108C89.9982 73.4256 90.6318 72.2008 92.9957 72.1208C94.7886 72.0602 99.6894 72.9332 100.979 71.7997C102.03 70.875 102.403 68.6319 101.135 67.5794C99.4435 66.1747 96.648 67.2574 96.648 64.6435C96.648 63.5873 96.4089 62.2293 96.6741 61.1801C96.8657 60.4223 98.2162 60.1225 98.0307 59.5516C96.7638 55.6532 89.4578 57.1645 86.3432 56.8222C84.1876 56.5853 82.5937 54.5711 81.7256 53.1294C80.8844 51.7324 77.3157 53.9551 75.9862 53.9551C69.7978 53.9551 76.8577 45.698 70.3512 45.698" stroke="#FF0000" stroke-opacity="0.35" stroke-width="2.10113" stroke-linecap="round" stroke-linejoin="round"/>
<path d="M124.354 64.2771C125.871 65.6107 128.11 65.667 128.11 67.9928C128.11 69.3874 127.458 72.87 128.476 73.8645C130.25 75.5983 131.71 76.7895 131.867 79.1399C131.968 80.6426 132.475 82.6223 133.98 83.6813C134.552 84.0837 135.705 85.112 136.093 85.5392C136.837 86.3565 137.972 86.2528 137.972 87.6035C137.972 88.6917 137.938 89.4976 138.441 90.4935C139.024 91.6457 140.32 91.7025 140.32 93.177C140.32 94.0031 140.039 95.3061 140.424 96.067C140.908 97.0238 141.728 97.8819 141.728 98.957C141.728 100.871 141.33 99.5977 140.215 98.957C139.121 98.328 137.83 97.4243 136.772 96.8928C135.223 96.1147 130.346 96.2845 129.519 95.012C128.29 93.1215 129.222 90.4377 129.884 88.5439C131.016 85.309 127.611 83.9894 124.823 82.7639C124.066 82.4311 122.046 82.3194 122.58 81.2042C123.022 80.2803 123.522 77.5763 122.449 76.8692C119.348 74.8244 117.31 73.7582 117.31 70.08C117.31 69.0079 117.663 67.9567 116.579 67.3506C114.915 66.4192 113.073 65.506 111.675 64.2771C110.61 63.3411 109.703 62.7865 109.797 61.3871C109.85 60.584 111.813 60.0473 112.249 59.3228C113.421 57.3765 112.625 53.8815 111.91 51.8684C111.315 50.1952 111.196 48.334 111.91 46.7307C112.541 45.3123 113.725 44.9985 114.492 43.8177C115.479 42.2992 120.056 39.812 122.214 40.3543C122.752 40.4893 124.638 40.6272 125.032 40.9736C125.756 41.61 125.061 43.0247 125.319 43.8177C125.799 45.2937 131.693 41.4936 132.545 40.7442C133.4 39.9925 135.154 38.9041 135.154 37.8542C135.154 36.4206 136.315 36.6157 137.606 36.6157C140.765 36.6157 140.32 33.672 140.32 31.4779C140.32 29.6862 139.85 27.9351 139.85 26.1108C139.85 25.1044 136.987 25.1414 136.354 25.6979C135.396 26.5402 133.133 29.0251 132.832 30.2164C132.587 31.1883 132.593 32.6954 131.397 33.2211C127.622 34.8809 129.244 31.4793 127.171 30.5146C124.615 29.3246 124.111 31.8246 122.945 33.1064C121.224 34.9973 115.599 29.496 117.101 28.1751C119.031 26.4782 122.047 25.9277 124.354 24.7346C125.092 24.3529 125.521 23.5706 126.336 23.3125C127.138 23.0589 129.472 23.2629 129.884 22.5786C130.2 22.054 130.33 19.4448 129.884 18.9546C129.068 18.0578 127.081 17.9576 125.997 17.005C123.768 15.0448 124.687 12.3353 126.467 10.4222C127.46 9.35498 127.964 9.26191 127.406 7.69277C127.019 6.60467 127.006 4.54661 125.762 4" stroke="#FF0000" stroke-opacity="0.35" stroke-width="2.10113" stroke-linecap="round" stroke-linejoin="round"/>
</svg>
