<svg width="250" height="237" viewBox="0 0 250 237" fill="none" xmlns="http://www.w3.org/2000/svg">
<rect x="0.5" y="0.5" width="249" height="236" fill="white" stroke="black"/>
<path d="M142.875 49.4309C142.875 52.927 140.12 53.8524 140.12 57.4219C140.12 59.317 139.075 59.0988 137.67 59.9018C136.006 60.8529 135.744 62.1684 135.037 63.7595C134.404 65.185 133.939 65.8378 132.833 66.9436C131.444 68.3323 133.346 68.6568 134.057 69.546C135.2 70.9743 140.04 73.9162 141.773 71.7504C142.344 71.0359 145.02 71.4749 145.906 71.4749C148.367 71.4749 147.835 72.5445 147.835 74.7815C147.835 76.3533 150.399 77.0936 151.387 78.3636C151.878 78.9954 152.141 82.9892 151.142 83.048C148.913 83.1791 147.389 83.4442 146.304 81.3947C145.755 80.3574 144.596 79.3544 143.702 78.6392C142.452 77.6395 136.011 74.9701 135.19 77.8432C134.89 78.894 135.809 81.7569 134.884 82.4969C133.702 83.4425 131.965 83.8411 130.873 84.8238C128.385 87.0632 130.618 90.7634 133.782 90.7634C135.252 90.7634 136.721 90.7634 138.191 90.7634C139.584 90.7634 139.017 87.9561 139.017 86.9057C139.017 85.14 140.556 83.6056 142.569 84.1808C143.451 84.4328 144.335 86.7902 144.651 87.5793C144.955 88.34 145.97 88.7383 145.508 89.6612C145.094 90.4891 144.034 90.851 143.977 91.8656C143.888 93.4781 144.528 94.5499 144.528 95.9988C144.528 97.4436 141.781 97.3766 140.671 97.3766C138.37 97.3766 138.998 97.9429 137.64 99.0299C137.216 99.3685 137.109 100.41 136.813 100.928C136.468 101.531 135.504 101.488 135.16 102.092C134.757 102.797 134.057 102.838 134.057 103.714C134.057 104.278 134.307 105.617 133.935 106.072C132.61 107.692 129.649 110.724 129.649 112.807" stroke="#F24822" stroke-width="0.39645" stroke-linecap="round" stroke-linejoin="round"/>
<path d="M124.138 111.154C122.434 111.154 121.518 107.88 120.708 106.868C119.776 105.702 120.112 103.541 119.698 102.091C119.491 101.368 115.827 100.842 115.044 100.408C113.081 99.3167 114.087 96.9398 112.993 95.8457C111.706 94.5585 110.136 95.6438 108.707 95.7232C108.128 95.7553 103.374 95.4025 105.706 94.0699C107.012 93.3237 109.809 93.6499 109.809 91.59C109.809 89.9535 109.307 88.6209 108.278 87.3342C107.167 85.9456 112.527 86.3892 113.116 86.3545C114.065 86.2986 113.241 85.2425 113.942 85.8034C114.67 86.3859 114.769 86.8155 114.769 87.7323C114.769 90.5865 113.271 96.4774 117.647 92.5391C120.181 90.2587 126.347 94.2238 124.658 88.314C124.079 86.2886 124.072 85.5614 122.484 84.1501C121.342 83.1352 119.539 82.8962 118.351 81.9457C116.944 80.8198 118.328 78.4001 117.249 77.5369C116.04 76.5696 114.166 75.8836 112.564 75.8836C110.467 75.8836 108.851 74.9371 108.707 77.5369C108.654 78.4855 106.519 80.0998 105.676 80.568C102.005 82.6072 99.8664 75.5077 103.196 75.3325C105.14 75.2302 107.053 75.1246 107.053 73.1281C107.053 70.3161 110.258 71.4851 112.258 72.0565C114.567 72.7163 118.93 74.8224 119.178 70.3726C119.322 67.7798 121.464 70.0064 120.402 67.6171C119.951 66.6026 119.304 63.7702 118.32 63.2083C116.626 62.2403 116.316 60.7696 115.84 59.1057C115.394 57.5422 113.985 57.71 112.993 56.7176C112.037 55.7614 112.455 53.1648 111.707 52.7374C110.476 52.0341 109.634 50.4455 108.707 49.9819" stroke="#F24822" stroke-width="0.39645" stroke-linecap="round" stroke-linejoin="round"/>
<path d="M175.39 35.1021C173.774 35.1021 168.856 39.2637 168.777 40.613C168.675 42.3467 168.246 45.6646 167.552 47.2262C165.488 51.87 158.851 51.187 155.428 54.2681C153.164 56.3052 154.316 58.2482 150.59 58.2482C148.341 58.2482 145.233 57.2889 145.079 59.9015C144.946 62.1674 141.031 61.6705 142.998 63.6368C144.083 64.7218 145.59 66.4151 147.284 66.5147C149.33 66.6351 151.693 67.2612 151.693 69.8213C151.693 72.2148 155.254 72.2062 156.53 73.8015C157.738 75.311 158.166 77.9132 159.286 79.3125C159.843 80.0091 159.754 86.1974 159.286 86.7829C158.435 87.8466 154.069 88.505 152.672 88.5587C149.336 88.687 150.039 90.666 150.039 93.5186C150.039 96.3707 149.008 97.4063 147.161 99.4582C146.094 100.645 143.542 102.656 142.875 103.99" stroke="#F24822" stroke-width="0.39645" stroke-linecap="round" stroke-linejoin="round"/>
<path d="M159.408 84.7012C159.408 86.4184 162.827 89.8073 159.959 90.7633" stroke="#F24822" stroke-width="0.39645" stroke-linecap="round" stroke-linejoin="round"/>
<path d="M167.123 83.0481C166.019 83.0481 164.216 82.379 163.847 81.0887C163.603 80.2333 164.266 79.1904 162.99 79.1904C161.98 79.1904 160.969 79.1904 159.959 79.1904" stroke="#F24822" stroke-width="0.39645" stroke-linecap="round" stroke-linejoin="round"/>
<path d="M172.083 74.2302C168.652 74.2302 167.822 73.2735 165.195 71.2298C163.175 69.6591 157.52 69.9735 156.653 72.5769" stroke="#F24822" stroke-width="0.39645" stroke-linecap="round" stroke-linejoin="round"/>
<path d="M192.474 53.2883C187.483 53.2883 185.444 56.9493 182.677 60.024C180.747 62.1685 180.426 62.1059 177.319 62.1059C174.447 62.1059 173.585 59.5017 171.257 61.8304C170.118 62.9692 166.473 64.3275 164.919 63.6368C163.217 62.8804 161.951 60.9825 160.204 60.4832C155.435 59.1205 153.04 64.8614 148.937 64.8614" stroke="#F24822" stroke-width="0.39645" stroke-linecap="round" stroke-linejoin="round"/>
<path d="M78.3962 34C78.3962 35.1599 81.2719 37.3664 82.2539 37.9802C83.8379 38.9701 84.8504 42.2546 85.683 43.9198C86.6501 45.854 89.7214 48.5496 89.9693 50.533C90.2427 52.7199 93.6631 52.8874 95.1742 53.3191C97.3674 53.9458 98.3467 57.8608 99.338 59.5955C99.9992 60.7527 100.835 59.8136 101.42 59.2281C102.188 58.4599 103.789 58.7995 104.849 58.7995C107.622 58.7995 109.615 59.3583 109.809 62.6572C109.834 63.0857 111.17 64.6694 110.605 64.831C109.502 65.146 107.926 64.8616 106.778 64.8616C103.04 64.8616 103.552 65.546 101.236 67.862C99.7692 69.329 97.2466 64.865 96.5825 64.0349C95.0775 62.1536 93.2251 61.555 90.796 61.555C87.9065 61.555 86.8441 64.3105 83.9072 64.3105C81.2482 64.3105 80.6552 61.0039 78.3962 61.0039C75.8171 61.0039 72.3435 61.6757 69.8848 60.9733C69.1758 60.7707 67.1305 57.7767 66.0271 57.1462C64.2474 56.1292 61.8246 55.9668 60.761 53.8396" stroke="#F24822" stroke-width="0.39645" stroke-linecap="round" stroke-linejoin="round"/>
<path d="M110.911 102.887C110.911 101.438 109.688 99.0297 108.156 99.0297C105.782 99.0297 105.066 97.8718 103.196 96.7028C101.279 95.5047 104.29 92.0472 103.318 90.2121C102.448 88.5688 100.49 87.7388 99.032 86.9055C94.8702 84.5274 91.127 80.3639 93.8271 75.6386C94.399 74.6378 94.093 73.9887 94.4089 72.8831C94.439 72.7776 97.4695 73.128 97.9604 73.128C100.629 73.128 99.9549 72.8656 101.267 70.6787C102.208 69.1106 102.877 68.6317 102.094 67.0659" stroke="#F24822" stroke-width="0.39645" stroke-linecap="round" stroke-linejoin="round"/>
<path d="M96.0314 72.0261C94.5705 72.0261 93.0807 72.1119 91.6226 72.0261C90.4276 71.9558 89.2464 70.3728 88.0405 70.3728C86.9783 70.3728 87.3579 70.9643 87.1832 71.7506C86.9822 72.655 85.4579 72.932 84.7645 73.3732C83.8127 73.9789 81.8371 75.0501 81.1517 73.6794" stroke="#F24822" stroke-width="0.39645" stroke-linecap="round" stroke-linejoin="round"/>
<path d="M93.2759 79.1905C92.3024 79.1905 90.0568 78.8058 89.9693 80.2927C89.824 82.7624 87.4053 81.563 86.6627 83.0482" stroke="#F24822" stroke-width="0.39645" stroke-linecap="round" stroke-linejoin="round"/>
<path d="M94.3783 83.5989C94.3783 85.6421 94.054 87.9102 94.9294 89.661" stroke="#F24822" stroke-width="0.39645" stroke-linecap="round" stroke-linejoin="round"/>
<path d="M207.905 61.0039C205.583 61.0039 202.568 63.1001 200.618 64.3105C199.117 65.2423 195.006 65.7801 194.25 67.066C192.778 69.5676 191.593 72.7134 189.718 75.0569C187.934 77.2872 182.241 79.6309 179.37 79.7413C176.783 79.8408 172.083 77.4156 172.083 81.6701C172.083 87.489 170.048 94.0699 163.266 94.0699C159.949 94.0699 158.075 93.5313 156.101 95.9987C154.917 97.4795 153.24 101.234 151.141 101.234" stroke="#F24822" stroke-width="0.39645" stroke-linecap="round" stroke-linejoin="round"/>
<path d="M157.204 95.7231C157.204 97.9727 159.268 98.7498 159.959 100.132" stroke="#F24822" stroke-width="0.39645" stroke-linecap="round" stroke-linejoin="round"/>
<path d="M163.817 94.0701C163.817 96.9285 163.909 100.132 167.399 100.132C169.888 100.132 170.787 102.888 172.634 102.888" stroke="#F24822" stroke-width="0.39645" stroke-linecap="round" stroke-linejoin="round"/>
<path d="M186.412 92.9678C183.25 92.9678 179.522 91.4987 176.492 92.8453C175.301 93.3748 173.059 95.0554 172.359 93.7944C171.605 92.4377 169.877 92.4136 169.328 91.3145" stroke="#F24822" stroke-width="0.39645" stroke-linecap="round" stroke-linejoin="round"/>
<path d="M202.945 78.6394C200.935 78.6394 199.662 79.5705 197.863 80.1702C196.55 80.6077 194.681 80.2927 193.301 80.2927C190.443 80.2927 188.473 83.277 185.983 84.2729C184.766 84.76 183.766 85.6937 182.554 86.2323C181.475 86.7122 179.594 86.3548 178.421 86.3548C175.955 86.3548 174.708 83.5993 172.083 83.5993" stroke="#F24822" stroke-width="0.39645" stroke-linecap="round" stroke-linejoin="round"/>
<path d="M112.013 106.194C114.021 108.202 116.973 111.023 116.973 113.909C116.973 116.305 120.312 118.454 122.209 119.972C123.382 120.91 119.768 122.052 119.055 122.298C117.029 123 116.257 124.931 114.218 124.931C111.012 124.931 108.885 120.911 105.706 122.727C104.163 123.609 104.304 124.62 103.318 125.605C102.133 126.79 102.787 128.953 101.971 129.769C101.502 130.238 100.498 129.456 100.44 130.442C100.369 131.663 101.274 131.569 101.512 132.402C101.847 133.576 102.441 135.172 104.022 134.821C105.486 134.495 106.125 131.802 107.176 130.994C108.806 129.74 110.168 128.487 112.013 127.565C114.991 126.076 115.74 130.888 117.249 132.096C118.192 132.85 119.304 133.188 120.157 133.872C120.718 134.32 121.376 134.325 121.933 134.851C122.591 135.472 122.753 136.609 123.311 137.056C124.061 137.656 124.138 139.965 124.138 140.913C124.138 144.117 121.969 141.464 120.157 141.464C118.123 141.464 117.081 143.118 115.044 143.118C113.644 143.118 112.71 140.797 113.942 139.811C115.431 138.62 113.857 137.056 112.565 137.056C110.928 137.056 109.906 136.934 108.829 138.28C108.027 139.284 108.98 141.456 109.227 142.322C109.839 144.463 108.681 145.311 111.187 146.424C113.153 147.298 112.483 147.751 113.789 149.057C114.627 149.895 115.344 150.551 116.3 151.507C118.465 153.672 120.28 155.13 120.28 158.273C120.28 160.572 123.142 163.17 124.138 165.162" stroke="#F24822" stroke-width="0.39645" stroke-linecap="round" stroke-linejoin="round"/>
<path d="M130.2 165.162C131.365 165.162 132.802 162.649 133.231 161.886C134.435 159.745 135.056 159.557 133.2 157.171C130.03 153.095 135.011 152.881 137.486 150.405C138.359 149.532 137.436 147.527 139.293 147.527C140.969 147.527 142.291 147.418 143.732 147.006C146.857 146.114 143.977 141.228 143.977 138.709C143.977 137.484 142.674 136.505 141.497 136.505C140.127 136.505 140.684 136.634 139.568 136.076C138.8 135.692 139.136 137.292 138.742 137.607C138.001 138.199 138.466 141.091 138.466 142.016C138.466 144.417 137.982 144.22 135.711 144.22C132.195 144.22 131.935 140.662 128.853 139.781C127.269 139.328 129.38 136.389 129.924 135.954C131.45 134.733 132.404 134.41 132.404 132.372C132.404 131.448 134.116 129.596 134.731 128.912C135.687 127.85 137.659 128.158 139.017 128.238C139.811 128.285 142.301 128.898 142.875 129.616C143.832 130.812 144.128 132.285 145.079 133.474C146.071 134.713 148.242 134.651 149.366 135.525C149.649 135.745 149.374 134.476 149.794 134.056C150.366 133.484 151.039 133.189 151.57 132.525C153.623 129.959 149.289 127.005 147.59 126.034C146.637 125.489 146.23 123.349 145.63 123.278C144.046 123.092 142.774 121.625 141.222 121.625C139.74 121.625 133.511 124.538 132.925 121.901C132.515 120.057 132.404 118.515 132.404 116.543C132.404 113.6 133.59 115.037 135.711 114.032C138.53 112.697 138.077 112.088 139.446 109.501C139.741 108.943 141.112 108.902 140.364 108.154C139.339 107.128 139.568 107.899 139.568 108.95" stroke="#F24822" stroke-width="0.39645" stroke-linecap="round" stroke-linejoin="round"/>
<path d="M160.51 104.541C158.601 104.541 156.724 105.878 155.428 107.174C154.293 108.309 153.853 110.513 152.244 110.603C150.307 110.71 148.21 111.035 146.182 111.154C144.711 111.24 144.132 113.91 143.549 115.012C142.855 116.322 139.793 117.216 142.875 117.216C144.712 117.216 146.549 117.216 148.386 117.216C149.453 117.216 152.161 118.01 152.244 119.42C152.388 121.88 152.688 123.103 154.724 124.687C157.852 127.12 159.408 129.585 159.408 134.025C159.408 135.872 158.918 137.629 156.959 138.188C155.503 138.604 153.357 138.696 152.244 140.087C150.727 141.982 146.774 146.788 149.764 149.18C152.19 151.121 142.86 156.352 141.773 156.895" stroke="#F24822" stroke-width="0.39645" stroke-linecap="round" stroke-linejoin="round"/>
<path d="M159.408 137.056C159.408 138.334 160.51 138.87 160.51 140.087C160.51 140.48 160.51 142.669 160.51 142.016" stroke="#F24822" stroke-width="0.39645" stroke-linecap="round" stroke-linejoin="round"/>
<path d="M161.061 130.993C159.885 130.993 163.752 132.023 163.817 133.198C163.895 134.613 165.444 135.94 166.572 136.504" stroke="#F24822" stroke-width="0.39645" stroke-linecap="round" stroke-linejoin="round"/>
<path d="M172.083 126.585C170.692 126.585 168.765 126.935 167.43 126.554C166.248 126.216 165.529 124.287 164.368 123.707C162.872 122.959 161.417 122.372 159.684 122.758C158.821 122.949 155.801 124.43 155.55 124.931" stroke="#F24822" stroke-width="0.39645" stroke-linecap="round" stroke-linejoin="round"/>
<path d="M178.145 114.461C175.219 114.461 173.273 114.422 170.706 115.563C168.004 116.763 164.467 115.75 162.286 113.787C161.101 112.72 155.623 112.691 155.03 114.767C154.653 116.086 152.157 116.898 150.866 117.185C150.404 117.288 149.418 116.98 149.06 117.339C148.865 117.534 148.937 119.094 148.937 118.318" stroke="#F24822" stroke-width="0.39645" stroke-linecap="round" stroke-linejoin="round"/>
<path d="M93.276 102.888C94.0265 102.888 97.4415 104.654 97.6541 105.398C98.0096 106.642 99.1994 108.391 99.338 109.501C99.545 111.156 102.262 111.406 103.471 111.675C104.885 111.989 105.813 113.755 107.053 113.91C107.718 113.993 109.349 117.226 108.401 117.767C106.274 118.982 104.547 118.733 102.094 118.87C101.022 118.929 101.88 120.377 101.42 120.952C100.98 121.501 100.332 121.899 99.8891 122.452C99.1003 123.438 97.1575 124.051 96.1539 125.054C94.3896 126.818 92.7249 131.175 92.7249 133.749C92.7249 136.075 98.0543 140.082 100.44 140.362C103.93 140.773 103.747 146.282 103.747 148.629C103.747 150.292 103.02 153.091 105.125 153.558C106.764 153.923 107.783 155.302 109.258 155.793" stroke="#F24822" stroke-width="0.39645" stroke-linecap="round" stroke-linejoin="round"/>
<path d="M94.9294 138.709C94.2452 138.709 91.6228 138.306 91.6228 139.26C91.6228 140.139 92.8107 141.869 93.2761 142.567" stroke="#F24822" stroke-width="0.39645" stroke-linecap="round" stroke-linejoin="round"/>
<path d="M93.2761 130.993C91.4782 130.993 89.8683 130.65 88.8673 132.402C87.6177 134.588 85.7334 135.402 83.3563 135.402" stroke="#F24822" stroke-width="0.39645" stroke-linecap="round" stroke-linejoin="round"/>
<path d="M95.4804 124.931C92.5997 124.931 89.825 123.829 86.9383 123.829C84.648 123.829 84.9774 125.27 83.7848 126.462C83.1402 127.107 79.8066 126.585 78.9474 126.585" stroke="#F24822" stroke-width="0.39645" stroke-linecap="round" stroke-linejoin="round"/>
<path d="M100.991 118.869C98.3769 117.562 96.0988 115.593 93.5516 114.461C91.9391 113.744 87.42 113.101 86.1117 114.736C84.9398 116.201 80.2344 116.813 78.825 115.685C76.8879 114.136 73.8268 115.823 71.7831 114.461" stroke="#F24822" stroke-width="0.39645" stroke-linecap="round" stroke-linejoin="round"/>
<path d="M102.094 100.683H101.543" stroke="#F24822" stroke-width="0.39645" stroke-linecap="round" stroke-linejoin="round"/>
<path d="M42.575 60.4529C44.6881 60.4529 46.069 62.1204 47.841 62.6267C49.2773 63.037 49.3765 65.7808 50.8414 65.9639C52.2574 66.1409 53.9196 67.3001 55.4952 67.5866C57.114 67.8809 58.2962 67.4637 59.5366 68.8418C61.548 71.0768 62.428 74.2589 64.4965 76.5572C67.2937 79.6653 70.8275 79.1903 74.8143 79.1903C78.4221 79.1903 79.7785 81.4143 80.5702 84.9768C81.2463 88.0191 84.0167 91.0617 85.5607 93.7638C86.3502 95.1455 93.0786 94.0215 94.6539 94.8966C95.9547 95.6193 96.6058 97.3996 97.6849 98.4788C98.7281 99.5219 100.368 101.089 100.992 102.336" stroke="#F24822" stroke-width="0.39645" stroke-linecap="round" stroke-linejoin="round"/>
<path d="M94.9293 94.6211C94.9293 96.7226 94.6956 97.8442 93.8271 99.581" stroke="#F24822" stroke-width="0.39645" stroke-linecap="round" stroke-linejoin="round"/>
<path d="M87.7651 94.6211C87.7651 97.9982 82.6152 101.785 79.4986 101.785" stroke="#F24822" stroke-width="0.39645" stroke-linecap="round" stroke-linejoin="round"/>
<path d="M66.8232 92.9678C68.0707 92.9678 70.0868 92.5813 71.232 93.0903C72.6829 93.7351 73.8788 95.6577 75.5184 95.7233C77.6256 95.8076 79.51 95.5294 81.1518 94.07C82.2216 93.1191 84.713 90.7634 86.1117 90.7634" stroke="#F24822" stroke-width="0.39645" stroke-linecap="round" stroke-linejoin="round"/>
<path d="M50.2902 78.6394C52.9931 78.6394 55.0323 80.1502 57.4545 80.2927C58.6028 80.3602 59.6867 81.3949 61.0673 81.3949C62.4038 81.3949 64.7515 81.9438 65.9966 82.4971C66.8503 82.8765 68.9555 84.4014 69.4562 85.2526C70.3186 86.7186 71.5812 86.3548 73.1609 86.3548C75.8677 86.3548 78.8479 86.4046 81.1518 85.2526" stroke="#F24822" stroke-width="0.39645" stroke-linecap="round" stroke-linejoin="round"/>
<path d="M158.857 157.998C154.415 157.998 155.092 163.509 150.59 163.509C149.098 163.509 145.008 162.864 144.559 164.886C144.097 166.964 144.47 167.761 142.324 168.897C139.982 170.137 143.175 170.35 144.253 170.948C146.305 172.089 147.827 170.525 149.366 172.449C150.603 173.995 150.014 175.597 152.519 176.153C154.554 176.605 155.813 177.261 156.653 178.939" stroke="#F24822" stroke-width="0.39645" stroke-linecap="round" stroke-linejoin="round"/>
<path d="M92.7249 156.895C95.8205 156.895 99.569 161.535 101.542 163.508C103.152 165.118 105.678 163.717 106.931 165.284C107.424 165.901 108.362 167.416 108.707 168.193C109.384 169.715 109.965 168.869 110.789 169.693C112.962 171.867 107.201 171.775 106.502 171.775C105.41 171.775 102.645 169.267 102.645 171.775C102.645 174.877 102.236 174.268 99.8891 175.51C98.204 176.402 95.4804 177.394 95.4804 179.49" stroke="#F24822" stroke-width="0.39645" stroke-linecap="round" stroke-linejoin="round"/>
<path d="M140.671 159.651C140.671 164.148 137.996 162.019 135.282 164.733C134.247 165.769 134.609 167.338 134.609 168.744C134.609 171.332 133.237 171.003 131.608 172.632C129.912 174.329 135.151 177.837 136.537 177.837C138.272 177.837 145.538 176.177 145.631 177.837C145.739 179.792 147.369 179.597 148.386 180.868C149.217 181.907 150.166 182.955 151.019 184.022C151.328 184.407 152.632 187.696 151.938 187.696C150.503 187.696 149.512 186.902 147.835 187.451C147.403 187.592 144.194 189.756 144.008 189.104C143.018 185.641 142.469 183.822 138.772 182.766C134.158 181.448 137.184 185.488 135.037 187.634C134.062 188.61 132.137 188.086 131.057 189.165C130.39 189.833 129.098 191.808 129.098 192.717C129.098 195.484 133.911 195.841 135.16 197.401C137.379 200.175 139.308 193.334 138.987 191.89C138.807 191.083 137.737 191.176 137.946 190.237C138.192 189.127 138.928 189.566 139.446 190.084C140.61 191.248 140.567 192.166 142.324 192.166C144.48 192.166 143.977 193.34 143.977 195.197C143.977 196.709 146.182 197.672 146.182 199.33C146.182 200.279 143.326 200.264 142.63 200.463C142.452 200.514 141.506 202.345 141.344 202.637C140.684 203.825 139.872 203.938 138.742 204.566C137.709 205.139 135.359 204.252 135.16 205.943C135.01 207.214 133.833 208.992 133.231 210.076C132.443 211.495 133.135 213.224 132.282 214.761C131.537 216.101 129.649 217.019 129.649 218.619" stroke="#F24822" stroke-width="0.39645" stroke-linecap="round" stroke-linejoin="round"/>
<path d="M123.587 216.965C122.345 215.724 121.896 214.253 121.107 212.832C120.455 211.66 121.533 209.186 120.709 208.27C118.655 205.989 116.281 205.509 114.218 203.188C112.473 201.225 112.471 201.626 110.115 200.953C108.637 200.531 107.605 199.081 107.605 197.677C107.605 196.106 108.156 194.963 108.156 193.544C108.156 192.269 106.684 190.625 108.707 190.513C110.129 190.434 111.118 189.233 112.32 188.89C113.784 188.471 113.992 191.381 114.34 192.166C114.699 192.972 114.769 193.481 114.769 194.37C114.769 195.351 113.728 195.391 113.728 195.748C113.728 197.007 116.819 196.575 117.524 196.575C118.635 196.575 126.283 194.574 126.22 194.493C125.156 193.126 124.701 191.747 123.862 190.237C122.535 187.848 121.755 188.238 119.453 187.726C118.137 187.434 118.138 184.391 117.402 183.471C116.338 182.141 115.651 181.695 113.942 181.695C111.098 181.695 108.69 184.259 106.196 184.971C102.914 185.909 99.8892 188.63 99.8892 183.073C99.8892 179.499 105.951 181.098 105.951 177.562C105.951 173.96 112.512 177.837 113.973 177.837C115.892 177.837 117.81 177.837 119.729 177.837C121.459 177.837 120.831 175.595 120.831 174.255C120.831 172.035 119.433 172.213 118.198 171.102C117.341 170.33 116.96 168.568 116.147 167.917C115.201 167.161 114.912 165.14 114.34 164.06C113.66 162.774 112.506 162.23 112.013 160.753" stroke="#F24822" stroke-width="0.39645" stroke-linecap="round" stroke-linejoin="round"/>
<path d="M142.875 49.4309C142.875 52.927 140.12 53.8524 140.12 57.4219C140.12 59.317 139.075 59.0988 137.67 59.9018C136.006 60.8529 135.744 62.1684 135.037 63.7595C134.404 65.185 133.939 65.8378 132.833 66.9436C131.444 68.3323 133.346 68.6568 134.057 69.546C135.2 70.9743 140.04 73.9162 141.773 71.7504C142.344 71.0359 145.02 71.4749 145.906 71.4749C148.367 71.4749 147.835 72.5445 147.835 74.7815C147.835 76.3533 150.399 77.0936 151.387 78.3636C151.878 78.9954 152.141 82.9892 151.142 83.048C148.913 83.1791 147.389 83.4442 146.304 81.3947C145.755 80.3574 144.596 79.3544 143.702 78.6392C142.452 77.6395 136.011 74.9701 135.19 77.8432C134.89 78.894 135.809 81.7569 134.884 82.4969C133.702 83.4425 131.965 83.8411 130.873 84.8238C128.385 87.0632 130.618 90.7634 133.782 90.7634C135.252 90.7634 136.721 90.7634 138.191 90.7634C139.584 90.7634 139.017 87.9561 139.017 86.9057C139.017 85.14 140.556 83.6056 142.569 84.1808C143.451 84.4328 144.335 86.7902 144.651 87.5793C144.955 88.34 145.97 88.7383 145.508 89.6612C145.094 90.4891 144.034 90.851 143.977 91.8656C143.888 93.4781 144.528 94.5499 144.528 95.9988C144.528 97.4436 141.781 97.3766 140.671 97.3766C138.37 97.3766 138.998 97.9429 137.64 99.0299C137.216 99.3685 137.109 100.41 136.813 100.928C136.468 101.531 135.504 101.488 135.16 102.092C134.757 102.797 134.057 102.838 134.057 103.714C134.057 104.278 134.307 105.617 133.935 106.072C132.61 107.692 129.649 110.724 129.649 112.807" stroke="#F24822" stroke-width="0.39645" stroke-linecap="round" stroke-linejoin="round"/>
<path d="M124.138 111.154C122.434 111.154 121.518 107.88 120.708 106.868C119.776 105.702 120.112 103.541 119.698 102.091C119.491 101.368 115.827 100.842 115.044 100.408C113.081 99.3167 114.087 96.9398 112.993 95.8457C111.706 94.5585 110.136 95.6438 108.707 95.7232C108.128 95.7553 103.374 95.4025 105.706 94.0699C107.012 93.3237 109.809 93.6499 109.809 91.59C109.809 89.9535 109.307 88.6209 108.278 87.3342C107.167 85.9456 112.527 86.3892 113.116 86.3545C114.065 86.2986 113.241 85.2425 113.942 85.8034C114.67 86.3859 114.769 86.8155 114.769 87.7323C114.769 90.5865 113.271 96.4774 117.647 92.5391C120.181 90.2587 126.347 94.2238 124.658 88.314C124.079 86.2886 124.072 85.5614 122.484 84.1501C121.342 83.1352 119.539 82.8962 118.351 81.9457C116.944 80.8198 118.328 78.4001 117.249 77.5369C116.04 76.5696 114.166 75.8836 112.564 75.8836C110.467 75.8836 108.851 74.9371 108.707 77.5369C108.654 78.4855 106.519 80.0998 105.676 80.568C102.005 82.6072 99.8664 75.5077 103.196 75.3325C105.14 75.2302 107.053 75.1246 107.053 73.1281C107.053 70.3161 110.258 71.4851 112.258 72.0565C114.567 72.7163 118.93 74.8224 119.178 70.3726C119.322 67.7798 121.464 70.0064 120.402 67.6171C119.951 66.6026 119.304 63.7702 118.32 63.2083C116.626 62.2403 116.316 60.7696 115.84 59.1057C115.394 57.5422 113.985 57.71 112.993 56.7176C112.037 55.7614 112.455 53.1648 111.707 52.7374C110.476 52.0341 109.634 50.4455 108.707 49.9819" stroke="#F24822" stroke-width="0.39645" stroke-linecap="round" stroke-linejoin="round"/>
<path d="M175.39 35.1021C173.774 35.1021 168.856 39.2637 168.777 40.613C168.675 42.3467 168.246 45.6646 167.552 47.2262C165.488 51.87 158.851 51.187 155.428 54.2681C153.164 56.3052 154.316 58.2482 150.59 58.2482C148.341 58.2482 145.233 57.2889 145.079 59.9015C144.946 62.1674 141.031 61.6705 142.998 63.6368C144.083 64.7218 145.59 66.4151 147.284 66.5147C149.33 66.6351 151.693 67.2612 151.693 69.8213C151.693 72.2148 155.254 72.2062 156.53 73.8015C157.738 75.311 158.166 77.9132 159.286 79.3125C159.843 80.0091 159.754 86.1974 159.286 86.7829C158.435 87.8466 154.069 88.505 152.672 88.5587C149.336 88.687 150.039 90.666 150.039 93.5186C150.039 96.3707 149.008 97.4063 147.161 99.4582C146.094 100.645 143.542 102.656 142.875 103.99" stroke="#F24822" stroke-width="0.39645" stroke-linecap="round" stroke-linejoin="round"/>
<path d="M159.408 84.7012C159.408 86.4184 162.827 89.8073 159.959 90.7633" stroke="#F24822" stroke-width="0.39645" stroke-linecap="round" stroke-linejoin="round"/>
<path d="M167.123 83.0481C166.019 83.0481 164.216 82.379 163.847 81.0887C163.603 80.2333 164.266 79.1904 162.99 79.1904C161.98 79.1904 160.969 79.1904 159.959 79.1904" stroke="#F24822" stroke-width="0.39645" stroke-linecap="round" stroke-linejoin="round"/>
<path d="M172.083 74.2302C168.652 74.2302 167.822 73.2735 165.195 71.2298C163.175 69.6591 157.52 69.9735 156.653 72.5769" stroke="#F24822" stroke-width="0.39645" stroke-linecap="round" stroke-linejoin="round"/>
<path d="M192.474 53.2883C187.483 53.2883 185.444 56.9493 182.677 60.024C180.747 62.1685 180.426 62.1059 177.319 62.1059C174.447 62.1059 173.585 59.5017 171.257 61.8304C170.118 62.9692 166.473 64.3275 164.919 63.6368C163.217 62.8804 161.951 60.9825 160.204 60.4832C155.435 59.1205 153.04 64.8614 148.937 64.8614" stroke="#F24822" stroke-width="0.39645" stroke-linecap="round" stroke-linejoin="round"/>
<path d="M78.3962 34C78.3962 35.1599 81.2719 37.3664 82.2539 37.9802C83.8379 38.9701 84.8504 42.2546 85.683 43.9198C86.6501 45.854 89.7214 48.5496 89.9693 50.533C90.2427 52.7199 93.6631 52.8874 95.1742 53.3191C97.3674 53.9458 98.3467 57.8608 99.338 59.5955C99.9992 60.7527 100.835 59.8136 101.42 59.2281C102.188 58.4599 103.789 58.7995 104.849 58.7995C107.622 58.7995 109.615 59.3583 109.809 62.6572C109.834 63.0857 111.17 64.6694 110.605 64.831C109.502 65.146 107.926 64.8616 106.778 64.8616C103.04 64.8616 103.552 65.546 101.236 67.862C99.7692 69.329 97.2466 64.865 96.5825 64.0349C95.0775 62.1536 93.2251 61.555 90.796 61.555C87.9065 61.555 86.8441 64.3105 83.9072 64.3105C81.2482 64.3105 80.6552 61.0039 78.3962 61.0039C75.8171 61.0039 72.3435 61.6757 69.8848 60.9733C69.1758 60.7707 67.1305 57.7767 66.0271 57.1462C64.2474 56.1292 61.8246 55.9668 60.761 53.8396" stroke="#F24822" stroke-width="0.39645" stroke-linecap="round" stroke-linejoin="round"/>
<path d="M110.911 102.887C110.911 101.438 109.688 99.0297 108.156 99.0297C105.782 99.0297 105.066 97.8718 103.196 96.7028C101.279 95.5047 104.29 92.0472 103.318 90.2121C102.448 88.5688 100.49 87.7388 99.032 86.9055C94.8702 84.5274 91.127 80.3639 93.8271 75.6386C94.399 74.6378 94.093 73.9887 94.4089 72.8831C94.439 72.7776 97.4695 73.128 97.9604 73.128C100.629 73.128 99.9549 72.8656 101.267 70.6787C102.208 69.1106 102.877 68.6317 102.094 67.0659" stroke="#F24822" stroke-width="0.39645" stroke-linecap="round" stroke-linejoin="round"/>
<path d="M96.0314 72.0261C94.5705 72.0261 93.0807 72.1119 91.6226 72.0261C90.4276 71.9558 89.2464 70.3728 88.0405 70.3728C86.9783 70.3728 87.3579 70.9643 87.1832 71.7506C86.9822 72.655 85.4579 72.932 84.7645 73.3732C83.8127 73.9789 81.8371 75.0501 81.1517 73.6794" stroke="#F24822" stroke-width="0.39645" stroke-linecap="round" stroke-linejoin="round"/>
<path d="M93.2759 79.1905C92.3024 79.1905 90.0568 78.8058 89.9693 80.2927C89.824 82.7624 87.4053 81.563 86.6627 83.0482" stroke="#F24822" stroke-width="0.39645" stroke-linecap="round" stroke-linejoin="round"/>
<path d="M94.3783 83.5989C94.3783 85.6421 94.054 87.9102 94.9294 89.661" stroke="#F24822" stroke-width="0.39645" stroke-linecap="round" stroke-linejoin="round"/>
<path d="M207.905 61.0039C205.583 61.0039 202.568 63.1001 200.618 64.3105C199.117 65.2423 195.006 65.7801 194.25 67.066C192.778 69.5676 191.593 72.7134 189.718 75.0569C187.934 77.2872 182.241 79.6309 179.37 79.7413C176.783 79.8408 172.083 77.4156 172.083 81.6701C172.083 87.489 170.048 94.0699 163.266 94.0699C159.949 94.0699 158.075 93.5313 156.101 95.9987C154.917 97.4795 153.24 101.234 151.141 101.234" stroke="#F24822" stroke-width="0.39645" stroke-linecap="round" stroke-linejoin="round"/>
<path d="M157.204 95.7231C157.204 97.9727 159.268 98.7498 159.959 100.132" stroke="#F24822" stroke-width="0.39645" stroke-linecap="round" stroke-linejoin="round"/>
<path d="M163.817 94.0701C163.817 96.9285 163.909 100.132 167.399 100.132C169.888 100.132 170.787 102.888 172.634 102.888" stroke="#F24822" stroke-width="0.39645" stroke-linecap="round" stroke-linejoin="round"/>
<path d="M186.412 92.9678C183.25 92.9678 179.522 91.4987 176.492 92.8453C175.301 93.3748 173.059 95.0554 172.359 93.7944C171.605 92.4377 169.877 92.4136 169.328 91.3145" stroke="#F24822" stroke-width="0.39645" stroke-linecap="round" stroke-linejoin="round"/>
<path d="M202.945 78.6394C200.935 78.6394 199.662 79.5705 197.863 80.1702C196.55 80.6077 194.681 80.2927 193.301 80.2927C190.443 80.2927 188.473 83.277 185.983 84.2729C184.766 84.76 183.766 85.6937 182.554 86.2323C181.475 86.7122 179.594 86.3548 178.421 86.3548C175.955 86.3548 174.708 83.5993 172.083 83.5993" stroke="#F24822" stroke-width="0.39645" stroke-linecap="round" stroke-linejoin="round"/>
<path d="M112.013 106.194C114.021 108.202 116.973 111.023 116.973 113.909C116.973 116.305 120.312 118.454 122.209 119.972C123.382 120.91 119.768 122.052 119.055 122.298C117.029 123 116.257 124.931 114.218 124.931C111.012 124.931 108.885 120.911 105.706 122.727C104.163 123.609 104.304 124.62 103.318 125.605C102.133 126.79 102.787 128.953 101.971 129.769C101.502 130.238 100.498 129.456 100.44 130.442C100.369 131.663 101.274 131.569 101.512 132.402C101.847 133.576 102.441 135.172 104.022 134.821C105.486 134.495 106.125 131.802 107.176 130.994C108.806 129.74 110.168 128.487 112.013 127.565C114.991 126.076 115.74 130.888 117.249 132.096C118.192 132.85 119.304 133.188 120.157 133.872C120.718 134.32 121.376 134.325 121.933 134.851C122.591 135.472 122.753 136.609 123.311 137.056C124.061 137.656 124.138 139.965 124.138 140.913C124.138 144.117 121.969 141.464 120.157 141.464C118.123 141.464 117.081 143.118 115.044 143.118C113.644 143.118 112.71 140.797 113.942 139.811C115.431 138.62 113.857 137.056 112.565 137.056C110.928 137.056 109.906 136.934 108.829 138.28C108.027 139.284 108.98 141.456 109.227 142.322C109.839 144.463 108.681 145.311 111.187 146.424C113.153 147.298 112.483 147.751 113.789 149.057C114.627 149.895 115.344 150.551 116.3 151.507C118.465 153.672 120.28 155.13 120.28 158.273C120.28 160.572 123.142 163.17 124.138 165.162" stroke="#F24822" stroke-width="0.39645" stroke-linecap="round" stroke-linejoin="round"/>
<path d="M130.2 165.162C131.365 165.162 132.802 162.649 133.231 161.886C134.435 159.745 135.056 159.557 133.2 157.171C130.03 153.095 135.011 152.881 137.486 150.405C138.359 149.532 137.436 147.527 139.293 147.527C140.969 147.527 142.291 147.418 143.732 147.006C146.857 146.114 143.977 141.228 143.977 138.709C143.977 137.484 142.674 136.505 141.497 136.505C140.127 136.505 140.684 136.634 139.568 136.076C138.8 135.692 139.136 137.292 138.742 137.607C138.001 138.199 138.466 141.091 138.466 142.016C138.466 144.417 137.982 144.22 135.711 144.22C132.195 144.22 131.935 140.662 128.853 139.781C127.269 139.328 129.38 136.389 129.924 135.954C131.45 134.733 132.404 134.41 132.404 132.372C132.404 131.448 134.116 129.596 134.731 128.912C135.687 127.85 137.659 128.158 139.017 128.238C139.811 128.285 142.301 128.898 142.875 129.616C143.832 130.812 144.128 132.285 145.079 133.474C146.071 134.713 148.242 134.651 149.366 135.525C149.649 135.745 149.374 134.476 149.794 134.056C150.366 133.484 151.039 133.189 151.57 132.525C153.623 129.959 149.289 127.005 147.59 126.034C146.637 125.489 146.23 123.349 145.63 123.278C144.046 123.092 142.774 121.625 141.222 121.625C139.74 121.625 133.511 124.538 132.925 121.901C132.515 120.057 132.404 118.515 132.404 116.543C132.404 113.6 133.59 115.037 135.711 114.032C138.53 112.697 138.077 112.088 139.446 109.501C139.741 108.943 141.112 108.902 140.364 108.154C139.339 107.128 139.568 107.899 139.568 108.95" stroke="#F24822" stroke-width="0.39645" stroke-linecap="round" stroke-linejoin="round"/>
<path d="M160.51 104.541C158.601 104.541 156.724 105.878 155.428 107.174C154.293 108.309 153.853 110.513 152.244 110.603C150.307 110.71 148.21 111.035 146.182 111.154C144.711 111.24 144.132 113.91 143.549 115.012C142.855 116.322 139.793 117.216 142.875 117.216C144.712 117.216 146.549 117.216 148.386 117.216C149.453 117.216 152.161 118.01 152.244 119.42C152.388 121.88 152.688 123.103 154.724 124.687C157.852 127.12 159.408 129.585 159.408 134.025C159.408 135.872 158.918 137.629 156.959 138.188C155.503 138.604 153.357 138.696 152.244 140.087C150.727 141.982 146.774 146.788 149.764 149.18C152.19 151.121 142.86 156.352 141.773 156.895" stroke="#F24822" stroke-width="0.39645" stroke-linecap="round" stroke-linejoin="round"/>
<path d="M159.408 137.056C159.408 138.334 160.51 138.87 160.51 140.087C160.51 140.48 160.51 142.669 160.51 142.016" stroke="#F24822" stroke-width="0.39645" stroke-linecap="round" stroke-linejoin="round"/>
<path d="M161.061 130.993C159.885 130.993 163.752 132.023 163.817 133.198C163.895 134.613 165.444 135.94 166.572 136.504" stroke="#F24822" stroke-width="0.39645" stroke-linecap="round" stroke-linejoin="round"/>
<path d="M172.083 126.585C170.692 126.585 168.765 126.935 167.43 126.554C166.248 126.216 165.529 124.287 164.368 123.707C162.872 122.959 161.417 122.372 159.684 122.758C158.821 122.949 155.801 124.43 155.55 124.931" stroke="#F24822" stroke-width="0.39645" stroke-linecap="round" stroke-linejoin="round"/>
<path d="M178.145 114.461C175.219 114.461 173.273 114.422 170.706 115.563C168.004 116.763 164.467 115.75 162.286 113.787C161.101 112.72 155.623 112.691 155.03 114.767C154.653 116.086 152.157 116.898 150.866 117.185C150.404 117.288 149.418 116.98 149.06 117.339C148.865 117.534 148.937 119.094 148.937 118.318" stroke="#F24822" stroke-width="0.39645" stroke-linecap="round" stroke-linejoin="round"/>
<path d="M93.276 102.888C94.0265 102.888 97.4415 104.654 97.6541 105.398C98.0096 106.642 99.1994 108.391 99.338 109.501C99.545 111.156 102.262 111.406 103.471 111.675C104.885 111.989 105.813 113.755 107.053 113.91C107.718 113.993 109.349 117.226 108.401 117.767C106.274 118.982 104.547 118.733 102.094 118.87C101.022 118.929 101.88 120.377 101.42 120.952C100.98 121.501 100.332 121.899 99.8891 122.452C99.1003 123.438 97.1575 124.051 96.1539 125.054C94.3896 126.818 92.7249 131.175 92.7249 133.749C92.7249 136.075 98.0543 140.082 100.44 140.362C103.93 140.773 103.747 146.282 103.747 148.629C103.747 150.292 103.02 153.091 105.125 153.558C106.764 153.923 107.783 155.302 109.258 155.793" stroke="#F24822" stroke-width="0.39645" stroke-linecap="round" stroke-linejoin="round"/>
<path d="M94.9294 138.709C94.2452 138.709 91.6228 138.306 91.6228 139.26C91.6228 140.139 92.8107 141.869 93.2761 142.567" stroke="#F24822" stroke-width="0.39645" stroke-linecap="round" stroke-linejoin="round"/>
<path d="M93.2761 130.993C91.4782 130.993 89.8683 130.65 88.8673 132.402C87.6177 134.588 85.7334 135.402 83.3563 135.402" stroke="#F24822" stroke-width="0.39645" stroke-linecap="round" stroke-linejoin="round"/>
<path d="M95.4804 124.931C92.5997 124.931 89.825 123.829 86.9383 123.829C84.648 123.829 84.9774 125.27 83.7848 126.462C83.1402 127.107 79.8066 126.585 78.9474 126.585" stroke="#F24822" stroke-width="0.39645" stroke-linecap="round" stroke-linejoin="round"/>
<path d="M100.991 118.869C98.3769 117.562 96.0988 115.593 93.5516 114.461C91.9391 113.744 87.42 113.101 86.1117 114.736C84.9398 116.201 80.2344 116.813 78.825 115.685C76.8879 114.136 73.8268 115.823 71.7831 114.461" stroke="#F24822" stroke-width="0.39645" stroke-linecap="round" stroke-linejoin="round"/>
<path d="M102.094 100.683H101.543" stroke="#F24822" stroke-width="0.39645" stroke-linecap="round" stroke-linejoin="round"/>
<path d="M42.575 60.4529C44.6881 60.4529 46.069 62.1204 47.841 62.6267C49.2773 63.037 49.3765 65.7808 50.8414 65.9639C52.2574 66.1409 53.9196 67.3001 55.4952 67.5866C57.114 67.8809 58.2962 67.4637 59.5366 68.8418C61.548 71.0768 62.428 74.2589 64.4965 76.5572C67.2937 79.6653 70.8275 79.1903 74.8143 79.1903C78.4221 79.1903 79.7785 81.4143 80.5702 84.9768C81.2463 88.0191 84.0167 91.0617 85.5607 93.7638C86.3502 95.1455 93.0786 94.0215 94.6539 94.8966C95.9547 95.6193 96.6058 97.3996 97.6849 98.4788C98.7281 99.5219 100.368 101.089 100.992 102.336" stroke="#F24822" stroke-width="0.39645" stroke-linecap="round" stroke-linejoin="round"/>
<path d="M94.9293 94.6211C94.9293 96.7226 94.6956 97.8442 93.8271 99.581" stroke="#F24822" stroke-width="0.39645" stroke-linecap="round" stroke-linejoin="round"/>
<path d="M87.7651 94.6211C87.7651 97.9982 82.6152 101.785 79.4986 101.785" stroke="#F24822" stroke-width="0.39645" stroke-linecap="round" stroke-linejoin="round"/>
<path d="M66.8232 92.9678C68.0707 92.9678 70.0868 92.5813 71.232 93.0903C72.6829 93.7351 73.8788 95.6577 75.5184 95.7233C77.6256 95.8076 79.51 95.5294 81.1518 94.07C82.2216 93.1191 84.713 90.7634 86.1117 90.7634" stroke="#F24822" stroke-width="0.39645" stroke-linecap="round" stroke-linejoin="round"/>
<path d="M50.2902 78.6394C52.9931 78.6394 55.0323 80.1502 57.4545 80.2927C58.6028 80.3602 59.6867 81.3949 61.0673 81.3949C62.4038 81.3949 64.7515 81.9438 65.9966 82.4971C66.8503 82.8765 68.9555 84.4014 69.4562 85.2526C70.3186 86.7186 71.5812 86.3548 73.1609 86.3548C75.8677 86.3548 78.8479 86.4046 81.1518 85.2526" stroke="#F24822" stroke-width="0.39645" stroke-linecap="round" stroke-linejoin="round"/>
<path d="M158.857 157.998C154.415 157.998 155.092 163.509 150.59 163.509C149.098 163.509 145.008 162.864 144.559 164.886C144.097 166.964 144.47 167.761 142.324 168.897C139.982 170.137 143.175 170.35 144.253 170.948C146.305 172.089 147.827 170.525 149.366 172.449C150.603 173.995 150.014 175.597 152.519 176.153C154.554 176.605 155.813 177.261 156.653 178.939" stroke="#F24822" stroke-width="0.39645" stroke-linecap="round" stroke-linejoin="round"/>
<path d="M92.7249 156.895C95.8205 156.895 99.569 161.535 101.542 163.508C103.152 165.118 105.678 163.717 106.931 165.284C107.424 165.901 108.362 167.416 108.707 168.193C109.384 169.715 109.965 168.869 110.789 169.693C112.962 171.867 107.201 171.775 106.502 171.775C105.41 171.775 102.645 169.267 102.645 171.775C102.645 174.877 102.236 174.268 99.8891 175.51C98.204 176.402 95.4804 177.394 95.4804 179.49" stroke="#F24822" stroke-width="0.39645" stroke-linecap="round" stroke-linejoin="round"/>
<path d="M140.671 159.651C140.671 164.148 137.996 162.019 135.282 164.733C134.247 165.769 134.609 167.338 134.609 168.744C134.609 171.332 133.237 171.003 131.608 172.632C129.912 174.329 135.151 177.837 136.537 177.837C138.272 177.837 145.538 176.177 145.631 177.837C145.739 179.792 147.369 179.597 148.386 180.868C149.217 181.907 150.166 182.955 151.019 184.022C151.328 184.407 152.632 187.696 151.938 187.696C150.503 187.696 149.512 186.902 147.835 187.451C147.403 187.592 144.194 189.756 144.008 189.104C143.018 185.641 142.469 183.822 138.772 182.766C134.158 181.448 137.184 185.488 135.037 187.634C134.062 188.61 132.137 188.086 131.057 189.165C130.39 189.833 129.098 191.808 129.098 192.717C129.098 195.484 133.911 195.841 135.16 197.401C137.379 200.175 139.308 193.334 138.987 191.89C138.807 191.083 137.737 191.176 137.946 190.237C138.192 189.127 138.928 189.566 139.446 190.084C140.61 191.248 140.567 192.166 142.324 192.166C144.48 192.166 143.977 193.34 143.977 195.197C143.977 196.709 146.182 197.672 146.182 199.33C146.182 200.279 143.326 200.264 142.63 200.463C142.452 200.514 141.506 202.345 141.344 202.637C140.684 203.825 139.872 203.938 138.742 204.566C137.709 205.139 135.359 204.252 135.16 205.943C135.01 207.214 133.833 208.992 133.231 210.076C132.443 211.495 133.135 213.224 132.282 214.761C131.537 216.101 129.649 217.019 129.649 218.619" stroke="#F24822" stroke-width="0.39645" stroke-linecap="round" stroke-linejoin="round"/>
<path d="M123.587 216.965C122.345 215.724 121.896 214.253 121.107 212.832C120.455 211.66 121.533 209.186 120.709 208.27C118.655 205.989 116.281 205.509 114.218 203.188C112.473 201.225 112.471 201.626 110.115 200.953C108.637 200.531 107.605 199.081 107.605 197.677C107.605 196.106 108.156 194.963 108.156 193.544C108.156 192.269 106.684 190.625 108.707 190.513C110.129 190.434 111.118 189.233 112.32 188.89C113.784 188.471 113.992 191.381 114.34 192.166C114.699 192.972 114.769 193.481 114.769 194.37C114.769 195.351 113.728 195.391 113.728 195.748C113.728 197.007 116.819 196.575 117.524 196.575C118.635 196.575 126.283 194.574 126.22 194.493C125.156 193.126 124.701 191.747 123.862 190.237C122.535 187.848 121.755 188.238 119.453 187.726C118.137 187.434 118.138 184.391 117.402 183.471C116.338 182.141 115.651 181.695 113.942 181.695C111.098 181.695 108.69 184.259 106.196 184.971C102.914 185.909 99.8892 188.63 99.8892 183.073C99.8892 179.499 105.951 181.098 105.951 177.562C105.951 173.96 112.512 177.837 113.973 177.837C115.892 177.837 117.81 177.837 119.729 177.837C121.459 177.837 120.831 175.595 120.831 174.255C120.831 172.035 119.433 172.213 118.198 171.102C117.341 170.33 116.96 168.568 116.147 167.917C115.201 167.161 114.912 165.14 114.34 164.06C113.66 162.774 112.506 162.23 112.013 160.753" stroke="#F24822" stroke-width="0.39645" stroke-linecap="round" stroke-linejoin="round"/>
<path d="M179.799 84.6509C179.799 88.147 177.043 89.0724 177.043 92.6418C177.043 94.5369 175.999 94.3188 174.594 95.1218C172.929 96.0728 172.668 97.3884 171.961 98.9795C171.327 100.405 170.862 101.058 169.756 102.164C168.368 103.552 170.27 103.877 170.981 104.766C172.124 106.194 176.964 109.136 178.696 106.97C179.268 106.256 181.944 106.695 182.83 106.695C185.291 106.695 184.759 107.764 184.759 110.001C184.759 111.573 187.322 112.314 188.31 113.584C188.801 114.215 189.065 118.209 188.065 118.268C185.837 118.399 184.313 118.664 183.228 116.615C182.679 115.577 181.519 114.574 180.625 113.859C179.376 112.859 172.935 110.19 172.114 113.063C171.814 114.114 172.733 116.977 171.808 117.717C170.626 118.662 168.889 119.061 167.797 120.044C165.309 122.283 167.542 125.983 170.706 125.983C172.175 125.983 173.645 125.983 175.114 125.983C176.507 125.983 175.941 123.176 175.941 122.126C175.941 120.36 177.479 118.826 179.492 119.401C180.374 119.653 181.259 122.01 181.574 122.799C181.879 123.56 182.893 123.958 182.432 124.881C182.018 125.709 180.957 126.071 180.901 127.086C180.811 128.698 181.452 129.77 181.452 131.219C181.452 132.664 178.704 132.597 177.594 132.597C175.293 132.597 175.922 133.163 174.563 134.25C174.14 134.588 174.033 135.63 173.737 136.148C173.392 136.751 172.428 136.708 172.083 137.312C171.68 138.016 170.981 138.058 170.981 138.934C170.981 139.498 171.231 140.837 170.859 141.292C169.533 142.911 166.572 145.944 166.572 148.027" stroke="#F24822" stroke-width="0.39645" stroke-linecap="round" stroke-linejoin="round"/>
<path d="M99.0876 222C97.3844 222 96.4682 218.726 95.6585 217.714C94.7257 216.548 95.0623 214.387 94.6482 212.937C94.4414 212.214 90.7769 211.688 89.9944 211.253C88.0309 210.163 89.0372 207.786 87.9431 206.692C86.656 205.404 85.0856 206.49 83.6568 206.569C83.0782 206.601 78.3243 206.248 80.6563 204.916C81.9622 204.17 84.759 204.496 84.759 202.436C84.759 200.799 84.2575 199.467 83.2281 198.18C82.1172 196.792 87.4766 197.235 88.0656 197.2C89.0154 197.145 88.191 196.088 88.8922 196.649C89.6203 197.232 89.7189 197.661 89.7189 198.578C89.7189 201.432 88.2209 207.323 92.5968 203.385C95.1305 201.105 101.297 205.07 99.6081 199.16C99.0294 197.135 99.022 196.407 97.4343 194.996C96.2925 193.981 94.4891 193.742 93.301 192.792C91.8937 191.666 93.2778 189.246 92.1988 188.383C90.9897 187.416 89.1157 186.73 87.5145 186.73C85.4167 186.73 83.8012 185.783 83.6568 188.383C83.6041 189.331 81.4685 190.946 80.6257 191.414C76.9552 193.453 74.8164 186.354 78.1458 186.178C80.0898 186.076 82.0035 185.971 82.0035 183.974C82.0035 181.162 85.2081 182.331 87.2083 182.902C89.5174 183.562 93.8805 185.668 94.1277 181.219C94.2717 178.626 96.4142 180.852 95.3523 178.463C94.9015 177.449 94.2537 174.616 93.2704 174.054C91.5764 173.086 91.2659 171.616 90.7905 169.952C90.3438 168.388 88.9355 168.556 87.9431 167.564C86.9869 166.607 87.4051 164.011 86.6572 163.583C85.4264 162.88 84.5839 161.291 83.6568 160.828" stroke="#F24822" stroke-width="0.39645" stroke-linecap="round" stroke-linejoin="round"/>
<path d="M212.313 70.3228C210.697 70.3228 205.78 74.4844 205.7 75.8337C205.598 77.5674 205.17 80.8853 204.476 82.4469C202.412 87.0907 195.775 86.4077 192.351 89.4888C190.088 91.5259 191.24 93.4689 187.514 93.4689C185.264 93.4689 182.157 92.5096 182.003 95.1222C181.87 97.3881 177.955 96.8912 179.921 98.8575C181.006 99.9425 182.513 101.636 184.207 101.735C186.254 101.856 188.616 102.482 188.616 105.042C188.616 107.436 192.177 107.427 193.454 109.022C194.661 110.532 195.09 113.134 196.209 114.533C196.766 115.23 196.678 121.418 196.209 122.004C195.358 123.067 190.993 123.726 189.596 123.779C186.26 123.908 186.963 125.887 186.963 128.739C186.963 131.591 185.932 132.627 184.085 134.679C183.017 135.865 180.465 137.876 179.799 139.21" stroke="#F24822" stroke-width="0.39645" stroke-linecap="round" stroke-linejoin="round"/>
<path d="M196.331 119.922C196.331 121.639 199.75 125.028 196.883 125.984" stroke="#F24822" stroke-width="0.39645" stroke-linecap="round" stroke-linejoin="round"/>
<path d="M204.047 118.268C202.943 118.268 201.14 117.599 200.771 116.309C200.526 115.453 201.19 114.41 199.914 114.41C198.903 114.41 197.893 114.41 196.883 114.41" stroke="#F24822" stroke-width="0.39645" stroke-linecap="round" stroke-linejoin="round"/>
<path d="M209.007 109.45C205.575 109.45 204.746 108.494 202.118 106.45C200.099 104.879 194.444 105.194 193.576 107.797" stroke="#F24822" stroke-width="0.39645" stroke-linecap="round" stroke-linejoin="round"/>
<path d="M229.397 88.5085C224.406 88.5085 222.367 92.1695 219.6 95.2442C217.67 97.3887 217.349 97.3261 214.242 97.3261C211.371 97.3261 210.509 94.7219 208.18 97.0506C207.041 98.1894 203.397 99.5477 201.842 98.857C200.141 98.1006 198.875 96.2027 197.128 95.7035C192.358 94.3408 189.963 100.082 185.861 100.082" stroke="#F24822" stroke-width="0.39645" stroke-linecap="round" stroke-linejoin="round"/>
<path d="M53.3463 144.846C53.3463 146.006 56.2219 148.212 57.204 148.826C58.7879 149.816 59.8005 153.101 60.6331 154.766C61.6002 156.7 64.6715 159.396 64.9194 161.379C65.1928 163.566 68.6132 163.733 70.1242 164.165C72.3175 164.792 73.2968 168.707 74.2881 170.441C74.9493 171.599 75.7846 170.66 76.37 170.074C77.1382 169.306 78.7386 169.645 79.7991 169.645C82.5722 169.645 84.5649 170.204 84.759 173.503C84.7842 173.932 86.1205 175.515 85.555 175.677C84.4523 175.992 82.8761 175.708 81.7279 175.708C77.99 175.708 78.5023 176.392 76.1863 178.708C74.7193 180.175 72.1966 175.711 71.5326 174.881C70.0275 173 68.1752 172.401 65.746 172.401C62.8565 172.401 61.7942 175.156 58.8573 175.156C56.1983 175.156 55.6053 171.85 53.3463 171.85C50.7672 171.85 47.2936 172.522 44.8349 171.819C44.1259 171.617 42.0806 168.623 40.9772 167.992C39.1975 166.975 36.7747 166.813 35.7111 164.686" stroke="#F24822" stroke-width="0.39645" stroke-linecap="round" stroke-linejoin="round"/>
<path d="M85.8612 213.734C85.8612 212.285 84.638 209.876 83.1057 209.876C80.7319 209.876 80.0162 208.718 78.1459 207.549C76.2288 206.351 79.2399 202.893 78.2683 201.058C77.3983 199.415 75.4402 198.585 73.982 197.752C69.8202 195.374 66.077 191.21 68.7772 186.485C69.349 185.484 69.043 184.835 69.3589 183.729C69.389 183.624 72.4195 183.974 72.9104 183.974C75.5792 183.974 74.9049 183.712 76.217 181.525C77.1578 179.957 77.8266 179.478 77.0437 177.912" stroke="#F24822" stroke-width="0.39645" stroke-linecap="round" stroke-linejoin="round"/>
<path d="M70.9815 182.872C69.5206 182.872 68.0308 182.958 66.5727 182.872C65.3776 182.802 64.1965 181.219 62.9906 181.219C61.9283 181.219 62.308 181.81 62.1333 182.596C61.9323 183.501 60.408 183.778 59.7146 184.219C58.7628 184.825 56.7871 185.896 56.1018 184.525" stroke="#F24822" stroke-width="0.39645" stroke-linecap="round" stroke-linejoin="round"/>
<path d="M68.2259 190.036C67.2524 190.036 65.0068 189.651 64.9193 191.138C64.7741 193.608 62.3553 192.409 61.6127 193.894" stroke="#F24822" stroke-width="0.39645" stroke-linecap="round" stroke-linejoin="round"/>
<path d="M244.828 96.2241C242.506 96.2241 239.492 98.3203 237.541 99.5307C236.04 100.462 231.93 101 231.173 102.286C229.702 104.788 228.517 107.934 226.642 110.277C224.858 112.507 219.164 114.851 216.293 114.962C213.706 115.061 209.007 112.636 209.007 116.89C209.007 122.709 206.972 129.29 200.189 129.29C196.872 129.29 194.999 128.751 193.025 131.219C191.84 132.7 190.163 136.454 188.065 136.454" stroke="#F24822" stroke-width="0.39645" stroke-linecap="round" stroke-linejoin="round"/>
<path d="M194.127 130.943C194.127 133.193 196.191 133.97 196.883 135.352" stroke="#F24822" stroke-width="0.39645" stroke-linecap="round" stroke-linejoin="round"/>
<path d="M200.74 129.29C200.74 132.149 200.832 135.352 204.322 135.352C206.812 135.352 207.711 138.108 209.558 138.108" stroke="#F24822" stroke-width="0.39645" stroke-linecap="round" stroke-linejoin="round"/>
<path d="M223.335 128.188C220.173 128.188 216.445 126.719 213.416 128.066C212.224 128.595 209.983 130.276 209.282 129.015C208.529 127.658 206.801 127.634 206.251 126.535" stroke="#F24822" stroke-width="0.39645" stroke-linecap="round" stroke-linejoin="round"/>
<path d="M239.868 113.859C237.858 113.859 236.585 114.79 234.786 115.39C233.474 115.828 231.605 115.513 230.224 115.513C227.366 115.513 225.396 118.497 222.907 119.493C221.689 119.98 220.69 120.914 219.478 121.452C218.398 121.932 216.518 121.575 215.344 121.575C212.878 121.575 211.632 118.819 209.007 118.819" stroke="#F24822" stroke-width="0.39645" stroke-linecap="round" stroke-linejoin="round"/>
<path d="M70.0295 81.52C70.0295 85.0161 72.785 85.9415 72.785 89.511C72.785 91.4061 73.8292 91.1879 75.2344 91.9909C76.8987 92.942 77.1602 94.2575 77.8674 95.8486C78.501 97.2741 78.966 97.9269 80.0718 99.0327C81.4605 100.421 79.5585 100.746 78.8471 101.635C77.7045 103.063 72.8644 106.005 71.1317 103.84C70.5601 103.125 67.8843 103.564 66.9985 103.564C64.5373 103.564 65.0696 104.634 65.0696 106.871C65.0696 108.442 62.5059 109.183 61.5181 110.453C61.0267 111.085 60.7636 115.078 61.763 115.137C63.9913 115.268 65.5154 115.533 66.6005 113.484C67.1496 112.446 68.3088 111.444 69.2029 110.728C70.4526 109.729 76.8934 107.059 77.7143 109.932C78.0145 110.983 77.0955 113.846 78.0205 114.586C79.2025 115.532 80.9395 115.93 82.0313 116.913C84.5195 119.152 82.2864 122.852 79.1227 122.852C77.6531 122.852 76.1835 122.852 74.7139 122.852C73.321 122.852 73.8872 120.045 73.8872 118.995C73.8872 117.229 72.3489 115.695 70.3357 116.27C69.4537 116.522 68.5694 118.879 68.2538 119.668C67.9495 120.429 66.935 120.827 67.3965 121.75C67.8105 122.578 68.871 122.94 68.9273 123.955C69.0169 125.567 68.3762 126.639 68.3762 128.088C68.3762 129.533 71.124 129.466 72.2339 129.466C74.5347 129.466 73.9063 130.032 75.265 131.119C75.6882 131.458 75.7954 132.499 76.0916 133.017C76.4363 133.62 77.4003 133.578 77.7449 134.181C78.1478 134.886 78.8471 134.927 78.8471 135.803C78.8471 136.368 78.5977 137.706 78.9696 138.161C80.2949 139.781 83.2559 142.814 83.2559 144.896" stroke="#F24822" stroke-width="0.39645" stroke-linecap="round" stroke-linejoin="round"/>
<path d="M37.5147 67.1912C39.1311 67.1912 44.0485 71.3528 44.1278 72.7022C44.2298 74.4358 44.6585 77.7537 45.3525 79.3154C47.4164 83.9591 54.0533 83.2761 57.4767 86.3572C59.7402 88.3943 58.5882 90.3373 62.3141 90.3373C64.564 90.3373 67.6714 89.378 67.8251 91.9906C67.9584 94.2565 71.8733 93.7596 69.9071 95.7259C68.8221 96.8109 67.3151 98.5042 65.6207 98.6038C63.5745 98.7242 61.2119 99.3503 61.2119 101.91C61.2119 104.304 57.6507 104.295 56.3745 105.891C55.1669 107.4 54.7384 110.002 53.619 111.402C53.0617 112.098 53.1505 118.286 53.619 118.872C54.4699 119.936 58.8353 120.594 60.2322 120.648C63.5683 120.776 62.8652 122.755 62.8652 125.608C62.8652 128.46 63.8964 129.495 65.7432 131.547C66.811 132.734 69.3626 134.745 70.0295 136.079" stroke="#F24822" stroke-width="0.39645" stroke-linecap="round" stroke-linejoin="round"/>
<path d="M53.4966 116.79C53.4966 118.507 50.0777 121.896 52.9455 122.852" stroke="#F24822" stroke-width="0.39645" stroke-linecap="round" stroke-linejoin="round"/>
<path d="M45.7813 115.137C46.8855 115.137 48.6886 114.468 49.0573 113.177C49.3017 112.322 48.6382 111.279 49.9146 111.279C50.9249 111.279 51.9353 111.279 52.9456 111.279" stroke="#F24822" stroke-width="0.39645" stroke-linecap="round" stroke-linejoin="round"/>
<path d="M40.8213 106.319C44.2532 106.319 45.0824 105.362 47.7101 103.319C49.7295 101.748 55.3843 102.062 56.2521 104.666" stroke="#F24822" stroke-width="0.39645" stroke-linecap="round" stroke-linejoin="round"/>
<path d="M20.4307 85.3777C25.4221 85.3777 27.4608 89.0386 30.228 92.1133C32.1581 94.2578 32.4788 94.1953 35.586 94.1953C38.4573 94.1953 39.3194 91.591 41.6481 93.9197C42.7868 95.0585 46.4316 96.4168 47.9857 95.7261C49.6874 94.9698 50.9534 93.0718 52.7007 92.5726C57.4701 91.2099 59.8652 96.9508 63.9676 96.9508" stroke="#F24822" stroke-width="0.39645" stroke-linecap="round" stroke-linejoin="round"/>
<path d="M4.99998 93.093C7.32205 93.093 10.3366 95.1892 12.2867 96.3996C13.7879 97.3314 17.8986 97.8693 18.655 99.1551C20.1265 101.657 21.3115 104.803 23.1863 107.146C24.9704 109.376 30.6637 111.72 33.5347 111.83C36.1217 111.93 40.8215 109.505 40.8215 113.759C40.8215 119.578 42.8563 126.159 49.6391 126.159C52.956 126.159 54.8294 125.62 56.8033 128.088C57.9879 129.569 59.665 133.323 61.7632 133.323" stroke="#F24822" stroke-width="0.39645" stroke-linecap="round" stroke-linejoin="round"/>
<path d="M55.7012 127.812C55.7012 130.062 53.6368 130.839 52.9457 132.221" stroke="#F24822" stroke-width="0.39645" stroke-linecap="round" stroke-linejoin="round"/>
<path d="M49.0879 126.159C49.0879 129.017 48.9957 132.221 45.5057 132.221C43.0166 132.221 42.1171 134.977 40.2703 134.977" stroke="#F24822" stroke-width="0.39645" stroke-linecap="round" stroke-linejoin="round"/>
<path d="M26.4928 125.057C29.6548 125.057 33.3827 123.588 36.4126 124.934C37.6041 125.464 39.8453 127.145 40.5459 125.884C41.2996 124.527 43.0274 124.503 43.5769 123.404" stroke="#F24822" stroke-width="0.39645" stroke-linecap="round" stroke-linejoin="round"/>
<path d="M9.95974 110.728C11.9701 110.728 13.2429 111.659 15.0421 112.259C16.3545 112.697 18.2233 112.382 19.604 112.382C22.4618 112.382 24.4317 115.366 26.9214 116.362C28.1391 116.849 29.1384 117.783 30.3504 118.321C31.43 118.801 33.3102 118.444 34.4837 118.444C36.9497 118.444 38.1964 115.688 40.8213 115.688" stroke="#F24822" stroke-width="0.39645" stroke-linecap="round" stroke-linejoin="round"/>
<path d="M17.525 171.299C19.6381 171.299 21.019 172.966 22.7911 173.473C24.2273 173.883 24.3266 176.627 25.7915 176.81C27.2074 176.987 28.8696 178.146 30.4452 178.433C32.064 178.727 33.2463 178.31 34.4866 179.688C36.498 181.923 37.378 185.105 39.4465 187.403C42.2438 190.511 45.7775 190.036 49.7643 190.036C53.3721 190.036 54.7286 192.26 55.5203 195.823C56.1963 198.865 58.9667 201.908 60.5108 204.61C61.3003 205.991 68.0286 204.867 69.6039 205.743C70.9048 206.465 71.5558 208.246 72.635 209.325C73.6781 210.368 75.3178 211.935 75.9416 213.182" stroke="#F24822" stroke-width="0.39645" stroke-linecap="round" stroke-linejoin="round"/>
<path d="M25.2402 189.485C27.9431 189.485 29.9823 190.996 32.4045 191.138C33.5528 191.206 34.6368 192.241 36.0173 192.241C37.3538 192.241 39.7015 192.789 40.9466 193.343C41.8003 193.722 43.9056 195.247 44.4063 196.098C45.2686 197.564 46.5312 197.201 48.1109 197.201C50.8177 197.201 53.7979 197.25 56.1018 196.098" stroke="#F24822" stroke-width="0.39645" stroke-linecap="round" stroke-linejoin="round"/>
<path d="M153.604 221.374C155.307 221.374 156.223 218.1 157.033 217.087C157.966 215.921 157.629 213.761 158.043 212.311C158.25 211.587 161.914 211.062 162.697 210.627C164.66 209.536 163.654 207.16 164.748 206.065C166.035 204.778 167.606 205.864 169.035 205.943C169.613 205.975 174.367 205.622 172.035 204.29C170.729 203.543 167.932 203.87 167.932 201.81C167.932 200.173 168.434 198.841 169.463 197.554C170.574 196.165 165.215 196.609 164.626 196.574C163.676 196.518 164.5 195.462 163.799 196.023C163.071 196.606 162.972 197.035 162.972 197.952C162.972 200.806 164.47 206.697 160.095 202.759C157.561 200.478 151.395 204.443 153.083 198.534C153.662 196.508 153.669 195.781 155.257 194.37C156.399 193.355 158.202 193.116 159.39 192.165C160.798 191.04 159.413 188.62 160.493 187.757C161.702 186.789 163.576 186.103 165.177 186.103C167.275 186.103 168.89 185.157 169.035 187.757C169.087 188.705 171.223 190.319 172.066 190.788C175.736 192.827 177.875 185.727 174.546 185.552C172.602 185.45 170.688 185.344 170.688 183.348C170.688 180.536 167.483 181.705 165.483 182.276C163.174 182.936 158.811 185.042 158.564 180.592C158.42 178 156.277 180.226 157.339 177.837C157.79 176.822 158.438 173.99 159.421 173.428C161.115 172.46 161.425 170.989 161.901 169.325C162.348 167.762 163.756 167.93 164.748 166.937C165.704 165.981 165.286 163.385 166.034 162.957C167.265 162.254 168.107 160.665 169.035 160.202" stroke="#F24822" stroke-width="0.39645" stroke-linecap="round" stroke-linejoin="round"/>
<path d="M199.345 144.22C199.345 145.38 196.469 147.586 195.487 148.2C193.903 149.19 192.891 152.474 192.058 154.14C191.091 156.074 188.02 158.769 187.772 160.753C187.499 162.94 184.078 163.107 182.567 163.539C180.374 164.165 179.395 168.08 178.403 169.815C177.742 170.972 176.907 170.033 176.321 169.448C175.553 168.68 173.953 169.019 172.892 169.019C170.119 169.019 168.126 169.578 167.932 172.877C167.907 173.305 166.571 174.889 167.136 175.051C168.239 175.366 169.815 175.081 170.963 175.081C174.701 175.081 174.189 175.766 176.505 178.082C177.972 179.549 180.495 175.085 181.159 174.255C182.664 172.373 184.516 171.775 186.945 171.775C189.835 171.775 190.897 174.53 193.834 174.53C196.493 174.53 197.086 171.224 199.345 171.224C201.924 171.224 205.398 171.895 207.856 171.193C208.565 170.99 210.611 167.996 211.714 167.366C213.494 166.349 215.917 166.186 216.98 164.059" stroke="#F24822" stroke-width="0.39645" stroke-linecap="round" stroke-linejoin="round"/>
<path d="M166.83 213.107C166.83 211.658 168.053 209.25 169.585 209.25C171.959 209.25 172.675 208.092 174.545 206.923C176.462 205.725 173.451 202.267 174.423 200.432C175.293 198.789 177.251 197.959 178.709 197.125C182.871 194.747 186.614 190.584 183.914 185.859C183.342 184.858 183.648 184.209 183.332 183.103C183.302 182.998 180.272 183.348 179.781 183.348C177.112 183.348 177.786 183.086 176.474 180.899C175.533 179.331 174.865 178.852 175.648 177.286" stroke="#F24822" stroke-width="0.39645" stroke-linecap="round" stroke-linejoin="round"/>
<path d="M181.71 182.246C183.171 182.246 184.661 182.331 186.119 182.246C187.314 182.175 188.495 180.592 189.701 180.592C190.763 180.592 190.383 181.184 190.558 181.97C190.759 182.874 192.283 183.151 192.977 183.593C193.929 184.198 195.904 185.27 196.589 183.899" stroke="#F24822" stroke-width="0.39645" stroke-linecap="round" stroke-linejoin="round"/>
<path d="M184.465 189.41C185.439 189.41 187.684 189.025 187.772 190.512C187.917 192.982 190.336 191.782 191.078 193.268" stroke="#F24822" stroke-width="0.39645" stroke-linecap="round" stroke-linejoin="round"/>
<path d="M235.166 170.673C233.053 170.673 231.672 172.34 229.9 172.846C228.464 173.257 228.365 176 226.9 176.184C225.484 176.361 223.822 177.52 222.246 177.806C220.627 178.101 219.445 177.683 218.205 179.062C216.193 181.296 215.313 184.479 213.245 186.777C210.448 189.885 206.914 189.41 202.927 189.41C199.319 189.41 197.963 191.634 197.171 195.197C196.495 198.239 193.725 201.281 192.181 203.984C191.391 205.365 184.663 204.241 183.087 205.116C181.787 205.839 181.136 207.619 180.056 208.698C179.013 209.742 177.374 211.309 176.75 212.556" stroke="#F24822" stroke-width="0.39645" stroke-linecap="round" stroke-linejoin="round"/>
<path d="M227.451 188.859C224.748 188.859 222.709 190.37 220.287 190.512C219.139 190.58 218.055 191.614 216.674 191.614C215.338 191.614 212.99 192.163 211.745 192.717C210.891 193.096 208.786 194.621 208.285 195.472C207.423 196.938 206.16 196.574 204.58 196.574C201.874 196.574 198.893 196.624 196.59 195.472" stroke="#F24822" stroke-width="0.39645" stroke-linecap="round" stroke-linejoin="round"/>
</svg>
