<svg width="252" height="239" viewBox="0 0 252 239" fill="none" xmlns="http://www.w3.org/2000/svg">
<rect x="0.5" y="0.5" width="251" height="238" fill="white" stroke="black"/>
<path d="M136.581 12C136.966 13.2942 140.287 15.4822 141.614 16.4733C142.974 17.4887 143.641 18.8307 145.183 19.6942C146.402 20.3772 147.387 21.3046 149.044 21.3046C150.146 21.3046 151.487 21.5659 152.4 22.0203" stroke="#1E1E1E" stroke-width="4" stroke-linecap="round" stroke-linejoin="round"/>
<path d="M150.961 23.8097C152.985 23.8097 159.31 22.9726 160.655 24.088C161.162 24.509 161.507 25.7366 161.507 26.3148C161.507 28.5693 160.245 29.1753 158.631 30.8875C156.213 33.4531 153.246 34.0405 149.417 34.6253C147.37 34.9378 141.202 35.6193 143.292 35.6193" stroke="#1E1E1E" stroke-width="4" stroke-linecap="round" stroke-linejoin="round"/>
<path d="M141.854 39.5559C141.854 53.057 140.895 66.5238 140.895 79.995" stroke="#1E1E1E" stroke-width="4" stroke-linecap="round" stroke-linejoin="round"/>
<path d="M117.407 40.2715C117.407 42.538 117.407 44.8045 117.407 47.071C117.407 47.7006 117.407 48.3301 117.407 48.9597C117.407 50.17 116.54 46.6253 116.208 45.4407C115.967 44.5796 115.751 43.714 115.489 42.8561C115.476 42.8115 114.775 40.9238 114.637 41.027C113.48 41.8906 115.251 45.9856 115.489 46.9914C116.212 50.0392 116.927 53.3568 116.927 56.4551C116.927 56.919 116.927 58.3107 116.927 57.8468C116.927 55.7051 117.431 53.5191 118.126 51.4449C118.758 49.5558 119.294 47.7456 118.365 45.8383C117.737 44.5491 117.407 42.7863 117.407 45.5202C117.407 47.115 118.739 53.7309 116.448 54.5862" stroke="#1E1E1E" stroke-width="4" stroke-linecap="round" stroke-linejoin="round"/>
<path d="M114.051 61.3859C114.051 57.7894 112.613 68.5254 112.613 72.1219C112.613 75.0281 112.536 77.8584 112.134 80.7107C112.011 81.5789 110.966 82.2669 110.216 82.858C108.487 84.2211 109.61 81.8004 110.216 81.0686C110.399 80.8484 112.903 77.465 111.441 78.5238C108.977 80.3092 107.278 82.5557 105.237 84.5877C103.222 86.593 107.348 79.8262 108.565 77.4899C108.975 76.7041 109.653 75.9199 110.216 75.1837C110.741 74.4986 108.576 79.0591 108.086 79.7763C107.726 80.3026 104.948 85.5347 106.435 83.1562C107.966 80.7062 110.263 78.4959 112.32 76.2772C113.263 75.2609 111.12 76.2468 110.669 76.7941C109.741 77.9205 107.888 78.7678 107.34 79.995" stroke="#1E1E1E" stroke-width="4" stroke-linecap="round" stroke-linejoin="round"/>
<path d="M102.547 86.0786C95.0726 86.0786 87.5983 86.0786 80.124 86.0786C77.1677 86.0786 74.2849 86.167 71.3891 85.6412C69.8275 85.3576 64.8295 84.5152 64.1989 83.5735" stroke="#1E1E1E" stroke-width="4" stroke-linecap="round" stroke-linejoin="round"/>
<path d="M59.4054 72.8376C59.4054 74.0651 61.1238 79.1091 60.8168 74.9848C60.6959 73.3599 60.1478 71.4807 59.1657 70.0144C58.0966 68.418 62.2143 71.1455 62.8674 71.5652C64.3865 72.5414 65.9001 74.1061 67.5544 74.9053C68.2424 75.2377 67.7224 75.7293 68.2734 76.0584C69.2843 76.6622 66.6259 74.5577 65.6636 73.9112C64.0247 72.81 63.7196 72.5565 63.7196 74.3486C63.7196 75.8428 63.7937 77.3485 63.7196 78.8418C63.6662 79.9172 63.0505 78.2636 63.9593 79.319C66.8154 82.6359 65.8353 79.452 64.5718 77.4899C62.2965 73.9567 64.117 78.1222 65.3707 79.3985C66.7471 80.7998 63.7196 75.4422 63.7196 77.4899" stroke="#1E1E1E" stroke-width="4" stroke-linecap="round" stroke-linejoin="round"/>
<path d="M43.5868 74.2691C43.5868 75.621 43.5868 76.973 43.5868 78.3249C43.5868 78.8364 43.3303 81.0889 43.6933 79.2593C44.5784 74.7991 46.3227 70.501 48.3803 66.2767C48.6237 65.777 48.5046 67.6418 48.0075 68.2649C46.0194 70.7563 43.7543 73.1254 41.7759 75.621C40.7888 76.8663 39.5379 78.0237 38.6069 79.2593C36.6027 81.9193 42.137 73.9288 41.6694 74.6269" stroke="#1E1E1E" stroke-width="4" stroke-linecap="round" stroke-linejoin="round"/>
<path d="M29.2062 98.6041C29.2062 100.086 30.6561 102.035 31.3633 103.376C31.7906 104.185 32.497 104.88 32.9345 105.682C33.0575 105.907 33.7373 106.348 33.4139 106.318C32.3164 106.216 26.5975 98.1265 27.0225 97.9679C28.5458 97.3993 30.3687 98.5643 31.816 98.5643C32.0781 98.5643 30.9594 94.8736 30.7508 94.3892C29.8133 92.2116 35.2857 95.5141 35.9171 96.4569" stroke="#1E1E1E" stroke-width="4" stroke-linecap="round" stroke-linejoin="round"/>
<path d="M40.2313 89.2995C40.2313 88.9471 40.5264 87.0631 40.7373 88.0867C41.3621 91.1185 44.8857 92.9667 46.3564 95.6616C46.9392 96.7297 46.9477 91.7915 46.7026 90.9497C46.2754 89.4828 46.3264 87.8699 46.9422 86.4365C46.9984 86.3058 47.9036 84.2905 48.2738 84.4484C48.8714 84.7033 46.2444 88.677 45.9835 89.1205C45.2497 90.3684 44.4218 91.6066 44.0928 92.9577C43.8902 93.7892 44.953 91.3897 45.5042 90.6514C45.5914 90.5347 48.1686 86.5268 45.7705 87.5499C45.0724 87.8477 45.5042 90.6564 45.5042 91.0888" stroke="#1E1E1E" stroke-width="4" stroke-linecap="round" stroke-linejoin="round"/>
<path d="M128.911 82.4999C128.911 87.5962 128.911 102.885 128.911 97.7888C128.911 92.5325 125.076 88.0886 125.076 82.8577" stroke="#1E1E1E" stroke-width="4" stroke-linecap="round" stroke-linejoin="round"/>
<path d="M115.969 90.0151H142.333" stroke="#1E1E1E" stroke-width="4" stroke-linecap="round" stroke-linejoin="round"/>
<path d="M158.152 89.6575C170.029 89.6575 205.661 89.6575 193.783 89.6575C184.591 89.6575 174.55 94.812 165.342 92.5204" stroke="#1E1E1E" stroke-width="4" stroke-linecap="round" stroke-linejoin="round"/>
<path d="M198.417 73.9112C197.645 75.0636 196.435 75.7609 195.541 76.5952C194.795 77.2914 194.864 78.1941 193.89 78.9214C192.544 79.9263 191.467 80.0309 191.2 81.4264C190.625 84.4311 194.031 79.3745 194.742 78.6828C197.972 75.5429 199.526 71.5103 202.145 68.1853C202.791 67.3661 206.088 67.8275 207.259 67.8275C209.012 67.8275 209.18 68.347 210.401 69.2589" stroke="#1E1E1E" stroke-width="4" stroke-linecap="round" stroke-linejoin="round"/>
<path d="M187.871 77.1318C178.312 84.2688 163.119 80.9692 151.068 82.4203C148.77 82.697 146.575 82.8577 144.25 82.8577C142.292 82.8577 146.575 82.8577 147.1 82.8577C149.694 82.8577 146.086 82.2874 145.209 82.142C143.933 81.9303 142.438 81.5836 141.854 80.7105" stroke="#1E1E1E" stroke-width="4" stroke-linecap="round" stroke-linejoin="round"/>
<path d="M209.442 72.4797C209.442 71.4501 209.994 74.4996 210.161 75.5216C210.223 75.8993 210.721 80.0827 210.907 78.3448C210.966 77.7898 211.016 75.4378 211.466 75.0643C212.408 74.2829 214.39 77.0096 214.609 77.4104C215.008 78.1428 215.434 78.2056 213.89 78.2056C212.345 78.2056 207.711 78.2056 209.256 78.2056C212.002 78.2056 219.237 78.6172 216.632 75.7006" stroke="#1E1E1E" stroke-width="4" stroke-linecap="round" stroke-linejoin="round"/>
<path d="M216.153 74.9848C217.839 74.9848 219.803 74.7613 221.426 75.0643C222.118 75.1933 225.872 77.132 224.036 77.132C220.885 77.132 221.426 81.1983 221.426 82.8181C221.426 84.9562 222.864 82.8061 222.864 81.7842" stroke="#1E1E1E" stroke-width="4" stroke-linecap="round" stroke-linejoin="round"/>
<path d="M231.492 79.2791C231.492 80.656 231.544 82.0384 231.492 83.4144C231.395 85.9819 229.238 87.3298 227.205 89.1005C226.727 89.5168 226.219 91.1201 226.219 90.5718C226.219 89.2105 227.593 87.8459 228.35 86.6352C230.061 83.8977 225.146 89.2953 224.781 89.7367C223.219 91.6297 218.889 97.2253 221.24 95.8603C223.457 94.5725 225.514 91.657 226.592 89.7367C226.826 89.321 227.909 85.0268 228.11 87.0527C228.323 89.1993 228.137 91.4008 228.137 93.554C228.137 95.091 229.226 92.3388 229.468 91.9635C231.464 88.8687 233.889 87.0335 233.889 83.5735C233.889 82.9306 233.889 82.2878 233.889 81.645C233.889 80.4892 233.722 83.9719 233.303 85.0845C232.975 85.955 227.217 96.6024 226.219 92.878" stroke="#1E1E1E" stroke-width="4" stroke-linecap="round" stroke-linejoin="round"/>
<path d="M210.88 99.6776C210.233 101.61 200.513 102.887 198.524 103.972C196.81 104.907 198.538 105.403 199.749 105.403C203.053 105.403 205.183 104.954 207.764 103.455C209.131 102.662 210.038 100.843 211.093 99.6975C213.248 97.3577 208.403 101.222 207.711 101.686C205.697 103.035 201.415 107.193 198.417 107.193C197.567 107.193 195.559 106.835 197.458 106.835" stroke="#1E1E1E" stroke-width="4" stroke-linecap="round" stroke-linejoin="round"/>
<path d="M185.954 100.036C185.375 100.084 185.125 100.346 184.676 100.592C182.039 102.036 178.743 103.269 175.755 104.231C169.178 106.345 160.887 105.404 153.891 105.404C153.725 105.404 150.328 105.53 152.08 105.324C156.398 104.817 160.535 103.718 164.809 103.058C167.769 102.6 170.775 102.58 173.757 102.262C174.391 102.195 176.296 102.299 175.675 102.183C170.88 101.288 165.855 100.751 160.921 100.751C159.155 100.751 157.388 100.751 155.622 100.751C154.441 100.751 157.984 100.736 159.164 100.771C166.666 100.995 174.123 101.109 181.64 101.109" stroke="#1E1E1E" stroke-width="4" stroke-linecap="round" stroke-linejoin="round"/>
<path d="M143.292 110.414C145.159 110.588 143.292 129.688 143.292 133.238C143.292 134.227 142.829 136.226 143.771 134.311C145.251 131.304 146.579 127.827 146.647 124.609C146.672 123.454 146.782 121.676 145.582 123.734C143.852 126.701 142.333 129.63 142.333 132.9C142.333 134.166 142.333 135.431 142.333 136.697C142.333 138.668 141.775 132.764 141.135 130.852C139.151 124.927 141.471 136.084 142.173 135.703C144.016 134.702 144.338 131.763 144.623 130.295C145.223 127.209 145.532 124.047 145.662 120.931C145.767 118.43 145.938 115.78 145.449 113.297C144.732 109.658 144.73 112.176 144.73 114.47C144.73 117.889 144.73 121.309 144.73 124.728" stroke="#1E1E1E" stroke-width="4" stroke-linecap="round" stroke-linejoin="round"/>
<path d="M143.771 145.843C143.771 142.62 143.745 152.3 143.292 155.505C142.442 161.515 141.374 167.542 141.374 173.597C141.374 176.379 140.416 178.998 140.416 181.788C140.416 182.809 140.416 183.83 140.416 184.85C140.416 185.055 140.416 182.469 140.416 182.027C140.416 177.255 140.416 172.484 140.416 167.712C140.416 165.412 140.778 162.93 140.043 160.674C139.506 159.027 139.457 161.09 139.457 161.668C139.457 164.214 139.873 166.722 139.936 169.263C140.056 174.098 140.757 179.051 141.481 183.856C141.718 185.431 141.578 187.194 142.227 188.707C142.454 189.239 142.329 188.418 142.333 188.349C142.471 185.87 143.432 183.369 143.984 180.934C144.762 177.506 145.457 174.044 145.183 170.555C145.081 169.268 144.09 168.356 143.798 167.156C143.479 165.846 144.867 167.934 144.97 168.249C145.913 171.145 146.494 174.178 146.621 177.156C146.768 180.614 146.536 184.051 144.996 187.335C144.301 188.819 142.812 189.941 142.812 191.491C142.812 193.303 143.292 195.025 143.292 196.799C143.292 201.783 143.292 186.832 143.292 181.848C143.292 181.435 143.123 180.387 142.573 181.391C141.66 183.056 141.854 185.019 141.854 186.779C141.854 189.244 141.374 191.673 141.374 194.155" stroke="#1E1E1E" stroke-width="4" stroke-linecap="round" stroke-linejoin="round"/>
<path d="M145.688 203.459C149.653 203.459 153.598 205.751 156.713 207.396C159.332 208.778 162.028 210.329 164.303 212.028C164.542 212.207 165.992 213.48 164.862 213.48C161.955 213.48 158.229 211.156 156.128 209.901C154.452 208.9 153.905 208.929 154.796 210.259" stroke="#1E1E1E" stroke-width="4" stroke-linecap="round" stroke-linejoin="round"/>
<path d="M112.613 203.459C112.545 203.865 103.237 204.838 102.174 204.97C98.0476 205.484 101.437 205.285 103.719 205.169C106.767 205.015 115.838 204.402 112.88 204.97C110.214 205.482 107.707 205.964 104.944 205.964" stroke="#1E1E1E" stroke-width="4" stroke-linecap="round" stroke-linejoin="round"/>
<path d="M94.398 217.058C99.2892 217.058 104.18 217.058 109.071 217.058C111.78 217.058 103.653 216.758 101.002 216.343C98.548 215.958 95.7455 214.911 93.2263 214.911C92.1519 214.911 94.0884 214.92 94.2649 214.931C97.2616 215.11 100.179 215.805 102.92 216.7C105.113 217.417 106.343 218.207 107.926 219.444C108.748 220.086 114.086 225.954 115.25 225.568C116.58 225.126 115.969 221.726 115.969 220.915C115.969 219.948 115.639 217.082 115.995 218.013C116.222 218.604 118.325 220.965 117.3 220.995C112.852 221.123 118.468 223.048 120.283 223.5" stroke="#1E1E1E" stroke-width="4" stroke-linecap="round" stroke-linejoin="round"/>
<path d="M136.102 218.132C136.102 217.58 136.108 219.017 136.102 219.126C136.005 220.825 134.954 222.56 134.184 224.136C133.995 224.523 131.557 228.795 132.48 226.323C133.559 223.433 134.173 218.497 137.646 216.422C138.121 216.138 139.636 216.342 140.149 216.342C142.83 216.342 145.511 216.342 148.192 216.342C148.955 216.342 154.854 215.985 153.358 215.985C151.285 215.985 159.217 216.342 156.873 216.342C153.655 216.342 146.176 216.349 143.771 214.553" stroke="#1E1E1E" stroke-width="4" stroke-linecap="round" stroke-linejoin="round"/>
<path d="M117.886 175.904C117.886 182.531 117.886 189.158 117.886 195.785C117.886 196.559 118.205 197.232 117.54 196.163C115.159 192.334 113.698 188.128 112.427 184.015C111.869 182.212 111.589 181.523 112.613 183.816C114.01 186.944 114.051 190.675 114.051 193.956C114.051 196.034 113.605 197.252 113.093 199.165" stroke="#1E1E1E" stroke-width="4" stroke-linecap="round" stroke-linejoin="round"/>
<path d="M120.283 154.074C120.283 155.242 120.548 165.486 120.043 165.486C119.544 165.486 119.804 159.186 119.804 158.587C119.804 158.215 119.824 154.049 119.298 155.227C117.702 158.8 114.531 161.56 114.531 165.526C114.531 167.651 114.531 164.199 114.531 163.736C114.531 161.35 114.531 158.965 114.531 156.579" stroke="#1E1E1E" stroke-width="4" stroke-linecap="round" stroke-linejoin="round"/>
<path d="M128.432 142.264C128.432 139.282 128.432 148.229 128.432 151.211" stroke="#1E1E1E" stroke-width="4" stroke-linecap="round" stroke-linejoin="round"/>
<path d="M113.572 110.414C116.182 110.414 119.066 115.193 120.017 116.676C121.408 118.849 121.242 121.39 121.242 123.734C121.242 126.961 121.258 130.332 120.522 133.516C120.155 135.109 119.803 140.668 119.803 136.021C119.803 129.32 118.058 122.598 117.886 115.941C117.852 114.612 116.249 112.601 114.77 111.865C113.433 111.2 111.916 111.021 110.696 110.414" stroke="#1E1E1E" stroke-width="4" stroke-linecap="round" stroke-linejoin="round"/>
<path d="M90.0839 98.2463C82.7516 98.2463 75.4193 98.2463 68.087 98.2463C66.7473 98.2463 61.716 98.8182 60.7103 98.0674C60.5301 97.9328 63.4287 97.8874 63.5598 97.8884C66.6024 97.9116 69.5886 98.2052 72.6142 98.4054C77.2581 98.7126 82.4757 98.3729 86.9947 99.3199C90.276 100.008 87.3159 99.6986 85.5567 99.6778C79.7172 99.6086 73.9401 99.1326 68.087 99.3994C65.5106 99.5169 62.922 100.036 60.3641 100.036" stroke="#1E1E1E" stroke-width="4" stroke-linecap="round" stroke-linejoin="round"/>
<path d="M54.6119 99.3199C54.6119 101.01 54.3823 102.699 53.8662 104.35C53.5544 105.348 53.3313 106.484 52.6679 107.392C52.0949 108.176 50.9456 108.466 50.3244 109.161C49.5983 109.974 47.901 110.154 47.901 111.13C47.901 112.447 47.4216 116.384 47.4216 115.066" stroke="#1E1E1E" stroke-width="4" stroke-linecap="round" stroke-linejoin="round"/>
<path d="M114.531 17.726C114.531 19.9329 114.531 22.1397 114.531 24.3466C114.531 26.2265 115.01 22.0701 115.01 21.5035C115.01 20.4633 116.405 20.4604 116.448 19.8732C116.497 19.2238 117.319 15.0329 117.407 16.732C117.551 19.5242 121.264 22.4509 123.878 23.9688C125.768 25.0662 120.154 22.2623 119.431 21.7421C118.302 20.9308 118.328 19.1481 116.928 18.7996" stroke="#1E1E1E" stroke-width="4" stroke-linecap="round" stroke-linejoin="round"/>
<path d="M108.299 27.0307C108.299 27.8065 105.02 30.2047 104.944 29.1779C104.791 27.1205 104.856 26.3149 107.82 26.3149" stroke="#1E1E1E" stroke-width="4" stroke-linecap="round" stroke-linejoin="round"/>
<path d="M104.944 23.0941C104.238 23.2259 103.995 25.109 103.719 25.639C102.636 27.718 102.547 29.6637 102.547 31.8619C102.547 32.9039 102.829 33.8535 101.828 32.3589C101.161 31.363 100.296 28.2452 101.375 27.2096C102.163 26.4536 103.026 26.3653 103.026 25.2413C103.026 23.7776 101.295 24.2748 100.629 25.2413C99.3069 27.1613 98.5718 29.5185 97.6468 31.5637C96.9398 33.127 96.3153 34.6903 96.3153 36.3352" stroke="#1E1E1E" stroke-width="4" stroke-linecap="round" stroke-linejoin="round"/>
<path d="M96.3153 36.3351C96.3153 38.9361 95.6005 41.0694 99.1914 42.3393C101.403 43.1214 104.184 40.7926 104.837 39.4764C105.83 37.4753 101.047 39.3276 100.15 39.4764C98.9711 39.672 96.5283 39.5559 96.5283 39.5559C96.5283 39.5559 98.2662 40.1335 99.1914 40.2716" stroke="#1E1E1E" stroke-width="4" stroke-linecap="round" stroke-linejoin="round"/>
<path d="M122.68 58.1652C122.68 61.0944 122.68 69.882 122.68 66.9528C122.68 66.2089 122.033 58.9908 123.851 60.2726C125.505 61.4384 126.948 62.6219 128.166 64.0501C128.897 64.908 127.389 64.2357 127.1 63.6127C125.856 60.9288 126.514 65.6881 126.514 66.754" stroke="#1E1E1E" stroke-width="4" stroke-linecap="round" stroke-linejoin="round"/>
<path d="M140.416 46.7131C140.416 51.9884 140.416 57.2636 140.416 62.5388C140.416 65.3885 140.416 68.2382 140.416 71.0879C140.416 71.5675 140.416 71.7753 140.416 71.1674C140.416 68.7384 140.501 66.3159 140.709 63.8908C141.136 58.8897 142.261 53.8264 141.827 48.8007C141.642 46.6609 141.352 51.6112 141.321 51.9619C140.82 57.6676 138.019 62.9916 138.019 68.7419C138.019 69.8818 138.421 73.2612 138.019 72.1615C136.774 68.7537 136.006 65.2401 134.77 61.8231C134.422 60.8597 132.718 58.2092 133.598 58.9602C134.516 59.7428 134.114 63.4681 134.158 64.4276C134.259 66.6543 133.694 69.1665 134.424 71.3464C135.087 73.3256 134.664 70.5865 134.664 69.895C134.664 66.2631 135.732 61.6321 134.184 58.1649" stroke="#1E1E1E" stroke-width="4" stroke-linecap="round" stroke-linejoin="round"/>
<path d="M134.184 58.165V57.8071" stroke="#1E1E1E" stroke-width="4" stroke-linecap="round" stroke-linejoin="round"/>
<path d="M132.267 33.1143C132.267 35.1223 132.267 37.1304 132.267 39.1384C132.267 41.9053 129.583 35.1172 129.337 34.5259C128.793 33.2156 128.007 32.1365 127.1 30.9671C126.954 30.7778 126.994 32.7348 126.994 33.0348C126.994 35.7796 126.825 38.5988 127.846 41.2657C128.506 42.9895 128.801 44.5648 129.364 46.4548C129.844 48.0678 129.453 42.4421 127.473 41.7031" stroke="#1E1E1E" stroke-width="4" stroke-linecap="round" stroke-linejoin="round"/>
<path d="M73.7858 91.8045C75.7742 91.8045 77.7627 91.8045 79.7511 91.8045C80.4106 91.8045 84.674 91.3949 85.1837 91.8841C85.7129 92.392 79.8668 92.5203 79.538 92.5203C77.3459 92.5203 75.0589 92.6953 72.9336 92.2419C72.327 92.1125 70.8336 92.1624 72.4277 92.1624C75.1409 92.1624 77.8355 92.0596 80.4967 92.5203C82.6048 92.8852 84.5706 92.8781 86.7283 92.8781C87.077 92.8781 90.8457 92.8781 89.125 92.8781" stroke="#1E1E1E" stroke-width="4" stroke-linecap="round" stroke-linejoin="round"/>
<path d="M128.432 196.302C128.432 190.934 128.432 207.038 128.432 212.406" stroke="#1E1E1E" stroke-width="4" stroke-linecap="round" stroke-linejoin="round"/>
<path d="M121.242 199.881C121.242 200.391 121.242 200.901 121.268 201.411C121.297 201.953 121.691 206.821 121.721 205.129C121.73 204.63 122.065 199.224 122.92 200.855C124.211 203.319 124.193 206.094 125.316 208.609C126.73 211.776 126.035 207.189 126.035 206.044C126.035 203.265 126.268 206.955 126.621 207.833C126.918 208.573 126.994 208.721 126.994 207.674C126.994 204.246 126.723 200.867 126.302 197.455C126.248 197.018 126.035 190.75 126.035 193.618C126.035 195.743 126.949 197.823 126.994 199.96C127.083 204.149 125.686 208.173 126.062 212.386C126.081 212.6 126.514 214.055 126.408 213.718C126.022 212.494 125.69 211.261 125.29 210.04C124.401 207.326 123.494 204.541 122.094 201.948C121.176 200.248 120.762 194.708 120.762 196.54C120.762 200.026 120.762 203.512 120.762 206.998C120.762 213.092 121.51 205.707 120.283 205.249" stroke="#818080" stroke-width="4" stroke-linecap="round" stroke-linejoin="round"/>
<path d="M154.796 207.754C154.796 209.727 154.721 211.707 154.796 213.679C154.844 214.924 155.755 213.215 155.755 212.684C155.755 211.291 154.59 210.834 153.092 210.06C152.683 209.849 149.044 207.5 149.044 208.47C149.044 209.848 149.524 211.263 149.524 212.684C149.524 213.798 149.461 213.871 150.482 214.553C151.126 214.983 153.525 216.242 154.211 215.269C155.135 213.958 154.187 211.114 153.465 209.901C153.259 209.555 153.089 208.673 152.613 208.47C152.33 208.349 151.437 208.139 151.76 208.112C154.301 207.901 158.429 211.149 155.276 212.327C154.034 212.79 154.432 211.766 154.69 211.333C155.421 210.104 154.348 208.442 153.465 207.476C152.772 206.717 150.329 203.464 148.671 203.618C147.606 203.718 149.887 204.94 150.482 205.607" stroke="#818080" stroke-width="4" stroke-linecap="round" stroke-linejoin="round"/>
<path d="M42.1487 78.9213C42.1487 79.7211 41.19 81.09 41.19 79.4382C41.19 77.6173 41.5031 76.2989 43.9063 75.5414C44.676 75.2988 51.2456 73.5775 48.1406 74.8257C45.2205 75.9995 42.1032 76.7194 39.3791 78.2055C38.2899 78.7998 38.5072 80.8023 39.9916 81.0486C41.346 81.2733 42.6129 78.6105 43.2139 77.8477C43.4602 77.5351 44.3196 77.229 44.7851 77.1518C46.0273 76.9457 43.7897 78.5487 43.5867 78.7423C42.5838 79.6991 41.2241 80.6485 40.8172 81.8637C40.6695 82.3048 40.2313 84.4294 40.2313 82.8578" stroke="#818080" stroke-width="4" stroke-linecap="round" stroke-linejoin="round"/>
<path d="M56.0499 71.4061C56.2112 72.4895 57.807 73.7115 58.4467 74.6667C58.9934 75.483 60.6016 78.5351 60.5771 78.5038C59.3022 76.8722 57.7837 75.4408 57.3282 73.5136C56.6956 70.8374 61.3145 78.0733 62.9739 80.492C67.3459 86.8646 60.5849 78.744 62.7608 78.5635C64.0407 78.4573 64.6782 78.8333 64.6782 77.6887C64.6782 75.8699 63.9629 74.8086 62.2815 73.5533" stroke="#818080" stroke-width="4" stroke-linecap="round" stroke-linejoin="round"/>
<path d="M138.498 50.2919C138.498 55.1297 138.498 59.9676 138.498 64.8054C138.498 65.4424 138.594 65.7453 138.259 64.9446C137.635 63.4546 137.524 61.8528 137.3 60.3122C137.229 59.8274 136.399 52.8765 135.862 52.8765C135.409 52.8765 135.622 58.7958 135.622 59.5964" stroke="#818080" stroke-width="4" stroke-linecap="round" stroke-linejoin="round"/>
<path d="M137.539 72.1218C137.539 75.3824 138.081 85.1389 137.539 81.9035C137.09 79.2179 133.926 71.5192 135.622 73.9112C137.435 76.4673 139.257 79.0886 141.374 81.5059C142.583 82.8859 144.462 83.5736 146.647 83.5736" stroke="#818080" stroke-width="4" stroke-linecap="round" stroke-linejoin="round"/>
<path d="M208.004 82.8579C205.459 83.4913 203.208 84.323 200.814 85.2039C200.329 85.3824 197.506 86.0065 197.938 86.1582C201.415 87.3799 205.697 87.1523 209.442 87.1523C209.781 87.1523 208.331 87.0837 208.111 87.2319C207.432 87.6882 207.525 88.6234 207.525 89.22C207.525 89.7202 207.298 90.5609 207.631 91.0093C207.762 91.1843 206.63 91.0889 206.566 91.0889C205.235 91.0889 203.903 91.0889 202.572 91.0889C197.313 91.0889 206.942 88.3941 208.404 88.2657C210.704 88.0637 211.108 88.3096 208.297 88.0271C204.123 87.6076 199.879 87.3569 195.674 87.1722C192.444 87.0303 196.988 87.1523 197.805 87.1523C200.912 87.1523 204.019 87.1523 207.125 87.1523C207.991 87.1523 206.239 87.0225 206.113 87.3511C205.856 88.0244 206.993 87.8681 207.525 87.8681C209.24 87.8681 204.007 87.6314 203.211 88.2259C202.224 88.9627 202.788 89.3105 201.134 89.8165C198.153 90.7279 194.905 91.7181 191.706 92.0829C184.75 92.8764 195.29 90.8784 197.086 90.6515C199.26 90.3768 203.733 88.9488 199.376 88.2259C196.643 87.7726 197.699 88.0096 200.068 87.7885C205.458 87.2856 210.338 85.2022 215.541 84.1502C216.327 83.9912 219.669 83.5736 217.112 83.5736C215.723 83.5736 214.421 83.2158 213.037 83.2158C210.882 83.2158 209.633 83.8252 207.738 84.4683C206.194 84.9922 203.076 84.8477 202.252 86.0787" stroke="#818080" stroke-width="4" stroke-linecap="round" stroke-linejoin="round"/>
<path d="M214.715 77.8477C211.673 77.8477 216.8 77.7962 217.565 77.8676C219.005 78.002 218.442 78.5634 217.272 78.5634C215.371 78.5634 213.555 77.8874 211.759 77.8874C210.179 77.8874 214.36 79.2338 215.567 79.9949C216.652 80.6788 219.849 82.4908 218.443 82.3409C216.966 82.1834 217.169 79.9949 219.029 79.9949C219.211 79.9949 220.48 80.171 219.722 80.3329C218.383 80.6185 216.723 78.3226 216.18 77.6886C214.104 75.2667 215.058 75.785 217.831 76.5951C218.749 76.8632 219.612 77.2103 220.467 77.5693C221.216 77.8839 218.187 77.7109 217.591 77.4103C214.17 75.6847 218.999 78.8537 219.509 79.9949" stroke="#818080" stroke-width="4" stroke-linecap="round" stroke-linejoin="round"/>
<path d="M208.963 89.6573C199.074 89.6573 189.185 89.6573 179.296 89.6573C177.512 89.6573 172.207 89.3919 173.944 89.697C179.419 90.6589 184.996 91.4096 190.641 91.4466C193.002 91.4621 196.162 91.8417 198.417 91.1683C200.875 90.4344 194.795 90.7309 194.21 90.7309C188.164 90.7309 182.032 90.5003 175.994 90.7508C174.541 90.811 173.883 91.9508 173.491 91.8045" stroke="#818080" stroke-width="4" stroke-linecap="round" stroke-linejoin="round"/>
<path d="M143.771 105.762C145.529 105.762 147.286 105.762 149.044 105.762C151.654 105.762 143.824 105.762 141.215 105.762C139.33 105.762 141.272 108.24 141.641 109.34C142.236 111.119 143.771 113.242 143.771 115.066" stroke="#818080" stroke-width="4" stroke-linecap="round" stroke-linejoin="round"/>
<path d="M137.539 40.9872C137.539 42.9488 137.539 44.9105 137.539 46.8721C137.539 47.6071 138.01 50.9155 138.765 48.5819C139.693 45.7113 140.416 42.3889 140.416 39.4165C140.416 38.3043 139.75 41.5857 139.35 42.6572C138.494 44.9546 137.752 47.5224 136.101 49.576" stroke="#818080" stroke-width="4" stroke-linecap="round" stroke-linejoin="round"/>
<path d="M137.54 15.9367C134.835 14.1701 141.23 20.7974 144.277 22.2192C146.247 23.1385 148.153 23.9127 150.376 24.446C152.617 24.9839 146.964 22.4499 146.541 22.2192C143.309 20.4601 139.977 18.6843 136.847 16.8313C136.325 16.5224 133.211 14.392 133.785 15.1414C136.316 18.4491 139.141 21.6626 142.28 24.6647C145.744 27.9782 143.425 25.7299 141.587 23.77C139.692 21.7482 137.844 19.4215 136.687 17.0898C136.617 16.9469 137.507 18.8131 138.605 19.5153C141.433 21.3253 144.743 22.3831 148.032 23.6109C149.435 24.1348 150.353 24.4513 148.511 23.6109C147.014 22.9279 140.215 17.6733 143.292 21.7421C145.225 24.2981 147.551 26.3488 150.376 28.3825C150.654 28.5831 152.522 29.2235 151.441 28.8199" stroke="#818080" stroke-width="4" stroke-linecap="round" stroke-linejoin="round"/>
<path d="M110.696 24.1676C110.696 23.6422 110.701 25.1017 110.696 25.2014C110.601 27.0821 109.198 28.1571 108.406 29.8139C108.308 30.0177 108.371 31.0675 108.299 30.6092C108.202 29.9951 106.98 29.0428 106.382 28.621C105.405 27.9322 98.3474 35.6039 101.482 38.2039C101.952 38.5943 102.504 35.0327 103.133 34.1879C103.426 33.7944 106.532 33.163 105.423 33.1143C101.521 32.9429 101.439 37.7665 104.944 37.7665" stroke="#818080" stroke-width="4" stroke-linecap="round" stroke-linejoin="round"/>
<path d="M34.9585 97.5304C34.9585 98.5827 34.8173 99.6878 35.1982 100.711C35.597 101.783 32.8801 99.0654 32.2955 98.604C31.9572 98.337 30.4655 96.4351 31.3368 97.5503C31.9534 98.3395 32.2806 99.6913 32.5884 100.572C32.9992 101.748 34.0848 103.345 35.0651 104.33C35.5201 104.787 36.4292 106.268 37.0624 106.457C38.5805 106.911 34.9702 104.571 34.1064 103.535C33.1208 102.352 33.4486 102.022 33.9998 103.256" stroke="#818080" stroke-width="4" stroke-linecap="round" stroke-linejoin="round"/>
<path d="M50.777 102.541C50.777 104.331 49.0178 107.075 47.315 108.346C47.1434 108.474 44.1693 111.153 44.5721 109.499C44.9138 108.096 47.3373 107.971 47.4216 106.398C47.5037 104.865 48.0373 102.908 48.3803 101.308C49.0071 98.3831 49.0331 101.418 48.114 102.541C47.1765 103.686 45.8932 104.724 44.652 105.682C43.6482 106.457 42.5333 108.073 41.19 108.545C38.8453 109.369 45.4161 106.263 47.1819 104.847C49.269 103.173 51.2311 101.545 53.5466 100.036C54.6434 99.3208 55.623 98.2332 57.0086 97.8884" stroke="#818080" stroke-width="4" stroke-linecap="round" stroke-linejoin="round"/>
<path d="M138.498 178.051C138.498 179.27 138.498 180.49 138.498 181.709C138.498 182.173 138.498 183.565 138.498 183.101C138.498 180.344 138.498 177.587 138.498 174.83C138.498 172.868 138.498 170.907 138.498 168.945C138.498 168.295 138.498 168.731 138.498 169.124C138.498 174.083 138.184 178.951 137.646 183.896C137.325 186.846 137.06 189.764 137.06 192.723C137.06 194.185 137.04 190.944 137.087 190.596C137.158 190.062 138.423 186.734 139.191 188.29C139.617 189.153 139.936 190.107 139.936 190.934" stroke="#818080" stroke-width="4" stroke-linecap="round" stroke-linejoin="round"/>
<path d="M139.936 151.926C139.936 154.286 139.936 156.645 139.936 159.004C139.936 162.951 139.928 157.188 139.936 156.3C139.98 151.519 141.206 146.833 141.375 142.065C141.407 141.138 141.832 141.977 141.854 142.423C141.951 144.389 142.476 146.311 142.706 148.268C142.892 149.85 143.089 151.312 143.665 152.841C144.156 154.145 142.959 150.184 142.546 148.865C141.737 146.278 141.758 138.415 140.895 140.992C140.314 142.726 140.876 145.06 140.682 146.837C140.309 150.259 139.148 153.628 138.978 157.056C138.848 159.675 138.472 157.079 138.498 155.943C138.638 149.885 140.987 143.964 142.28 138.009C142.639 136.354 142.878 131.395 143.319 133.039C143.65 134.276 143.771 135.429 143.771 136.697C143.771 137.369 143.957 143.434 143.745 140.733C143.615 139.085 143.171 137.449 142.573 135.862C141.714 133.583 141.854 135.636 141.854 136.896C141.854 137.093 141.605 139.941 141.588 139.918C140.275 138.238 140.224 135.281 139.723 133.377C139.395 132.128 139.163 130.83 138.525 129.639C138.02 128.696 138.59 131.674 138.765 132.681C139.314 135.845 142.256 145.174 141.295 142.065C140.342 138.983 139.042 136.004 138.285 132.88C137.868 131.156 136.634 129.083 136.634 127.333C136.634 125.255 138.303 131.301 138.978 133.317" stroke="#818080" stroke-width="4" stroke-linecap="round" stroke-linejoin="round"/>
<path d="M128.432 115.782C128.432 115.463 128.458 117.246 128.432 117.651C128.332 119.214 127.826 114.515 126.994 113.078C125.989 111.344 127.473 114.954 127.473 115.782" stroke="#818080" stroke-width="4" stroke-linecap="round" stroke-linejoin="round"/>
<path d="M127.952 126.518C127.952 127.856 127.952 129.195 127.952 130.534C127.952 131.056 128.356 134.503 127.713 132.582C127.007 130.473 126.994 128.529 126.994 126.359C126.994 122.897 126.514 133.275 126.514 136.737C126.514 138.649 123.771 131.756 125.076 132.244" stroke="#818080" stroke-width="4" stroke-linecap="round" stroke-linejoin="round"/>
</svg>
