<svg width="229" height="233" viewBox="0 0 229 233" fill="none" xmlns="http://www.w3.org/2000/svg">
<path d="M113.282 215.264C113.282 213.81 113.825 211.136 115.442 210.291C116.668 209.651 116.893 206.889 116.004 206.029C114.536 204.609 112.505 203.41 112.505 201.233C112.505 199.72 112.46 197.734 112.915 196.28C113.251 195.206 117.315 195.782 118.336 195.727C119.062 195.688 118.66 193.984 118.811 193.517C119.254 192.152 118.88 192.107 117.753 191.306C116.945 190.732 116.976 190.881 116.176 191.089C115.132 191.362 114.739 190.506 114.146 189.964C112.965 188.886 112.287 186.533 110.561 188.899C109.311 190.611 109.352 193.427 106.867 193.931C104.442 194.424 103.497 193.988 102.31 191.82C101.794 190.876 101.654 187.912 103.368 187.912C104.775 187.912 107.839 188.57 107.839 186.669C107.839 185.214 107.575 183.808 108.703 182.663C109.459 181.895 112.957 181.846 113.757 182.505C117.464 185.552 122.555 185.715 124.924 181.025C125.994 178.906 126.501 176.619 126.501 174.058C126.501 172.434 124.945 170.961 124.945 169.263C124.945 167.435 125.066 165.732 125.723 163.974C126.077 163.027 126.444 162.048 126.889 161.132C127.073 160.755 127.08 161.242 126.501 161.27C123.92 161.394 123.567 160.788 122.915 158.704C122.226 156.5 122.024 153.368 119.891 151.837C118.104 150.554 116.941 148.929 115.528 147.495C114.182 146.128 113.94 143.087 113.088 141.358C112.815 140.803 112.385 137.185 111.727 137.115C110.817 137.017 110.079 136.602 109.2 136.424C107.635 136.106 105.755 134.456 105.032 133.207C103.689 130.89 102.397 132.365 102.397 134.45C102.397 136.479 103.307 138.485 104.254 140.312C104.858 141.476 105.575 142.657 106.479 143.667C107.093 144.352 108.274 144.9 108.703 145.64C109.45 146.928 109.493 148.822 109.978 150.238C110.588 152.024 112.806 152.83 113.261 154.698C113.696 156.489 114.294 157.82 115.312 159.494C115.629 160.014 117.54 162.353 117.947 161.98" stroke="#DB1818" stroke-width="2.10113" stroke-linecap="round" stroke-linejoin="round"/>
<path d="M161.1 180.452C157.175 178.659 159.763 174.155 155.657 172.815C153.914 172.246 152.504 171.909 150.798 171.216C149.078 170.518 148.444 168.019 146.327 168.019C144.946 168.019 142.568 168.887 141.273 168.296C140.507 167.946 139.739 167.328 139.134 166.776C138.559 166.251 138.08 165.188 137.579 164.822C136.459 164.003 137.938 160.901 137.191 159.671C136.324 158.247 134.948 157.295 135.052 155.586C135.281 151.822 142.116 154.06 143.821 152.725C145.164 151.673 144.213 149.98 145.722 149.192C147.365 148.334 148.904 150.117 150.301 150.968C152.794 152.487 156.178 152.389 159.07 152.389C161.833 152.389 162.607 152.178 163.433 149.725C163.911 148.306 164.547 148.532 162.958 148.048C161.72 147.671 161.496 146.435 160.625 145.719C159.742 144.993 156.354 145.794 155.441 146.173C150.718 148.135 153.689 142.088 150.215 142.088C148.011 142.088 145.808 142.088 143.605 142.088C141.958 142.088 141.273 142.798 140.128 143.844C139.192 144.7 138.308 144.895 137.191 145.462C135.493 146.324 133.792 147.64 132.18 148.659C131.179 149.292 129.028 151.512 127.666 150.889C126.565 150.387 125.722 148.814 125.722 147.771C125.722 145.807 126.601 145.548 128.249 144.377C129.765 143.299 130.906 142.857 132.72 142.265C133.706 141.943 136.441 140.441 133.886 140.312C131.928 140.212 129.93 140.312 127.968 140.312C126.142 140.312 124.538 139.578 122.806 139.226C121.288 138.918 120.668 137.121 120.668 135.871C120.668 134.151 119.033 134.273 117.558 134.273C115.142 134.273 116.112 132.861 114.642 131.786C113.804 131.174 111.726 129.89 111.726 128.944" stroke="#DB1818" stroke-width="2.10113" stroke-linecap="round" stroke-linejoin="round"/>
<path d="M158.379 135.694C155.138 135.694 151.892 135.512 148.659 135.339C148.427 135.326 147.375 134.683 147.191 134.549C146.566 134.093 145.581 134.273 144.772 134.273C143.875 134.273 140.291 134.751 139.718 134.095C139.058 133.342 136.795 132.455 135.83 132.063C133.882 131.272 132.511 132.779 130.776 133.483C129.408 134.039 128.23 131.705 127.104 131.411C126.485 131.25 123.547 129.95 123.8 129.142C124.216 127.81 127.752 127.879 128.832 127.879C130.747 127.879 132.662 127.879 134.577 127.879C136.965 127.879 138.228 128.103 140.301 128.944C142.202 129.717 142.994 130.365 145.16 130.365C147.18 130.365 148.898 129.655 150.992 129.655C153.129 129.655 153.665 131.431 155.744 131.431C158.874 131.431 161.273 128.944 164.383 128.944C168.018 128.944 168.442 134.56 172.18 135.319C174.008 135.69 175.845 135.096 177.645 135.694C179.639 136.356 182.042 138.399 182.785 140.233C183.818 142.78 183.809 144.21 182.483 146.706C181.457 148.636 178.278 148.411 176.284 147.614C175.202 147.181 174.118 146.606 172.958 146.37C172.024 146.181 172.375 147.799 172.375 148.285C172.375 149.002 172.375 149.719 172.375 150.436C172.375 151.483 173.782 151.83 174.232 152.745C175.041 154.387 173.502 156.42 175.01 157.797C176.229 158.911 177.987 159.294 179.178 160.382C180.79 161.854 181.547 163.901 183.455 162.158C184.752 160.973 184.481 157.123 183.26 155.942C181.681 154.414 183.56 151.777 185.593 151.679C186.562 151.632 186.956 152.442 187.926 152.389C188.692 152.348 188.321 150.759 188.941 150.633C191.576 150.098 192.202 151.204 192.202 153.258C192.202 155.609 189.443 156.566 192.98 157.284C195.46 157.787 201.458 156.217 202.699 159.336C203.478 161.293 205.131 162.963 205.809 164.822" stroke="#DB1818" stroke-width="2.10113" stroke-linecap="round" stroke-linejoin="round"/>
<path d="M75.5708 185.07C75.5708 181.132 81.7911 183.701 81.7911 180.63C81.7911 179.755 81.8025 179.005 81.4024 178.183C81.1257 177.614 80.2572 177.402 79.9337 176.9C78.5719 174.785 81.0989 173.181 79.4585 171.137C78.1019 169.447 74.7932 166.099 74.7932 163.914C74.7932 161.361 77.5944 159.494 80.4304 159.494C83.1164 159.494 82.5802 156.693 83.519 155.073C85.2447 152.095 86.371 152.581 88.8755 154.165C90.2559 155.039 92.1851 156.413 93.6487 157.007C94.6424 157.411 98.5084 157.194 98.5084 158.27C98.5084 160.417 96.6826 162.062 96.5645 164.112C96.4015 166.941 97.7001 167.833 99.7611 169.716C101.134 170.971 100.961 172.282 103.368 172.282C105.961 172.282 108.276 171.571 110.928 171.571C112.391 171.571 112.773 171.832 111.899 170.308C111.085 168.887 109.82 168.054 108.617 166.954C107.747 166.159 104.729 164.831 104.729 163.757C104.729 162.891 104.498 161.505 105.506 160.994C106.68 160.398 106.42 161.032 106.694 159.652C106.938 158.427 107.843 155.163 106.478 154.165C105.991 153.809 106.008 153.276 105.312 152.922C104.553 152.537 103.587 152.439 102.785 152.113C100.883 151.34 96.5706 152.592 95.0958 151.245C94.6479 150.835 94.6413 149.775 94.1455 149.271C93.4767 148.592 92.441 147.977 91.5321 147.613C90.0355 147.015 85.6789 145.095 85.6789 143.331C85.6789 141.518 89.3979 141.309 90.7329 141.377C92.1137 141.447 93.3291 143.327 94.3183 144.14C95.8911 145.433 97.267 145.713 99.0916 144.416C100.327 143.538 102.709 146.935 100.841 143.351C99.7938 141.341 97.5593 139.821 96.6509 137.746C96.3206 136.992 95.9387 136.505 96.8021 135.891C98.0593 134.998 98.7474 135.484 97.7309 134.194C96.7726 132.978 95.0094 131.343 95.0094 129.832C95.0094 127.584 96.9621 126.667 98.7244 125.747C101.445 124.327 100.004 122.856 101.143 120.774C101.516 120.093 105.192 120.199 105.506 120.774" stroke="#DB1818" stroke-width="2.10113" stroke-linecap="round" stroke-linejoin="round"/>
<path d="M126.5 122.195C128.432 122.195 130.321 122.55 132.331 122.55C133.478 122.55 136.332 122.543 137.385 122.116C140.946 120.67 143.055 117.922 145.766 115.445C147.053 114.269 148.24 112.894 149.437 111.735C149.598 111.58 151.433 109.306 151.748 110.314C152.057 111.302 152.203 112.188 152.159 113.235C152.094 114.783 145.494 121.58 150.604 121.839C153.628 121.993 153.505 120.799 155.269 118.998C156.066 118.183 157.923 115.494 157.99 114.38C158.034 113.66 158.379 113.223 158.379 112.426C158.379 111.576 157.314 111.209 157.213 110.472C157.083 109.52 155.316 108.176 154.794 107.275C154.208 106.264 154.014 102.782 154.88 101.947C156.547 100.339 158.163 101.236 160.323 101.236C162.285 101.236 163.889 101.372 165.291 100.092C166.846 98.6704 166.161 96.0592 166.63 94.1317C166.936 92.8707 169.116 89.0844 170.518 91.6451C171.396 93.2508 171.597 94.4815 171.597 96.263C171.597 97.9999 172.599 104.073 171.209 104.867C170.541 105.249 170.425 106.209 169.459 106.209C168.512 106.209 167.81 105.943 166.932 105.854C165.434 105.702 162.98 104.047 162.656 106.565C162.512 107.681 161.591 109.733 162.656 110.827C163.591 111.788 164.636 114.036 163.52 115.169C162.52 116.183 161.043 118.416 161.792 119.708C162.149 120.324 163.61 120.14 164.211 119.866C165.58 119.24 165.668 118.642 167.321 118.642C168.606 118.642 170.051 118.227 170.453 119.511C170.648 120.135 171.191 121.17 171.597 121.76C172.534 123.119 172.53 124.053 174.686 123.438C175.439 123.223 176.8 122.967 177.343 122.471C177.937 121.928 178.014 120.631 178.79 120.063C180.197 119.034 180.856 116.71 182.094 115.445C182.712 114.815 182.734 113.669 183.844 113.669C184.996 113.669 185.805 114.569 186.284 115.445C186.422 115.697 187.148 117.19 187.148 115.978C187.148 115 188.126 114.122 188.617 113.314C189.559 111.766 191.858 112.85 192.98 113.393C195.019 114.379 196.033 112.583 198.034 113.314" stroke="#DB1818" stroke-width="2.10113" stroke-linecap="round" stroke-linejoin="round"/>
<path d="M156.047 90.9345C155.266 91.2911 154.478 91.6915 153.714 92.0791C152.441 92.7256 152.675 93.7814 152.159 94.842C151.149 96.9182 151.496 98.9916 150.215 101.039C149.478 102.218 146.759 102.168 145.637 103.091C145.149 103.492 144.553 103.726 144.081 104.157C143.417 104.764 143.447 105.631 143.002 106.387C141.316 109.246 141.105 113.02 138.639 115.524C138.057 116.114 135.323 117.367 134.664 116.314C133.908 115.103 134.276 113.262 134.276 111.893C134.276 110.225 133.498 109.115 133.498 107.551C133.498 104.759 134.907 105.278 136.803 103.545C137.621 102.797 137.841 102.263 138.358 101.414C138.823 100.649 138.353 99.3864 139.33 98.8285C140.429 98.2009 141.042 97.2327 142.44 96.8944C143.202 96.7101 144.384 96.6488 144.384 95.7301C144.384 94.3884 144.038 91.3886 145.399 90.5596C146.739 89.7431 147.819 89.5136 149.438 89.5136C150.4 89.5136 151.382 90.1987 151.382 89.1584C151.382 87.2632 152.159 85.5295 152.159 83.6326C152.159 79.8079 157.446 79.3566 160.626 78.4226C164.168 77.3824 167.312 73.6429 171.404 75.3045C173.91 76.3223 178.265 79.9686 176.458 82.9419C175.754 84.0985 173.631 87.9499 175.918 87.7178C178.539 87.4516 181.01 85.6061 183.564 85.6061C184.772 85.6061 185.257 85.4953 186.069 86.2376C186.724 86.8365 188.167 87.7375 189.093 87.7375C190.084 87.7375 191.425 88.1449 191.425 86.9876C191.425 86.259 192.409 83.4654 191.728 82.8432C189.774 81.0579 182.078 83.154 184.428 78.324C184.932 77.2859 178.068 76.7573 179.071 75.7387C180.132 74.6619 181.993 74.5941 183.456 74.5941C186.037 74.5941 186.667 75.5064 187.732 77.2583C188.905 79.187 191.916 77.1273 193.067 76.3702C194.424 75.4775 195.765 74.6942 196.955 73.6074C197.655 72.9675 198.649 70.9897 199.395 70.6866C202.194 69.5501 203.217 72.1465 205.421 72.818" stroke="#DB1818" stroke-width="2.10113" stroke-linecap="round" stroke-linejoin="round"/>
<path d="M128.833 114.024C128.833 109.656 129.153 106.263 131.079 102.302C132.714 98.9424 130.665 94.79 129.222 91.8227C128.551 90.4441 127.682 88.7312 126.112 88.0139C124.348 87.2081 123.364 85.2646 125.14 84.3629C129.633 82.0823 131.491 87.6029 133.801 89.9479C136.766 92.9586 142.554 87.8794 138.466 85.251C137.276 84.4859 135.946 83.0838 134.47 82.7841C133.406 82.5679 132.647 82.617 132.311 81.5408C131.715 79.6356 128.972 79.7118 127.688 78.3438C126.586 77.168 123.111 79.1151 122.138 78.2254C120.921 77.1139 121.539 74.6886 120.863 73.3311C120.558 72.7173 120.28 71.3687 120.28 70.6867C120.28 69.5619 122.302 70.1784 122.138 69.7789C121.431 68.0571 122.664 66.273 120.971 64.7268C120.248 64.0654 119.242 63.8597 118.552 63.0493C118.111 62.5305 118.002 60.7403 118.919 60.7403C120.669 60.7403 122.418 60.7403 124.168 60.7403C125.265 60.7403 128.444 62.2628 128.444 63.4045C128.444 65.1709 128.056 67.1619 128.056 68.7329C128.056 69.6017 128.034 70.2697 128.531 71.0419C129.007 71.7813 130.406 71.1473 131.079 71.8313C132.879 73.6583 128.626 75.6599 133.326 75.6599C135.225 75.6599 137.24 74.5946 138.077 76.8045C138.456 77.8035 139.074 78.6083 140.108 79.1332C141.87 80.0278 140.671 79.4473 141.749 78.4227C142.754 77.468 143.218 77.6013 143.218 76.1927C143.218 75.1165 143.466 73.8718 144.211 72.9957C145.924 70.9833 149.188 72.5996 150.993 71.0419C152.946 69.3571 151.01 67.6479 150.583 65.8911C150.28 64.6472 147.299 63.2518 146.155 62.8717C145.056 62.5064 145.162 61.0721 145.162 60.2272C145.162 58.8845 145.634 56.6506 145.075 55.4119C144.859 54.932 145.745 54.1687 146.134 53.8134C146.425 53.5474 147.67 52.9827 147.71 52.6491C147.76 52.242 146.819 52.3606 146.544 52.0373C144.238 49.3287 147.924 49.8249 149.827 49.7283C152.581 49.5885 151.058 46.5908 149.827 45.4656" stroke="#DB1818" stroke-width="2.10113" stroke-linecap="round" stroke-linejoin="round"/>
<path d="M18.8091 165.533C21.0664 165.533 22.9939 164.822 25.2238 164.822C28.6779 164.822 28.5654 162.049 30.4723 160.204C32.3628 158.375 32.247 157.718 35.332 157.718C39.3665 157.718 35.9107 162.208 37.6862 162.671C39.6178 163.175 43.1964 160.556 44.1658 159.139C44.4546 158.716 48.5032 155.942 45.4401 155.942C44.4573 155.942 43.286 156.116 42.3299 155.922C41.5862 155.771 40.3022 154.222 41.0556 153.534C41.6506 152.99 45.565 151.256 43.3018 150.337C40.8435 149.339 37.6117 149.548 34.9432 149.548C34.1963 149.548 31.6386 149.95 31.6386 149.015C31.6386 147.907 32.018 147.227 32.8913 146.429C34.4437 145.011 37.8015 144.93 39.8245 144.93C41.236 144.93 42.3812 145.144 43.6906 145.285C44.1883 145.338 44.156 145.873 44.6625 145.976C45.1438 146.073 45.7257 145.995 46.2176 145.995C47.1951 145.995 47.9105 145.285 48.939 145.285C49.9047 145.285 50.3632 147.141 50.6021 147.85C51.3202 149.983 48.9278 151.288 49.5438 153.258C49.9402 154.525 53.1296 155.097 54.1875 155.665C55.0413 156.124 55.7363 157.438 56.1313 158.251C56.9497 159.933 60.2016 158.251 61.6606 157.718C62.3306 157.473 69.8978 154.495 67.9889 153.1C66.3502 151.902 71.8775 151.324 72.4598 151.324C74.8811 151.324 74.4263 148.75 75.7644 147.771C76.5753 147.179 76.3005 146.102 76.3476 145.285C76.4252 143.936 77.7703 142.715 78.8746 141.93C79.3223 141.612 81.6743 141.482 81.7688 141.18C82.0279 140.351 82.4628 139.448 82.568 138.535C82.6701 137.649 83.6802 136.938 83.7343 136.049C83.7916 135.106 83.3455 134.34 83.3455 133.385C83.3455 131.951 85.3607 132.114 85.6565 130.898C86.0033 129.472 87.1428 129.983 87.9244 128.944C88.2726 128.482 89.3363 128.346 89.5443 127.681C89.8647 126.657 88.7799 125.821 89.3499 124.682C89.9308 123.521 90.3534 123.332 91.2074 122.629C92.3119 121.721 92.2873 121.778 92.2873 120.241C92.2873 119.412 92.2873 118.584 92.2873 117.755C92.2873 117.342 92.2623 116.923 92.2873 116.511C92.3085 116.163 93.2216 115.419 92.9784 115.169C92.5646 114.744 90.0351 115.091 89.4795 115.091C87.8255 115.091 88.1163 115.484 87.406 116.689C86.6634 117.949 84.9935 119.246 84.9006 120.774C84.8662 121.34 85.2152 122.889 84.7062 123.261C84.375 123.503 83.9644 125.097 83.7343 125.57C83.284 126.495 82.8863 127.299 81.7904 127.8C80.9987 128.161 80.0639 127.585 79.3714 128.155C78.44 128.921 77.7425 129.668 77.5355 130.898C77.4307 131.52 77.9209 133.478 77.3195 133.918C76.5773 134.46 75.9414 135.651 75.4836 136.404C74.8892 137.382 73.7892 138.522 73.0214 139.424C72.2863 140.287 70.9213 140.622 70.516 141.733" stroke="#DB1818" stroke-width="2.10113" stroke-linecap="round" stroke-linejoin="round"/>
<path d="M103.952 104.789C100.667 107.79 96.076 105.936 92.6776 108.697C91.7438 109.455 88.8771 109.635 87.6235 109.762C85.5244 109.975 84.3947 111.733 83.5414 113.137C83.1922 113.711 83.36 114.655 82.7638 115.091C82.3056 115.426 80.8056 115.711 80.6256 115.998C79.6903 117.494 80.5254 119.518 79.6536 120.952C78.9221 122.155 79.5903 123.971 77.321 123.971C75.2101 123.971 74.8184 122.438 73.7141 121.051C72.8177 119.924 74.0184 115.522 74.7076 114.656C75.2806 113.937 75.3464 113.523 76.3491 113.038C76.9954 112.726 78.2929 111.919 78.2929 111.183C78.2929 109.995 75.0431 108.641 74.0164 108.697C72.8055 108.762 70.9304 111.578 70.5175 112.426C69.7843 113.934 68.5736 114.845 68.5736 116.689C68.5736 117.353 68.1848 118.02 68.1848 118.821C68.1848 119.644 68.7248 119.926 68.9408 120.616C69.8587 123.552 71.4041 126.776 69.6535 129.655C68.4067 131.706 66.4929 129.925 64.6859 130.8C62.8227 131.701 62.9583 134.627 62.2668 136.049C61.3244 137.987 60.1966 137.825 58.0767 137.825C55.2748 137.825 54.5778 134.378 54.5778 132.319C54.5778 131.068 57.7795 129.46 59.0486 128.944C60.8112 128.229 59.3248 125.392 61.7701 125.392C64.2526 125.392 62.5407 122.93 61.7701 121.662C61.1719 120.679 61.1869 119.929 61.1869 118.821C61.1869 117.24 62.0347 117.228 62.6556 116.156C63.3861 114.896 61.8651 113.577 61.2733 112.604C60.8943 111.981 59.5637 112.249 58.8543 112.249C57.6498 112.249 58.0724 113.628 57.2992 113.67C56.0138 113.739 54.9497 113.563 53.8002 113.038C51.6154 112.04 48.6768 107.543 47.4934 110.907C46.7476 113.027 46.9125 114.929 45.8519 116.867C44.4712 119.39 43.5264 120.774 40.3875 120.774C39.3344 120.774 37.9163 120.531 36.9102 120.794C36.5317 120.893 35.9878 122.391 35.7006 122.728C34.6522 123.96 33.231 122.749 32.8064 121.682C32.4715 120.841 31.0693 121.129 30.2794 121.129C28.9021 121.129 27.0192 122.784 26.5861 123.971" stroke="#DB1818" stroke-width="2.10113" stroke-linecap="round" stroke-linejoin="round"/>
<path d="M67.7948 94.1318C69.4227 94.1318 71.4744 93.8619 72.7624 94.9211C74.4565 96.3143 76.6338 96.6183 78.8748 96.6183C81.3341 96.6183 83.4939 96.1156 85.8727 96.5986C86.828 96.7926 87.0135 97.9886 88.011 98.0393C89.1448 98.0968 90.0621 97.684 91.1212 97.684C93.3545 97.684 95.2784 96.0126 97.3415 95.9079C98.33 95.8577 99.7409 95.5913 100.257 96.4407C100.609 97.0195 101.238 97.9252 101.812 98.2169C102.975 98.8069 106.566 100.526 103.173 100.526C100.997 100.526 97.6864 99.4128 95.7865 100.901C93.8965 102.381 92.1442 101.272 90.1708 102.302C88.5335 103.157 85.7764 102.117 84.2096 101.236C81.7662 99.8624 81.1687 101.891 79.458 103.368C77.6097 104.963 75.4119 103.56 73.9935 102.48C72.1407 101.069 69.2836 103.368 67.6004 103.368C64.5861 103.368 63.907 102.615 63.907 99.8154C63.907 98.0826 59.0864 100.171 57.9026 100.171C55.7925 100.171 54.534 99.5398 53.0214 98.1971C51.9269 97.2257 51.7595 96.391 50.9911 95.1974C50.5216 94.4681 49.3334 94.2672 48.5505 94.6646C47.0695 95.4164 46.6174 94.0389 46.0234 93.145C44.7808 91.275 45.5469 89.3571 44.6627 87.5798C44.2918 86.8341 44.2449 85.1665 44.4899 84.3828C44.8025 83.3832 49.3312 84.8959 50.1056 84.8959C51.4946 84.8959 53.7989 81.1036 53.7989 79.9227C53.7989 78.8934 52.2246 78.7251 51.2935 78.482C50.812 78.3564 51.1023 76.4226 51.0775 76.0152C50.9995 74.7322 48.0198 71.8005 46.9954 70.8644C46.0151 69.9687 41.6158 68.2952 41.7469 70.3316C41.8328 71.6658 43.9553 74.0972 44.8571 75.1271C45.7752 76.1756 46.7197 77.4458 46.801 78.857C46.8777 80.1892 45.3762 78.7915 44.6627 78.5018C42.3817 77.5755 40.9694 77.3478 40.9694 79.9227C40.9694 80.8107 40.9694 81.6988 40.9694 82.5869C40.9694 83.9926 40.2828 83.2131 39.4143 83.1197C38.0359 82.9715 36.3041 80.5312 36.3041 79.3898C36.3041 77.3588 37.5765 75.4834 36.6929 73.6667C35.6936 71.6125 33.1248 71.042 30.8613 71.042C28.7231 71.042 26.534 72.4759 24.4681 71.3972C22.8507 70.5528 22.0851 68.6311 20.3644 67.845" stroke="#DB1818" stroke-width="2.10113" stroke-linecap="round" stroke-linejoin="round"/>
<path d="M119.113 104.433C114.819 103.997 111.242 99.0632 110.193 95.7106C109.191 92.5043 104.339 92.4735 102.007 90.5796C100.87 89.656 98.6152 89.6486 97.1693 89.8889C96.2823 90.0362 93.8256 92.0693 92.6768 90.7572C91.9089 89.8801 89.1778 91.3927 89.1778 89.3363C89.1778 88.6715 88.9169 87.6119 89.6098 87.2049C90.8218 86.493 92.781 85.9616 94.2319 85.9616C95.9414 85.9616 97.5539 86.8337 98.8972 85.6064C99.9261 84.6663 100.282 81.4754 99.5883 80.278C99.5575 80.2247 91.2877 80.414 90.7329 80.7122C87.1311 82.648 82.365 85.202 80.236 88.6061C79.5574 89.6912 75.734 89.4396 74.9876 88.6061C73.9279 87.4226 73.2252 86.4063 71.8774 85.4485C70.5762 84.5238 68.146 85.3396 67.3201 83.8303C66.8946 83.0526 65.8561 79.3165 67.7953 79.2123C70.1261 79.087 75.7458 78.3934 77.709 79.3899C79.7542 80.4281 80.0461 81.1441 81.1 78.8571C81.7285 77.4931 82.2531 76.4393 84.2102 76.3705C85.6946 76.3183 89.7519 77.0695 90.8193 76.0942C91.6901 75.2986 91.9984 73.3686 90.9489 72.463C89.5484 71.2544 87.234 72.186 87.234 69.9369C87.234 69.0281 87.036 67.8597 87.2556 66.957C87.4141 66.3049 88.5323 66.047 88.3787 65.5558C87.3298 62.2016 81.2811 63.5019 78.7025 63.2074C76.9179 63.0035 75.5983 61.2705 74.8796 60.0301C74.1831 58.828 71.2286 60.7405 70.1279 60.7405C65.0045 60.7405 70.8494 53.636 65.4626 53.636" stroke="#DB1818" stroke-width="2.10113" stroke-linecap="round" stroke-linejoin="round"/>
<path d="M110.172 69.6217C111.427 70.7692 113.282 70.8175 113.282 72.8187C113.282 74.0187 112.741 77.0151 113.584 77.8708C115.053 79.3626 116.262 80.3875 116.392 82.4098C116.475 83.7027 116.895 85.4061 118.141 86.3173C118.615 86.6635 119.569 87.5483 119.891 87.9158C120.507 88.619 121.446 88.5298 121.446 89.692C121.446 90.6283 121.418 91.3217 121.835 92.1786C122.317 93.1699 123.39 93.2188 123.39 94.4875C123.39 95.1983 123.158 96.3194 123.476 96.9741C123.877 97.7973 124.556 98.5356 124.556 99.4607C124.556 101.107 124.226 100.012 123.303 99.4607C122.397 98.9194 121.328 98.142 120.452 97.6846C119.17 97.0152 115.133 97.1612 114.448 96.0663C113.431 94.4397 114.202 92.1306 114.75 90.5011C115.688 87.7177 112.868 86.5824 110.56 85.5279C109.933 85.2416 108.261 85.1455 108.703 84.186C109.069 83.391 109.483 81.0644 108.595 80.4561C106.027 78.6967 104.34 77.7794 104.34 74.6146C104.34 73.6921 104.632 72.7877 103.735 72.2661C102.357 71.4648 100.832 70.679 99.6746 69.6217C98.7932 68.8163 98.042 68.3392 98.1195 67.1351C98.164 66.4441 99.7886 65.9823 100.15 65.3589C101.12 63.6843 100.461 60.6772 99.869 58.9451C99.3766 57.5054 99.2782 55.9041 99.869 54.5245C100.392 53.3041 101.372 53.0341 102.007 52.0182C102.824 50.7117 106.613 48.5717 108.4 49.0382C108.845 49.1544 110.407 49.273 110.733 49.5711C111.332 50.1186 110.757 51.3359 110.971 52.0182C111.368 53.2881 116.248 50.0184 116.953 49.3737C117.661 48.7269 119.113 47.7904 119.113 46.8871C119.113 45.6536 120.075 45.8215 121.144 45.8215C123.759 45.8215 123.39 43.2886 123.39 41.4009C123.39 39.8593 123.001 38.3526 123.001 36.7829C123.001 35.917 120.631 35.9489 120.107 36.4277C119.314 37.1524 117.44 39.2904 117.191 40.3154C116.988 41.1517 116.993 42.4484 116.003 42.9007C112.877 44.3289 114.22 41.4021 112.504 40.572C110.388 39.5481 109.971 41.6992 109.005 42.802C107.581 44.429 102.923 39.6956 104.167 38.559C105.765 37.0991 108.261 36.6254 110.172 35.5988C110.782 35.2704 111.138 34.5974 111.813 34.3753C112.476 34.157 114.409 34.3325 114.75 33.7438C115.012 33.2925 115.12 31.0474 114.75 30.6256C114.075 29.854 112.429 29.7678 111.532 28.9482C109.686 27.2616 110.447 24.9303 111.921 23.2843C112.743 22.366 113.16 22.286 112.699 20.9359C112.378 19.9996 112.367 18.2289 111.338 17.7585" stroke="#DB1818" stroke-width="2.10113" stroke-linecap="round" stroke-linejoin="round"/>
<path d="M117.475 179.928C117.475 178.974 117.8 177.219 118.77 176.665C119.505 176.245 119.64 174.433 119.107 173.868C118.227 172.936 117.009 172.15 117.009 170.721C117.009 169.728 116.983 168.425 117.255 167.471C117.456 166.766 119.893 167.144 120.506 167.108C120.94 167.082 120.7 165.964 120.79 165.658C121.056 164.762 120.831 164.733 120.156 164.207C119.672 163.831 119.69 163.928 119.211 164.065C118.584 164.244 118.349 163.682 117.993 163.327C117.285 162.619 116.878 161.075 115.844 162.627C115.094 163.751 115.119 165.599 113.629 165.93C112.175 166.253 111.608 165.967 110.897 164.544C110.587 163.925 110.504 161.98 111.531 161.98C112.375 161.98 114.212 162.412 114.212 161.164C114.212 160.21 114.054 159.287 114.73 158.535C115.183 158.032 117.28 157.999 117.76 158.432C119.982 160.431 123.035 160.538 124.455 157.46C125.097 156.07 125.401 154.569 125.401 152.889C125.401 151.823 124.468 150.856 124.468 149.742C124.468 148.543 124.54 147.426 124.934 146.272C125.147 145.65 125.367 145.008 125.634 144.407C125.744 144.159 125.748 144.479 125.401 144.497C123.853 144.579 123.642 144.181 123.251 142.814C122.838 141.368 122.717 139.312 121.438 138.307C120.366 137.466 119.669 136.399 118.822 135.458C118.015 134.562 117.869 132.566 117.359 131.431C117.195 131.067 116.937 128.693 116.543 128.647C115.997 128.583 115.555 128.311 115.028 128.194C114.089 127.985 112.962 126.902 112.528 126.083C111.724 124.563 110.949 125.53 110.949 126.899C110.949 128.23 111.494 129.546 112.062 130.745C112.424 131.509 112.854 132.284 113.396 132.946C113.764 133.396 114.473 133.755 114.73 134.241C115.177 135.087 115.204 136.329 115.494 137.258C115.86 138.43 117.19 138.959 117.462 140.185C117.723 141.36 118.082 142.233 118.693 143.332C118.882 143.674 120.028 145.208 120.272 144.964" stroke="#FFD8D8" stroke-width="2.10113" stroke-linecap="round" stroke-linejoin="round"/>
<path d="M146.146 157.085C143.792 155.908 145.344 152.952 142.882 152.073C141.837 151.7 140.992 151.479 139.969 151.024C138.937 150.566 138.558 148.926 137.288 148.926C136.46 148.926 135.034 149.496 134.258 149.108C133.798 148.878 133.338 148.473 132.976 148.111C132.631 147.766 132.343 147.069 132.043 146.829C131.372 146.291 132.258 144.255 131.81 143.449C131.291 142.514 130.466 141.89 130.528 140.768C130.665 138.298 134.763 139.767 135.786 138.89C136.591 138.2 136.021 137.089 136.925 136.572C137.911 136.009 138.833 137.179 139.671 137.738C141.165 138.734 143.195 138.67 144.928 138.67C146.585 138.67 147.049 138.531 147.544 136.922C147.831 135.991 148.213 136.139 147.259 135.821C146.518 135.574 146.383 134.763 145.861 134.293C145.332 133.817 143.3 134.342 142.753 134.591C139.921 135.878 141.702 131.91 139.619 131.91C138.298 131.91 136.977 131.91 135.656 131.91C134.669 131.91 134.258 132.377 133.571 133.063C133.01 133.624 132.48 133.752 131.81 134.125C130.793 134.69 129.772 135.553 128.806 136.223C128.206 136.638 126.916 138.094 126.099 137.686C125.44 137.356 124.934 136.324 124.934 135.64C124.934 134.351 125.461 134.181 126.449 133.412C127.358 132.705 128.042 132.415 129.13 132.027C129.721 131.816 131.361 130.83 129.829 130.745C128.655 130.68 127.457 130.745 126.281 130.745C125.186 130.745 124.224 130.263 123.186 130.033C122.275 129.83 121.904 128.651 121.904 127.831C121.904 126.702 120.923 126.782 120.039 126.782C118.59 126.782 119.172 125.856 118.29 125.15C117.788 124.749 116.542 123.906 116.542 123.286" stroke="#FFD8D8" stroke-width="2.10113" stroke-linecap="round" stroke-linejoin="round"/>
<path d="M144.514 127.715C142.571 127.715 140.625 127.596 138.687 127.482C138.547 127.473 137.916 127.052 137.806 126.964C137.432 126.664 136.841 126.782 136.356 126.782C135.818 126.782 133.669 127.096 133.325 126.666C132.93 126.172 131.573 125.589 130.994 125.332C129.827 124.813 129.004 125.802 127.964 126.264C127.144 126.629 126.438 125.098 125.763 124.905C125.391 124.799 123.63 123.945 123.781 123.415C124.031 122.541 126.151 122.587 126.799 122.587C127.947 122.587 129.095 122.587 130.243 122.587C131.675 122.587 132.432 122.733 133.675 123.286C134.815 123.793 135.29 124.218 136.589 124.218C137.8 124.218 138.83 123.752 140.085 123.752C141.366 123.752 141.688 124.918 142.934 124.918C144.811 124.918 146.249 123.286 148.114 123.286C150.293 123.286 150.548 126.971 152.789 127.469C153.885 127.712 154.986 127.322 156.065 127.715C157.261 128.15 158.702 129.49 159.147 130.693C159.766 132.365 159.762 133.303 158.966 134.941C158.351 136.207 156.445 136.06 155.249 135.537C154.601 135.253 153.951 134.875 153.255 134.721C152.695 134.596 152.906 135.658 152.906 135.977C152.906 136.447 152.906 136.918 152.906 137.388C152.906 138.075 153.749 138.303 154.019 138.903C154.504 139.981 153.582 141.315 154.485 142.219C155.216 142.95 156.271 143.201 156.985 143.915C157.951 144.881 158.405 146.224 159.549 145.081C160.327 144.303 160.164 141.777 159.432 141.001C158.485 139.999 159.612 138.268 160.831 138.204C161.412 138.174 161.648 138.705 162.229 138.67C162.689 138.643 162.467 137.6 162.838 137.518C164.418 137.167 164.794 137.892 164.794 139.24C164.794 140.783 163.14 141.411 165.26 141.882C166.747 142.213 170.343 141.182 171.087 143.229C171.554 144.513 172.545 145.609 172.952 146.829" stroke="#FFD8D8" stroke-width="2.10113" stroke-linecap="round" stroke-linejoin="round"/>
<path d="M94.8644 160.115C94.8644 157.531 98.594 159.216 98.594 157.201C98.594 156.627 98.6008 156.135 98.3609 155.596C98.195 155.222 97.6742 155.084 97.4803 154.754C96.6638 153.366 98.1789 152.314 97.1954 150.973C96.382 149.863 94.3982 147.667 94.3982 146.233C94.3982 144.558 96.0777 143.332 97.7781 143.332C99.3885 143.332 99.0671 141.495 99.63 140.431C100.665 138.477 101.34 138.796 102.842 139.836C103.669 140.409 104.826 141.31 105.703 141.7C106.299 141.965 108.617 141.823 108.617 142.529C108.617 143.938 107.523 145.017 107.452 146.362C107.354 148.219 108.133 148.804 109.368 150.04C110.192 150.864 110.088 151.724 111.531 151.724C113.086 151.724 114.473 151.257 116.063 151.257C116.941 151.257 117.17 151.428 116.646 150.429C116.158 149.496 115.4 148.949 114.678 148.227C114.156 147.706 112.347 146.834 112.347 146.129C112.347 145.562 112.208 144.652 112.813 144.316C113.517 143.925 113.361 144.342 113.525 143.436C113.671 142.632 114.214 140.49 113.396 139.836C113.103 139.602 113.114 139.252 112.696 139.02C112.241 138.767 111.662 138.702 111.181 138.489C110.041 137.982 107.455 138.803 106.571 137.919C106.303 137.65 106.299 136.954 106.001 136.624C105.6 136.178 104.979 135.775 104.434 135.536C103.537 135.144 100.925 133.884 100.925 132.726C100.925 131.536 103.155 131.4 103.955 131.444C104.783 131.49 105.512 132.723 106.105 133.257C107.048 134.106 107.873 134.289 108.967 133.438C109.708 132.862 111.136 135.091 110.016 132.739C109.388 131.42 108.048 130.423 107.504 129.061C107.305 128.566 107.076 128.247 107.594 127.844C108.348 127.258 108.761 127.577 108.151 126.73C107.576 125.932 106.519 124.86 106.519 123.868C106.519 122.393 107.69 121.792 108.747 121.188C110.378 120.256 109.514 119.29 110.197 117.924C110.421 117.477 112.624 117.547 112.813 117.924" stroke="#FFD8D8" stroke-width="2.10113" stroke-linecap="round" stroke-linejoin="round"/>
<path d="M125.4 118.856C126.559 118.856 127.692 119.09 128.897 119.09C129.584 119.09 131.296 119.085 131.927 118.805C134.062 117.856 135.326 116.053 136.951 114.428C137.724 113.655 138.435 112.753 139.153 111.993C139.249 111.891 140.35 110.399 140.539 111.061C140.724 111.709 140.811 112.29 140.785 112.977C140.746 113.993 136.789 118.453 139.852 118.623C141.665 118.724 141.592 117.94 142.649 116.759C143.127 116.224 144.241 114.459 144.281 113.728C144.307 113.256 144.514 112.969 144.514 112.446C144.514 111.889 143.875 111.647 143.815 111.164C143.737 110.54 142.678 109.658 142.365 109.066C142.013 108.403 141.897 106.118 142.416 105.57C143.416 104.515 144.385 105.104 145.68 105.104C146.856 105.104 147.818 105.193 148.658 104.353C149.591 103.42 149.18 101.706 149.461 100.442C149.645 99.6142 150.952 97.1297 151.792 98.8099C152.319 99.8636 152.44 100.671 152.44 101.84C152.44 102.98 153.04 106.965 152.206 107.486C151.806 107.737 151.737 108.367 151.158 108.367C150.589 108.367 150.169 108.192 149.642 108.134C148.744 108.034 147.273 106.948 147.078 108.6C146.992 109.333 146.44 110.679 147.078 111.397C147.639 112.028 148.266 113.503 147.596 114.246C146.997 114.912 146.111 116.377 146.56 117.225C146.774 117.629 147.65 117.508 148.011 117.328C148.832 116.918 148.884 116.525 149.875 116.525C150.646 116.525 151.513 116.253 151.753 117.095C151.87 117.505 152.196 118.184 152.44 118.572C153.001 119.463 152.999 120.076 154.291 119.672C154.743 119.531 155.559 119.363 155.884 119.038C156.241 118.681 156.287 117.83 156.752 117.458C157.596 116.783 157.991 115.257 158.733 114.428C159.104 114.014 159.117 113.262 159.782 113.262C160.473 113.262 160.958 113.852 161.246 114.428C161.328 114.593 161.764 115.573 161.764 114.777C161.764 114.136 162.349 113.56 162.644 113.029C163.209 112.013 164.587 112.724 165.26 113.081C166.483 113.728 167.09 112.549 168.29 113.029" stroke="#FFD8D8" stroke-width="2.10113" stroke-linecap="round" stroke-linejoin="round"/>
<path d="M143.116 98.3438C142.648 98.5778 142.175 98.8406 141.717 99.0949C140.954 99.5191 141.094 100.212 140.785 100.908C140.179 102.27 140.387 103.631 139.619 104.974C139.177 105.748 137.547 105.715 136.874 106.321C136.582 106.584 136.224 106.738 135.942 107.02C135.544 107.418 135.561 107.988 135.294 108.484C134.284 110.36 134.157 112.836 132.678 114.479C132.33 114.867 130.691 115.689 130.295 114.997C129.842 114.203 130.062 112.995 130.062 112.097C130.062 111.002 129.596 110.274 129.596 109.248C129.596 107.415 130.441 107.756 131.578 106.619C132.068 106.128 132.2 105.778 132.51 105.22C132.789 104.718 132.507 103.89 133.093 103.524C133.752 103.112 134.119 102.477 134.957 102.255C135.414 102.134 136.123 102.094 136.123 101.491C136.123 100.61 135.916 98.6418 136.732 98.0978C137.535 97.562 138.182 97.4114 139.153 97.4114C139.73 97.4114 140.319 97.861 140.319 97.1783C140.319 95.9347 140.785 94.7971 140.785 93.5524C140.785 91.0426 143.955 90.7464 145.861 90.1336C147.985 89.451 149.87 86.9971 152.323 88.0875C153.826 88.7554 156.438 91.1481 155.354 93.0991C154.932 93.8581 153.659 96.3854 155.03 96.233C156.602 96.0584 158.083 94.8474 159.614 94.8474C160.339 94.8474 160.629 94.7746 161.116 95.2618C161.509 95.6547 162.374 96.2459 162.929 96.2459C163.524 96.2459 164.328 96.5133 164.328 95.7539C164.328 95.2758 164.917 93.4426 164.509 93.0344C163.338 91.8628 158.723 93.2383 160.132 90.0688C160.435 89.3876 156.319 89.0408 156.921 88.3724C157.556 87.6658 158.673 87.6213 159.549 87.6213C161.097 87.6213 161.475 88.22 162.113 89.3695C162.817 90.6352 164.622 89.2836 165.312 88.7868C166.126 88.201 166.93 87.687 167.643 86.9738C168.063 86.5539 168.659 85.2561 169.106 85.0572C170.784 84.3115 171.398 86.0152 172.719 86.4558" stroke="#FFD8D8" stroke-width="2.10113" stroke-linecap="round" stroke-linejoin="round"/>
<path d="M126.799 113.495C126.799 110.628 126.991 108.402 128.146 105.803C129.126 103.598 127.898 100.874 127.032 98.9264C126.63 98.0219 126.109 96.8979 125.167 96.4271C124.11 95.8984 123.52 94.623 124.585 94.0314C127.279 92.5348 128.393 96.1574 129.778 97.6962C131.556 99.6718 135.026 96.3389 132.575 94.6141C131.861 94.1121 131.064 93.192 130.179 92.9954C129.541 92.8535 129.086 92.8857 128.884 92.1795C128.527 90.9293 126.882 90.9794 126.113 90.0816C125.452 89.3101 123.369 90.5878 122.785 90.0039C122.055 89.2746 122.426 87.6831 122.021 86.7924C121.838 86.3896 121.671 85.5046 121.671 85.0571C121.671 84.319 122.883 84.7235 122.785 84.4614C122.361 83.3315 123.1 82.1608 122.085 81.1462C121.651 80.7122 121.049 80.5773 120.635 80.0455C120.37 79.7051 120.305 78.5303 120.855 78.5303C121.904 78.5303 122.953 78.5303 124.002 78.5303C124.66 78.5303 126.566 79.5294 126.566 80.2786C126.566 81.4376 126.333 82.7441 126.333 83.775C126.333 84.3451 126.32 84.7834 126.618 85.2902C126.903 85.7753 127.742 85.3593 128.146 85.8082C129.225 87.007 126.675 88.3205 129.493 88.3205C130.632 88.3205 131.84 87.6214 132.342 89.0716C132.569 89.7271 132.939 90.2552 133.559 90.5996C134.616 91.1867 133.897 90.8057 134.543 90.1334C135.146 89.507 135.424 89.5944 135.424 88.6701C135.424 87.9639 135.572 87.1471 136.02 86.5722C137.047 85.2517 139.004 86.3123 140.086 85.2902C141.256 84.1846 140.096 83.0631 139.84 81.9102C139.658 81.094 137.871 80.1783 137.185 79.9289C136.526 79.6892 136.589 78.748 136.589 78.1936C136.589 77.3125 136.872 75.8467 136.538 75.0338C136.408 74.7189 136.939 74.218 137.172 73.9849C137.347 73.8104 138.093 73.4398 138.117 73.2209C138.147 72.9537 137.583 73.0316 137.418 72.8194C136.036 71.042 138.246 71.3676 139.387 71.3043C141.038 71.2125 140.125 69.2454 139.387 68.5071" stroke="#FFD8D8" stroke-width="2.10113" stroke-linecap="round" stroke-linejoin="round"/>
<path d="M60.8315 147.295C62.185 147.295 63.3406 146.829 64.6777 146.829C66.7486 146.829 66.6812 145.009 67.8245 143.798C68.958 142.598 68.8885 142.167 70.7382 142.167C73.1572 142.167 71.0853 145.113 72.1498 145.417C73.3079 145.748 75.4535 144.029 76.0348 143.099C76.208 142.822 78.6354 141.001 76.7988 141.001C76.2095 141.001 75.5073 141.116 74.934 140.988C74.4881 140.889 73.7182 139.873 74.17 139.421C74.5267 139.065 76.8737 137.927 75.5168 137.324C74.0428 136.668 72.1051 136.806 70.5051 136.806C70.0573 136.806 68.5238 137.07 68.5238 136.456C68.5238 135.729 68.7512 135.283 69.2749 134.759C70.2057 133.829 72.2189 133.775 73.4318 133.775C74.2781 133.775 74.9648 133.916 75.7499 134.008C76.0483 134.043 76.0289 134.394 76.3326 134.462C76.6211 134.526 76.9701 134.475 77.265 134.475C77.8511 134.475 78.28 134.008 78.8967 134.008C79.4757 134.008 79.7506 135.226 79.8938 135.692C80.3243 137.091 78.8899 137.947 79.2593 139.24C79.497 140.072 81.4092 140.447 82.0435 140.82C82.5554 141.121 82.9721 141.983 83.209 142.516C83.6996 143.62 85.6494 142.517 86.5242 142.167C86.9259 142.006 91.463 140.052 90.3185 139.136C89.336 138.35 92.65 137.971 92.9991 137.971C94.4509 137.971 94.1782 136.282 94.9805 135.64C95.4667 135.251 95.3019 134.545 95.3301 134.008C95.3767 133.123 96.1831 132.322 96.8453 131.807C97.1137 131.598 98.5239 131.513 98.5806 131.315C98.7359 130.771 98.9967 130.178 99.0597 129.579C99.121 128.998 99.7266 128.531 99.759 127.948C99.7934 127.329 99.5259 126.827 99.5259 126.2C99.5259 125.258 100.734 125.366 100.912 124.568C101.119 123.632 101.803 123.967 102.271 123.286C102.48 122.982 103.118 122.893 103.243 122.457C103.435 121.785 102.784 121.236 103.126 120.489C103.474 119.727 103.728 119.603 104.24 119.142C104.902 118.546 104.887 118.583 104.887 117.575C104.887 117.031 104.887 116.487 104.887 115.943C104.887 115.673 104.872 115.397 104.887 115.127C104.9 114.899 105.447 114.411 105.302 114.247C105.053 113.968 103.537 114.195 103.204 114.195C102.212 114.195 102.386 114.453 101.96 115.244C101.515 116.071 100.514 116.922 100.458 117.925C100.438 118.296 100.647 119.312 100.342 119.556C100.143 119.715 99.897 120.761 99.759 121.071C99.489 121.679 99.2506 122.206 98.5935 122.535C98.1188 122.772 97.5584 122.394 97.1431 122.768C96.5847 123.27 96.1665 123.761 96.0424 124.568C95.9795 124.976 96.2735 126.261 95.9129 126.549C95.4678 126.905 95.0866 127.687 94.8121 128.181C94.4557 128.822 93.7962 129.57 93.3358 130.162C92.8951 130.729 92.0767 130.948 91.8337 131.677" stroke="#FFD8D8" stroke-width="2.10113" stroke-linecap="round" stroke-linejoin="round"/>
<path d="M111.881 107.435C109.912 109.404 107.159 108.188 105.121 109.999C104.561 110.497 102.842 110.615 102.091 110.698C100.832 110.838 100.155 111.992 99.6433 112.913C99.434 113.289 99.5346 113.909 99.1771 114.195C98.9024 114.414 98.003 114.601 97.8951 114.79C97.3343 115.772 97.835 117.1 97.3123 118.041C96.8737 118.83 97.2744 120.022 95.9137 120.022C94.6481 120.022 94.4133 119.016 93.7511 118.106C93.2137 117.367 93.9336 114.478 94.3468 113.91C94.6904 113.437 94.7298 113.166 95.331 112.848C95.7185 112.643 96.4965 112.113 96.4965 111.631C96.4965 110.851 94.5479 109.963 93.9324 109.999C93.2063 110.042 92.0821 111.889 91.8345 112.446C91.3949 113.435 90.669 114.033 90.669 115.244C90.669 115.68 90.4359 116.117 90.4359 116.642C90.4359 117.182 90.7597 117.367 90.8892 117.821C91.4395 119.747 92.3661 121.862 91.3165 123.752C90.5689 125.097 89.4215 123.929 88.338 124.503C87.221 125.094 87.3023 127.015 86.8877 127.947C86.3226 129.219 85.6464 129.113 84.3754 129.113C82.6954 129.113 82.2775 126.851 82.2775 125.5C82.2775 124.679 84.1971 123.624 84.9581 123.286C86.0149 122.816 85.1237 120.955 86.5898 120.955C88.0783 120.955 87.0519 119.339 86.5898 118.507C86.2312 117.861 86.2402 117.37 86.2402 116.642C86.2402 115.605 86.7485 115.597 87.1208 114.894C87.5588 114.067 86.6468 113.202 86.292 112.563C86.0647 112.154 85.2669 112.33 84.8416 112.33C84.1194 112.33 84.3728 113.235 83.9092 113.262C83.1385 113.308 82.5005 113.192 81.8113 112.848C80.5014 112.193 78.7394 109.242 78.0299 111.449C77.5827 112.84 77.6816 114.088 77.0457 115.36C76.2178 117.016 75.6514 117.924 73.7694 117.924C73.138 117.924 72.2877 117.765 71.6844 117.937C71.4575 118.002 71.1314 118.985 70.9593 119.206C70.3307 120.014 69.4785 119.22 69.224 118.52C69.0232 117.968 68.1824 118.157 67.7088 118.157C66.883 118.157 65.7541 119.243 65.4944 120.022" stroke="#FFD8D8" stroke-width="2.10113" stroke-linecap="round" stroke-linejoin="round"/>
<path d="M90.2021 100.441C91.1781 100.441 92.4083 100.264 93.1805 100.959C94.1963 101.874 95.5017 102.073 96.8454 102.073C98.3199 102.073 99.6148 101.743 101.041 102.06C101.614 102.187 101.725 102.972 102.323 103.006C103.003 103.043 103.553 102.772 104.188 102.772C105.527 102.772 106.681 101.676 107.918 101.607C108.51 101.574 109.356 101.399 109.666 101.957C109.877 102.336 110.254 102.931 110.598 103.122C111.295 103.509 113.448 104.637 111.414 104.637C110.11 104.637 108.124 103.907 106.985 104.883C105.852 105.855 104.801 105.127 103.618 105.803C102.636 106.364 100.983 105.681 100.044 105.103C98.579 104.202 98.2207 105.533 97.195 106.502C96.0868 107.549 94.7691 106.628 93.9187 105.919C92.8078 104.993 91.0947 106.502 90.0855 106.502C88.2782 106.502 87.8711 106.008 87.8711 104.171C87.8711 103.034 84.9807 104.404 84.271 104.404C83.0058 104.404 82.2513 103.99 81.3443 103.109C80.6881 102.472 80.5878 101.924 80.127 101.141C79.8455 100.662 79.1331 100.53 78.6637 100.791C77.7757 101.284 77.5047 100.38 77.1485 99.7939C76.4035 98.5668 76.8628 97.3083 76.3327 96.1421C76.1103 95.6527 76.0822 94.5585 76.2291 94.0442C76.4165 93.3883 79.1318 94.3809 79.5961 94.3809C80.4289 94.3809 81.8105 91.8924 81.8105 91.1175C81.8105 90.4421 80.8666 90.3317 80.3083 90.1721C80.0197 90.0897 80.1937 88.8208 80.1788 88.5534C80.1321 87.7115 78.3455 85.7877 77.7313 85.1735C77.1436 84.5858 74.5059 83.4876 74.5845 84.8238C74.636 85.6993 75.9086 87.2948 76.4492 87.9707C76.9997 88.6587 77.566 89.4921 77.6147 90.4182C77.6608 91.2924 76.7605 90.3752 76.3327 90.1851C74.9651 89.5773 74.1183 89.4279 74.1183 91.1175C74.1183 91.7002 74.1183 92.283 74.1183 92.8657C74.1183 93.7881 73.7066 93.2766 73.1859 93.2154C72.3594 93.1181 71.3211 91.5168 71.3211 90.7678C71.3211 89.4351 72.084 88.2045 71.5542 87.0124C70.9551 85.6644 69.4148 85.29 68.0577 85.29C66.7757 85.29 65.4632 86.2309 64.2245 85.5231C63.2548 84.969 62.7957 83.708 61.764 83.1921" stroke="#FFD8D8" stroke-width="2.10113" stroke-linecap="round" stroke-linejoin="round"/>
<path d="M120.971 107.202C118.396 106.915 116.252 103.678 115.623 101.478C115.022 99.3736 112.113 99.3535 110.715 98.1107C110.033 97.5046 108.681 97.4998 107.814 97.6574C107.282 97.7541 105.809 99.0882 105.121 98.2272C104.66 97.6517 103.023 98.6442 103.023 97.2948C103.023 96.8586 102.866 96.1633 103.282 95.8962C104.008 95.4291 105.183 95.0804 106.053 95.0804C107.078 95.0804 108.045 95.6526 108.85 94.8473C109.467 94.2304 109.681 92.1366 109.265 91.3508C109.246 91.3158 104.288 91.44 103.955 91.6357C101.796 92.906 98.9379 94.5819 97.6615 96.8157C97.2546 97.5277 94.9621 97.3626 94.5146 96.8157C93.8792 96.0391 93.4579 95.3722 92.6498 94.7437C91.8697 94.1369 90.4126 94.6722 89.9174 93.6818C89.6623 93.1715 89.0396 90.7199 90.2023 90.6515C91.5998 90.5693 94.9692 90.1141 96.1463 90.7681C97.3726 91.4493 97.5476 91.9191 98.1795 90.4184C98.5563 89.5234 98.8708 88.8318 100.044 88.7867C100.934 88.7525 103.367 89.2454 104.007 88.6054C104.529 88.0833 104.714 86.8169 104.085 86.2226C103.245 85.4295 101.857 86.0408 101.857 84.565C101.857 83.9687 101.739 83.202 101.87 82.6096C101.965 82.1817 102.636 82.0124 102.544 81.6902C101.915 79.4891 98.2881 80.3424 96.742 80.1491C95.672 80.0154 94.8808 78.8782 94.4499 78.0642C94.0323 77.2754 92.2608 78.5304 91.6009 78.5304C88.529 78.5304 92.0335 73.8684 88.8037 73.8684" stroke="#FFD8D8" stroke-width="2.10113" stroke-linecap="round" stroke-linejoin="round"/>
<path d="M115.61 84.3581C116.363 85.1111 117.475 85.1428 117.475 86.456C117.475 87.2434 117.151 89.2097 117.656 89.7711C118.537 90.75 119.262 91.4226 119.34 92.7496C119.39 93.598 119.641 94.7158 120.389 95.3137C120.673 95.5409 121.245 96.1215 121.438 96.3626C121.807 96.8241 122.37 96.7656 122.37 97.5281C122.37 98.1425 122.353 98.5976 122.603 99.1598C122.892 99.8104 123.536 99.8425 123.536 100.675C123.536 101.141 123.396 101.877 123.587 102.307C123.827 102.847 124.235 103.331 124.235 103.938C124.235 105.019 124.037 104.3 123.484 103.938C122.941 103.583 122.3 103.073 121.774 102.773C121.006 102.334 118.585 102.429 118.174 101.711C117.564 100.644 118.027 99.1283 118.356 98.0591C118.918 96.2327 117.227 95.4876 115.843 94.7957C115.468 94.6078 114.465 94.5448 114.73 93.9151C114.949 93.3935 115.197 91.8668 114.665 91.4676C113.126 90.3131 112.114 89.7111 112.114 87.6344C112.114 87.0291 112.289 86.4356 111.751 86.0934C110.925 85.5675 110.01 85.0519 109.317 84.3581C108.788 83.8296 108.338 83.5165 108.384 82.7264C108.411 82.273 109.385 81.9699 109.601 81.5609C110.183 80.462 109.788 78.4887 109.433 77.3522C109.138 76.4075 109.079 75.3566 109.433 74.4514C109.746 73.6506 110.334 73.4734 110.715 72.8067C111.205 71.9494 113.477 70.5451 114.548 70.8513C114.815 70.9275 115.751 71.0053 115.947 71.201C116.306 71.5602 115.961 72.359 116.089 72.8067C116.327 73.6401 119.253 71.4945 119.676 71.0715C120.101 70.647 120.971 70.0325 120.971 69.4398C120.971 68.6303 121.548 68.7405 122.189 68.7405C123.757 68.7405 123.536 67.0784 123.536 65.8397C123.536 64.8281 123.302 63.8394 123.302 62.8094C123.302 62.2412 121.881 62.2621 121.567 62.5763C121.092 63.0518 119.968 64.4548 119.819 65.1274C119.697 65.6762 119.7 66.5271 119.107 66.8239C117.232 67.761 118.038 65.8405 117.009 65.2958C115.74 64.6239 115.49 66.0354 114.911 66.7591C114.057 67.8267 111.264 64.7207 112.01 63.9749C112.968 63.0169 114.465 62.7061 115.61 62.0324C115.977 61.8169 116.19 61.3753 116.594 61.2295C116.992 61.0863 118.151 61.2015 118.356 60.8151C118.512 60.519 118.577 59.0458 118.356 58.769C117.951 58.2627 116.964 58.2061 116.426 57.6683C115.319 56.5616 115.775 55.0318 116.659 53.9517C117.152 53.3491 117.402 53.2966 117.125 52.4106C116.933 51.7963 116.927 50.6343 116.31 50.3257" stroke="#FFD8D8" stroke-width="2.10113" stroke-linecap="round" stroke-linejoin="round"/>
<path d="M115.816 205.284C115.816 203.984 116.306 201.595 117.769 200.84C118.878 200.268 119.082 197.8 118.277 197.031C116.95 195.762 115.113 194.691 115.113 192.745C115.113 191.394 115.072 189.618 115.484 188.319C115.787 187.359 119.464 187.874 120.387 187.825C121.043 187.79 120.68 186.268 120.817 185.85C121.217 184.631 120.879 184.59 119.86 183.875C119.129 183.362 119.157 183.494 118.434 183.681C117.489 183.924 117.134 183.16 116.597 182.676C115.529 181.711 114.915 179.609 113.354 181.723C112.224 183.253 112.261 185.769 110.014 186.22C107.82 186.66 106.965 186.271 105.892 184.333C105.425 183.49 105.298 180.841 106.849 180.841C108.121 180.841 110.893 181.429 110.893 179.73C110.893 178.431 110.654 177.174 111.674 176.15C112.358 175.465 115.521 175.421 116.246 176.009C119.598 178.733 124.203 178.878 126.346 174.687C127.313 172.794 127.772 170.749 127.772 168.461C127.772 167.01 126.365 165.693 126.365 164.176C126.365 162.543 126.474 161.021 127.068 159.45C127.389 158.603 127.72 157.729 128.123 156.91C128.289 156.573 128.296 157.009 127.772 157.034C125.438 157.145 125.118 156.603 124.529 154.741C123.905 152.771 123.723 149.972 121.794 148.604C120.177 147.458 119.125 146.005 117.848 144.724C116.63 143.503 116.41 140.785 115.64 139.24C115.393 138.744 115.005 135.511 114.409 135.448C113.586 135.361 112.919 134.99 112.124 134.831C110.708 134.547 109.008 133.072 108.353 131.956C107.139 129.886 105.97 131.204 105.97 133.067C105.97 134.88 106.793 136.672 107.65 138.305C108.196 139.345 108.844 140.401 109.662 141.303C110.217 141.916 111.286 142.405 111.674 143.067C112.349 144.218 112.389 145.91 112.827 147.176C113.379 148.771 115.385 149.492 115.796 151.161C116.19 152.761 116.731 153.95 117.652 155.447C117.938 155.912 119.667 158.001 120.036 157.669" stroke="white" stroke-width="2.10113" stroke-linecap="round" stroke-linejoin="round"/>
<path d="M159.067 174.175C155.517 172.573 157.857 168.548 154.144 167.35C152.567 166.842 151.292 166.541 149.748 165.922C148.193 165.298 147.62 163.065 145.704 163.065C144.456 163.065 142.305 163.841 141.133 163.312C140.44 162.999 139.745 162.447 139.199 161.954C138.679 161.484 138.245 160.535 137.792 160.208C136.779 159.476 138.117 156.704 137.441 155.605C136.657 154.332 135.413 153.482 135.507 151.955C135.714 148.591 141.896 150.591 143.438 149.398C144.653 148.458 143.792 146.945 145.157 146.241C146.644 145.474 148.035 147.067 149.299 147.828C151.554 149.185 154.615 149.098 157.231 149.098C159.729 149.098 160.43 148.909 161.177 146.717C161.609 145.449 162.185 145.651 160.747 145.218C159.628 144.881 159.425 143.777 158.637 143.137C157.839 142.489 154.774 143.204 153.949 143.543C149.676 145.296 152.364 139.892 149.221 139.892C147.228 139.892 145.236 139.892 143.243 139.892C141.753 139.892 141.133 140.527 140.098 141.462C139.251 142.226 138.452 142.401 137.441 142.908C135.906 143.678 134.367 144.853 132.909 145.765C132.003 146.33 130.058 148.314 128.826 147.758C127.83 147.308 127.067 145.903 127.067 144.971C127.067 143.215 127.863 142.984 129.353 141.938C130.725 140.975 131.756 140.58 133.397 140.051C134.289 139.763 136.763 138.421 134.452 138.305C132.68 138.216 130.874 138.305 129.099 138.305C127.448 138.305 125.996 137.649 124.43 137.335C123.057 137.06 122.496 135.454 122.496 134.337C122.496 132.8 121.017 132.909 119.683 132.909C117.498 132.909 118.375 131.647 117.046 130.686C116.288 130.139 114.408 128.992 114.408 128.147" stroke="white" stroke-width="2.10113" stroke-linecap="round" stroke-linejoin="round"/>
<path d="M156.605 134.178C153.674 134.178 150.738 134.016 147.814 133.861C147.604 133.85 146.652 133.276 146.486 133.156C145.921 132.748 145.03 132.909 144.298 132.909C143.487 132.909 140.245 133.336 139.726 132.75C139.13 132.077 137.083 131.284 136.21 130.934C134.448 130.227 133.208 131.574 131.639 132.203C130.401 132.7 129.336 130.614 128.318 130.352C127.757 130.207 125.1 129.045 125.329 128.324C125.705 127.133 128.903 127.195 129.88 127.195C131.613 127.195 133.345 127.195 135.077 127.195C137.237 127.195 138.379 127.395 140.254 128.147C141.974 128.837 142.69 129.417 144.649 129.417C146.476 129.417 148.03 128.782 149.924 128.782C151.857 128.782 152.342 130.369 154.222 130.369C157.054 130.369 159.223 128.147 162.036 128.147C165.324 128.147 165.708 133.165 169.089 133.843C170.742 134.175 172.403 133.644 174.031 134.178C175.835 134.771 178.008 136.596 178.681 138.235C179.615 140.511 179.607 141.789 178.407 144.019C177.479 145.744 174.604 145.543 172.8 144.83C171.822 144.444 170.841 143.93 169.792 143.719C168.947 143.55 169.264 144.996 169.264 145.43C169.264 146.071 169.264 146.711 169.264 147.352C169.264 148.288 170.537 148.598 170.945 149.415C171.676 150.883 170.285 152.699 171.648 153.93C172.751 154.926 174.341 155.268 175.418 156.24C176.876 157.556 177.561 159.385 179.286 157.828C180.46 156.768 180.215 153.328 179.111 152.272C177.682 150.907 179.381 148.551 181.22 148.463C182.097 148.421 182.454 149.145 183.33 149.098C184.023 149.061 183.688 147.641 184.248 147.528C186.632 147.05 187.198 148.038 187.198 149.874C187.198 151.975 184.703 152.83 187.902 153.472C190.146 153.922 195.57 152.518 196.693 155.306C197.397 157.054 198.892 158.547 199.506 160.208" stroke="white" stroke-width="2.10113" stroke-linecap="round" stroke-linejoin="round"/>
<path d="M81.706 178.302C81.706 174.782 87.3323 177.078 87.3323 174.334C87.3323 173.552 87.3425 172.882 86.9806 172.147C86.7304 171.639 85.9448 171.45 85.6522 171.001C84.4205 169.111 86.7061 167.678 85.2224 165.851C83.9954 164.341 81.0027 161.349 81.0027 159.397C81.0027 157.115 83.5364 155.446 86.1015 155.446C88.5309 155.446 88.046 152.944 88.8951 151.496C90.456 148.835 91.4747 149.269 93.74 150.685C94.9886 151.465 96.7336 152.693 98.0574 153.224C98.9562 153.585 102.453 153.391 102.453 154.353C102.453 156.271 100.802 157.741 100.695 159.573C100.547 162.102 101.722 162.899 103.586 164.581C104.828 165.703 104.671 166.874 106.848 166.874C109.194 166.874 111.287 166.239 113.686 166.239C115.009 166.239 115.355 166.472 114.565 165.11C113.828 163.84 112.685 163.095 111.596 162.112C110.809 161.402 108.079 160.216 108.079 159.256C108.079 158.482 107.87 157.244 108.783 156.787C109.844 156.254 109.608 156.821 109.857 155.587C110.077 154.493 110.896 151.576 109.662 150.685C109.221 150.366 109.237 149.89 108.607 149.574C107.92 149.229 107.046 149.142 106.321 148.851C104.6 148.16 100.7 149.279 99.3663 148.075C98.9611 147.709 98.9552 146.761 98.5067 146.311C97.9018 145.704 96.9651 145.155 96.1429 144.83C94.7892 144.295 90.8487 142.579 90.8487 141.003C90.8487 139.383 94.2126 139.196 95.4201 139.257C96.669 139.32 97.7683 140.999 98.663 141.726C100.086 142.882 101.33 143.132 102.98 141.973C104.098 141.188 106.252 144.224 104.563 141.021C103.616 139.225 101.594 137.866 100.773 136.012C100.474 135.338 100.129 134.903 100.91 134.354C102.047 133.556 102.669 133.991 101.75 132.838C100.883 131.751 99.2881 130.29 99.2881 128.94C99.2881 126.931 101.054 126.112 102.648 125.29C105.109 124.021 103.806 122.706 104.836 120.846C105.173 120.237 108.498 120.332 108.783 120.846" stroke="white" stroke-width="2.10113" stroke-linecap="round" stroke-linejoin="round"/>
<path d="M127.771 122.115C129.519 122.115 131.228 122.432 133.046 122.432C134.083 122.432 136.665 122.427 137.617 122.044C140.838 120.752 142.745 118.297 145.197 116.084C146.362 115.032 147.435 113.804 148.518 112.768C148.663 112.629 150.323 110.597 150.608 111.499C150.888 112.381 151.019 113.173 150.979 114.109C150.921 115.492 144.952 121.566 149.573 121.798C152.308 121.935 152.197 120.868 153.793 119.258C154.514 118.531 156.193 116.127 156.254 115.131C156.294 114.488 156.606 114.098 156.606 113.386C156.606 112.626 155.642 112.298 155.551 111.64C155.433 110.789 153.835 109.588 153.363 108.783C152.833 107.879 152.657 104.768 153.441 104.021C154.949 102.584 156.41 103.386 158.364 103.386C160.138 103.386 161.589 103.508 162.857 102.363C164.264 101.093 163.644 98.76 164.068 97.0375C164.346 95.9108 166.317 92.5273 167.585 94.8155C168.38 96.2504 168.562 97.3502 168.562 98.9422C168.562 100.494 169.467 105.922 168.21 106.631C167.606 106.972 167.501 107.83 166.628 107.83C165.771 107.83 165.136 107.593 164.342 107.513C162.987 107.377 160.767 105.898 160.474 108.148C160.344 109.146 159.511 110.979 160.474 111.957C161.319 112.816 162.265 114.824 161.255 115.837C160.351 116.743 159.015 118.738 159.692 119.893C160.015 120.444 161.337 120.279 161.88 120.034C163.119 119.475 163.198 118.941 164.694 118.941C165.856 118.941 167.163 118.57 167.526 119.717C167.703 120.275 168.194 121.2 168.562 121.727C169.408 122.941 169.405 123.776 171.355 123.226C172.036 123.034 173.267 122.805 173.758 122.362C174.296 121.877 174.365 120.717 175.067 120.21C176.34 119.291 176.936 117.214 178.056 116.084C178.615 115.52 178.634 114.497 179.638 114.497C180.68 114.497 181.412 115.3 181.846 116.084C181.971 116.309 182.627 117.643 182.627 116.56C182.627 115.686 183.511 114.902 183.956 114.179C184.807 112.796 186.887 113.764 187.902 114.25C189.746 115.131 190.663 113.526 192.473 114.179" stroke="white" stroke-width="2.10113" stroke-linecap="round" stroke-linejoin="round"/>
<path d="M154.496 94.1807C153.79 94.4994 153.077 94.8571 152.387 95.2035C151.235 95.7812 151.447 96.7247 150.98 97.6725C150.067 99.5278 150.38 101.381 149.222 103.21C148.555 104.264 146.096 104.219 145.08 105.044C144.639 105.402 144.1 105.611 143.674 105.996C143.073 106.539 143.1 107.314 142.697 107.989C141.173 110.544 140.982 113.917 138.751 116.154C138.225 116.682 135.752 117.801 135.156 116.86C134.471 115.778 134.804 114.133 134.804 112.909C134.804 111.419 134.101 110.427 134.101 109.03C134.101 106.534 135.375 106.998 137.09 105.45C137.83 104.781 138.029 104.304 138.497 103.545C138.917 102.861 138.492 101.733 139.376 101.235C140.37 100.674 140.924 99.8088 142.189 99.5066C142.878 99.3418 143.947 99.2871 143.947 98.4661C143.947 97.2671 143.634 94.5865 144.865 93.8456C146.078 93.116 147.054 92.911 148.518 92.911C149.389 92.911 150.277 93.5231 150.277 92.5935C150.277 90.8999 150.98 89.3507 150.98 87.6556C150.98 84.2377 155.762 83.8344 158.638 82.9999C161.842 82.0703 164.685 78.7286 168.386 80.2135C170.653 81.123 174.593 84.3814 172.958 87.0384C172.322 88.0719 170.401 91.5136 172.469 91.3061C174.84 91.0683 177.075 89.4191 179.385 89.4191C180.478 89.4191 180.916 89.3201 181.651 89.9835C182.244 90.5186 183.549 91.3238 184.386 91.3238C185.283 91.3238 186.496 91.6878 186.496 90.6536C186.496 90.0026 187.385 87.5061 186.769 86.9502C185.002 85.3547 178.041 87.2279 180.166 82.9117C180.623 81.984 174.414 81.5117 175.322 80.6015C176.281 79.6392 177.965 79.5786 179.287 79.5786C181.622 79.5786 182.192 80.3939 183.155 81.9594C184.216 83.6829 186.94 81.8423 187.981 81.1658C189.208 80.368 190.421 79.6681 191.497 78.6968C192.131 78.1251 193.03 76.3576 193.705 76.0868C196.236 75.0712 197.161 77.3914 199.155 77.9914" stroke="white" stroke-width="2.10113" stroke-linecap="round" stroke-linejoin="round"/>
<path d="M129.882 114.814C129.882 110.91 130.171 107.878 131.913 104.338C133.391 101.336 131.539 97.6257 130.233 94.9741C129.627 93.7422 128.84 92.2115 127.42 91.5704C125.825 90.8504 124.934 89.1136 126.541 88.3079C130.605 86.2699 132.286 91.2032 134.375 93.2987C137.057 95.9891 142.292 91.4503 138.595 89.1015C137.518 88.4178 136.315 87.1649 134.98 86.8971C134.017 86.7039 133.331 86.7477 133.027 85.786C132.488 84.0835 130.007 84.1516 128.846 82.9291C127.849 81.8784 124.706 83.6183 123.826 82.8233C122.725 81.83 123.284 79.6627 122.673 78.4497C122.397 77.9012 122.145 76.696 122.145 76.0866C122.145 75.0815 123.974 75.6324 123.826 75.2754C123.186 73.7367 124.301 72.1425 122.771 70.7607C122.116 70.1697 121.207 69.9859 120.583 69.2617C120.183 68.7981 120.085 67.1984 120.915 67.1984C122.497 67.1984 124.079 67.1984 125.662 67.1984C126.654 67.1984 129.53 68.5589 129.53 69.5791C129.53 71.1576 129.178 72.9368 129.178 74.3407C129.178 75.1171 129.158 75.7139 129.608 76.404C130.039 77.0647 131.304 76.4982 131.913 77.1094C133.541 78.7421 129.694 80.5307 133.945 80.5307C135.663 80.5307 137.486 79.5787 138.243 81.5536C138.585 82.4463 139.144 83.1655 140.079 83.6345C141.673 84.434 140.589 83.9152 141.564 82.9997C142.473 82.1465 142.892 82.2656 142.892 81.0069C142.892 80.0451 143.116 78.9329 143.791 78.1499C145.34 76.3517 148.293 77.796 149.925 76.404C151.691 74.8985 149.941 73.3711 149.554 71.8012C149.28 70.6896 146.584 69.4426 145.549 69.103C144.555 68.7765 144.651 67.4949 144.651 66.7398C144.651 65.5399 145.077 63.5438 144.572 62.4368C144.377 62.008 145.178 61.3259 145.53 61.0083C145.793 60.7707 146.919 60.266 146.956 59.9679C147.001 59.6041 146.15 59.7101 145.901 59.4212C143.815 57.0007 147.149 57.4441 148.87 57.3578C151.362 57.2329 149.984 54.5541 148.87 53.5486" stroke="white" stroke-width="2.10113" stroke-linecap="round" stroke-linejoin="round"/>
<path d="M30.3654 160.843C32.4071 160.843 34.1505 160.208 36.1675 160.208C39.2916 160.208 39.1899 157.73 40.9147 156.082C42.6246 154.447 42.5198 153.859 45.3102 153.859C48.9594 153.859 45.8337 157.872 47.4396 158.286C49.1868 158.737 52.4235 156.396 53.3003 155.129C53.5616 154.752 57.2236 152.272 54.4529 152.272C53.564 152.272 52.5046 152.428 51.6398 152.255C50.9672 152.12 49.8057 150.736 50.4872 150.121C51.0254 149.635 54.566 148.085 52.5189 147.264C50.2954 146.372 47.3722 146.558 44.9586 146.558C44.283 146.558 41.9696 146.918 41.9696 146.082C41.9696 145.093 42.3127 144.485 43.1027 143.772C44.5068 142.505 47.5439 142.432 49.3736 142.432C50.6503 142.432 51.6862 142.623 52.8705 142.749C53.3207 142.797 53.2915 143.274 53.7497 143.366C54.1849 143.454 54.7113 143.384 55.1562 143.384C56.0403 143.384 56.6874 142.749 57.6177 142.749C58.4912 142.749 58.9059 144.408 59.122 145.042C59.7714 146.947 57.6075 148.113 58.1647 149.874C58.5233 151.007 61.4081 151.517 62.3649 152.025C63.1372 152.435 63.7658 153.61 64.1231 154.336C64.8633 155.839 67.8047 154.336 69.1243 153.859C69.7303 153.641 76.5748 150.98 74.8483 149.733C73.3661 148.662 78.3654 148.146 78.8922 148.146C81.0822 148.146 80.6708 145.845 81.8811 144.971C82.6146 144.442 82.366 143.479 82.4086 142.749C82.4789 141.544 83.6954 140.452 84.6943 139.751C85.0992 139.467 87.2266 139.351 87.3121 139.081C87.5464 138.341 87.9398 137.533 88.0349 136.718C88.1273 135.925 89.0409 135.291 89.0898 134.496C89.1417 133.654 88.7382 132.969 88.7382 132.115C88.7382 130.834 90.561 130.98 90.8285 129.893C91.1422 128.619 92.1728 129.075 92.8798 128.147C93.1947 127.734 94.1568 127.613 94.3449 127.018C94.6347 126.103 93.6535 125.356 94.1691 124.338C94.6946 123.3 95.0768 123.131 95.8492 122.504C96.8483 121.692 96.826 121.743 96.826 120.37C96.826 119.629 96.826 118.889 96.826 118.148C96.826 117.779 96.8034 117.405 96.826 117.037C96.8451 116.726 97.671 116.061 97.4511 115.838C97.0768 115.457 94.7889 115.767 94.2863 115.767C92.7903 115.767 93.0534 116.118 92.4109 117.196C91.7392 118.322 90.2288 119.481 90.1448 120.846C90.1136 121.352 90.4293 122.736 89.9689 123.068C89.6694 123.284 89.2979 124.709 89.0898 125.131C88.6826 125.959 88.3229 126.677 87.3316 127.124C86.6155 127.447 85.77 126.933 85.1436 127.442C84.3012 128.126 83.6703 128.794 83.4831 129.893C83.3883 130.449 83.8317 132.198 83.2877 132.591C82.6164 133.076 82.0412 134.141 81.6272 134.813C81.0895 135.687 80.0945 136.705 79.4001 137.511C78.7352 138.283 77.5005 138.582 77.1339 139.575" stroke="white" stroke-width="2.10113" stroke-linecap="round" stroke-linejoin="round"/>
<path d="M107.377 106.561C104.406 109.243 100.253 107.586 97.1789 110.053C96.3343 110.731 93.7414 110.891 92.6076 111.005C90.7089 111.196 89.6871 112.767 88.9153 114.021C88.5995 114.534 88.7513 115.377 88.212 115.767C87.7976 116.066 86.4408 116.321 86.278 116.578C85.432 117.914 86.1873 119.723 85.3989 121.004C84.7372 122.08 85.3416 123.703 83.289 123.703C81.3797 123.703 81.0254 122.332 80.0265 121.093C79.2158 120.086 80.3018 116.152 80.9252 115.379C81.4435 114.735 81.503 114.366 82.4099 113.933C82.9945 113.653 84.1681 112.932 84.1681 112.275C84.1681 111.214 81.2286 110.004 80.3 110.053C79.2047 110.111 77.5087 112.627 77.1353 113.386C76.4721 114.733 75.377 115.547 75.377 117.195C75.377 117.789 75.0254 118.384 75.0254 119.1C75.0254 119.835 75.5138 120.087 75.7091 120.705C76.5394 123.328 77.9372 126.209 76.3538 128.782C75.2261 130.614 73.4951 129.023 71.8606 129.804C70.1754 130.61 70.2981 133.225 69.6726 134.495C68.8202 136.227 67.8001 136.083 65.8827 136.083C63.3483 136.083 62.7179 133.002 62.7179 131.162C62.7179 130.045 65.6138 128.607 66.7618 128.147C68.356 127.507 67.0115 124.972 69.2233 124.972C71.4687 124.972 69.9203 122.772 69.2233 121.639C68.6822 120.76 68.6958 120.091 68.6958 119.1C68.6958 117.687 69.4627 117.677 70.0242 116.719C70.685 115.592 69.3092 114.414 68.774 113.545C68.4311 112.988 67.2276 113.227 66.5859 113.227C65.4965 113.227 65.8787 114.46 65.1794 114.497C64.0167 114.559 63.0543 114.402 62.0146 113.933C60.0385 113.041 57.3805 109.022 56.3101 112.028C55.6356 113.923 55.7847 115.622 54.8254 117.354C53.5765 119.609 52.722 120.846 49.8829 120.846C48.9304 120.846 47.6477 120.629 46.7376 120.863C46.3953 120.952 45.9033 122.29 45.6436 122.592C44.6953 123.692 43.4099 122.61 43.0258 121.657C42.7229 120.905 41.4546 121.163 40.7401 121.163C39.4943 121.163 37.7913 122.642 37.3995 123.703" stroke="white" stroke-width="2.10113" stroke-linecap="round" stroke-linejoin="round"/>
<path d="M74.6727 97.0379C76.1452 97.0379 78.0009 96.7968 79.166 97.7433C80.6982 98.9882 82.6676 99.26 84.6946 99.26C86.919 99.26 88.8725 98.8107 91.0242 99.2423C91.8882 99.4157 92.056 100.484 92.9582 100.53C93.9838 100.581 94.8134 100.212 95.7713 100.212C97.7913 100.212 99.5316 98.7187 101.398 98.6251C102.292 98.5803 103.568 98.3422 104.035 99.1013C104.353 99.6184 104.922 100.428 105.442 100.688C106.493 101.216 109.741 102.752 106.672 102.752C104.704 102.752 101.71 101.757 99.9911 103.087C98.2816 104.41 96.6966 103.418 94.9118 104.339C93.4308 105.103 90.937 104.174 89.5199 103.387C87.3098 102.159 86.7694 103.972 85.222 105.291C83.5503 106.717 81.5624 105.463 80.2795 104.498C78.6036 103.237 76.0193 105.291 74.4969 105.291C71.7705 105.291 71.1563 104.618 71.1563 102.117C71.1563 100.568 66.796 102.434 65.7254 102.434C63.8168 102.434 62.6785 101.871 61.3103 100.671C60.3204 99.8027 60.169 99.0569 59.4739 97.9902C59.0492 97.3385 57.9745 97.1589 57.2664 97.5141C55.9268 98.1859 55.5179 96.9549 54.9807 96.1562C53.8568 94.4851 54.5496 92.7712 53.7499 91.183C53.4144 90.5166 53.372 89.0264 53.5937 88.326C53.8763 87.4329 57.9725 88.7846 58.6729 88.7846C59.9293 88.7846 62.0136 85.3958 62.0136 84.3405C62.0136 83.4207 60.5896 83.2703 59.7474 83.0531C59.312 82.9408 59.5745 81.2128 59.5521 80.8487C59.4815 79.7022 56.7864 77.0823 55.8598 76.2458C54.9732 75.4455 50.994 73.9499 51.1126 75.7697C51.1903 76.9619 53.1101 79.1347 53.9258 80.0551C54.7561 80.992 55.6105 82.127 55.684 83.3881C55.7534 84.5787 54.3953 83.3296 53.7499 83.0707C51.6868 82.2429 50.4093 82.0395 50.4093 84.3405C50.4093 85.134 50.4093 85.9276 50.4093 86.7212C50.4093 87.9774 49.7884 87.2808 49.0028 87.1974C47.756 87.065 46.1896 84.8842 46.1896 83.8643C46.1896 82.0493 47.3405 80.3735 46.5412 78.75C45.6374 76.9143 43.3139 76.4045 41.2666 76.4045C39.3327 76.4045 37.3526 77.6859 35.484 76.722C34.0211 75.9673 33.3286 74.2501 31.7722 73.5476" stroke="white" stroke-width="2.10113" stroke-linecap="round" stroke-linejoin="round"/>
<path d="M121.09 106.244C117.206 105.854 113.97 101.445 113.022 98.449C112.115 95.5837 107.727 95.5562 105.618 93.8638C104.589 93.0385 102.549 93.0319 101.242 93.2465C100.439 93.3782 98.2173 95.195 97.1782 94.0225C96.4836 93.2387 94.0134 94.5904 94.0134 92.7527C94.0134 92.1587 93.7774 91.2118 94.4041 90.8481C95.5003 90.2119 97.2724 89.7371 98.5847 89.7371C100.131 89.7371 101.59 90.5164 102.804 89.4196C103.735 88.5795 104.057 85.7281 103.43 84.6581C103.402 84.6105 95.9218 84.7796 95.4199 85.0461C92.1621 86.776 87.8512 89.0582 85.9256 92.1002C85.3117 93.0699 81.8535 92.8451 81.1784 92.1002C80.2198 91.0426 79.5843 90.1345 78.3652 89.2786C77.1883 88.4522 74.9902 89.1812 74.2432 87.8325C73.8583 87.1375 72.919 83.7989 74.673 83.7058C76.7812 83.5938 81.8642 82.974 83.6399 83.8645C85.4898 84.7922 85.7538 85.432 86.707 83.3883C87.2755 82.1695 87.7499 81.2278 89.5201 81.1663C90.8628 81.1197 94.5326 81.7909 95.4981 80.9194C96.2857 80.2084 96.5645 78.4838 95.6153 77.6745C94.3485 76.5944 92.2551 77.4269 92.2551 75.4172C92.2551 74.605 92.0761 73.5609 92.2747 72.7542C92.4181 72.1715 93.4295 71.941 93.2905 71.5021C92.3419 68.5047 86.8708 69.6667 84.5385 69.4035C82.9243 69.2213 81.7308 67.6727 81.0807 66.5642C80.4508 65.4901 77.7784 67.1991 76.7828 67.1991C72.1487 67.1991 77.4354 60.8503 72.5631 60.8503" stroke="white" stroke-width="2.10113" stroke-linecap="round" stroke-linejoin="round"/>
<path d="M113.002 75.1348C114.138 76.1603 115.815 76.2035 115.815 77.9918C115.815 79.0641 115.326 81.7418 116.089 82.5064C117.418 83.8395 118.511 84.7554 118.628 86.5626C118.704 87.7179 119.083 89.2401 120.211 90.0544C120.639 90.3637 121.502 91.1544 121.793 91.4828C122.35 92.1112 123.2 92.0315 123.2 93.07C123.2 93.9067 123.174 94.5264 123.551 95.2921C123.988 96.178 124.958 96.2217 124.958 97.3554C124.958 97.9905 124.748 98.9924 125.036 99.5775C125.398 100.313 126.013 100.973 126.013 101.8C126.013 103.271 125.714 102.292 124.88 101.8C124.06 101.316 123.093 100.621 122.301 100.212C121.141 99.6141 117.49 99.7446 116.87 98.7662C115.95 97.3127 116.647 95.2492 117.144 93.7931C117.991 91.3058 115.441 90.2912 113.354 89.3489C112.787 89.093 111.274 89.0072 111.674 88.1497C112.005 87.4394 112.379 85.3603 111.576 84.8166C109.254 83.2444 107.727 82.4247 107.727 79.5966C107.727 78.7722 107.992 77.964 107.18 77.498C105.934 76.7819 104.554 76.0797 103.508 75.1348C102.711 74.4152 102.031 73.9888 102.101 72.9128C102.141 72.2953 103.611 71.8826 103.938 71.3256C104.815 69.8291 104.219 67.1419 103.684 65.5941C103.238 64.3076 103.149 62.8766 103.684 61.6438C104.156 60.5532 105.043 60.3119 105.618 59.4041C106.357 58.2365 109.784 56.3242 111.4 56.7411C111.803 56.8449 113.215 56.9509 113.51 57.2173C114.052 57.7066 113.532 58.7943 113.725 59.4041C114.084 60.5389 118.498 57.6171 119.136 57.0409C119.777 56.4629 121.09 55.6261 121.09 54.8189C121.09 53.7165 121.959 53.8666 122.926 53.8666C125.292 53.8666 124.958 51.6032 124.958 49.9162C124.958 48.5387 124.606 47.1923 124.606 45.7896C124.606 45.0158 122.463 45.0442 121.989 45.4721C121.271 46.1197 119.577 48.0303 119.351 48.9463C119.167 49.6936 119.172 50.8523 118.277 51.2565C115.449 52.5328 116.664 49.9173 115.112 49.1756C113.198 48.2606 112.821 50.1828 111.947 51.1684C110.659 52.6222 106.446 48.3924 107.571 47.3767C109.016 46.0721 111.275 45.6488 113.002 44.7314C113.555 44.438 113.876 43.8365 114.487 43.638C115.087 43.443 116.835 43.5999 117.144 43.0737C117.38 42.6704 117.478 40.6642 117.144 40.2873C116.533 39.5978 115.044 39.5208 114.233 38.7883C112.563 37.2812 113.251 35.1979 114.585 33.727C115.328 32.9064 115.705 32.8348 115.288 31.6284C114.998 30.7917 114.988 29.2093 114.057 28.7891" stroke="white" stroke-width="2.10113" stroke-linecap="round" stroke-linejoin="round"/>
<path d="M116.111 231.548C116.111 229.857 116.766 226.75 118.72 225.768C120.201 225.024 120.472 221.814 119.398 220.814C117.626 219.164 115.172 217.77 115.172 215.24C115.172 213.482 115.118 211.173 115.668 209.483C116.073 208.235 120.982 208.905 122.216 208.841C123.092 208.796 122.606 206.816 122.79 206.272C123.324 204.686 122.872 204.634 121.511 203.703C120.536 203.036 120.572 203.208 119.607 203.451C118.346 203.768 117.871 202.773 117.155 202.144C115.728 200.89 114.909 198.156 112.824 200.905C111.315 202.895 111.364 206.167 108.363 206.754C105.434 207.326 104.292 206.82 102.858 204.3C102.235 203.203 102.066 199.758 104.137 199.758C105.836 199.758 109.537 200.523 109.537 198.313C109.537 196.623 109.218 194.988 110.58 193.657C111.493 192.765 115.718 192.708 116.685 193.474C121.162 197.016 127.311 197.204 130.173 191.753C131.465 189.291 132.077 186.632 132.077 183.657C132.077 181.769 130.199 180.057 130.199 178.083C130.199 175.959 130.344 173.98 131.138 171.936C131.565 170.835 132.008 169.698 132.547 168.633C132.768 168.195 132.777 168.762 132.077 168.794C128.96 168.938 128.533 168.234 127.746 165.812C126.914 163.25 126.671 159.61 124.094 157.83C121.936 156.339 120.53 154.45 118.824 152.784C117.198 151.196 116.905 147.661 115.876 145.651C115.546 145.006 115.028 140.802 114.233 140.72C113.133 140.606 112.242 140.124 111.18 139.917C109.29 139.547 107.02 137.63 106.145 136.178C104.524 133.486 102.963 135.2 102.963 137.623C102.963 139.981 104.062 142.312 105.206 144.435C105.935 145.789 106.801 147.161 107.893 148.335C108.635 149.131 110.062 149.768 110.58 150.628C111.482 152.126 111.535 154.327 112.12 155.972C112.857 158.048 115.536 158.985 116.085 161.156C116.611 163.237 117.334 164.784 118.563 166.73C118.946 167.335 121.254 170.053 121.746 169.62" stroke="#FAC9C9" stroke-width="2.10113" stroke-linecap="round" stroke-linejoin="round"/>
<path d="M173.869 191.088C169.128 189.004 172.253 183.769 167.294 182.212C165.188 181.551 163.486 181.159 161.425 180.354C159.347 179.542 158.582 176.638 156.024 176.638C154.357 176.638 151.484 177.647 149.92 176.959C148.994 176.553 148.067 175.835 147.337 175.193C146.642 174.583 146.063 173.348 145.459 172.923C144.106 171.971 145.892 168.365 144.989 166.936C143.943 165.28 142.281 164.175 142.406 162.188C142.683 157.813 150.938 160.415 152.998 158.863C154.62 157.64 153.471 155.673 155.294 154.757C157.279 153.76 159.137 155.832 160.825 156.821C163.836 158.586 167.923 158.473 171.416 158.473C174.753 158.473 175.689 158.227 176.686 155.376C177.263 153.727 178.032 153.989 176.112 153.427C174.618 152.989 174.347 151.552 173.295 150.72C172.229 149.877 168.135 150.807 167.034 151.248C161.328 153.528 164.917 146.5 160.72 146.5C158.059 146.5 155.398 146.5 152.737 146.5C150.748 146.5 149.919 147.326 148.537 148.541C147.406 149.536 146.339 149.763 144.989 150.422C142.939 151.423 140.884 152.952 138.937 154.138C137.728 154.873 135.129 157.453 133.484 156.729C132.155 156.145 131.136 154.318 131.136 153.106C131.136 150.822 132.199 150.521 134.189 149.16C136.02 147.908 137.398 147.394 139.589 146.706C140.781 146.332 144.084 144.586 140.998 144.436C138.632 144.32 136.219 144.436 133.849 144.436C131.644 144.436 129.706 143.583 127.614 143.174C125.781 142.816 125.032 140.727 125.032 139.275C125.032 137.276 123.057 137.417 121.275 137.417C118.357 137.417 119.529 135.776 117.753 134.527C116.741 133.815 114.231 132.324 114.231 131.224" stroke="#FAC9C9" stroke-width="2.10113" stroke-linecap="round" stroke-linejoin="round"/>
<path d="M170.582 139.069C166.667 139.069 162.746 138.858 158.842 138.656C158.562 138.641 157.29 137.894 157.068 137.738C156.314 137.208 155.123 137.417 154.146 137.417C153.064 137.417 148.734 137.972 148.041 137.211C147.245 136.335 144.512 135.304 143.346 134.848C140.993 133.929 139.337 135.681 137.241 136.5C135.588 137.145 134.166 134.433 132.806 134.091C132.058 133.904 128.509 132.393 128.814 131.454C129.318 129.905 133.588 129.986 134.893 129.986C137.206 129.986 139.519 129.986 141.832 129.986C144.717 129.986 146.242 130.246 148.746 131.224C151.042 132.122 151.999 132.876 154.616 132.876C157.055 132.876 159.13 132.05 161.659 132.05C164.24 132.05 164.888 134.114 167.399 134.114C171.18 134.114 174.077 131.224 177.834 131.224C182.224 131.224 182.737 137.751 187.252 138.633C189.46 139.064 191.678 138.374 193.852 139.069C196.261 139.839 199.163 142.212 200.061 144.344C201.308 147.305 201.298 148.967 199.696 151.867C198.457 154.11 194.617 153.849 192.209 152.922C190.901 152.42 189.592 151.751 188.191 151.477C187.063 151.257 187.487 153.138 187.487 153.702C187.487 154.536 187.487 155.369 187.487 156.202C187.487 157.419 189.186 157.823 189.73 158.886C190.707 160.795 188.849 163.157 190.669 164.758C192.142 166.052 194.266 166.498 195.704 167.762C197.651 169.474 198.566 171.852 200.87 169.826C202.437 168.449 202.11 163.975 200.635 162.601C198.727 160.826 200.997 157.761 203.453 157.647C204.623 157.593 205.099 158.533 206.27 158.473C207.196 158.425 206.748 156.578 207.496 156.432C210.68 155.81 211.436 157.095 211.436 159.482C211.436 162.214 208.103 163.327 212.375 164.161C215.371 164.747 222.615 162.922 224.114 166.547C225.055 168.821 227.052 170.762 227.871 172.923" stroke="#FAC9C9" stroke-width="2.10113" stroke-linecap="round" stroke-linejoin="round"/>
<path d="M70.5606 196.455C70.5606 191.878 78.074 194.864 78.074 191.295C78.074 190.278 78.0877 189.407 77.6044 188.451C77.2703 187.79 76.2212 187.544 75.8304 186.96C74.1856 184.501 77.2378 182.638 75.2565 180.262C73.6179 178.298 69.6215 174.407 69.6215 171.867C69.6215 168.9 73.005 166.73 76.4305 166.73C79.6747 166.73 79.0271 163.475 80.1611 161.592C82.2454 158.13 83.6058 158.696 86.6309 160.537C88.2983 161.552 90.6285 163.149 92.3964 163.84C93.5966 164.309 98.2662 164.057 98.2662 165.308C98.2662 167.802 96.0609 169.714 95.9183 172.097C95.7214 175.385 97.2899 176.422 99.7793 178.611C101.438 180.069 101.229 181.593 104.136 181.593C107.268 181.593 110.064 180.767 113.267 180.767C115.034 180.767 115.496 181.069 114.441 179.299C113.457 177.647 111.93 176.678 110.475 175.4C109.425 174.476 105.78 172.933 105.78 171.684C105.78 170.678 105.501 169.068 106.719 168.473C108.137 167.78 107.822 168.518 108.154 166.913C108.448 165.49 109.541 161.696 107.893 160.537C107.304 160.123 107.325 159.503 106.484 159.092C105.567 158.644 104.4 158.53 103.432 158.151C101.134 157.254 95.9257 158.708 94.1443 157.142C93.6032 156.666 93.5953 155.434 92.9964 154.849C92.1886 154.059 90.9377 153.344 89.8397 152.922C88.0321 152.227 82.7699 149.995 82.7699 147.945C82.7699 145.838 87.262 145.595 88.8745 145.674C90.5423 145.755 92.0103 147.94 93.2051 148.885C95.1048 150.388 96.7667 150.713 98.9706 149.206C100.463 148.185 103.34 152.133 101.084 147.968C99.8188 145.632 97.1198 143.865 96.0226 141.454C95.6237 140.577 95.1623 140.011 96.2052 139.298C97.7237 138.259 98.5549 138.824 97.327 137.325C96.1696 135.912 94.0399 134.012 94.0399 132.256C94.0399 129.643 96.3985 128.578 98.5271 127.508C101.813 125.857 100.073 124.148 101.449 121.728C101.899 120.937 106.339 121.06 106.719 121.728" stroke="#FAC9C9" stroke-width="2.10113" stroke-linecap="round" stroke-linejoin="round"/>
<path d="M132.076 123.379C134.41 123.379 136.692 123.792 139.12 123.792C140.505 123.792 143.952 123.785 145.224 123.288C149.525 121.607 152.072 118.414 155.347 115.535C156.902 114.168 158.335 112.57 159.782 111.223C159.975 111.043 162.192 108.4 162.573 109.572C162.946 110.72 163.122 111.75 163.069 112.966C162.99 114.765 155.019 122.665 161.19 122.967C164.843 123.145 164.695 121.757 166.825 119.664C167.788 118.718 170.031 115.591 170.112 114.297C170.165 113.46 170.582 112.953 170.582 112.026C170.582 111.038 169.295 110.611 169.173 109.755C169.016 108.649 166.882 107.087 166.251 106.039C165.544 104.864 165.309 100.818 166.356 99.8466C168.369 97.978 170.321 99.0209 172.93 99.0209C175.299 99.0209 177.237 99.1791 178.93 97.6906C180.809 96.0389 179.981 93.004 180.548 90.7638C180.918 89.2983 183.551 84.8977 185.244 87.8738C186.305 89.7401 186.548 91.1704 186.548 93.2409C186.548 95.2596 187.757 102.319 186.078 103.241C185.272 103.684 185.132 104.801 183.965 104.801C182.821 104.801 181.973 104.492 180.913 104.388C179.104 104.211 176.139 102.288 175.747 105.214C175.574 106.511 174.461 108.896 175.747 110.168C176.877 111.285 178.139 113.897 176.791 115.214C175.584 116.393 173.799 118.987 174.704 120.489C175.135 121.206 176.9 120.992 177.626 120.673C179.28 119.946 179.386 119.251 181.382 119.251C182.934 119.251 184.68 118.768 185.165 120.26C185.401 120.986 186.057 122.189 186.548 122.875C187.678 124.454 187.675 125.54 190.279 124.824C191.188 124.575 192.831 124.277 193.487 123.701C194.205 123.069 194.298 121.562 195.235 120.902C196.935 119.707 197.731 117.005 199.227 115.535C199.973 114.802 199.999 113.471 201.34 113.471C202.731 113.471 203.708 114.516 204.288 115.535C204.454 115.828 205.331 117.563 205.331 116.154C205.331 115.018 206.512 113.998 207.105 113.058C208.242 111.259 211.019 112.519 212.375 113.15C214.838 114.296 216.063 112.208 218.48 113.058" stroke="#FAC9C9" stroke-width="2.10113" stroke-linecap="round" stroke-linejoin="round"/>
<path d="M167.765 87.048C166.822 87.4624 165.87 87.9277 164.948 88.3783C163.409 89.1296 163.692 90.3567 163.069 91.5894C161.849 94.0024 162.268 96.4121 160.721 98.7915C159.831 100.162 156.547 100.104 155.191 101.177C154.602 101.643 153.882 101.915 153.312 102.415C152.51 103.121 152.546 104.129 152.008 105.007C149.972 108.331 149.717 112.716 146.738 115.627C146.036 116.313 142.734 117.769 141.938 116.544C141.024 115.138 141.468 112.998 141.468 111.407C141.468 109.468 140.529 108.178 140.529 106.36C140.529 103.115 142.23 103.718 144.521 101.704C145.509 100.835 145.775 100.215 146.399 99.2272C146.961 98.338 146.393 96.871 147.573 96.2226C148.9 95.4932 149.641 94.3679 151.33 93.9748C152.25 93.7605 153.677 93.6893 153.677 92.6215C153.677 91.0622 153.26 87.5757 154.904 86.6122C156.523 85.6633 157.826 85.3965 159.782 85.3965C160.944 85.3965 162.13 86.1928 162.13 84.9837C162.13 82.781 163.069 80.7661 163.069 78.5615C163.069 74.1162 169.455 73.5917 173.296 72.5062C177.574 71.2972 181.371 66.951 186.314 68.8823C189.341 70.0652 194.602 74.303 192.418 77.7587C191.569 79.1029 189.004 83.5792 191.766 83.3093C194.932 83 197.917 80.8551 201.001 80.8551C202.461 80.8551 203.046 80.7263 204.028 81.5891C204.819 82.2851 206.562 83.3323 207.68 83.3323C208.877 83.3323 210.497 83.8058 210.497 82.4607C210.497 81.614 211.685 78.3671 210.863 77.644C208.502 75.569 199.207 78.0052 202.045 72.3916C202.655 71.185 194.363 70.5707 195.575 69.3869C196.856 68.1354 199.105 68.0566 200.871 68.0566C203.989 68.0566 204.75 69.1169 206.036 71.153C207.453 73.3947 211.09 71.0007 212.48 70.1209C214.119 69.0833 215.739 68.1729 217.176 66.9097C218.022 66.1661 219.222 63.8674 220.124 63.5151C223.504 62.1943 224.74 65.2119 227.402 65.9923" stroke="#FAC9C9" stroke-width="2.10113" stroke-linecap="round" stroke-linejoin="round"/>
<path d="M134.894 113.883C134.894 108.806 135.28 104.862 137.607 100.259C139.581 96.3545 137.107 91.5284 135.364 88.0797C134.554 86.4775 133.504 84.4867 131.607 83.653C129.477 82.7165 128.288 80.4577 130.433 79.4097C135.86 76.7591 138.105 83.1753 140.895 85.9007C144.476 89.3999 151.467 83.4967 146.53 80.4419C145.092 79.5527 143.486 77.9231 141.703 77.5748C140.417 77.3235 139.501 77.3805 139.094 76.1298C138.375 73.9155 135.062 74.0041 133.512 72.4141C132.179 71.0476 127.983 73.3105 126.807 72.2765C125.338 70.9846 126.083 68.1659 125.268 66.5882C124.899 65.8748 124.563 64.3073 124.563 63.5147C124.563 62.2075 127.005 62.924 126.807 62.4597C125.953 60.4585 127.442 58.385 125.398 56.5879C124.524 55.8193 123.31 55.5802 122.476 54.6383C121.943 54.0354 121.811 51.9547 122.92 51.9547C125.033 51.9547 127.146 51.9547 129.259 51.9547C130.584 51.9547 134.425 53.7242 134.425 55.0512C134.425 57.1041 133.955 59.4181 133.955 61.244C133.955 62.2538 133.929 63.0301 134.529 63.9276C135.104 64.7869 136.794 64.0501 137.607 64.845C139.781 66.9684 134.644 69.2947 140.321 69.2947C142.615 69.2947 145.049 68.0566 146.06 70.625C146.517 71.7862 147.263 72.7215 148.512 73.3315C150.641 74.3713 149.193 73.6966 150.495 72.5058C151.708 71.3962 152.269 71.5511 152.269 69.914C152.269 68.6632 152.568 67.2166 153.469 66.1983C155.538 63.8595 159.48 65.738 161.661 63.9276C164.019 61.9695 161.681 59.983 161.165 57.9412C160.8 56.4954 157.199 54.8737 155.817 54.4319C154.489 54.0073 154.617 52.3404 154.617 51.3584C154.617 49.7978 155.187 47.2016 154.513 45.7619C154.251 45.2042 155.321 44.317 155.791 43.904C156.142 43.5949 157.646 42.9386 157.695 42.5508C157.755 42.0776 156.619 42.2155 156.287 41.8398C153.502 38.6917 157.954 39.2684 160.252 39.1562C163.579 38.9937 161.739 35.5096 160.252 34.2019" stroke="#FAC9C9" stroke-width="2.10113" stroke-linecap="round" stroke-linejoin="round"/>
<path d="M2 173.748C4.72653 173.748 7.05465 172.923 9.74817 172.923C13.9202 172.923 13.7844 169.699 16.0876 167.555C18.371 165.43 18.2311 164.665 21.9574 164.665C26.8306 164.665 22.6565 169.884 24.801 170.422C27.1342 171.009 31.4566 167.964 32.6274 166.317C32.9764 165.826 37.8665 162.601 34.1666 162.601C32.9796 162.601 31.5648 162.804 30.41 162.578C29.5117 162.403 27.9607 160.603 28.8708 159.803C29.5895 159.171 34.3176 157.155 31.5839 156.087C28.6147 154.927 24.711 155.17 21.4878 155.17C20.5857 155.17 17.4963 155.638 17.4963 154.55C17.4963 153.263 17.9545 152.473 19.0095 151.546C20.8845 149.897 24.9403 149.803 27.3837 149.803C29.0886 149.803 30.472 150.052 32.0535 150.215C32.6547 150.278 32.6156 150.899 33.2275 151.018C33.8088 151.132 34.5117 151.041 35.1058 151.041C36.2865 151.041 37.1505 150.215 38.3929 150.215C39.5593 150.215 40.1132 152.373 40.4017 153.197C41.269 155.675 38.3793 157.192 39.1234 159.482C39.6022 160.955 43.4545 161.619 44.7323 162.28C45.7636 162.813 46.6031 164.341 47.0803 165.285C48.0687 167.24 51.9966 165.285 53.7588 164.665C54.5682 164.381 63.7082 160.92 61.4026 159.298C59.4233 157.906 66.0995 157.234 66.8029 157.234C69.7274 157.234 69.178 154.242 70.7944 153.105C71.7738 152.417 71.4419 151.165 71.4987 150.215C71.5926 148.648 73.2171 147.228 74.5511 146.316C75.0918 145.946 77.9327 145.796 78.0469 145.445C78.3598 144.482 78.8851 143.432 79.0121 142.371C79.1355 141.34 80.3555 140.515 80.4209 139.481C80.4901 138.386 79.9513 137.495 79.9513 136.385C79.9513 134.718 82.3854 134.908 82.7427 133.495C83.1616 131.837 84.5379 132.431 85.482 131.224C85.9025 130.686 87.1874 130.529 87.4386 129.756C87.8256 128.565 86.5153 127.594 87.2038 126.27C87.9055 124.92 88.4158 124.701 89.4474 123.884C90.7815 122.829 90.7518 122.895 90.7518 121.109C90.7518 120.146 90.7518 119.182 90.7518 118.219C90.7518 117.74 90.7216 117.252 90.7518 116.774C90.7773 116.369 91.8803 115.505 91.5866 115.214C91.0867 114.72 88.0315 115.123 87.3603 115.123C85.3625 115.123 85.7138 115.58 84.8559 116.98C83.9588 118.445 81.9418 119.953 81.8296 121.728C81.7881 122.386 82.2096 124.186 81.5948 124.618C81.1948 124.9 80.6988 126.752 80.4209 127.302C79.877 128.378 79.3967 129.312 78.0729 129.894C77.1166 130.314 75.9876 129.645 75.1511 130.307C74.0261 131.197 73.1837 132.066 72.9336 133.495C72.807 134.218 73.3991 136.493 72.6727 137.004C71.7762 137.635 71.0081 139.019 70.4552 139.894C69.7372 141.03 68.4085 142.355 67.4812 143.403C66.5933 144.407 64.9445 144.796 64.455 146.087" stroke="#FAC9C9" stroke-width="2.10113" stroke-linecap="round" stroke-linejoin="round"/>
<path d="M104.841 103.149C100.874 106.638 95.3281 104.483 91.2232 107.691C90.0953 108.572 86.6327 108.781 85.1186 108.929C82.5831 109.177 81.2186 111.22 80.1879 112.852C79.7662 113.519 79.9688 114.616 79.2487 115.122C78.6953 115.512 76.8835 115.843 76.666 116.177C75.5363 117.916 76.545 120.268 75.4921 121.934C74.6084 123.333 75.4156 125.444 72.6745 125.444C70.1248 125.444 69.6517 123.662 68.3178 122.049C67.2352 120.74 68.6854 115.624 69.5179 114.618C70.21 113.781 70.2895 113.301 71.5006 112.737C72.2812 112.374 73.8485 111.436 73.8485 110.581C73.8485 109.2 69.9231 107.627 68.6831 107.691C67.2204 107.766 64.9555 111.039 64.4568 112.026C63.5712 113.778 62.1088 114.837 62.1088 116.98C62.1088 117.752 61.6393 118.527 61.6393 119.457C61.6393 120.414 62.2915 120.742 62.5523 121.544C63.661 124.956 65.5277 128.703 63.4133 132.049C61.9072 134.433 59.5957 132.364 57.413 133.38C55.1626 134.427 55.3264 137.829 54.4911 139.481C53.3528 141.733 51.9906 141.545 49.43 141.545C46.0456 141.545 45.2038 137.538 45.2038 135.146C45.2038 133.692 49.071 131.823 50.604 131.224C52.7329 130.392 50.9375 127.095 53.8911 127.095C56.8897 127.095 54.8219 124.233 53.8911 122.76C53.1686 121.617 53.1867 120.746 53.1867 119.457C53.1867 117.62 54.2108 117.606 54.9607 116.361C55.8431 114.895 54.0059 113.364 53.2911 112.232C52.8333 111.508 51.2261 111.819 50.3692 111.819C48.9144 111.819 49.4248 113.423 48.4909 113.471C46.9383 113.551 45.653 113.347 44.2646 112.737C41.6257 111.577 38.0762 106.35 36.6468 110.26C35.746 112.724 35.9452 114.934 34.6642 117.187C32.9963 120.119 31.8552 121.728 28.0639 121.728C26.7919 121.728 25.079 121.446 23.8637 121.751C23.4066 121.866 22.7495 123.607 22.4027 123.999C21.1364 125.43 19.4198 124.023 18.9069 122.783C18.5024 121.805 16.8087 122.141 15.8546 122.141C14.191 122.141 11.9168 124.064 11.3936 125.444" stroke="#FAC9C9" stroke-width="2.10113" stroke-linecap="round" stroke-linejoin="round"/>
<path d="M61.1682 90.7636C63.1345 90.7636 65.6126 90.4499 67.1684 91.681C69.2146 93.3001 71.8445 93.6535 74.5514 93.6535C77.5218 93.6535 80.1305 93.0692 83.0039 93.6306C84.1577 93.856 84.3818 95.2461 85.5866 95.305C86.9562 95.3719 88.0641 94.8921 89.3433 94.8921C92.0408 94.8921 94.3647 92.9496 96.8567 92.8278C98.0506 92.7695 99.7547 92.4599 100.379 93.4471C100.804 94.1198 101.563 95.1725 102.257 95.5114C103.661 96.1971 107.999 98.195 103.9 98.195C101.273 98.195 97.2733 96.9013 94.9783 98.6308C92.6955 100.351 90.579 99.0618 88.1954 100.259C86.2177 101.253 82.8875 100.045 80.9951 99.0207C78.0438 97.4239 77.3221 99.782 75.2557 101.498C73.0232 103.352 70.3687 101.721 68.6554 100.466C66.4174 98.826 62.9664 101.498 60.9334 101.498C57.2925 101.498 56.4723 100.623 56.4723 97.3693C56.4723 95.3553 50.6496 97.7821 49.2198 97.7821C46.6711 97.7821 45.151 97.049 43.3239 95.4885C42.0019 94.3594 41.7998 93.3894 40.8716 92.0021C40.3045 91.1545 38.8693 90.9209 37.9236 91.3828C36.1348 92.2566 35.5887 90.6556 34.8713 89.6167C33.3704 87.4433 34.2957 85.2142 33.2278 83.1486C32.7797 82.282 32.7231 80.3438 33.0191 79.4329C33.3966 78.2713 38.8666 80.0293 39.802 80.0293C41.4797 80.0293 44.2631 75.6218 44.2631 74.2493C44.2631 73.0531 42.3615 72.8574 41.2368 72.5749C40.6553 72.4288 41.0059 70.1814 40.976 69.7079C40.8817 68.2168 37.2827 64.8094 36.0453 63.7214C34.8613 62.6805 29.5475 60.7354 29.7059 63.1022C29.8096 64.6528 32.3734 67.4787 33.4626 68.6757C34.5714 69.8944 35.7123 71.3705 35.8105 73.0107C35.9032 74.5591 34.0895 72.9346 33.2278 72.5979C30.4726 71.5213 28.7667 71.2567 28.7667 74.2493C28.7667 75.2814 28.7667 76.3136 28.7667 77.3457C28.7667 78.9794 27.9375 78.0735 26.8884 77.965C25.2234 77.7928 23.1317 74.9565 23.1317 73.63C23.1317 71.2694 24.6686 69.0898 23.6013 66.9784C22.3943 64.5909 19.2915 63.9279 16.5575 63.9279C13.9749 63.9279 11.3307 65.5944 8.8354 64.3407C6.88178 63.3592 5.957 61.1258 3.87866 60.2122" stroke="#FAC9C9" stroke-width="2.10113" stroke-linecap="round" stroke-linejoin="round"/>
<path d="M123.154 102.737C117.967 102.23 113.646 96.4951 112.38 92.5986C111.169 88.872 105.309 88.8363 102.492 86.6351C101.119 85.5617 98.3951 85.5531 96.6486 85.8323C95.5771 86.0036 92.6098 88.3665 91.2222 86.8415C90.2947 85.8222 86.9959 87.5801 86.9959 85.1901C86.9959 84.4175 86.6808 83.186 87.5177 82.713C88.9816 81.8855 91.3481 81.268 93.1006 81.268C95.1654 81.268 97.1131 82.2815 98.7356 80.8551C99.9784 79.7625 100.408 76.054 99.5704 74.6622C99.5331 74.6003 89.5444 74.8203 88.8743 75.1669C84.5238 77.4168 78.7669 80.385 76.1955 84.3414C75.3758 85.6026 70.7576 85.3102 69.8561 84.3414C68.576 82.966 67.7273 81.7848 66.0994 80.6716C64.5277 79.5969 61.5924 80.545 60.5948 78.7908C60.0808 77.887 58.8264 73.5448 61.1687 73.4237C63.9841 73.2781 70.7719 72.4719 73.1432 73.6301C75.6135 74.8367 75.966 75.6688 77.239 73.0108C77.9982 71.4256 78.6318 70.2008 80.9957 70.1208C82.7886 70.0602 87.6894 70.9332 88.9786 69.7997C90.0304 68.875 90.4028 66.6319 89.1352 65.5794C87.4435 64.1747 84.648 65.2574 84.648 62.6435C84.648 61.5873 84.4089 60.2293 84.6741 59.1801C84.8657 58.4223 86.2162 58.1225 86.0307 57.5516C84.7638 53.6532 77.4578 55.1645 74.3432 54.8222C72.1876 54.5853 70.5937 52.5711 69.7256 51.1294C68.8844 49.7324 65.3157 51.9551 63.9862 51.9551C57.7978 51.9551 64.8577 43.698 58.3512 43.698" stroke="#FAC9C9" stroke-width="2.10113" stroke-linecap="round" stroke-linejoin="round"/>
<path d="M112.354 62.2771C113.871 63.6107 116.11 63.667 116.11 65.9928C116.11 67.3874 115.458 70.87 116.476 71.8645C118.25 73.5983 119.71 74.7895 119.867 77.1399C119.968 78.6426 120.475 80.6223 121.98 81.6813C122.552 82.0837 123.705 83.112 124.093 83.5392C124.837 84.3565 125.972 84.2528 125.972 85.6035C125.972 86.6917 125.938 87.4976 126.441 88.4935C127.024 89.6457 128.32 89.7025 128.32 91.177C128.32 92.0031 128.039 93.3061 128.424 94.067C128.908 95.0238 129.728 95.8819 129.728 96.957C129.728 98.8707 129.33 97.5977 128.215 96.957C127.121 96.328 125.83 95.4243 124.772 94.8928C123.223 94.1147 118.346 94.2845 117.519 93.012C116.29 91.1215 117.222 88.4377 117.884 86.5439C119.017 83.309 115.611 81.9894 112.823 80.7639C112.066 80.4311 110.046 80.3194 110.58 79.2042C111.022 78.2803 111.522 75.5763 110.449 74.8692C107.348 72.8244 105.31 71.7582 105.31 68.08C105.31 67.0079 105.663 65.9567 104.579 65.3506C102.915 64.4192 101.073 63.506 99.6749 62.2771C98.6103 61.3411 97.7029 60.7865 97.7966 59.3871C97.8503 58.584 99.8126 58.0473 100.249 57.3228C101.421 55.3765 100.625 51.8815 99.9097 49.8684C99.315 48.1952 99.1961 46.334 99.9097 44.7307C100.541 43.3123 101.725 42.9985 102.492 41.8177C103.479 40.2992 108.056 37.812 110.215 38.3543C110.752 38.4893 112.638 38.6272 113.032 38.9736C113.756 39.61 113.061 41.0247 113.319 41.8177C113.799 43.2937 119.693 39.4936 120.545 38.7442C121.4 37.9925 123.154 36.9041 123.154 35.8542C123.154 34.4206 124.315 34.6157 125.607 34.6157C128.765 34.6157 128.32 31.672 128.32 29.4779C128.32 27.6862 127.85 25.9351 127.85 24.1108C127.85 23.1044 124.987 23.1414 124.354 23.6979C123.396 24.5402 121.133 27.0251 120.832 28.2164C120.587 29.1883 120.593 30.6954 119.398 31.2211C115.622 32.8809 117.244 29.4793 115.171 28.5146C112.615 27.3246 112.111 29.8246 110.945 31.1064C109.224 32.9973 103.599 27.496 105.101 26.1751C107.031 24.4782 110.047 23.9277 112.354 22.7346C113.092 22.3529 113.521 21.5706 114.336 21.3125C115.138 21.0589 117.472 21.2629 117.884 20.5786C118.2 20.054 118.33 17.4448 117.884 16.9546C117.068 16.0578 115.081 15.9576 113.997 15.005C111.768 13.0448 112.687 10.3353 114.467 8.42221C115.46 7.35498 115.964 7.26191 115.406 5.69277C115.019 4.60467 115.006 2.54661 113.763 2" stroke="#FAC9C9" stroke-width="2.10113" stroke-linecap="round" stroke-linejoin="round"/>
</svg>
